<?xml version="1.0" encoding="UTF-8"?>
<!DOCTYPE svg PUBLIC "-//W3C//DTD SVG 1.1//EN" "http://www.w3.org/Graphics/SVG/1.1/DTD/svg11.dtd">
<!-- Creator: CorelDRAW 2020 (64 Bit) -->
<svg xmlns="http://www.w3.org/2000/svg" xml:space="preserve" width="160px" height="44px" version="1.1" style="shape-rendering:geometricPrecision; text-rendering:geometricPrecision; image-rendering:optimizeQuality; fill-rule:evenodd; clip-rule:evenodd"
viewBox="0 0 1270 352.48"
 xmlns:xlink="http://www.w3.org/1999/xlink"
 xmlns:xodm="http://www.corel.com/coreldraw/odm/2003">
 <defs>
  <style type="text/css">
   <![CDATA[
    .fil0 {fill:#FEFEFE;fill-rule:nonzero}
   ]]>
  </style>
 </defs>
 <g id="Camada_x0020_1">
  <metadata id="CorelCorpID_0Corel-Layer"/>
  <path class="fil0" d="M7.56 244.62l-6.65 -51.73 120.14 0 0 -50.11 -60.74 0c-33.26,0 -60.31,-27.05 -60.31,-60.3l0 -22.18c0,-33.25 27.05,-60.3 60.31,-60.3l105.95 0 6.65 51.72 -113.05 0 0 39.48 60.74 0c33.25,0 60.31,27.05 60.31,60.3l0 32.81c0,33.25 -27.06,60.31 -60.31,60.31l-113.04 0z"/>
  <path class="fil0" d="M271.15 244.62c-33.25,0 -60.31,-27.06 -60.31,-60.31l0 -184.31 59.87 0 0 192.89 76.16 0 0 -192.89 59.87 0 0 184.31c0,33.25 -27.06,60.31 -60.31,60.31l-75.28 0z"/>
  <path class="fil0" d="M967.02 192.89l-92.92 0 0 -141.17 92.92 0 0 141.17zm-0.45 -192.89l-92.03 0c-33.25,0 -60.31,27.06 -60.31,60.31l0 124c0,33.25 27.06,60.3 60.31,60.3l92.03 0c33.26,0 60.32,-27.05 60.32,-60.3l0 -124c0,-33.25 -27.06,-60.31 -60.32,-60.31z"/>
  <path class="fil0" d="M582.7 193.03l-86.16 0 0 -141.31 61.03 0 0 39.34 -27.38 0 -6.65 51.72 59.16 0 0 50.25zm31.96 -92.47c1.8,-5.71 2.78,-11.78 2.78,-18.08l0 -22.18c0,-33.25 -27.06,-60.3 -60.31,-60.3l-60.59 0 -59.87 0 0 244.62 145.59 0c33.31,0 60.31,-27 60.31,-60.31l0 -32.94c0,-21.37 -11.15,-40.1 -27.91,-50.81z"/>
  <path class="fil0" d="M723.99 0l-44.84 0 -6.65 51.72 51.93 0 0 192.9 59.87 0 0 -184.32c0,-33.25 -27.06,-60.3 -60.31,-60.3z"/>
  <path class="fil0" d="M1210.14 192.89l-92.92 0 0 -141.17 92.92 0 0 141.17zm-0.45 -192.89l-92.03 0c-33.25,0 -60.31,27.06 -60.31,60.31l0 124c0,33.25 27.06,60.3 60.31,60.3l92.03 0c33.26,0 60.31,-27.05 60.31,-60.3l0 -124c0,-33.25 -27.05,-60.31 -60.31,-60.31z"/>
  <path class="fil0" d="M462.94 304.47l0 47.54 24.56 0 0 -7.56 -15.27 0 0 -39.98 -9.29 0zm94.09 23.63c0,-14.23 -10.48,-24.31 -23.7,-24.31 -13.07,0 -23.76,10.08 -23.76,24.31 0,14.3 10.69,24.38 23.76,24.38 13.15,0 23.7,-10.08 23.7,-24.38zm-37.9 0c0,-9.67 5.78,-15.73 14.2,-15.73 8.37,0 14.14,6.06 14.14,15.73 0,9.67 -5.77,15.87 -14.14,15.87 -8.42,0 -14.2,-6.2 -14.2,-15.87zm60.77 -15.94l12.35 0 0 39.85 9.29 0 0 -39.85 12.35 0 0 -7.69 -33.99 0 0 7.69zm86.06 -7.76l-26.88 0 0 47.61 26.88 0 0 -7.77 -17.59 0 0 -12.6 15.6 0 0 -7.56 -15.6 0 0 -11.92 17.59 0 0 -7.76zm58.32 47.61l9.82 0 -16.66 -47.61 -10.82 0 -16.66 47.61 9.75 0 3.06 -9.06 18.45 0 3.06 9.06zm-5.58 -16.69l-13.41 0 6.7 -19.89 6.71 19.89zm40.06 16.69l9.29 0 0 -30.92 12.48 30.92 7.04 0 12.41 -30.92 0 30.92 9.3 0 0 -47.54 -10.49 0 -14.74 35.34 -14.74 -35.34 -10.55 0 0 47.54zm104.98 -47.61l-26.89 0 0 47.61 26.89 0 0 -7.77 -17.59 0 0 -12.6 15.6 0 0 -7.56 -15.6 0 0 -11.92 17.59 0 0 -7.76zm57.19 0l0 32.69 -21.05 -32.69 -9.29 0 0 47.61 9.29 0 0 -32.63 21.05 32.63 9.29 0 0 -47.61 -9.29 0zm34.41 7.76l12.35 0 0 39.85 9.29 0 0 -39.85 12.35 0 0 -7.69 -33.99 0 0 7.69zm104.39 15.94c0,-14.23 -10.49,-24.31 -23.7,-24.31 -13.08,0 -23.77,10.08 -23.77,24.31 0,14.3 10.69,24.38 23.77,24.38 13.14,0 23.7,-10.08 23.7,-24.38zm-37.91 0c0,-9.67 5.78,-15.73 14.21,-15.73 8.36,0 14.14,6.06 14.14,15.73 0,9.67 -5.78,15.87 -14.14,15.87 -8.43,0 -14.21,-6.2 -14.21,-15.87zm95.62 10.15c0,-16.76 -23.76,-11.44 -23.76,-20.98 0,-3.88 2.72,-5.72 6.37,-5.58 3.98,0.07 6.44,2.52 6.64,5.65l10.22 0c-0.6,-8.58 -7.1,-13.55 -16.59,-13.55 -9.56,0 -16.33,5.17 -16.33,13.75 -0.07,17.24 23.83,11.04 23.83,21.32 0,3.41 -2.59,5.79 -6.97,5.79 -4.32,0 -6.77,-2.52 -7.04,-6.33l-9.96 0c0.14,8.99 7.57,14.16 17.2,14.16 10.55,0 16.39,-6.74 16.39,-14.23z"/>
 </g>
</svg>
