<?xml version="1.0" encoding="UTF-8"?>
<!DOCTYPE svg PUBLIC "-//W3C//DTD SVG 1.1//EN" "http://www.w3.org/Graphics/SVG/1.1/DTD/svg11.dtd">
<!-- Creator: CorelDRAW 2020 (64 Bit) -->
<svg xmlns="http://www.w3.org/2000/svg" xml:space="preserve" width="104.374mm" height="104.962mm" version="1.1" style="shape-rendering:geometricPrecision; text-rendering:geometricPrecision; image-rendering:optimizeQuality; fill-rule:evenodd; clip-rule:evenodd"
viewBox="0 0 10437.44 10496.22"
 xmlns:xlink="http://www.w3.org/1999/xlink"
 xmlns:xodm="http://www.corel.com/coreldraw/odm/2003">
 <defs>
  <style type="text/css">
   <![CDATA[
    .fil0 {fill:#C8C5E2;fill-rule:nonzero}
   ]]>
  </style>
 </defs>
 <g id="Camada_x0020_1">
  <metadata id="CorelCorpID_0Corel-Layer"/>
  <g id="_1497789558832">
   <g>
    <path class="fil0" d="M7273.56 10337.66c852.09,464.78 2679.84,-56.69 3042.7,-2037.3 373.1,-2036.43 -687.91,-2090.19 -502.71,-2831.03 743.28,-1103.71 875.8,-2512.25 105.84,-3360.2 -1904.99,-1984.37 -2381.24,396.88 -3968.73,-1058.33 -641.8,-641.79 -1613.96,-1402.28 -3016.24,-873.12 -1982.61,748.15 -1508.12,2309.53 -1508.12,3439.57 0,397.88 -1263.79,1145.86 -1402.28,2169.58 -174.64,1290.79 635,2989.78 1402.28,3571.87 1217.08,1375.82 3095.62,1058.33 3942.27,582.07 727.01,-408.94 1322.91,79.38 1904.99,396.88l0 0.01z"/>
   </g>
  </g>
 </g>
</svg>
