<svg xmlns="http://www.w3.org/2000/svg" xml:space="preserve" width="160px" height="44px" style="shape-rendering:geometricPrecision;text-rendering:geometricPrecision;image-rendering:optimizeQuality;fill-rule:evenodd;clip-rule:evenodd" viewBox="0 0 1354.7 372.5"><path class="fil0" d="m8 261-7-55h128v-54H64c-35 0-64-29-64-64V64C0 29 29 0 64 0h113l7 55H64v42h65c35 0 64 29 64 65v35c0 35-29 64-64 64H8zm486 60v51h26v-8h-16v-43h-10zm100 26c0-16-11-26-25-26s-25 10-25 26c0 15 11 26 25 26s25-11 25-26zm-40 0c0-11 6-17 15-17s15 6 15 17c0 10-6 16-15 16s-15-6-15-16zm65-17h13v42h10v-42h13v-9h-36v9zm91-9h-28v51h28v-8h-18v-14h16v-8h-16v-12h18v-9zm63 51h10l-18-51h-11l-18 51h10l4-10h19l4 10zm-6-18h-15l7-21 8 21zm42 18h10v-33l14 33h7l13-33v33h10v-51h-11l-16 38-15-38h-12v51zm112-51h-28v51h28v-8h-18v-14h16v-8h-16v-12h18v-9zm61 0v35l-22-35h-10v51h10v-35l22 35h10v-51h-10zm37 9h13v42h10v-42h13v-9h-36v9zm111 17c0-16-11-26-25-26s-25 10-25 26c0 15 11 26 25 26s25-11 25-26zm-40 0c0-11 6-17 15-17s15 6 15 17c0 10-6 16-15 16s-15-6-15-16zm102 10c0-18-25-12-25-22 0-4 3-6 6-6 5 0 7 3 7 6h11c0-9-7-14-17-14-11 0-18 5-18 14 0 19 26 12 26 23 0 4-3 6-8 6-4 0-7-3-7-7h-11c0 10 8 16 18 16 12 0 18-8 18-16zm99-151h-99V55h99v151zm-1-206h-98c-35 0-64 29-64 64v133c0 35 29 64 64 64h98c36 0 65-29 65-64V64c0-35-29-64-65-64zM772 0h-48l-7 55h56v206h64V64c0-35-29-64-65-64zM622 206h-92V55h65v42h-29l-8 55h64v54zm34-99c2-6 3-12 3-19V64c0-35-29-64-65-64H466v261h155c36 0 64-29 64-64v-36c0-22-11-42-29-54zm376 99H932V55h100v151zm-1-206h-98c-36 0-64 29-64 64v133c0 35 28 64 64 64h98c35 0 64-29 64-64V64c0-35-29-64-64-64zM289 261c-35 0-64-29-64-64V0h64v206h81V0h64v197c0 35-29 64-64 64h-81z"/></svg>