<svg xmlns="http://www.w3.org/2000/svg" xml:space="preserve" width="770" height="411" style="shape-rendering:geometricPrecision;text-rendering:geometricPrecision;image-rendering:optimizeQuality;fill-rule:evenodd;clip-rule:evenodd" viewBox="0 0 770 411.2"><defs><clipPath id="id0"><path d="M16 0h738c9 0 16 7 16 16v380c0 8-7 15-16 15H16c-9 0-16-7-16-15V16C0 7 7 0 16 0z"/></clipPath><style>.fil10{fill:none}.fil2{fill:#01aaac}.fil4{fill:#212121}.fil8{fill:#686af0}.fil3{fill:#f79f67}.fil5{fill:#fbafad}.fil11{fill:#fff}</style></defs><g id="__x0023_Layer_x0020_1"><g id="_3128578550944"><path d="M16 0h738c9 0 16 7 16 16v380c0 8-7 15-16 15H16c-9 0-16-7-16-15V16C0 7 7 0 16 0z" style="fill:#5d5fef"/><g style="clip-path:url(#id0)"><path id="1" d="m321 198 2 2-2 2h-4v4l-2 2-2-2v-4h-4l-2-2 2-2h4v-4a2 2 0 1 1 4 0v4h4zm-90 89 2 2-2 2h-4v4l-2 2-2-2v-4h-4l-2-2 2-2h4v-4a2 2 0 1 1 4 0v4h4zm102 68a6 6 0 0 1 0 12 6 6 0 0 1 0-12zm-78-155a5 5 0 1 1 0 10 5 5 0 0 1 0-10zm151-27c14 0 24 11 24 26 0 14-10 26-24 26-13 0-24-12-24-26 0-15 11-26 24-26zm10 103a3 3 0 0 1 0 5h-6v7a3 3 0 1 1-6 0v-7h-6l-3-2c0-2 2-3 3-3h6v-6c0-2 2-3 3-3 2 0 3 1 3 3v6h6zM77 191h-7v-6c0-2-1-3-2-3-2 0-3 1-3 3v6h-6a3 3 0 0 0 0 6h6v6a3 3 0 0 0 5 0v-6h7l2-3c0-2-1-3-2-3zm-12 88a18 18 0 1 1 0 37 18 18 0 0 1 0-37zm260-105H141a20 20 0 0 0-3 39l43 1c18 0 33 14 33 32 0 17-15 32-33 32h-61c-9 2-15 10-15 19 0 10 8 19 18 20h19c16 0 30 14 30 30s-14 29-30 29h-19v1h-16c-22 0-42 14-50 34h316l-3-15c0-20 16-37 36-37h67c9-4 16-13 16-24 0-13-9-24-21-27H322c-22 0-41-18-41-40 0-23 19-41 41-41h10c11-3 20-14 20-26 0-15-12-27-27-27z" style="fill:#8385f3"/><path class="fil2" d="M62 231s61-16 125-7c19 3 35 14 44 29 18 28 43 78 38 130l-28 7s-19-62-41-87c0 0-25 58-24 90v3c3 31-122 6-122 6l8-171z"/><path class="fil3" d="m128 178-13 42c-1 4 0 8 3 10 7 5 20 14 37 14 3 0 6-3 6-6l5-69-38 9z"/><path class="fil3" d="M178 133s5 33 2 48c-3 16-3 27-21 25-19-2-31-14-35-32 0 0-7-27-2-36 6-9 56-5 56-5z"/><path class="fil4" d="M133 165h2s-4-21 5-22 42 0 52-9 8-25 0-32l-2 1-1 1c-1 1-2 0-2-1s-1-2-2-1c-3 3-10 7-27 6-23-2-39 3-44 18l-2 1c-1-2-4-3-8-1-7 4-8 17 2 32v2c-3 1-8 3 0 11 8 7 14 8 16 8l2-1 2-14h2l5 1z"/><path class="fil5" d="M132 168s0-20-9-17c-10 3-1 22 5 24l4-7z"/><path class="fil2" d="M62 355c-3-19 17-47 25-58 3-3 4-6 4-10 0-27-11-45-29-56 0 0-66 77-50 136 2 6 5 12 9 16 2-22 28-27 41-28z"/><path d="M63 348h-2c2-19 18-42 25-51l2 1c-6 9-23 32-25 50z" style="fill:#018083"/><path class="fil3" d="m63 358-1-3c-13 1-39 6-41 28 29 39 110 25 110 25v-15s-62-11-68-35z"/><path class="fil3" d="M124 404s12-28 33-18 19 17 19 17l-52 1z"/><path class="fil4" d="m169 255-16 118c0 3 2 6 5 6l176-1c3 0 5-2 5-4l29-114c1-3-2-6-5-6l-189-4c-3 0-5 2-5 5z"/><path d="m245 330-27 77 61 1 5-75c1-3-2-6-6-6l-28-1c-3 0-5 2-5 4z" style="fill:#777"/><path class="fil4" d="M128 412h162c3 0 5-1 5-3v-4c0-2-2-3-5-3l-114 1-48 1c-9 0-9 8 0 8z"/><path class="fil5" d="M161 189c-20 1-31-19-32-19l2-1s11 20 30 18v2z"/><path class="fil8" d="m169 188-2 2h-6a2 2 0 0 1 0-4h6l2 2zM131 147s7-36 28-40c0 0-6-3-12 1-6 3-22 21-21 40 4 2 5-1 5-1z"/><path d="M127 145c-11 3-9 16-9 16-1 10 2 15 6 18a9 9 0 0 0 13-7v-6c1-3 1-23-10-21z" style="fill:#373ef5"/><path class="fil8" d="M128 149c-2-1-4 1-5 3-7 15 1 25 5 25s4-20 3-25c0-2-1-3-3-3z"/><path class="fil10" d="M253 350c0-6 4-11 9-11 6 0 10 5 10 11 0 5-4 10-10 10-5 0-9-5-9-11z" style="stroke:#212121;stroke-width:3.74;stroke-linecap:round;stroke-linejoin:round;stroke-miterlimit:10"/><path class="fil2" d="M521 198h733a144 144 0 1 1 0 289H521a144 144 0 0 1 0-289z" style="stroke:#fff;stroke-width:5.61;stroke-linejoin:round;stroke-miterlimit:22.9256"/></g><path class="fil10" d="M16 0h738c9 0 16 7 16 16v380c0 8-7 15-16 15H16c-9 0-16-7-16-15V16C0 7 7 0 16 0z"/><path class="fil11" d="M592 362a41 41 0 0 0 22 1l6-3 4-5c2-2 2-4 2-7l-1-6-4-4-6-3a69 69 0 0 0-13-3l-2-1-2-1v-2l1-2 4-1 7 1 7 4 8-10-10-5a38 38 0 0 0-20 0l-6 3a14 14 0 0 0-6 11l2 7 4 4 6 3a88 88 0 0 0 12 3l3 1 1 1 1 1v1l-2 2-4 1c-6 0-12-2-17-6l-8 9c3 3 7 5 11 6zM631 349l6 8 9 6 11 1a34 34 0 0 0 22-7v-22h-23v11h10v5l-8 2-6-1-4-3-3-4-1-5 1-5 3-5a13 13 0 0 1 9-3 19 19 0 0 1 12 4l9-10-9-5c-4-2-7-2-12-2-4 0-8 0-11 2a26 26 0 0 0-15 13l-2 10 2 10zM723 364v-13h-26v-37h-13v50zM587 282c0-2 2-4 4-4 3 0 5 1 7 3l1-2c-2-2-4-3-8-3s-7 3-7 6 3 5 8 6c4 1 5 2 5 4s-2 4-5 4-5-1-7-3l-2 2 9 3c5 0 8-2 8-6 0-3-3-5-7-6-5-1-6-2-6-4zM603 276v22h2v-22zM612 282c0-2 2-4 5-4l6 3 2-2c-3-2-5-3-8-3-4 0-7 3-7 6s2 5 7 6 6 2 6 4-2 4-5 4-5-1-8-3l-1 2c3 2 5 3 9 3s7-2 7-6c0-3-2-5-7-6s-6-2-6-4zM637 279h7v-3h-17v3h7v19h3zM663 276h-15v22h16v-2h-14v-8h12v-2h-12v-7h13zM685 280v18h3v-22h-3l-8 12-7-12h-3v22h2v-17l8 11zM706 290h-9l5-11 4 11zm-3-14h-3l-9 22h2l3-6h11l3 6h3l-10-22zM496 263l-27 16v47l27 16 28-16v-47zM464 329l54 32-22 14-54-32zM549 340l-21-13-27 16 22 13zM324 45c-7 0-12 5-12 12s5 12 12 12c6 0 11-5 11-11v-2h-12v2h10c0 6-4 9-9 9s-9-4-9-10 4-10 9-10c4 0 7 2 8 5h3c-2-4-6-7-11-7zM341 60c0-5 4-8 7-8 4 0 7 3 7 8s-3 7-7 7c-3 0-7-2-7-7zm16 0c0-6-4-10-9-10s-9 4-9 10 4 9 9 9 9-3 9-9zM374 64c0-6-11-4-11-9 0-1 2-3 4-3 3 0 4 2 4 4h3c0-4-3-6-7-6s-6 2-6 5c0 7 11 4 11 9 0 2-2 3-4 3-3 0-5-1-5-3h-3c0 3 3 5 8 5 3 0 6-2 6-5zM379 64c0 4 2 5 5 5h2v-2h-2c-2 0-3-1-3-3V52h5v-2h-5v-4h-2v4h-3v2h3v12zM392 60c0-5 3-8 7-8s7 3 7 8-4 7-7 7c-4 0-7-2-7-7zm16 0c0-6-4-10-9-10s-9 4-9 10 4 9 9 9 9-3 9-9zM428 50h-2v10c0 5-3 7-6 7-4 0-6-2-6-6V50h-2v11c0 6 3 8 7 8 3 0 6-1 7-3v3h2V50zM458 60c0 4-3 7-7 7s-7-3-7-7c0-5 3-8 7-8s7 3 7 8zm-16 0c0 5 4 9 9 9 3 0 6-2 7-4v4h2V44h-2v10c-1-2-4-4-7-4-5 0-9 4-9 10zM467 60c0-5 3-8 7-8 3 0 7 3 7 8s-4 7-7 7c-4 0-7-2-7-7zm16 0c0-6-4-10-9-10s-9 4-9 10 3 9 9 9c5 0 9-3 9-9zM513 62c0-8-12-6-12-10 0-2 1-3 3-3s3 1 3 3h6c-1-5-4-7-9-7s-8 3-8 7c0 8 12 5 12 10 0 2-1 3-4 3-2 0-3-1-3-3h-5c0 5 4 7 8 7 6 0 9-3 9-7zM520 48c1 0 3-1 3-3l-3-3c-2 0-3 2-3 3 0 2 1 3 3 3zm-3 21h5V50h-5v19zM542 64c0-7-11-5-11-9l3-1c2 0 3 1 3 2h5c-1-4-3-6-8-6s-7 2-7 5c0 7 10 5 10 9 0 1-1 2-3 2l-3-3h-5c0 4 4 6 8 6 5 0 8-2 8-5zM546 63c0 4 3 6 6 6h3v-4h-2l-2-2v-9h4v-4h-4v-4h-5v4h-2v4h2v9zM575 63h-5l-4 2c-2 0-4-1-4-4h14v-2c0-5-4-9-9-9-6 0-10 4-10 10 0 5 4 9 10 9 4 0 7-2 8-6zm-9-9c3 0 5 1 5 4h-9c0-3 2-4 4-4zM606 69h4V58c0-5-3-8-7-8-3 0-5 1-7 4-1-3-3-4-6-4l-6 2v-2h-5v19h5V59c0-3 2-5 4-5 3 0 5 2 5 5v10h4V59c0-3 2-5 5-5 2 0 4 2 4 5v10zM628 60c0 3-2 5-5 5-2 0-5-2-5-6 0-3 3-5 5-5 3 0 5 2 5 6zm-14-1c0 6 3 10 8 10 3 0 5-1 6-3v3h5V50h-5v3c-1-2-3-3-6-3-5 0-8 4-8 9zM662 62c0-8-12-6-12-10 0-2 2-3 3-3 2 0 4 1 4 3h5c0-5-4-7-8-7-5 0-9 3-9 7 0 8 12 5 12 10 0 2-1 3-3 3s-4-1-4-3h-5c0 5 4 7 9 7s8-3 8-7zM678 45c-7 0-12 5-12 12s5 12 12 12c6 0 10-4 11-9v-4h-12v3h8c-1 4-3 6-7 6s-7-3-7-8 3-8 7-8c2 0 4 1 5 3h6c-2-4-6-7-11-7zM692 45v24h13v-4h-8V45zM713 67l-1-1-2 1 2 2 1-2zm-6-15h2c0-3 2-5 5-5s5 2 5 5c0 5-4 5-7 5h-1v6h2v-4c5 0 8-2 8-7 0-4-3-7-7-7s-7 3-7 7z"/><g><path class="fil11" d="M359 98c0 7 5 12 11 12 5 0 9-3 11-7h-3c-1 3-4 5-8 5-5 0-9-4-9-10s4-10 9-10c4 0 7 2 8 5h3c-2-5-5-7-11-7s-11 5-11 12zM387 110h2V85h-2zM395 88l1-2-1-2-2 2 2 2zm-1 22h2V91h-2v19zM416 100c0 5-3 8-7 8s-7-3-7-8c0-4 3-7 7-7s7 3 7 7zm-16 0c0 6 3 10 8 10 4 0 7-2 8-5v13h2V91h-2v4c-1-2-4-4-8-4-5 0-8 3-8 9zM439 91h-2v10c0 5-3 7-6 7s-6-2-6-6V91h-2v11c0 5 3 8 8 8 2 0 5-1 6-4v4h2V91zM461 104h-3c0 2-3 4-6 4s-6-2-6-7h15v-2c0-4-3-8-9-8-5 0-9 3-9 9s4 10 9 10 8-3 9-6zm-9-11c4 0 7 2 7 6h-13c0-4 3-6 6-6zM492 104h-3c0 2-2 4-6 4-3 0-6-2-6-7h15v-2c0-4-3-8-9-8-5 0-9 3-9 9s4 10 9 10 8-3 9-6zm-9-11c4 0 7 2 7 6h-13c0-4 3-6 6-6zM521 100c0 5-3 8-6 8-4 0-7-3-7-8 0-4 3-7 7-7 3 0 6 3 6 7zm-16 0c0 6 4 10 9 10 4 0 6-2 7-5v5h3V91h-3v4c-1-2-3-4-7-4-5 0-9 3-9 9zM544 100c0 5-3 8-7 8s-7-3-7-8c0-4 3-7 7-7s7 3 7 7zm-16 0c0 6 4 10 9 10 3 0 6-2 7-5v5c0 4-3 7-6 7-4 0-6-2-7-5h-2c1 4 4 7 9 7s8-4 8-9V91h-2v4c-1-2-4-4-7-4-5 0-9 3-9 9zM568 104h-3c0 2-2 4-5 4-4 0-7-2-7-7h15v-2c0-4-3-8-8-8-6 0-10 3-10 9s4 10 10 10c4 0 7-3 8-6zm-9-11c4 0 7 2 7 6h-13c0-4 3-6 6-6zM587 110h2V99c0-6-3-8-8-8-2 0-5 1-6 3v-3h-2v19h2V99c0-4 2-6 6-6 3 0 6 2 6 6v11zM609 100c0 5-3 8-7 8s-7-3-7-8c0-4 3-7 7-7s7 3 7 7zm-16 0c0 6 4 10 9 10 3 0 6-2 7-5v5h2V85h-2v10c-1-2-4-4-7-4-5 0-9 3-9 9zM633 104h-3c0 2-2 4-6 4-3 0-6-2-6-7h15v-2c0-4-3-8-9-8-5 0-9 3-9 9s4 10 9 10 8-3 9-6zm-9-11c4 0 7 2 7 6h-13c0-4 3-6 6-6zM663 91h-2v10c0 5-2 7-6 7-3 0-5-2-5-6V91h-3v11c0 5 4 8 8 8 3 0 5-1 6-4v4h2V91zM696 110h2V99c0-6-3-8-7-8-3 0-6 1-7 4-1-3-4-4-7-4-2 0-5 1-6 3v-3h-2v19h2v-10c0-5 2-7 6-7 3 0 5 2 5 6v11h2v-10c0-5 3-7 6-7s6 2 6 6v11zM719 100c0 5-3 8-7 8s-7-3-7-8c0-4 3-7 7-7s7 3 7 7zm-16 0c0 6 4 10 9 10 3 0 6-2 7-5v5h2V91h-2v4c-1-2-4-4-7-4-5 0-9 3-9 9z"/></g><g><path class="fil11" d="M477 141c0 3-2 5-5 5s-5-2-5-5c0-4 2-6 5-6s5 2 5 6zm-15 0c0 6 4 9 9 9 3 0 5-1 6-3v3h5v-25h-5v9c-1-2-4-3-6-3-5 0-9 4-9 10zM503 144h-5c-1 2-2 3-4 3s-4-2-4-5h13v-2c0-5-3-9-9-9-5 0-9 4-9 10s4 9 9 9 8-2 9-6zm-9-9c2 0 4 2 4 4h-8c0-3 2-4 4-4zM533 150h5v-11c0-5-3-8-8-8-2 0-5 2-6 4-1-3-4-4-7-4-2 0-4 1-5 3v-3h-5v19h5v-10c0-3 1-5 4-5s4 2 4 5v10h5v-10c0-3 2-5 4-5 3 0 4 2 4 5v10zM546 141c0-4 2-6 5-6 2 0 5 2 5 6s-3 5-5 5c-3 0-5-1-5-5zm14 0c0-6-4-10-9-10-6 0-10 4-10 10s4 9 10 9c5 0 9-3 9-9zM577 150h4v-11c0-5-3-8-7-8-3 0-5 1-6 3v-3h-4v19h4v-10c0-3 2-5 4-5 3 0 5 2 5 5v10zM601 145c-1-7-11-5-11-8 0-1 1-2 3-2s3 1 3 2h4c0-3-3-6-7-6-5 0-8 3-8 6 0 7 11 4 11 8 0 1-1 2-3 2s-3-1-3-3h-5c0 4 4 6 8 6 5 0 8-2 8-5zM605 144c0 5 3 6 6 6h3v-4h-2c-2 0-2 0-2-2v-9h4v-4h-4v-4h-5v4h-2v4h2v9zM622 141c0-4 2-5 4-5h2v-5c-3 0-5 1-6 3v-3h-5v19h5v-9zM645 141c0 3-3 5-5 5-3 0-5-2-5-5 0-4 2-6 5-6 2 0 5 2 5 6zm-15 0c0 6 4 9 9 9 2 0 5-1 6-3v3h5v-19h-5v3c-1-1-3-3-6-3-5 0-9 4-9 10zM653 141c0 5 3 9 7 9v4h2l2 1-2 1h-4v3h5c2 0 5-1 5-4 0-2-3-3-5-3v-2c4 0 7-3 8-6h-5c-1 2-2 2-4 2-3 0-5-2-5-5 0-4 2-6 5-6 2 0 3 1 4 3h5c-1-4-5-7-9-7-6 0-9 4-9 10zM677 130h2l2-2 4 2c2 0 4-2 4-5h-3l-1 2-4-2c-2 0-4 2-4 5zm10 11c0 3-2 5-5 5-2 0-5-2-5-5 0-4 3-6 5-6 3 0 5 2 5 6zm-15 0c0 6 4 9 9 9 3 0 5-1 6-3v3h5v-19h-5v3c-1-1-3-3-6-3-5 0-9 4-9 10zM700 141c0-4 2-6 4-6 3 0 5 2 5 6s-2 5-5 5c-2 0-4-1-4-5zm14 0c0-6-4-10-9-10-6 0-10 4-10 10s4 9 9 9c6 0 10-3 10-9zM721 149l-1-2-2 2 2 1 1-1zm-3-5h2l1-17h-3v17z"/></g></g></g></svg>