<svg xmlns="http://www.w3.org/2000/svg" xml:space="preserve" width="1918" height="364" style="shape-rendering:geometricPrecision;text-rendering:geometricPrecision;image-rendering:optimizeQuality;fill-rule:evenodd;clip-rule:evenodd" viewBox="0 0 1917.7 363.7"><defs><clipPath id="id0"><path d="M21 64h1875c12 0 22 10 22 22v255c0 11-10 21-22 21H21c-11 0-21-10-21-21V86c0-12 10-22 21-22z"/></clipPath><style>.fil3{fill:none}.fil1{fill:#01aaac}.fil6{fill:#212121}.fil10{fill:#686af0}.fil5{fill:#f79f67}.fil7{fill:#fbafad}.fil2{fill:#fff}</style></defs><g id="__x0023_Layer_x0020_1"><g id="_3127830490672"><path d="M21 64h1875c12 0 22 10 22 22v255c0 11-10 21-22 21H21c-11 0-21-10-21-21V86c0-12 10-22 21-22z" style="fill:#5d5fef"/><g style="clip-path:url(#id0)"><path id="1" class="fil1" d="M1544 43h881a174 174 0 1 1 0 347h-881a174 174 0 0 1 0-347z" style="stroke:#fff;stroke-width:6.61;stroke-linejoin:round;stroke-miterlimit:22.9256"/><path class="fil2" d="M1655 261a49 49 0 0 0 26 1l8-4c3-1 4-3 5-6 2-2 2-5 2-8l-1-7-5-5-7-4a82 82 0 0 0-15-3l-3-2-2-1-1-2 2-2 5-2 8 2 9 4 9-11-12-6a45 45 0 0 0-24-1l-8 4a17 17 0 0 0-6 13v1l2 7 5 5 7 4a105 105 0 0 0 15 3l3 2 1 1 1 1v1l-2 3-5 1c-7 0-14-3-20-7l-10 10c4 4 8 6 13 8zM1703 245l7 10c3 3 6 5 11 6 4 2 8 3 13 3a45 45 0 0 0 27-9l-1-26h-28v12h12v6c-2 2-5 3-9 3l-7-2c-2 0-4-1-5-3l-4-5-1-6a15 15 0 0 1 5-11 15 15 0 0 1 11-5 23 23 0 0 1 14 5l10-11-10-7c-4-2-9-2-14-2s-10 0-14 2a31 31 0 0 0-17 16l-3 12c0 5 1 9 3 12zM1812 264v-16h-30v-45h-16v61z"/><g><path class="fil2" d="M1649 164c0-2 2-4 6-4 2 0 5 1 7 3l2-2c-3-3-6-4-9-4-5 0-9 3-9 7 0 5 3 7 9 8 5 1 7 2 7 5 0 2-3 4-6 4-4 0-6-1-9-3l-2 2c3 2 7 4 11 4 5 0 9-3 9-8 0-3-3-6-9-7s-7-2-7-5zM1669 158v25h3v-25zM1680 164c0-2 2-4 5-4s5 1 8 3l1-2c-2-3-5-4-9-4-5 0-8 3-8 7 0 5 3 7 9 8 5 1 6 2 6 5 0 2-2 4-6 4-3 0-6-1-8-3l-2 2c3 2 6 4 10 4 6 0 9-3 9-8 0-3-2-6-8-7s-7-2-7-5zM1709 160h9v-2h-21v2h9v23h3zM1741 158h-19v25h19v-2h-16v-9h14v-3h-14v-9h16zM1768 163v20h3v-25h-3l-10 14-9-14h-3v25h2v-20l10 13zM1793 174h-12l6-13 6 13zm-5-16h-2l-12 25h3l3-6h14l3 6h3l-12-25z"/></g><g><path class="fil2" d="m1540 142-33 19v57l33 19 33-19v-57zM1501 221l65 39-26 16-65-38zM1604 234l-25-15-33 19 26 15z"/></g></g><path class="fil3" d="M21 64h1875c12 0 22 10 22 22v255c0 11-10 21-22 21H21c-11 0-21-10-21-21V86c0-12 10-22 21-22z"/><path d="M385 113a2 2 0 1 1 0 4h-5v5c0 2-1 3-2 3-2 0-3-1-3-3v-5h-5l-2-2 2-2h5v-5c0-1 1-2 3-2l2 2v5h5zM279 217l2 2-2 2h-5v5l-2 2-2-2v-5h-6a2 2 0 1 1 0-4h6v-5a2 2 0 1 1 4 0v5h5zm120 79a7 7 0 1 1 0 14 7 7 0 0 1 0-14zm-92-181a6 6 0 1 1 0 12 6 6 0 0 1 0-12zm327-32c15 0 28 14 28 31s-13 30-28 30c-16 0-29-13-29-30s13-31 29-31zM496 204a3 3 0 0 1 0 6h-8v8a3 3 0 1 1-6 0v-8h-7c-2 0-4-1-4-3 0-1 2-3 4-3h7v-7c0-2 1-3 3-3s3 1 3 3v7h8zM98 105h-7v-8c0-1-2-3-4-3l-3 3v8h-7a3 3 0 0 0 0 6h7v7a3 3 0 0 0 7 0v-7h7c2 0 3-1 3-3s-1-3-3-3zM85 208a21 21 0 1 1 0 42 21 21 0 0 1 0-42zM552 85H173c-12 0-23 10-23 23 0 12 9 21 20 23h51a38 38 0 1 1 0 75h-72c-10 3-18 12-18 23 0 12 10 22 21 23v1h23c19 0 34 15 34 34s-15 35-34 35h-41c-26 0-49 17-58 40h369c-2-5-4-11-4-17 0-24 20-43 43-43h166c12-5 19-16 19-29 0-15-10-28-24-31H385c-26 0-47-21-47-48 0-26 21-47 47-47h175c14-4 23-16 23-31 0-17-14-31-31-31z" style="fill:#8385f3"/><path class="fil2" d="M770 147c-8 0-14 6-14 14 0 9 6 15 14 15s13-6 14-13v-2h-15v2h12c-1 6-5 10-11 10s-11-4-11-12c0-7 5-11 11-11 5 0 8 2 10 6h3c-2-6-7-9-13-9zM791 164c0-6 4-8 8-8s8 2 8 8-4 9-8 9-8-3-8-9zm19 0c0-7-5-11-11-11s-11 5-11 11c0 7 5 12 11 12s11-5 11-12zM829 169c0-7-13-4-13-10 0-2 2-3 5-3s5 1 5 4h3c0-4-4-7-8-7-5 0-8 3-8 6 0 8 13 5 13 10 0 3-2 4-5 4s-5-2-5-4h-3c0 4 4 7 8 7 5 0 8-3 8-7zM835 169c0 5 2 6 5 6h3v-2h-2c-3 0-4-1-4-4v-13h6v-2h-6v-6h-2v6h-3v2h3v13zM850 164c0-6 4-8 8-8s8 2 8 8-4 9-8 9-8-3-8-9zm19 0c0-7-5-11-11-11s-11 5-11 11c0 7 5 12 11 12s11-5 11-12zM892 154h-3v11c0 6-2 8-6 8s-7-2-7-7v-12h-3v12c0 7 4 10 9 10 3 0 6-2 7-5v4h3v-21zM928 164c0 6-4 9-9 9-4 0-8-3-8-9 0-5 4-8 8-8 5 0 9 3 9 8zm-19 0c0 7 4 12 10 12 4 0 7-3 9-6v5h2v-29h-3l1 12c-2-3-5-5-9-5-6 0-10 5-10 11zM938 164c0-6 4-8 8-8s8 2 8 8-4 9-8 9-8-3-8-9zm19 0c0-7-5-11-11-11s-11 5-11 11c0 7 5 12 11 12s11-5 11-12zM992 167c0-10-15-6-15-12 0-2 2-3 4-3 3 0 4 1 4 3h6c0-5-4-8-10-8-5 0-9 3-9 8 0 10 14 7 14 13 0 2-2 3-4 3-3 0-4-2-5-4h-5c0 6 4 9 10 9s10-4 10-9zM1000 151c2 0 3-2 3-4 0-1-1-3-3-3s-4 2-4 3c0 2 2 4 4 4zm-3 24h6v-22h-6v22zM1026 169c0-8-13-6-13-10 0-1 1-2 3-2 3 0 4 1 4 3h5c0-4-3-7-8-7-6 0-9 3-9 6 0 9 12 6 12 10 0 1-1 2-3 2s-4-1-4-3h-6c1 4 4 8 10 8 5 0 9-3 9-7zM1031 168c0 5 3 7 7 7h3v-4h-2c-2 0-2-1-2-3v-10h4v-5h-4v-5h-6v5h-3v5h3v10zM1065 168h-6c-1 2-2 3-5 3-2 0-5-2-5-5h16v-2c0-7-4-11-10-11-7 0-11 4-11 11s4 12 11 12c5 0 9-4 10-8zm-11-11c3 0 6 2 6 5h-11c1-3 3-5 5-5zM1101 175h5v-13c0-6-4-9-9-9-3 0-6 2-7 4-2-3-5-4-8-4s-5 1-7 3v-3h-5v22h5v-12c0-3 2-5 5-5s5 2 5 5v12h6v-12c0-3 2-5 5-5s5 2 5 5v12zM1127 164c0 4-3 7-6 7s-6-3-6-7 3-6 6-6 6 2 6 6zm-17 0c0 7 4 12 10 12 3 0 6-2 7-4v3h6v-22h-6v3c-1-1-4-3-7-3-6 0-10 4-10 11zM1167 167c0-10-14-6-14-12 0-2 1-3 3-3 3 0 4 1 4 3h7c-1-5-5-8-10-8-6 0-10 3-10 8 0 10 14 7 14 13 0 2-1 3-4 3s-4-2-4-4h-6c0 6 4 9 10 9s10-4 10-9zM1185 147c-8 0-14 6-14 14 0 9 6 14 14 14 7 0 13-5 14-10v-5h-15v4h9c-1 4-3 6-8 6s-8-3-8-9c0-5 3-9 8-9 3 0 5 2 7 4h6c-2-6-7-9-13-9zM1202 148v27h15v-4h-9v-23zM1227 173l-2-2-2 2c0 2 1 2 2 2s2 0 2-2zm-8-18h2c0-3 3-5 6-5 4 0 6 2 6 5 0 6-4 7-8 7h-1v6h2v-4c6 0 10-3 10-9 0-5-4-8-9-8s-8 3-8 8zM783 209c0 8 6 14 13 14s11-3 13-8h-3c-2 3-5 6-10 6-6 0-10-5-10-12s4-12 10-12c5 0 8 3 10 6h3c-2-5-6-8-13-8s-13 6-13 14zM816 223h2v-30h-2zM825 197l2-2-2-2-2 2 2 2zm-1 26h3v-22h-3v22zM850 212c0 5-4 9-8 9-5 0-8-4-8-9 0-6 3-9 8-9 4 0 8 4 8 9zm-19 0c0 7 4 11 10 11 5 0 8-2 9-5v15h3v-32h-3v5c-1-3-4-5-9-5-6 0-10 4-10 11zM877 201h-2v12c0 5-3 8-7 8s-7-3-7-7v-13h-3v13c0 6 4 9 9 9 3 0 6-1 8-4v4h2v-22zM903 216h-3c-1 3-4 5-7 5-4 0-8-3-8-8h18v-2c0-6-4-10-10-10s-11 4-11 11 5 11 11 11c5 0 9-3 10-7zm-10-13c4 0 7 3 7 8h-15c0-5 4-8 8-8zM939 216h-3c-1 3-3 5-7 5s-7-3-8-8h18v-2c0-6-4-10-10-10s-11 4-11 11 5 11 11 11 9-3 10-7zm-10-13c4 0 8 3 8 8h-16c1-5 4-8 8-8zM974 212c0 5-4 9-8 9-5 0-8-4-8-9 0-6 3-9 8-9 4 0 8 4 8 9zm-19 0c0 7 4 11 10 11 5 0 8-2 9-5v5h3v-22h-3v5c-1-3-4-5-9-5-6 0-10 4-10 11zM1000 212c0 5-3 9-8 9-4 0-8-4-8-9 0-6 4-9 8-9 5 0 8 4 8 9zm-19 0c0 7 5 11 11 11 4 0 7-2 8-5v5c0 5-3 8-7 8s-7-2-8-5h-2c0 5 4 7 10 7s10-4 10-10v-22h-3v5c-1-3-4-5-8-5-6 0-11 4-11 11zM1028 216h-3c0 3-3 5-7 5s-7-3-7-8h18v-2c0-6-4-10-11-10-6 0-10 4-10 11s4 11 10 11 9-3 10-7zm-10-13c4 0 8 3 8 8h-15c0-5 3-8 7-8zM1050 223h3v-13c0-6-4-9-9-9-3 0-6 1-7 4v-4h-3v22h3v-12c0-5 2-8 6-8s7 3 7 7v13zM1076 212c0 5-3 9-8 9-4 0-8-4-8-9 0-6 4-9 8-9 5 0 8 4 8 9zm-19 0c0 7 5 11 11 11 4 0 7-2 8-5v5h3v-30h-3v13c-1-3-4-5-8-5-6 0-11 4-11 11zM1104 216h-3c0 3-3 5-7 5s-7-3-7-8h18v-2c0-6-4-10-11-10-6 0-10 4-10 11s4 11 10 11 9-3 10-7zm-10-13c4 0 8 3 8 8h-15c0-5 3-8 7-8zM1140 201h-3v12c0 5-2 8-6 8s-7-3-7-7v-13h-3v13c0 6 4 9 9 9 3 0 6-1 7-4v4h3v-22zM1178 223h3v-13c0-6-4-9-9-9-3 0-7 2-8 5-1-3-4-5-8-5-3 0-6 1-7 4v-4h-3v22h3v-12c0-5 3-8 7-8s6 3 6 7v13h3v-12c0-5 3-8 7-8 3 0 6 3 6 7v13zM1205 212c0 5-3 9-8 9-4 0-8-4-8-9 0-6 4-9 8-9 5 0 8 4 8 9zm-19 0c0 7 5 11 11 11 4 0 7-2 8-5v5h3v-22h-3v5c-1-3-4-5-8-5-6 0-11 4-11 11zM866 259c0 5-3 7-6 7s-6-2-6-7c0-4 3-6 6-6s6 2 6 6zm-18 0c0 7 5 12 11 12 3 0 5-2 7-4v3h5v-29h-5v11c-2-3-5-4-7-4-6 0-11 5-11 11zM896 264h-6l-4 2c-3 0-5-2-5-5h16v-2c0-7-5-11-11-11-7 0-11 5-11 11 0 7 5 12 11 12 5 0 9-3 10-7zm-10-11c3 0 5 2 5 4h-10c0-3 2-4 5-4zM932 270h5v-12c0-6-3-10-9-10-3 0-6 2-7 4-2-2-4-4-8-4-3 0-5 1-6 3v-3h-6v22h6v-12c0-3 2-5 5-5s5 2 5 5v12h5v-12c0-3 2-5 5-5s5 2 5 5v12zM947 259c0-4 2-6 5-6s6 2 6 6c0 5-3 7-6 7s-5-2-5-7zm17 0c0-6-5-11-12-11-6 0-11 5-11 11 0 7 5 12 11 12 7 0 12-5 12-12zM983 270h5v-12c0-6-3-10-9-10-2 0-5 1-6 3v-3h-6v22h6v-12c0-3 2-5 5-5s5 2 5 5v12zM1011 264c0-8-13-5-13-9 0-2 2-2 4-2s3 1 3 2h6c-1-4-4-7-9-7-6 0-9 3-9 7 0 8 12 5 12 9 0 1-1 2-3 2l-4-2h-5c0 4 4 7 9 7s9-3 9-7zM1016 264c0 5 3 6 7 6h4v-4h-3c-2 0-2-1-2-2v-11h5v-5h-5v-5h-6v5h-3v5h3v11zM1036 260c0-5 2-6 5-6h1v-6c-3 0-5 2-6 4v-4h-6v22h6v-10zM1063 259c0 5-3 7-6 7s-6-2-6-7c0-4 3-6 6-6s6 2 6 6zm-18 0c0 7 5 12 10 12 4 0 6-2 8-4v3h5v-22h-6l1 4c-2-2-4-4-8-4-5 0-10 5-10 11zM1072 259c0 7 3 11 9 12v4h2l2 2-2 1h-5v3h6c3 0 5-1 5-4s-2-5-5-5v-1c5-1 8-4 9-8h-6c-1 2-2 3-5 3s-5-2-5-7c0-4 2-6 5-6s4 1 5 3h6c-1-5-5-8-10-8-7 0-11 5-11 11zM1100 246h3l2-1 4 1c3 0 5-1 5-5h-3l-1 2-5-2c-3 0-5 2-5 5zm12 13c0 5-3 7-6 7s-6-2-6-7c0-4 3-6 6-6s6 2 6 6zm-17 0c0 7 4 12 10 12 3 0 6-2 7-4v3h6v-22h-6v4c-1-2-4-4-7-4-6 0-10 5-10 11zM1127 259c0-4 3-6 6-6 2 0 5 2 5 6 0 5-3 7-6 7s-5-2-5-7zm17 0c0-6-5-11-11-11-7 0-12 5-12 11 0 7 5 12 11 12 7 0 12-5 12-12zM1152 269c0-2-1-2-2-2s-2 0-2 2l2 2 2-2zm-3-6h2l1-20h-3v20z"/><path class="fil1" d="M81 151s71-18 147-7c21 3 40 15 51 33 21 33 50 91 44 152l-32 8s-23-72-48-101c0 0-30 68-28 105v3c3 37-144 7-144 7l10-200z"/><path class="fil5" d="m158 90-15 48c-2 5 0 10 3 12 8 7 25 17 44 16 4 0 7-3 7-7l6-81-45 12z"/><path class="fil5" d="M217 36s6 39 2 57-3 31-25 29c-21-2-36-17-41-37 0 0-8-32-1-42 6-11 65-7 65-7z"/><path class="fil6" d="m164 74 2 1s-5-26 6-27c10-1 50 1 62-10 11-11 8-30-1-37h-2l-1 1c-1 1-3 1-3-1l-2-1c-4 4-12 8-31 7-27-2-47 4-52 22h-2c-2-1-5-3-10 0-8 4-9 20 3 37l-1 2c-3 1-9 4 1 13 9 9 16 10 19 10l1-2 3-16 2-1 6 2z"/><path class="fil7" d="M163 77s0-23-11-20c-11 4-1 26 6 29l5-9z"/><path class="fil1" d="M81 297c-3-23 20-55 30-68 2-4 4-8 4-12 0-32-13-52-34-66 0 0-78 90-58 159 2 8 5 14 10 20 3-26 33-32 48-33z"/><path d="M83 288h-3c2-22 21-49 29-60l3 2c-8 10-27 37-29 58z" style="fill:#018083"/><path class="fil5" d="m82 300-1-3c-15 1-45 7-48 33 34 46 129 29 129 29v-18s-73-13-80-41z"/><path class="fil5" d="M153 354s14-33 39-21 23 19 23 19l-62 2z"/><path class="fil6" d="m206 179-18 139c-1 3 2 6 6 6l206-1c3 0 5-2 6-4l33-134c1-3-2-7-6-7l-221-4c-3 0-5 2-6 5z"/><path d="m295 267-31 91 71 1 6-88c1-4-3-8-7-7l-33-1c-3 0-5 2-6 4z" style="fill:#777"/><path class="fil6" d="M158 364h190c3 0 6-2 6-4v-5c0-2-3-4-6-3H215l-57 2c-10 0-11 10 0 10z"/><path class="fil7" d="M197 102c-23 2-37-22-37-22l2-1s13 23 34 21l1 2z"/><path class="fil10" d="M206 101c0 1-1 3-3 3h-6l-3-3 3-2h6c2 0 3 1 3 2zM162 53s8-42 32-46c0 0-7-4-14 0s-25 24-25 47c5 2 7-1 7-1z"/><path d="M157 51c-12 3-11 19-11 19-1 11 3 17 7 20a10 10 0 0 0 15-8l1-7c1-3 1-26-12-24z" style="fill:#373ef5"/><path class="fil10" d="M158 55c-2 0-5 1-6 4-7 17 2 29 6 29 5 0 5-23 4-29 0-3-2-3-4-4z"/><path class="fil3" d="M304 290c0-7 5-12 12-12 6 0 11 5 11 12s-5 13-11 13c-7 0-12-6-12-13z" style="stroke:#212121;stroke-width:3.31;stroke-linecap:round;stroke-linejoin:round;stroke-miterlimit:10"/></g></g></svg>