<svg xmlns="http://www.w3.org/2000/svg" xml:space="preserve" width="2504" height="282" style="shape-rendering:geometricPrecision;text-rendering:geometricPrecision;image-rendering:optimizeQuality;fill-rule:evenodd;clip-rule:evenodd" viewBox="0 0 25040 2818.6"><path style="fill:#fefefe" d="M0 189h25040v2630H0z"/><path d="M0 0h25040v787c-1709-199-5131-301-10471 823-3668 772-7987 251-7987 251s-2882-134-4968-543C1011 1200 476 1109 0 1039V0z" style="fill:#ededed"/><path d="M25040 624c-1709-191-5131-281-10471 843-3017 635-6475 501-7606 433 1131 105 4589 345 7606-290 5340-1124 8762-1022 10471-823V624z" style="fill:#03d29c"/></svg>