<svg xmlns="http://www.w3.org/2000/svg" xml:space="preserve" width="1920" height="225" style="shape-rendering:geometricPrecision;text-rendering:geometricPrecision;image-rendering:optimizeQuality;fill-rule:evenodd;clip-rule:evenodd" viewBox="0 0 67733.3 7894.5"><path style="fill:#f8f8f8" d="M0 0h67733v7690H0z"/><path d="M0 7136c181-160 374-317 576-471 474-359 997-704 1561-1031a23385 23385 0 0 1 3799-1732c1381-499 2859-910 4373-1242 1515-331 3067-587 4624-770a63043 63043 0 0 1 4670-374l581-21 290-11 290-7 579-14 577-8 288-4h288l575-2 573 5c190 2 382 2 571 7l570 11 143 3 143 3 282 8a146552 146552 0 0 1 2256 74c376 13 750 31 1124 47 1497 67 2984 153 4461 256 1478 103 2945 222 4403 354 1458 133 2908 277 4353 427l4330 450c1446 144 2895 284 4361 395 732 55 1469 103 2211 139 742 38 1489 65 2241 76 1504 25 3029-5 4561-121a44412 44412 0 0 0 4570-581c1190-214 2361-476 3509-772v5664H0v-758z" style="fill:#e9eefd;fill-rule:nonzero"/><path d="M0 7646c133-111 271-221 415-329 460-348 970-683 1522-1002a24011 24011 0 0 1 3732-1717c1362-502 2822-926 4321-1277 1500-350 3040-632 4588-846a68265 68265 0 0 1 4647-478l579-36 289-18 289-15 577-29 576-24 287-11 287-9 574-17 571-12c191-4 382-9 571-10l570-6 142-1 143-1 281-1c376-1 751-3 1128 0 376 0 752 2 1126 6 375 1 749 7 1123 12 1496 20 2982 58 4460 112 1477 54 2945 124 4405 205 1459 83 2910 175 4357 274l4336 297c1447 93 2898 182 4364 244 733 30 1470 54 2211 67 742 14 1488 18 2239 8 1501-20 3022-91 4546-241 762-74 1524-166 2282-278s1512-243 2259-390c1340-264 2654-585 3936-943v241a55445 55445 0 0 1-3869 873 49476 49476 0 0 1-4613 642 57679 57679 0 0 1-4591 227c-756 8-1506 4-2253-8-746-13-1488-33-2226-61-1476-54-2939-127-4398-208-1460-77-2916-161-4376-236a396291 396291 0 0 0-6592-289 285069 285069 0 0 0-6658-151l-1117-10c-372-3-745-5-1118-6l-1121-2h-420l-140 1-559 4c-187 0-374 5-561 8l-562 9-563 16-281 7-282 11-565 21-566 27-283 13-283 17-567 33a66606 66606 0 0 0-4545 437 52502 52502 0 0 0-4487 784c-735 163-1459 345-2170 544-711 198-1407 414-2081 650-1349 471-2616 1016-3740 1626-561 306-1090 626-1569 961-200 140-394 282-577 427v-142z" style="fill:#03d29c;fill-rule:nonzero"/></svg>