<svg xmlns="http://www.w3.org/2000/svg" xml:space="preserve" width="455" height="142" style="shape-rendering:geometricPrecision;text-rendering:geometricPrecision;image-rendering:optimizeQuality;fill-rule:evenodd;clip-rule:evenodd" viewBox="0 0 158036.7 49267.1"><defs><style>.fil1{fill:#686af0}.fil3{fill:#fff}.fil0{fill:#686af0;fill-rule:nonzero}</style></defs><g id="Camada_x0020_1"><path class="fil0" d="m26368 26542-6 345c-95 4247-1933 8237-4821 11162-2894 2931-6845 4800-11159 4801v2l-334-6c-473-11-886-104-1227-307-384-228-659-569-808-1052-21-68-31-136-31-204h-2V11566c0-131 36-253 99-358 167-317 409-563 755-734l47-21c304-139 677-213 1143-215l95-1v-2c4418 0 8468 1851 11420 4804 2948 2948 4800 7000 4826 11407l1 96h2zm-1388 318 1-318h2v-90c-24-4026-1722-7734-4425-10437-2699-2700-6401-4392-10439-4392v-3h-89c-254 1-437 30-562 84l-21 11c-31 15-57 33-79 54v29396c39 83 92 143 157 181 128 76 315 112 550 118h307v3c3924 0 7527-1709 10172-4389 2651-2685 4338-6338 4426-10218z"/><path class="fil0" d="M8674 45624H694a694 694 0 0 1-694-694V7806c0-383 311-694 694-694h7980c383 0 694 311 694 694v37124c0 383-311 694-694 694zm-7286-1388h6592V8500H1388v35736z"/><path class="fil1" d="M12664 34001H9194a868 868 0 0 1 0-1734h3470a868 868 0 0 1 0 1734zM12664 20470H9194a868 868 0 0 1 0-1735h3470a868 868 0 0 1 0 1735zM16133 27409H9541a868 868 0 0 1 0-1734h6592a868 868 0 0 1 0 1734zM25328 25848h84309v1388H25328zM109984 24634c0-12935 10485-23420 23419-23420s23419 10485 23419 23420c0 12934-10485 23419-23419 23419s-23419-10485-23419-23419z"/><path d="M108770 24634c0-6803 2757-12961 7215-17419A24556 24556 0 0 1 133403 0c6803 0 12961 2757 17419 7215a24556 24556 0 0 1 7215 17419c0 6802-2757 12960-7215 17418a24557 24557 0 0 1-17419 7215 24557 24557 0 0 1-17418-7215 24557 24557 0 0 1-7215-17418zm8932-15702a22136 22136 0 0 0-6504 15702c0 6131 2486 11683 6504 15701a22136 22136 0 0 0 15701 6504c6132 0 11683-2486 15702-6504a22136 22136 0 0 0 6503-15701c0-6132-2485-11684-6503-15702a22136 22136 0 0 0-15702-6503 22136 22136 0 0 0-15701 6503z" style="fill:#fff;fill-rule:nonzero"/><path class="fil3" d="M130291 21463c0-1538-2238-1048-2238-1923 0-357 257-527 600-513 375 7 608 232 625 520h964c-59-787-669-1245-1564-1245-899 0-1537 475-1537 1263-4 1578 2244 1013 2244 1953 0 316-242 534-655 534-406 0-639-232-663-583h-937c11 826 712 1302 1617 1302 992 0 1544-621 1544-1308zM134326 19266h-881v1905c0 555-299 854-774 854-461 0-770-299-770-854v-1905h-875v2030c0 947 583 1474 1388 1474 430 0 812-187 1031-482v437h881v-3459zM137719 20994c0 656-437 1020-916 1020-468 0-912-375-912-1030 0-656 444-1006 912-1006 479 0 916 360 916 1016zm-2723-10c0 1079 701 1797 1575 1797 551 0 944-260 1148-562v506h881v-3459h-881v493c-204-288-586-552-1141-552-881 0-1582 694-1582 1777zM122911 28509h-943c-111 229-316 416-691 416-437 0-787-284-833-798h2530c21-114 28-225 28-336 0-1031-708-1714-1708-1714-1023 0-1738 694-1738 1787 0 1089 732 1786 1738 1786 857 0 1430-506 1617-1141zm-1641-1714c448 0 812 288 822 746h-1641c70-475 399-746 819-746zM128442 29595h874v-2030c0-957-590-1481-1419-1481-506 0-961 270-1187 663-239-431-680-663-1217-663-431 0-802 180-1020 468v-416h-875v3459h875v-1912c0-548 308-836 780-836 465 0 770 288 770 836v1912h875v-1912c0-548 305-836 773-836 462 0 771 288 771 836v1912zM132897 27853c0 656-444 1031-920 1031-468 0-912-365-912-1020 0-656 444-1017 912-1017 476 0 920 351 920 1006zm-1832-1217v-500h-875v5107h875v-2141c215 281 600 548 1144 548 885 1 1579-718 1579-1797 0-1082-694-1776-1578-1776-538 0-937 264-1145 559zM135228 27871c0-670 312-868 833-868h229v-919c-479 0-843 232-1062 586v-534h-874v3459h874v-1724zM139912 28509h-944c-111 229-316 416-690 416-437 0-788-284-833-798h2529c21-114 28-225 28-336 0-1031-708-1714-1707-1714-1023 0-1738 694-1738 1787 0 1089 732 1786 1738 1786 857 0 1430-506 1617-1141zm-1641-1714c447 0 812 288 822 746h-1641c69-475 399-746 819-746zM143284 28610c-24-1270-1939-878-1939-1506 0-201 166-333 492-333 344 0 556 180 580 451h836c-48-687-555-1145-1391-1145-857 0-1367 465-1367 1037 0 1270 1953 875 1953 1496 0 198-187 354-531 354-350 0-593-198-624-462h-881c38 642 645 1149 1512 1149 843 0 1360-448 1360-1041zM146567 27864c0 656-438 1020-916 1020-469 0-913-375-913-1031 0-655 444-1006 913-1006 478 0 916 361 916 1017zm-2724-11c0 1079 701 1797 1575 1797 552 1 944-260 1149-561v506h881v-3459h-881v493c-205-288-587-552-1142-552-881 0-1582 694-1582 1776z"/><path class="fil1" d="M41981 22378h-9714a696 696 0 0 1-694-693c0-382 312-694 694-694h9714c382 0 694 312 694 693 0 382-312 694-694 694z"/><path class="fil1" d="m30185 21685 2342-2429 780 808-1561 1621 1561 1620-780 808z"/></g></svg>