<svg xmlns="http://www.w3.org/2000/svg" xml:space="preserve" width="690" height="655" style="shape-rendering:geometricPrecision;text-rendering:geometricPrecision;image-rendering:optimizeQuality;fill-rule:evenodd;clip-rule:evenodd" viewBox="0 0 689.85 654.86"><defs><style>.fil5{fill:#fefefe;fill-rule:nonzero}</style></defs><g id="Camada_x0020_1"><path d="m289.81 330.65 11.03-12.71 29.5-223.52 5.62.92-28.21 214.63 137.64-158.62 4.11 2.7-142.92 164.81-1.11 8.45 210.54-77.49 1.8 5.41-213.2 78.6-.06.5 253.03 26.18v5.61l-253.76-26.26-.7 5.29-5.76-.88.66-5-4.6-.48 106.19 239.3-5.51 2.71-106.53-240.02-155.33 179.11-4.2-2.81L280.9 340.92l-1.23-3.55-204.22-21.13v-5.61l208.3 21.55-86.39-194.66 5.51-2.8 86.94 195.93zm9.85-3.82-3.33 3.85 2.97-1.1.36-2.75z" style="fill:#ccc"/><path d="M195.25 335.57c-.02-1.01-.05-2.05-.05-3.06 0-51.67 41.9-93.56 93.57-93.56 51.66 0 93.56 41.89 93.56 93.56 0 1.01-.02 2.05-.05 3.06-1.64 50.44-43.04 90.5-93.51 90.5-50.48 0-91.88-40.06-93.52-90.5z" style="fill:#01aaac;stroke:#fff;stroke-width:6.96;stroke-linejoin:round;stroke-miterlimit:22.9256"/><path d="M452.3 260.74c-.03-.68-.05-1.36-.05-2.04 0-22.96 18.62-41.57 41.57-41.57 22.96 0 41.57 18.61 41.57 41.57 0 .68-.02 1.36-.05 2.04-1.08 22.13-19.35 39.53-41.52 39.53-22.16 0-40.43-17.4-41.52-39.53zM332.35 46.51c25.75-.01 46.62 21.13 46.63 47.21.01 26.09-20.86 47.24-46.6 47.24-25.75.01-46.62-21.13-46.63-47.21-.01-26.08 20.86-47.23 46.6-47.24zM72.03 235.28c38.03-.01 68.87 31.22 68.89 69.75.01 38.54-30.82 69.79-68.86 69.8-28.6.01-53.14-17.66-63.55-42.81a48.096 48.096 0 0 1-5.09-12.78c-.94-3.82-1.43-7.78-1.43-11.72 0-5.07.78-9.97 2.22-14.56 5.65-32.77 33.86-57.67 67.82-57.68zm79.65-95.05c0-26.77 21.71-48.49 48.48-48.49 26.78 0 48.49 21.72 48.49 48.49 0 26.77-21.71 48.48-48.49 48.48-26.77 0-48.48-21.71-48.48-48.48zM90.67 507.37c0-26.78 21.71-48.49 48.49-48.49 26.77 0 48.48 21.71 48.48 48.49 0 26.77-21.71 48.48-48.48 48.48-26.78 0-48.49-21.71-48.49-48.48zm458.6-138.54c-.03-.87-.05-1.77-.05-2.64 0-38.28 31.04-69.32 69.32-69.32 38.28 0 69.32 31.04 69.32 69.32 0 .87-.03 1.77-.05 2.63-1.41 37.22-32.02 66.69-69.27 66.69-37.25 0-67.86-29.47-69.27-66.69v.01zM348.32 597.42c0-30.61 24.83-55.44 55.45-55.44 30.61 0 55.44 24.83 55.44 55.44 0 30.62-24.83 55.45-55.44 55.45-30.62 0-55.45-24.83-55.45-55.45zm61.21-512.29c0-45.91 37.23-83.14 83.14-83.14 45.91 0 83.15 37.23 83.15 83.14 0 45.92-37.24 83.15-83.15 83.15-45.91 0-83.14-37.23-83.14-83.15z" style="fill:#686af0;stroke:#fff;stroke-width:3.98;stroke-linejoin:round;stroke-miterlimit:22.9256"/><path d="M173.82 133.72v13.42h6.81v-1.7h-4.51v-11.72h-2.3zm17.83 10.32h-2.41c-.3.8-1.1 1.4-2.5 1.4-1.6 0-2.91-1-3.01-2.81h8.12l.1-1.1c0-3.1-2.11-5.21-5.21-5.21-3.11 0-5.31 2.11-5.31 5.51 0 3.31 2.3 5.51 5.31 5.51 2.6 0 4.31-1.5 4.91-3.4v.1zm-5.01-5.91c1.7 0 3 1.1 3 2.7h-5.91c.2-1.6 1.41-2.7 2.91-2.7zm16.03 3.7c0 2.31-1.61 3.61-3.21 3.61-1.7 0-3.3-1.4-3.3-3.71 0-2.3 1.6-3.5 3.3-3.5 1.6 0 3.21 1.3 3.21 3.6zm-8.72-.1v.1c0 3.21 2.21 5.51 4.91 5.51 1.8 0 3.11-.9 3.81-1.8v1.6h2.2v-10.72l-2.2.1v1.51c-.7-.91-1.91-1.71-3.71-1.71-2.8 0-5.01 2.11-5.01 5.51v-.1zm21.14.1c0 2.31-1.5 3.61-3.21 3.61-1.6 0-3.2-1.4-3.2-3.71 0-2.3 1.6-3.5 3.2-3.5 1.71 0 3.21 1.3 3.21 3.6zm-8.72-.1v.1c0 3.21 2.21 5.51 5.01 5.51 1.81 0 3.11-.8 3.71-1.8v1.6h2.3v-14.32h-2.3v5.1c-.8-1-2.21-1.6-3.61-1.6-2.9 0-5.11 2.11-5.11 5.41zm21.24 2.41c-.2-3.81-6.21-2.61-6.21-4.81 0-.7.6-1.2 1.8-1.2 1.2 0 1.91.7 2.01 1.6h2.2c-.1-2.11-1.7-3.41-4.11-3.41-2.5 0-4.1 1.4-4.1 3.11 0 3.9 6.21 2.7 6.21 4.81 0 .7-.7 1.2-2.01 1.2-1.2 0-2-.7-2.1-1.5H219c.1 1.9 1.9 3.4 4.5 3.4 2.51 0 4.01-1.4 4.01-3.2h.1zm-97.07 365.63h-4.41l2.21-6.31 2.2 6.31zm1.6 4.51h2.31l-4.81-13.52h-2.6l-4.81 13.52h2.3l1-2.71h5.61l1 2.71zm14.53-9.42c0-2.2-1.5-4-4.71-4h-4.71v13.42h2.21v-5.41h2.5c3.51 0 4.71-2.1 4.71-4.01zm-7.21 2.21v-4.41h2.5c1.7 0 2.51.8 2.51 2.2 0 1.31-.81 2.21-2.51 2.21h-2.5zm10.42 7.21h2.2v-13.42h-2.2v13.42zm108.88-124.22c2.07.68 4.23 1.03 6.41 1.03 1.55 0 3.1-.18 4.61-.53 1.31-.4 2.41-.9 3.31-1.7a7.313 7.313 0 0 0 2.91-5.84v-.17c0-1.2-.21-2.2-.61-3.11-.5-.8-1.1-1.5-2-2.1-.8-.7-1.8-1.1-3.1-1.6-2.02-.73-4.1-1.27-6.22-1.61l-1.4-.5-.7-.6c-.2-.2-.2-.5-.2-.8 0-.5.2-.9.6-1.2.5-.3 1.1-.4 2.01-.4 1.2 0 2.4.2 3.6.6 1.3.4 2.51 1 3.71 1.8l3.6-4.91c-1.4-1.2-3-2-4.7-2.6-1.83-.57-3.74-.86-5.65-.86-1.54 0-3.08.19-4.57.56-1.3.4-2.31 1-3.21 1.7-.9.71-1.6 1.51-2 2.51-.5 1-.7 2.1-.7 3.3 0 1.31.2 2.41.7 3.31.6.9 1.2 1.6 2.1 2.2.9.6 1.91 1.01 3.11 1.41 1.99.66 4.04 1.2 6.11 1.6l1.3.5c.4.2.6.4.7.6l.2.7v.1c0 .5-.2.91-.7 1.21-.5.3-1.3.5-2.3.5-3.01 0-5.81-1.01-8.42-3.01l-4.01 4.61c1.61 1.5 3.41 2.5 5.51 3.3zm20.04-6.71c.7 1.6 1.7 3.01 3 4.11 1.21 1.2 2.81 2.1 4.51 2.7 1.71.6 3.61.91 5.61.91h.48c3.91 0 7.71-1.35 10.74-3.81v-11.12h-12.02v5.21h5.31v2.8c-1.1.6-2.5 1-4.21 1h-.05c-1.83 0-3.6-.67-4.96-1.9-.7-.6-1.2-1.3-1.5-2.2-.3-.8-.5-1.71-.5-2.71v-.07c0-2.66 1.57-5.07 4.01-6.14.8-.3 1.7-.5 2.6-.5 2.28 0 4.49.82 6.21 2.3l4.21-5a15.02 15.02 0 0 0-10.22-4.01h-.2c-2.1 0-3.9.4-5.71 1a12.922 12.922 0 0 0-8.41 12.02v.1c0 1.9.4 3.71 1.1 5.31zm46.18 7.72v-6.72h-12.72v-19.43h-6.71v26.15h19.43zm-68.82-42.58c0-1 .9-1.8 2.3-1.8 1.11 0 2.21.4 3.21 1.2l.7-.9c-1.1-.9-2.3-1.4-3.91-1.4-2.1 0-3.6 1.3-3.6 3 0 1.8 1.2 2.61 3.7 3.21 2.31.5 2.91 1.1 2.91 2.1 0 1.1-1 1.9-2.51 1.9-1.5 0-2.6-.5-3.8-1.6l-.7.9c1.3 1.2 2.7 1.81 4.5 1.81 2.21 0 3.71-1.21 3.71-3.11 0-1.7-1.1-2.6-3.61-3.21-2.4-.5-2.9-1-2.9-2.1zm8.21-2.7v10.92h1.21v-10.92h-1.21zm4.71 2.7c0-1 .9-1.8 2.31-1.8 1.1 0 2.2.4 3.2 1.2l.7-.9c-1.1-.9-2.3-1.4-3.8-1.4-2.11 0-3.61 1.3-3.61 3 0 1.8 1.1 2.61 3.61 3.21 2.3.5 2.9 1.1 2.9 2.1 0 1.1-1 1.9-2.5 1.9-1.51 0-2.61-.5-3.71-1.6l-.8.9c1.3 1.2 2.8 1.81 4.51 1.81 2.2 0 3.7-1.21 3.7-3.11 0-1.7-1.1-2.6-3.5-3.21-2.41-.5-3.01-1-3.01-2.1zm12.32-1.6h3.61v-1.1h-8.61v1.1h3.7v9.82h1.3v-9.82zm13.53-1.1h-7.92v10.92h8.02v-1.11h-6.71v-3.8h5.91v-1.2h-5.91v-3.71h6.61v-1.1zm11.22 2v8.92h1.2v-10.92h-1.2l-4.01 5.91-4.01-5.91h-1.3v10.92h1.2v-8.82l4.01 5.81h.1l4.01-5.91zm10.62 4.91h-5.01l2.5-5.61 2.51 5.61zm-1.91-7.01h-1.1l-5.01 11.02h1.3l1.31-2.91h5.91l1.3 2.91h1.3l-5.01-11.02zm-25.64-67.62-13.93 7.91v24.55l13.93 8.11 13.92-8.11v-24.55l-13.92-7.91zm-16.43 33.96 27.35 16.43-10.92 7.21-27.75-16.73 11.32-6.91zm43.27 7.01-10.61-6.61-13.73 8.01 10.92 6.51 13.42-7.91z" style="fill:#fff"/><path d="m572.61 373.53 2.4-.1 3.11-10.11 2.8 10.11h2.51l4.01-13.42h-2.41l-2.8 10.92-2.81-10.92h-2.5l-3.01 10.92-2.8-10.92h-2.31l3.81 13.52zm16.33-.1h2.2v-5.91c0-2 1.1-3 2.71-3 1.6 0 2.7 1 2.7 3v5.91h2.21v-6.21c0-3-1.91-4.6-4.31-4.6-1.3 0-2.51.5-3.31 1.4v-4.91h-2.2v14.32zm11.62-5.3c0 3.2 2.2 5.51 5.01 5.51 1.7 0 3-.81 3.7-1.81v1.6h2.21v-10.61h-2.21v1.5c-.6-.8-1.9-1.7-3.7-1.7-2.81 0-5.01 2.2-5.01 5.51zm8.71 0c0 2.3-1.6 3.6-3.2 3.6-1.7 0-3.31-1.3-3.31-3.6 0-2.41 1.61-3.61 3.31-3.61 1.6 0 3.2 1.3 3.2 3.61zm5.21 2.4c0 2.1 1.2 2.9 3.11 2.9h1.7v-1.8h-1.3c-.9 0-1.3-.3-1.3-1.1v-5.91h2.6v-1.8h-2.6v-2.71h-2.21v2.71h-1.2v1.8h1.2v5.91zm14.63 0c-.2-3.91-6.21-2.71-6.21-4.81 0-.8.6-1.2 1.8-1.2 1.2 0 1.9.6 2 1.5h2.21c-.1-2.1-1.71-3.4-4.11-3.4-2.5 0-4.11 1.4-4.11 3.1 0 3.91 6.21 2.71 6.21 4.81 0 .7-.7 1.3-2 1.3-1.2 0-2-.8-2.1-1.6h-2.31c.1 1.9 1.91 3.41 4.51 3.41 2.51 0 4.11-1.31 4.11-3.11zm11.22 2.9h2.3l-4.91-13.42h-2.5l-4.81 13.42h2.3l1.01-2.7h5.61l1 2.7zm-1.61-4.5h-4.4l2.2-6.31 2.2 6.31zm7.92-4.61v-1.5h-2.21v15.72h2.21v-6.61c.7.8 2 1.71 3.71 1.71 2.8 0 5-2.21 5-5.51 0-3.31-2.2-5.51-5-5.51-1.71 0-3.01.9-3.71 1.7zm6.51 3.81c0 2.3-1.6 3.6-3.31 3.6-1.6 0-3.2-1.3-3.2-3.6 0-2.31 1.6-3.61 3.2-3.61 1.71 0 3.31 1.3 3.31 3.61zm6.41-3.81v-1.5h-2.3v15.72h2.3v-6.61c.6.8 1.9 1.71 3.71 1.71 2.8 0 5.01-2.21 5.01-5.51 0-3.31-2.21-5.51-5.01-5.51-1.81 0-3.11.9-3.71 1.7zm6.41 3.81c0 2.3-1.6 3.6-3.2 3.6-1.71 0-3.21-1.3-3.21-3.6 0-2.31 1.5-3.61 3.21-3.61 1.6 0 3.2 1.3 3.2 3.61zM396.5 601.03c0-5.01-7.11-3.11-7.11-6.11 0-1.3 1-1.9 2.31-1.9 1.4.1 2.1.9 2.2 1.8h2.5c-.2-2.3-2.1-3.61-4.6-3.61-2.81 0-4.71 1.41-4.71 3.81 0 4.91 7.21 2.8 7.21 6.11 0 1.1-.9 2-2.4 2-1.61 0-2.31-.9-2.41-2h-2.4c0 2.3 2.1 3.81 4.81 3.81 3 0 4.6-1.91 4.6-3.91zm2.41 3.81h2.2v-10.72h-2.2v10.72zm1.1-12.12c.7 0 1.4-.61 1.4-1.41 0-.8-.7-1.4-1.4-1.4-.8 0-1.4.6-1.4 1.4 0 .8.6 1.41 1.4 1.41zm4.01 9.11c0 2.21 1.2 3.01 3.1 3.01h1.81v-1.91h-1.41c-.9 0-1.2-.3-1.2-1.1v-5.91h2.61v-1.8h-2.61v-2.61h-2.3v2.61h-1.21v1.8h1.21v5.91zm11.12-6.01c1.7 0 3 1 3 2.71h-5.91c.2-1.71 1.4-2.71 2.91-2.71zm5 5.81h-2.4c-.4.8-1.1 1.5-2.5 1.5-1.61 0-2.91-1.1-3.01-2.8h8.12l.1-1.1c0-3.21-2.11-5.31-5.21-5.31-3.11 0-5.31 2.2-5.31 5.51 0 3.4 2.3 5.61 5.31 5.61 2.6 0 4.3-1.51 4.9-3.41z" style="fill:#fefefe;fill-rule:nonzero"/><path class="fil5" d="M454.39 85.99c0 3.9 2.97 6.63 6.63 6.63 2.7 0 5.03-1.35 6.02-3.88h-2.55c-.69 1.38-1.93 2.03-3.47 2.03-2.58 0-4.45-1.85-4.45-4.78s1.87-4.76 4.45-4.76c1.54 0 2.78.66 3.47 2.04h2.55c-.99-2.54-3.32-3.9-6.02-3.9-3.66 0-6.63 2.74-6.63 6.62zm24.67 1.37c0-3.23-2.31-5.3-5.24-5.3s-5.25 2.07-5.25 5.3c0 3.22 2.22 5.31 5.15 5.31 2.95 0 5.34-2.09 5.34-5.31zm-8.32 0c0-2.34 1.44-3.46 3.04-3.46 1.59 0 3.1 1.12 3.1 3.46 0 2.33-1.57 3.47-3.16 3.47-1.6 0-2.98-1.14-2.98-3.47zm17.47 5.15h2.11v-6.07c0-2.87-1.81-4.38-4.22-4.38-1.23 0-2.37.5-3.06 1.34v-1.18h-2.13v10.29h2.13v-5.75c0-1.89 1.02-2.86 2.59-2.86 1.55 0 2.58.97 2.58 2.86v5.75zm4.89-2.86c0 2.09 1.14 2.86 2.96 2.86h1.68v-1.78h-1.3c-.9 0-1.2-.31-1.2-1.08v-5.69h2.5v-1.74h-2.5v-2.55h-2.14v2.55h-1.22v1.74h1.22v5.69zm5.63-2.33c0 3.17 2.15 5.35 4.82 5.35 1.72 0 2.95-.82 3.6-1.69v1.53h2.15V82.22h-2.15v1.5c-.63-.84-1.83-1.66-3.56-1.66-2.71 0-4.86 2.09-4.86 5.26zm8.42.04c0 2.22-1.51 3.47-3.12 3.47-1.58 0-3.11-1.29-3.11-3.51 0-2.22 1.53-3.42 3.11-3.42 1.61 0 3.12 1.25 3.12 3.46zm-4.98-7.43v1.57l4.12-2.04v-1.81l-4.12 2.28zm11.79 3.82V78.7h-2.13v13.81h2.13v-1.5c.67.9 1.89 1.66 3.59 1.66 2.7 0 4.83-2.18 4.83-5.35 0-3.17-2.11-5.26-4.83-5.26-1.63 0-2.92.76-3.59 1.69zm6.25 3.57c0 2.22-1.53 3.51-3.13 3.51-1.59 0-3.12-1.25-3.12-3.47 0-2.21 1.53-3.46 3.12-3.46 1.6 0 3.13 1.2 3.13 3.42zm4.02 5.19h2.12V82.22h-2.12v10.29zm1.08-11.65c.75 0 1.34-.6 1.34-1.36 0-.77-.59-1.36-1.34-1.36-.77 0-1.36.59-1.36 1.36 0 .76.59 1.36 1.36 1.36zm3.58 11.65h2.13V78.7h-2.13v13.81zM485.24 263.51c0-4.74-6.86-2.91-6.86-5.84 0-1.25.95-1.85 2.18-1.81 1.34.04 2.11.84 2.18 1.72h2.35c-.18-2.22-1.94-3.53-4.42-3.53-2.65 0-4.46 1.42-4.46 3.7 0 4.77 6.89 2.74 6.89 5.87 0 1.1-.84 1.91-2.34 1.91-1.47 0-2.22-.86-2.31-1.92h-2.28c0 2.29 2 3.71 4.59 3.71 2.9 0 4.48-1.87 4.48-3.81zm4.39-3.32v-4.24h2.35c1.66 0 2.41.79 2.41 2.13 0 1.31-.75 2.11-2.41 2.11h-2.35zm6.94-2.11c0-2.11-1.51-3.86-4.59-3.86h-4.48v12.97h2.13v-5.26h2.35c3.38 0 4.59-2 4.59-3.85zm1.07 2.6c0 3.9 2.96 6.62 6.62 6.62 2.71 0 5.04-1.34 6.03-3.88h-2.56c-.69 1.38-1.92 2.03-3.47 2.03-2.57 0-4.44-1.84-4.44-4.77 0-2.93 1.87-4.76 4.44-4.76 1.55 0 2.78.65 3.47 2.03h2.56c-.99-2.54-3.32-3.9-6.03-3.9-3.66 0-6.62 2.74-6.62 6.63zM323.3 96.56c0-4.74-6.87-2.91-6.87-5.84 0-1.25.95-1.85 2.18-1.81 1.35.04 2.11.84 2.19 1.72h2.35c-.19-2.22-1.94-3.53-4.43-3.53-2.65 0-4.46 1.42-4.46 3.7 0 4.77 6.89 2.74 6.89 5.87 0 1.11-.84 1.91-2.33 1.91-1.48 0-2.22-.86-2.32-1.92h-2.27c0 2.29 1.99 3.71 4.59 3.71 2.89 0 4.48-1.87 4.48-3.81zm2.25 3.68h2.13v-8.88l3.98 8.88h1.47l3.96-8.88v8.88h2.13V87.27h-2.28l-4.54 10.17-4.55-10.17h-2.3v12.97zm24.96-3.68c0-4.74-6.87-2.91-6.87-5.84 0-1.25.95-1.85 2.18-1.81 1.35.04 2.11.84 2.19 1.72h2.35c-.19-2.22-1.94-3.53-4.43-3.53-2.65 0-4.46 1.42-4.46 3.7 0 4.77 6.89 2.74 6.89 5.87 0 1.11-.84 1.91-2.33 1.91-1.48 0-2.22-.86-2.32-1.92h-2.27c0 2.29 1.99 3.71 4.59 3.71 2.89 0 4.48-1.87 4.48-3.81zM33 302.02h2.24l-4.65-12.98h-2.46l-4.65 12.98h2.22l.94-2.65h5.43l.93 2.65zm-1.53-4.38h-4.24l2.13-6.03 2.11 6.03zm13.2 1.51c-.12-3.71-5.92-2.56-5.92-4.63 0-.69.6-1.15 1.74-1.15 1.15 0 1.84.61 1.92 1.51h2.12c-.11-2.06-1.64-3.31-3.97-3.31-2.43 0-3.96 1.33-3.96 2.97 0 3.77 5.98 2.61 5.98 4.63 0 .71-.66 1.23-1.89 1.23-1.18 0-1.98-.69-2.05-1.53h-2.2c.09 1.87 1.82 3.32 4.29 3.32 2.42 0 3.94-1.3 3.94-3.04zm9.7 0c-.11-3.71-5.92-2.56-5.92-4.63 0-.69.6-1.15 1.74-1.15 1.16 0 1.85.61 1.92 1.51h2.13c-.11-2.06-1.64-3.31-3.98-3.31-2.42 0-3.95 1.33-3.95 2.97 0 3.77 5.97 2.61 5.97 4.63 0 .71-.65 1.23-1.88 1.23-1.18 0-1.98-.69-2.06-1.53h-2.2c.09 1.87 1.83 3.32 4.29 3.32 2.43 0 3.94-1.3 3.94-3.04zm2.03 2.87h2.13v-10.28H56.4v10.28zm1.09-11.64c.74 0 1.34-.6 1.34-1.36 0-.77-.6-1.37-1.34-1.37-.77 0-1.37.6-1.37 1.37 0 .76.6 1.36 1.37 1.36zm10.88 11.64h2.11v-6.06c0-2.87-1.81-4.39-4.22-4.39-1.23 0-2.37.51-3.06 1.35v-1.18h-2.13v10.28h2.13v-5.74c0-1.89 1.02-2.86 2.59-2.86 1.55 0 2.58.97 2.58 2.86v5.74zm3.84-5.18c0 3.17 2.15 5.35 4.82 5.35 1.71 0 2.95-.82 3.6-1.7v1.53h2.15v-10.28h-2.15v1.49c-.64-.84-1.83-1.66-3.57-1.66-2.7 0-4.85 2.09-4.85 5.27zm8.42.03c0 2.22-1.51 3.47-3.12 3.47-1.58 0-3.11-1.28-3.11-3.5 0-2.22 1.53-3.42 3.11-3.42 1.61 0 3.12 1.25 3.12 3.45zm5.02 2.3c0 2.09 1.14 2.85 2.97 2.85h1.68v-1.77h-1.31c-.9 0-1.19-.32-1.19-1.08v-5.69h2.5v-1.74h-2.5v-2.56h-2.15v2.56h-1.21v1.74h1.21v5.69zm15.66-7.43h-2.13v5.73c0 1.89-1.03 2.86-2.59 2.86-1.55 0-2.58-.97-2.58-2.86v-5.73H91.9v6.05c0 2.87 1.83 4.38 4.24 4.38 1.21 0 2.37-.5 3.04-1.38v1.23h2.13v-10.28zm4.66 4.87c0-2.18.97-2.83 2.54-2.83h.54v-2.21c-1.45 0-2.48.64-3.08 1.66v-1.49h-2.12v10.28h2.12v-5.41zm4.07.23c0 3.17 2.15 5.35 4.82 5.35 1.71 0 2.95-.82 3.6-1.7v1.53h2.15v-10.28h-2.15v1.49c-.64-.84-1.83-1.66-3.57-1.66-2.7 0-4.85 2.09-4.85 5.27zm8.42.03c0 2.22-1.51 3.47-3.12 3.47-1.58 0-3.11-1.28-3.11-3.5 0-2.22 1.53-3.42 3.11-3.42 1.61 0 3.12 1.25 3.12 3.45zM35.6 309.3h-7.16v12.98h7.16v-1.73h-5.03v-3.98h4.47v-1.73h-4.47v-3.81h5.03v-1.73zm2.36 12.98h2.12v-13.81h-2.12v13.81zm8.99-8.66c1.59 0 2.84 1.01 2.88 2.6h-5.7c.23-1.62 1.38-2.6 2.82-2.6zm4.82 5.6h-2.3c-.39.81-1.12 1.44-2.43 1.44-1.56 0-2.78-1.03-2.92-2.72h7.85c.06-.36.08-.69.08-1.05 0-3.02-2.08-5.06-5.01-5.06-3.04 0-5.13 2.07-5.13 5.3s2.19 5.32 5.13 5.32c2.52 0 4.15-1.43 4.73-3.23zm2.44.21c0 2.09 1.14 2.85 2.97 2.85h1.68v-1.77h-1.31c-.89 0-1.19-.32-1.19-1.08v-5.69h2.5V312h-2.5v-2.56h-2.15V312H53v1.74h1.21v5.69zm8.47-2.56c0-2.18.98-2.83 2.54-2.83h.54v-2.21c-1.45 0-2.48.64-3.08 1.66V312h-2.12v10.28h2.12v-5.41zm14.58.26c0-3.23-2.31-5.3-5.24-5.3s-5.25 2.07-5.25 5.3 2.22 5.32 5.15 5.32c2.95 0 5.34-2.09 5.34-5.32zm-8.32 0c0-2.33 1.43-3.45 3.04-3.45 1.59 0 3.1 1.12 3.1 3.45 0 2.34-1.57 3.47-3.16 3.47-1.6 0-2.98-1.13-2.98-3.47zm5.74-7.69-2.66-1.54-2.67 1.54v1.67l2.67-1.61 2.66 1.61v-1.67zm11.73 12.84h2.1v-6.06c0-2.88-1.81-4.39-4.21-4.39-1.24 0-2.37.51-3.06 1.35V312h-2.13v10.28h2.13v-5.74c0-1.89 1.02-2.86 2.59-2.86 1.55 0 2.58.97 2.58 2.86v5.74zm4.55 0h2.13V312h-2.13v10.28zm1.08-11.64c.75 0 1.35-.6 1.35-1.36 0-.77-.6-1.37-1.35-1.37-.76 0-1.36.6-1.36 1.37 0 .76.6 1.36 1.36 1.36zm2.88 6.49c0 3.23 2.09 5.32 5.03 5.32 2.52 0 4.17-1.4 4.75-3.41h-2.3c-.39 1.06-1.18 1.62-2.45 1.62-1.71 0-2.85-1.27-2.85-3.53 0-2.24 1.14-3.51 2.85-3.51 1.27 0 2.1.64 2.45 1.63h2.3c-.58-2.17-2.23-3.42-4.75-3.42-2.94 0-5.03 2.09-5.03 5.3zm10.93-.03c0 3.17 2.15 5.35 4.82 5.35 1.71 0 2.95-.82 3.6-1.7v1.53h2.15V312h-2.15v1.49c-.64-.84-1.83-1.66-3.57-1.66-2.7 0-4.85 2.09-4.85 5.27zm8.42.03c0 2.22-1.51 3.47-3.12 3.47-1.58 0-3.11-1.28-3.11-3.5 0-2.22 1.53-3.42 3.11-3.42 1.61 0 3.12 1.25 3.12 3.45z"/></g></svg>