<svg xmlns="http://www.w3.org/2000/svg" xml:space="preserve" width="878" height="307" style="shape-rendering:geometricPrecision;text-rendering:geometricPrecision;image-rendering:optimizeQuality;fill-rule:evenodd;clip-rule:evenodd" viewBox="0 0 8780 3070"><defs><style>.fil0{fill:#ddd}</style></defs><g id="__x0023_Layer_x0020_1"><g id="_2016416370064"><path class="fil0" d="m8598 848-17-32c-8-13-23-17-34-9-11 9-15 26-8 39h1l17 31v1c7 13 22 16 34 8 11-8 14-25 7-38zM8536 743l-20-30c-8-12-24-14-35-5a31 31 0 0 0-4 40l20 29v1c9 12 24 14 35 4 11-9 13-27 4-39zM8465 646l-23-28c-9-11-25-12-35-1a31 31 0 0 0-1 40l1 1 22 26v1c10 11 25 11 35 0 10-10 11-28 1-39zM8386 557l-25-25c-11-10-27-9-36 3s-8 30 3 40l1 1 24 23v1c11 10 27 9 36-3s8-30-3-40zM8299 477l-27-21c-12-10-28-6-36 7s-5 31 7 40v1l27 20v1c12 9 27 6 35-8 8-13 6-31-6-40zM8206 409l-29-19c-13-8-28-3-35 11s-3 32 9 40h1l28 18h1c12 8 27 3 34-11s3-32-9-40zM8107 350l-30-16c-13-7-28 0-34 15s-1 32 12 39h1l29 15 1 1c13 6 28 0 34-15s0-33-13-39zM8005 301l-32-13c-13-5-28 3-33 19-5 15 2 32 16 38l31 12c14 6 29-3 34-18 4-15-3-32-16-38zM7899 262l-32-10c-14-4-28 5-32 21s4 33 18 37h1l31 10h1c13 4 28-5 32-21 3-16-5-33-19-37zM7792 232l-33-7c-14-3-28 7-31 24-3 16 6 32 21 35l32 7c15 3 28-7 31-24 3-16-6-32-20-35zM7682 211l-32-5c-15-2-28 10-30 26-2 17 8 32 22 34h1l32 5h1c14 2 27-10 29-26 2-17-8-32-23-34zM7572 198l-33-3c-15-1-27 12-28 28-1 17 10 32 24 33h1l32 2h1c14 1 27-12 28-28 1-17-10-31-25-32zM7462 192h-33c-15 0-27 13-27 30-1 17 11 31 26 31h33c15 0 27-13 27-30s-12-31-26-31zM7351 194l-33 1c-15 1-26 15-26 32 1 17 13 30 28 30h1l32-2c15-1 27-15 26-32 0-17-13-30-28-29zM7241 202l-33 3c-15 2-26 17-24 33 1 17 14 30 29 28l32-3h1c15-2 26-17 24-34-1-17-14-29-29-28zM7131 215l-32 5c-15 2-26 18-24 35 2 16 16 28 30 26h1l32-5c15-2 26-18 24-35s-16-28-31-26zM7022 233l-32 6c-15 3-25 19-23 36 3 17 17 28 32 26l32-7c15-3 25-19 23-36-3-17-17-28-32-25zM6914 255l-32 8c-15 3-25 19-22 36s17 28 32 25h1l31-8h1c14-3 24-20 21-36-3-17-17-28-32-25zM6807 281l-33 8c-15 4-24 21-21 38 4 17 18 27 33 23l32-8c15-4 25-21 21-37-3-17-18-28-33-24zM6700 309l-32 9c-15 5-24 22-21 39 4 17 19 27 34 23l31-9h1c14-5 23-22 20-39-4-17-19-27-33-23zM6593 340l-32 10c-15 4-24 21-20 38s19 27 34 23l32-10c15-4 24-21 20-38s-19-27-34-23zM6487 372l-32 10c-14 5-23 22-19 39s19 27 34 23l32-10c15-5 23-23 19-39-4-17-19-27-34-23zM6382 406l-32 10c-15 5-24 22-20 39 5 17 20 27 35 22l32-10c15-5 23-22 19-39s-19-27-34-22zM6276 440l-31 11c-15 5-24 22-19 40 4 17 19 26 34 21h1l31-10c15-5 24-23 19-40-4-17-20-27-35-22zM7913 3068l29-17c10-5 13-18 9-28-4-11-16-15-25-10l-29 17h-1c-9 5-13 18-8 28 4 11 15 15 25 10zM8011 3010l28-19c10-6 13-20 7-30-5-10-16-14-25-8h-1v1l-28 18v1c-9 6-12 19-7 29s17 14 26 8zM8105 2944l28-22c9-6 11-20 5-30s-18-12-27-6v1l-27 21c-9 7-11 20-5 30s17 12 26 6zM8195 2871l26-24c9-7 11-21 4-31-7-9-19-11-27-4v1h-1l-25 23c-9 8-10 21-4 31 7 10 19 11 27 4zM8281 2791l25-26c8-8 8-22 1-32-7-9-19-9-28-1l-24 25v1c-8 8-9 22-2 31 8 9 20 10 28 2zM8362 2704l23-27c7-9 7-24-1-32-8-9-20-9-28 0v1l-23 26v1c-8 9-7 23 1 32 7 8 20 8 28-1zM8437 2611l21-29c7-10 6-24-2-32-9-9-22-7-29 2v1l-21 28v1c-7 10-6 24 2 32 9 8 21 7 29-3zM8506 2512l19-30c7-11 5-25-4-33-9-7-22-5-29 5v1l-19 30c-7 11-5 25 4 33 10 7 22 5 29-6zM8569 2408l17-32c6-11 3-26-7-33-9-6-22-3-28 8l-1 1-17 31v1c-6 11-3 25 7 32s23 3 29-8zM8624 2299l15-34c6-12 2-26-9-32-10-6-23-1-28 10v1l-15 33c-5 12-1 26 9 32s23 2 28-10zM8672 2185l13-35c5-12 0-27-11-32s-24 1-28 13v1l-13 34v1c-4 12 1 26 12 31 10 5 23-1 27-13zM8712 2067l11-36c3-13-3-27-14-31-12-4-24 3-27 16l-1 1-10 34v1c-3 13 3 27 14 31 12 4 24-3 27-16zM8744 1946l7-37c3-14-4-27-16-30s-24 5-26 18v1l-8 36v1c-3 13 5 26 17 29 11 3 23-5 26-18zM8766 1821l4-37c2-14-6-27-19-28-12-2-23 7-25 21v1l-4 36v1c-2 14 7 26 19 28s23-8 25-22zM8778 1696l1-38c1-14-8-26-21-27-12-1-23 10-23 24v1l-2 37c-1 14 9 26 21 27 13 0 23-10 24-24zM8780 1569l-1-38c-1-14-11-25-24-24-12 0-22 12-21 26v1l1 37c0 15 11 26 23 25 13-1 23-13 22-27zM8773 1443l-4-38c-2-14-13-24-26-22-12 2-21 15-20 29v1l4 36v1c2 14 14 24 26 22 13-2 22-15 20-29zM8756 1318l-6-37c-3-14-15-23-28-20-12 3-20 17-18 31v1l7 35v1c3 14 15 23 28 20 12-3 20-17 17-31zM8731 1195l-10-36c-4-14-17-22-29-18-13 4-20 19-16 33v1l10 35v1c4 14 17 22 29 17 12-4 19-19 16-33zM8696 1075l-13-35c-5-14-18-21-31-15-12 6-18 21-13 35v1l12 34h1c4 14 18 21 30 15 12-5 18-21 13-35zM8652 959l-16-34c-6-13-20-18-32-12-12 7-17 24-10 37v1l14 33h1c6 14 20 19 32 12s17-23 10-37zM6171 475l-31 11c-15 5-24 23-19 40 4 17 20 27 35 22l32-11c15-5 23-23 19-40-5-17-20-27-36-22zM6067 512l-32 11c-15 5-23 23-19 40 5 17 21 27 36 22l31-11c15-6 24-24 19-41-4-17-20-27-35-21zM5962 548l-31 12c-15 5-24 23-19 41 5 17 21 26 36 21l31-12c15-5 24-23 19-40s-21-27-36-22zM5858 586l-31 11c-16 6-24 24-19 41 4 18 21 27 36 22l31-12c15-5 24-24 19-41s-21-27-36-21zM5754 624l-32 11c-15 6-23 24-18 42 4 17 21 27 36 21l31-12c15-5 24-24 19-41s-21-27-36-21zM5650 662l-32 12c-15 5-23 24-18 41 4 18 21 27 36 22l31-12c16-6 24-24 19-42-5-17-21-26-36-21zM5546 701l-32 11c-15 6-23 25-18 43 4 17 21 26 36 21l31-12c16-6 24-25 19-42s-21-27-36-21zM5442 740l-32 11c-15 6-23 25-18 43 5 17 21 27 36 21h1l31-12c15-6 24-25 18-42-5-18-21-27-36-21zM5338 779l-31 11c-16 6-24 25-19 43 5 17 21 27 37 21l31-12c15-6 24-25 19-42-5-18-22-27-37-21zM5234 817l-31 12c-16 6-24 25-19 42 5 18 21 28 37 22l31-12c15-6 24-25 19-42-5-18-22-28-37-22zM5130 856l-31 12c-16 5-24 24-19 42s21 28 37 22l31-12c16-6 24-25 19-42-5-18-21-28-37-22zM5026 894l-31 12c-16 5-24 25-20 42 5 18 22 28 38 22l31-11c16-6 24-25 20-43-5-18-22-28-38-22zM4922 932l-31 12c-16 5-25 24-20 42s22 28 38 23v-1l31-11c16-6 25-25 20-43s-22-28-38-22zM4818 970l-31 11c-16 5-25 25-20 43 4 18 21 28 37 22l32-11c16-6 24-25 20-43-5-18-22-28-38-22zM4714 1007l-32 10c-16 6-25 25-20 43 5 19 22 29 38 23l31-11c16-5 25-25 20-43-4-18-21-28-37-22zM4609 1043l-31 10c-16 6-25 25-21 43 5 19 22 29 38 24v-1l31-10c17-6 26-25 21-43-5-19-22-29-38-23zM4505 1078l-32 10c-16 6-25 25-21 43 5 19 22 29 38 24l32-11c16-5 25-24 20-43-4-18-21-29-37-23zM4400 1112l-31 10h-1c-16 6-25 25-21 43 5 19 21 29 38 24l31-10c17-5 26-24 22-43-5-18-22-29-38-24zM4295 1146l-31 9h-1c-16 5-26 24-21 43 4 18 21 29 37 24l32-10c16-5 26-24 21-42-4-19-21-30-37-25v1zM4190 1178l-32 9c-16 5-26 24-22 43 4 18 21 29 37 24l32-9c16-5 26-24 22-43-4-18-21-29-37-24zM4084 1209l-32 8v1c-16 4-26 23-22 42 4 18 20 30 37 25l32-9c16-5 26-24 22-42-4-19-20-30-37-26v1zM3979 1238l-32 9h-1c-16 4-26 23-22 41 3 19 20 30 36 26l32-8c17-5 27-24 23-42-4-19-20-30-36-26h-1zM3872 1266l-31 8h-1c-16 4-27 23-23 41 4 19 20 31 36 27l32-8c17-5 27-23 24-42-4-19-20-30-36-26h-1zM3766 1292l-32 8c-17 3-27 22-24 41 3 18 19 31 36 27l32-8c17-4 27-22 24-41s-19-31-36-27zM3659 1317l-32 7c-16 3-27 21-24 40s19 32 35 28l33-7c16-4 27-22 24-41s-19-31-35-28h-1zM3553 1339l-33 6v1c-16 3-28 21-25 40s19 31 35 28l33-6c16-4 28-22 25-41s-19-31-35-28zM3445 1360l-32 5v1c-17 2-28 20-26 39 3 19 18 32 35 29l33-6c16-3 28-20 25-39-2-19-18-32-35-29zM3338 1378l-32 5h-1c-16 3-28 21-26 40s18 32 34 29l33-5c17-2 29-20 26-39-2-19-17-32-34-30zM3230 1395l-32 4c-17 3-29 20-27 39s17 33 34 30l32-4c17-2 29-20 27-39s-17-33-34-30zM3122 1409l-32 3v1c-17 2-30 19-28 38s17 33 33 31l33-4c17-2 29-19 28-38-2-19-17-33-34-31zM3014 1420l-32 3h-1c-16 2-29 19-28 38 2 19 16 34 33 32l33-3c17-2 30-18 28-38-1-19-16-33-33-32zM2906 1430l-32 2h-1c-17 1-30 17-29 37 1 19 16 34 33 32l33-2c16-1 29-17 28-37 0-19-15-34-32-32zM2798 1436l-33 1c-17 1-30 17-30 36 1 20 15 35 32 34l33-1c17-1 30-17 29-37 0-19-14-34-31-33zM2689 1440h-33c-16 0-30 16-30 35 0 20 14 35 31 35l33-1c17 0 31-16 30-35 0-19-14-35-31-34zM2581 1440h-33c-17 0-31 15-31 34 0 20 13 35 30 36h33c17 0 31-15 31-35 1-19-13-35-30-35zM2473 1438l-33-2c-17 0-31 15-32 34s12 36 29 36l33 2c17 0 32-15 32-34 1-19-12-36-29-36zM2364 1432l-32-2c-17-1-32 13-33 33-1 19 12 36 29 37l32 2c17 1 32-13 33-33 1-19-11-36-28-37h-1zM2257 1423l-33-3c-17-2-32 13-33 32-2 19 10 36 27 38l33 3c17 2 32-12 33-32 2-19-10-36-27-38h-1zM2149 1411l-32-4c-17-2-33 11-35 30-2 20 10 37 27 39l33 5c16 2 32-12 34-31s-10-37-27-39zM2042 1395l-32-5h-1c-16-3-32 10-35 29-2 20 9 37 26 40l33 6c16 3 32-11 35-30 2-19-9-37-26-40zM1935 1376l-32-6v-1c-17-3-33 10-36 29s8 37 25 40l32 7c17 3 33-9 36-28s-8-37-25-41zM1829 1353l-32-8c-17-4-33 8-37 27-3 19 7 38 24 42l32 8c17 4 33-8 37-27 3-19-7-38-24-42zM1724 1326l-32-9c-17-5-33 6-38 25-4 19 6 38 23 43l32 9c16 5 33-7 37-26 4-18-6-38-22-42zM1619 1295l-31-11c-17-5-34 6-38 24-5 19 4 38 21 44l31 10c17 5 34-5 38-24 5-19-4-38-20-43h-1zM1516 1259l-31-11c-16-6-34 4-39 23-5 18 3 38 20 44l31 11c16 6 34-4 39-22 5-19-4-39-20-45zM1414 1220l-31-13c-16-6-34 3-40 22-6 18 3 38 19 45l31 12c16 7 33-3 39-21s-2-38-18-45zM1313 1177l-30-14c-16-7-34 2-41 20-6 18 1 38 17 45l31 14c16 7 34-1 40-19s-1-39-17-46zM1213 1130l-29-15-1-1c-15-7-33 1-40 18-7 18 0 39 15 47l30 15c16 8 34 0 41-18s0-38-15-46h-1zM1115 1078l-29-16c-15-8-34-1-41 16-8 18-2 39 14 47l29 17c16 8 34 1 42-16 7-18 1-39-14-47l-1-1zM1019 1023l-28-17h-1c-15-9-33-3-41 14-9 17-3 39 12 48l29 17c15 10 34 3 42-14s2-38-13-48zM925 964l-28-19c-15-10-34-4-43 13-8 17-3 38 11 48l29 19c14 10 33 4 42-13s4-38-11-48zM833 901l-28-20c-14-11-33-6-43 10-9 17-5 39 10 49l27 20c15 11 34 6 43-11 9-16 5-38-9-48zM743 833l-27-21c-14-11-33-7-43 9s-7 38 7 49l28 21c14 11 33 7 43-9 9-15 6-37-8-48v-1zM655 762l-25-22-1-1c-13-11-33-8-43 7-10 16-8 38 6 50l26 22c14 12 33 9 43-7 11-15 8-37-5-49h-1zM571 686l-25-23c-14-13-33-11-44 4s-9 38 4 50l25 24c13 13 33 10 44-5s9-37-4-49v-1zM489 607l-24-25a28 28 0 0 0-44 2 39 39 0 0 0 2 50l25 26c12 13 32 11 43-3 12-15 11-37-2-50zM410 523l-22-26h-1a28 28 0 0 0-44 1 39 39 0 0 0 0 49l24 27c12 14 32 13 44-1 12-13 12-36 0-49l-1-1zM335 436l-21-27h-1a28 28 0 0 0-44-2 39 39 0 0 0-2 50l23 27c11 15 31 15 44 2 12-13 13-35 1-50zM264 345l-21-29a29 29 0 0 0-44-4 39 39 0 0 0-4 50l22 29c11 14 30 16 43 4 13-13 15-35 4-50zM197 250l-20-30c-10-16-30-19-44-7a39 39 0 0 0-6 50l20 30c10 15 30 18 44 7 13-12 16-34 6-50h-1zM133 151l-18-30v-1c-10-16-29-20-43-9a39 39 0 0 0-8 49l18 31c10 16 29 20 43 9s18-33 9-49h-1zM75 49 58 17C49 0 30-5 15 5A38 38 0 0 0 4 54l18 32c9 17 28 22 42 12 15-10 20-32 11-49z"/></g></g></svg>