<?xml version="1.0" encoding="UTF-8"?>
<!DOCTYPE svg PUBLIC "-//W3C//DTD SVG 1.1//EN" "http://www.w3.org/Graphics/SVG/1.1/DTD/svg11.dtd">
<!-- Creator: CorelDRAW 2020 (64 Bit) -->
<svg xmlns="http://www.w3.org/2000/svg" xml:space="preserve" width="103.546mm" height="140mm" version="1.1" style="shape-rendering:geometricPrecision; text-rendering:geometricPrecision; image-rendering:optimizeQuality; fill-rule:evenodd; clip-rule:evenodd"
viewBox="0 0 12542.07 16957.65"
 xmlns:xlink="http://www.w3.org/1999/xlink"
 xmlns:xodm="http://www.corel.com/coreldraw/odm/2003">
 <defs>
  <style type="text/css">
   <![CDATA[
    .str0 {stroke:#848688;stroke-width:64.1;stroke-miterlimit:22.9256}
    .fil13 {fill:none}
    .fil14 {fill:#BDBFC1}
    .fil11 {fill:#4B4B4D}
    .fil9 {fill:#373435}
    .fil15 {fill:#0098DA}
    .fil5 {fill:#00d39b}
    .fil6 {fill:#01A8C5}
    .fil3 {fill:#3E2C48}
    .fil1 {fill:#4E3A5C}
    .fil2 {fill:#5d5fef}
    .fil10 {fill:#B3E0D0}
    .fil0 {fill:#CA365B}
    .fil12 {fill:#E1F2EA}
    .fil7 {fill:#E73A5E}
    .fil4 {fill:#F9B5A7}
    .fil16 {fill:#F9B6A8}
    .fil8 {fill:#FDFEFE}
    .fil17 {fill:#DB6275;fill-rule:nonzero}
   ]]>
  </style>
 </defs>
 <g id="Camada_x0020_1">
  <metadata id="CorelCorpID_0Corel-Layer"/>
  <path class="fil0" d="M7347.9 12557.98c-147.69,208.12 -248.85,386.59 -493.15,518.71 -607.17,328.35 -2029.98,-291.04 -2474.22,-351.87 -45.58,261.75 -5.5,332.1 164.2,488.27 326.79,300.73 1469.54,447.67 1758.02,404l157.55 -0.94c269.28,43.87 1576.59,-54.6 1690.8,-441.44 78.61,-266.25 -132.18,-353.28 -272.76,-427.66 191.98,-362.83 251.23,-476.68 353.28,-907.19 69.27,-292.22 150.91,-810.56 150.91,-1172.43 -30.94,0 -68.47,-2.85 -98.12,5.5 -107,30.1 -27.59,-18.29 -90.78,57.37 42.58,175.05 -87.31,881.77 -125.45,1040.64 -83.24,346.71 -174.75,623.78 -347.39,881.57 -145.38,-12.09 -218.16,-68.76 -372.87,-94.53z"/>
  <path class="fil1" d="M3655.96 11085.76c9.88,59.65 32.6,-33.46 -23.1,37.09l-212.75 254.72c-104.42,129.74 -160.44,225.08 -263.41,367.08 -149.86,206.64 -370.23,527 -470.38,750.3 -122.14,148.5 -276.2,542.16 -378.65,630.23 -8.72,62.28 -439.78,990.62 -556.93,1129.08 -3.55,4.19 -11.1,12.39 -17.21,18.01l-756.29 1705.75c152.28,45.83 338.09,91.04 449.62,172.3 138.48,-112.24 784.34,-1032.26 936.91,-1134.43l337.19 356.06c118.53,139.91 214.87,261.34 324.56,406.89l378.13 -151.52 68.92 -33.19c-53.56,-213.16 -509.8,-999.75 -573.11,-1271.5 92.46,-138.07 212.99,-278.93 315.12,-409.65l643.86 -805.69c114.95,-146.36 235.83,-278.17 333.01,-423.28l148.03 31.72c5.2,1.19 16.63,3.71 20.74,4.64 4.01,0.92 13.42,3.67 20.3,4.43 444.24,60.83 1867.05,680.22 2474.22,351.87 337.29,-182.42 614,-628.64 736.48,-994.88 56.64,-169.33 129.54,-356.56 129.54,-569.97l-2681.86 -746.32c-159.37,65.8 -465.2,200.22 -627.46,226.52 -222.19,36 -582.01,-6.3 -755.49,93.73z"/>
  <path class="fil2" d="M8042.01 4427.93c-32.85,410.88 -153.88,787.33 -355.59,1037.57 -185.81,230.52 -495.42,451.41 -880.62,507.77 -959.55,140.37 -1294.45,-608.93 -1309.81,-1482.32 -124.31,-40.67 -271.66,-64.86 -411.05,-105.68 -145.34,-42.53 -281.36,-79.68 -411.77,-114.89 -66.2,177.69 -291.72,493.13 -397.61,682.21 -106.69,190.53 -293.45,521.38 -345.79,735.82 147.39,66.05 238.34,115.77 377.93,198.89 143.85,85.66 232.8,159.49 356.44,242.26l-504.19 2305.39 156.29 -28.05c154.36,175.67 421.34,1394.34 568.48,1603.02l154.19 755.6 2681.86 746.32 171.59 -813.06c35.08,-316.77 125.12,-689.7 184.84,-995.56 52.19,-267.42 92.03,-775.73 210.78,-965.06l355.18 -1906.78c58.27,-352.37 45.26,-289.66 520.91,-613.52l650.28 -483.4c3.36,-2.91 11.14,-9.64 16.63,-14.55 -95.58,-289.26 -211.04,-548.79 -333.31,-831.4 -104.69,-241.95 -268.33,-559.25 -341.93,-807.21 -93.42,9.64 -163.56,43.79 -256.75,75.17l-856.98 271.46z"/>
  <path class="fil3" d="M1733.53 14272.27c6.12,-5.62 13.66,-13.82 17.21,-18.01 117.14,-138.46 548.2,-1066.79 556.93,-1129.08 -40.9,-62.02 -275.3,-564.82 -290.53,-630.23l669.19 0c100.15,-223.31 320.52,-543.66 470.38,-750.3 102.97,-142.01 158.99,-237.35 263.41,-367.08l212.75 -254.72c55.69,-70.54 32.98,22.57 23.1,-37.09 -295.32,-60.48 -746.68,83.73 -1080.31,63.37l-138.59 -355.82 -1244.18 89.58c-151.32,25.78 -246.93,43.46 -392.85,79.82 -228.25,56.91 -466.32,153.66 -544.78,337.55 -182.57,428.01 135.19,1053.51 322.57,1405.03 98.79,185.32 243.46,376.39 361.32,552.54l577.88 745.6c74.81,94.61 162.68,167.52 216.51,268.83z"/>
  <path class="fil4" d="M3705.39 5562.35c78.8,-251.66 188.31,-503.12 294.32,-727.51 97.54,-206.48 265.52,-476.85 333.64,-659.01l-866.45 -283.82c-119.6,-35.91 -177.3,-82.83 -315.34,-94.31 13.48,-162.08 697.33,-1649.8 840.08,-1932.97l278.88 -669.34c-39.22,-44.55 -276.54,-361.27 -316.58,-305.96 -549.71,759.29 -1088.16,1529.76 -1557.26,2342.48l-212.29 386.43c-394.64,780.28 550.05,1382.12 1122.85,1725.31 79.14,47.42 316.67,191.21 398.13,218.71z"/>
  <path class="fil5" d="M10135.75 14259.62c91.43,48.56 1307.43,29.74 1460.97,3.32 278.36,-263.26 479.71,-247.32 850.81,-948.67 -412.28,9.18 -826.47,476.9 -1008.37,598.73 52.14,-195.26 336.94,-407.24 554.2,-1494.08 181.05,-905.72 116.16,-853.59 548.71,-1499.54 -431.58,100.53 -866.81,723.79 -1035.87,1138.43 -182.39,447.35 -256.88,802.98 -358.53,1280.08 -14.06,65.98 -36.71,154.65 -52.12,231.48l-66.04 217.57c0,-157 32.98,-219.84 32.98,-409.66 0,-520.65 -138.19,-1425.06 -299.76,-1907.53 -37.62,-112.37 -76.88,-212.99 -120.1,-321.07 -44.7,-111.8 -107.77,-209.1 -117.31,-323.85l-63.02 0c0,430.77 -46.03,779.13 -32.55,1230l64.05 1227.93c-4.22,-6.65 -8.75,-25.78 -10.16,-21.33l-355.8 -1125.27c-30.14,-86.25 -45.99,-116.8 -69.62,-182.48 -43.69,-121.45 -12.68,-119.43 -100.11,-183.48 0,483.33 -41.57,230.56 -1.76,694.82 7.75,90.49 -1.57,191.68 0.71,283.07 6.64,264.53 104.48,649.01 158.59,881.31 -120.9,-80.97 -174.46,-223.36 -378.77,-221.13 -170.44,1.85 -281.55,142.81 -314.48,284.14 105.68,-55.92 163.07,-113.4 315.11,-126.04 167.6,250.29 306.89,592.6 398.23,693.27z"/>
  <path class="fil6" d="M11596.72 14262.94c-153.54,26.42 -1369.55,45.24 -1460.97,-3.32l-524.27 0c9.67,116.11 60.24,225.38 89.21,320.44 56.13,184.16 26.41,183.75 257.43,183.75 0,358.98 189.07,1247.42 189.07,1670.12l1512.56 0 135.53 -1250.99c12.31,-93.07 51.15,-311.5 53.55,-419.13l157.55 0c41.52,-178.22 126.06,-295.33 126.06,-504.19l-535.7 3.32z"/>
  <path class="fil7" d="M7892.36 10698.78c162.26,0 190.07,27.42 301.25,31.52 63.19,-75.66 -16.22,-27.27 90.78,-57.37 29.65,-8.35 67.19,-5.5 98.12,-5.5 274,105.83 731.04,-120.19 882.88,-220.2 241.79,-159.29 431.49,-418.88 409.64,-754.65 -46,-707.15 -782.15,-903.04 -1387.05,-954.43 -118.75,189.33 -158.59,697.64 -210.78,965.06 -59.72,305.86 -149.76,678.79 -184.84,995.56z"/>
  <path class="fil3" d="M6460.3 13616.15l-157.55 0.94 0 2218.11c-435.4,9.7 -536.21,126.65 -778.17,167.19 -873.96,146.41 -426.98,871.01 -117.93,512.46 3.03,-3.5 8.83,-12.22 13.77,-17.9 -15.55,-186.87 -89.88,-137.01 -94.54,-346.63 316.34,-167.38 474.41,55.33 819.31,63.02l-69.96 56.15c-74.37,71.22 -113.02,151.35 -77.23,276.53 143.36,501.16 900.77,-27.13 388.2,-290.08 -6.37,-3.27 -15.25,-7.01 -21.4,-10.13l-41.52 -21.5c-4.38,-2.27 -14.15,-6.55 -20.52,-10.97 788.58,0 812.21,-134.05 968.73,-120.57 106.91,9.18 203.54,43.21 260.23,120.57 -157.73,36.75 -216.34,93.25 -220.58,283.6 286.12,427.28 703.46,-127.06 303.58,-398.12 -143,-96.93 -215.53,-43.69 -524.67,-168.58 -102.28,-41.33 -453.82,-95.05 -598.22,-95.05l0.22 -1670.34c1.2,-234.77 -31.74,-333.21 -31.74,-548.71z"/>
  <path class="fil4" d="M6092.78 4585.49c-163.21,0 -175.64,-5.04 -301.03,-31.5 -2.42,332.15 22.06,623.76 210.26,836.16 306.62,346.01 715.53,420.13 1151.56,140.91 333.42,-213.52 545.01,-610.91 583.85,-1040.1 -102.74,37.83 -320.39,94.54 -457.8,94.54l-57.23 -383.56c-8.77,-36.34 -2.11,-16.67 -14.14,-51.31 -29.31,-84.46 16.15,-10.37 -33.43,-69.32 6.33,430.72 -94.91,744.66 -371.18,879.33 -148.1,72.2 -345.8,102.05 -507.17,9.13 -145.04,-83.52 -170.18,-209.12 -203.7,-384.27z"/>
  <path class="fil8" d="M7737.41 4490.96c-38.85,429.19 -250.43,826.58 -583.85,1040.1 -436.03,279.22 -844.94,205.1 -1151.56,-140.91 -188.21,-212.39 -212.69,-504.01 -210.26,-836.16l-295.75 -63.03c15.36,873.39 350.26,1622.69 1309.81,1482.32 385.21,-56.36 694.82,-277.26 880.62,-507.77 201.71,-250.23 322.74,-626.68 355.59,-1037.57 -124.65,9.59 -192.75,51.07 -304.6,63.02z"/>
  <path class="fil4" d="M6271.23 4186.94c418.1,290.07 16.9,863.24 647.43,-150.14 82.94,-243.46 -54.43,-617.11 -99.44,-844.1 -440.27,100.86 -302.46,35.54 -611.01,-68.01 -130.07,326.74 -0.82,741.99 63.02,1062.25z"/>
  <path class="fil8" d="M9155.74 4081.31c73.6,247.96 237.24,565.26 341.93,807.21 122.28,282.61 237.73,542.14 333.31,831.4 83,-54.37 263.13,-179.27 316.2,-252.84l-686.2 -1480.31c-125.26,9.53 -204.01,40.61 -305.24,94.54z"/>
  <path class="fil9" d="M1426.87 16150.32c-111.53,-81.26 -297.34,-126.47 -449.62,-172.3 -274.69,423.26 -75.24,514.88 -500.26,648.9 -138.36,43.62 -303.7,56.61 -414.45,126.82 -286.6,181.76 489.46,239.09 763.13,183.6 47.84,-9.69 66.96,-20.18 98.74,-59.23l358.79 -516.3c54.28,-71.44 110.94,-129.45 143.67,-211.49z"/>
  <path class="fil8" d="M3705.39 5562.35l224.37 126.06c52.34,-214.44 239.1,-545.29 345.79,-735.82 105.89,-189.08 331.41,-504.51 397.61,-682.21 -90.12,-18.47 -258.2,-64.09 -339.81,-94.55 -68.12,182.16 -236.1,452.53 -333.64,659.01 -106.01,224.39 -215.52,475.84 -294.32,727.51z"/>
  <path class="fil9" d="M3025.52 15778.84c47.6,78.7 204.29,302.84 200.6,364.98 -6.13,102.92 -86.48,283.76 -200.6,416.15 -75.93,94.77 -149.51,283.18 -34.55,229.7 144.45,-67.2 653.72,-383.44 771.73,-482.55 -28.28,-121.37 -134.84,-243.5 -190.86,-356.5 -54.65,-110.22 -140.85,-228.55 -168.2,-323.3l-378.13 151.52z"/>
  <path class="fil10" d="M4538.09 2474.21c-19.32,43.68 -36.16,-5.1 5.6,54.7 0.01,0.01 61.51,61.14 64.1,63.68 111.21,109.03 313.98,255.85 466,291.27 -22.55,-206.16 30.98,7.04 -275.09,-229.09 -184.68,-142.47 -208.22,-203.75 -260.6,-180.56z"/>
  <path class="fil10" d="M4443.55 3356.54c60.71,82.85 135.06,85.53 264.67,113.47 136.1,29.34 209.33,44.09 365.56,44.09l0 -63.03c-356.52,0 -564.06,-169.84 -630.23,-94.53z"/>
  <path class="fil10" d="M5483.44 2316.65c-12.27,-147.42 14.26,-46.63 -67.5,-153.09 -35.28,-45.93 -62.88,-84.36 -89.65,-130.93 -30.2,-52.48 -40.65,-86.24 -72.4,-148.2 -48.09,-93.82 -10.83,-75.11 -117.08,-103.49 34.16,146.66 196.37,481.31 346.63,535.7z"/>
  <path class="fil11" d="M6167.7 3132.05c28.73,169.82 211.24,161.51 651.51,60.65 45.01,226.99 182.38,600.64 99.44,844.1 -217.74,74.72 -318.57,-29 -654.13,117.29 -32.27,37.19 -145.93,122.48 -172.24,177.91 -96.33,202.92 -6.67,516.35 204.18,637.77 161.36,92.92 359.07,63.07 507.17,-9.13 276.26,-134.67 377.51,-448.6 371.18,-879.33 23.69,-187.54 -51.2,-226.51 -6.36,-360.76 64.23,-192.32 295.15,-369.1 -77.92,-269.48 0,-141.28 -30.1,-233.42 -65.69,-343.96 -74.66,-231.87 -168.4,-336.46 -470.02,-191.73 -12.15,-25.34 -65.34,-393.96 -290.52,-230.66 -221.76,160.83 -111.13,395.65 -96.61,447.34z"/>
  <path class="fil12" d="M4159.94 8434.95l-2363.38 688.24c9.79,117.69 245.23,667.43 303.32,831.09l337.17 839.03 138.59 355.82c253.04,24.87 1520.12,-95.06 1835.8,-157.1 162.26,-26.3 468.09,-160.72 627.46,-226.52 241.32,-100.63 500.92,-203.88 753.08,-294.43 416.77,-149.64 672.23,-178.49 637.3,-443.14l-1544.58 -18.02c-147.14,-208.68 -414.12,-1427.35 -568.48,-1603.02l-156.29 28.05z"/>
  <path class="fil13 str0" d="M3174.51 9612.6c-259.75,152.15 -91.23,587.35 227.9,456.2 306.9,-126.14 79.03,-635.97 -227.9,-456.2z"/>
  <polygon class="fil14" points="5013.31,10640.14 6429.29,10027.94 4884.71,10009.92 "/>
  <path class="fil11" d="M7878.33 12747.04c191.98,-362.83 251.23,-476.68 353.28,-907.19 69.27,-292.22 150.91,-810.56 150.91,-1172.43 -30.94,0 -68.47,-2.85 -98.12,5.5 -107,30.1 -27.59,-18.29 -90.78,57.37 42.58,175.05 -87.31,881.77 -125.45,1040.64 -83.24,346.71 -174.75,623.78 -347.39,881.57l157.56 94.54z"/>
  <path class="fil15" d="M11596.72 14262.94c-153.54,26.42 -1369.55,45.24 -1460.97,-3.32l-524.27 0c9.67,116.11 60.24,225.38 89.21,320.44 56.13,184.16 26.41,183.75 257.43,183.75l1890.71 0 157.55 0c41.52,-178.22 126.06,-295.33 126.06,-504.19l-535.7 3.32z"/>
  <g id="_3123066793232">
   <polygon class="fil16" points="4253.9,1239.52 3930.69,920.38 4274.18,436.24 4813.77,329.4 4877.32,731.04 4704.22,739.16 4704.22,974.47 4324.21,1052.9 "/>
   <polygon class="fil17" points="4422.86,658.54 4302.4,702.23 4314.98,814.52 4703.91,726.89 4704.22,775.47 4273.96,872.05 4251.38,670.59 4406.8,614.22 "/>
  </g>
  <path class="fil4" d="M9570.23 864.77l-274.85 -317.35 124.68 -153.02 -127.51 -155.84 164.83 -192.68c43.84,-40.94 103.28,-54.17 175.38,-40.94 167.24,30.69 323.39,49.12 470.74,162.14 531.33,540.14 841.33,921.75 1209.61,1676.89 341.53,694.31 973.36,1760.01 291.62,2434.43 -293.89,290.73 -737.91,641.16 -1075.27,909.95 -125.34,99.86 -240.85,205.89 -382.29,278.72l-686.2 -1480.31c30.77,-31.93 -2.05,-13.38 69.56,-49.76 180.3,-91.6 810.03,-277.81 1120.83,-485.95 0,-309.85 -77.9,-621.93 -139.22,-900.65 -143.09,-650.17 -288.61,-1114.52 -411.13,-1444.39 -76.72,-206.53 -98.34,-251.74 -200.35,-395.05 -45.71,-64.27 -30.45,-71.92 -88.05,-28.59l-242.39 182.38z"/>
  <polygon class="fil17" points="9416.45,398.84 9714.47,756.24 9676.85,784.56 9386.41,435.7 "/>
 </g>
</svg>
