<svg xmlns="http://www.w3.org/2000/svg" xml:space="preserve" width="417" height="164" style="shape-rendering:geometricPrecision;text-rendering:geometricPrecision;image-rendering:optimizeQuality;fill-rule:evenodd;clip-rule:evenodd" viewBox="0 0 1980.3 779.6"><defs><style>.fil0,.fil1{fill:#686af0}.fil0{fill-rule:nonzero}</style></defs><g id="Camada_x0020_1"><path class="fil0" d="M10 19a9 9 0 1 1 0-19h361c5 0 9 4 9 10 0 5-4 9-9 9H10z"/><path class="fil0" d="M371 19c-5 0-10-4-10-9 0-6 5-10 10-10 19 0 37 8 50 21s21 31 21 50a9 9 0 1 1-19 0c0-14-6-27-16-36-9-10-22-16-36-16z"/><path class="fil0" d="M423 71a9 9 0 1 1 19 0v381c0 5-4 9-9 9-6 0-10-4-10-9V71z"/><path class="fil0" d="M423 452c0-6 4-10 10-10 5 0 9 4 9 10 0 14 6 27 16 36 9 10 22 16 36 16a9 9 0 1 1 0 19c-19 0-37-8-50-21a71 71 0 0 1-21-50z"/><path class="fil0" d="M490 523c-6 0-10-4-10-10 0-5 4-9 10-9h1031c5 0 10 4 10 9 0 6-5 10-10 10H490z"/><path class="fil0" d="M1521 513v-4a227 227 0 0 1 219-219h5c5 0 9 1 13 3 5 2 9 5 12 9l1 5v414c0 3-1 6-3 7-2 3-5 5-10 7l-13 2h-1c-61 0-116-26-157-66-40-40-66-96-66-156v-2zm19-4v6c0 55 24 106 61 143s87 60 143 60h1l7-1V311l-1-1-7-1h-4a208 208 0 0 0-200 200z"/><path class="fil0" d="M1762 252h109c5 0 10 4 10 9v509c0 5-5 10-10 10h-109c-6 0-10-5-10-10V261c0-5 4-9 10-9zm99 19h-90v490h91V271z"/><path class="fil1" d="M1709 411h47a12 12 0 1 1 0 24h-47a12 12 0 1 1 0-24zM1709 597h47a12 12 0 1 1 0 23h-47a12 12 0 1 1 0-23zM1661 502h91c6 0 12 5 12 11 0 7-6 12-12 12h-91a12 12 0 0 1 0-23zM1885 338h72a24 24 0 1 1 0 47h-72c-13 0-23-11-23-24s10-23 23-23zM1885 642h72a24 24 0 1 1 0 47h-72a24 24 0 0 1 0-47zM1312 442h133c5 0 10 4 10 10 0 5-5 9-10 9h-133c-5 0-9-4-9-9 0-6 4-10 9-10z"/><path class="fil1" d="m1474 452-32 33-11-11 21-22-21-23 11-11z"/></g></svg>