<svg xmlns="http://www.w3.org/2000/svg" xml:space="preserve" width="3663" height="2292" style="shape-rendering:geometricPrecision;text-rendering:geometricPrecision;image-rendering:optimizeQuality;fill-rule:evenodd;clip-rule:evenodd" viewBox="0 0 34664.5 21690" xmlns:xlink="http://www.w3.org/1999/xlink"><defs><linearGradient id="id0" gradientUnits="userSpaceOnUse" x1="13630.1" y1="21127" x2="14089.4" y2="21127"><stop offset="0" style="stop-opacity:1;stop-color:#ff928e"/><stop offset="1" style="stop-opacity:1;stop-color:#feb3b1"/></linearGradient><linearGradient id="id1" gradientUnits="userSpaceOnUse" xlink:href="#id0" x1="16068.7" y1="11693.6" x2="17557.8" y2="11693.6"/><linearGradient id="id2" gradientUnits="userSpaceOnUse" xlink:href="#id0" x1="11808" y1="21076" x2="12192.7" y2="21076"/><linearGradient id="id3" gradientUnits="userSpaceOnUse" x1="19446.2" y1="4830.6" x2="31531.1" y2="4830.6"><stop offset="0" style="stop-opacity:1;stop-color:#dae3fe"/><stop offset="1" style="stop-opacity:1;stop-color:#e9effd"/></linearGradient><linearGradient id="id4" gradientUnits="userSpaceOnUse" xlink:href="#id3" x1="8045.5" y1="15138.3" x2="14612.2" y2="15138.3"/><linearGradient id="id5" gradientUnits="userSpaceOnUse" xlink:href="#id3" x1="24841.6" y1="9296.3" x2="34151.3" y2="9296.3"/><linearGradient id="id6" gradientUnits="userSpaceOnUse" xlink:href="#id3" x1="19424.4" y1="4827.6" x2="31531.1" y2="4827.6"/><linearGradient id="id7" gradientUnits="userSpaceOnUse" xlink:href="#id3" x1="19442.1" y1="4827.5" x2="31522.9" y2="4827.5"/><linearGradient id="id8" gradientUnits="userSpaceOnUse" xlink:href="#id3" x1="19424.4" y1="4821.4" x2="31531.1" y2="4821.4"/><linearGradient id="id9" gradientUnits="userSpaceOnUse" xlink:href="#id3" x1="19424.5" y1="4827.1" x2="31531.1" y2="4827.1"/><linearGradient id="id10" gradientUnits="userSpaceOnUse" xlink:href="#id3" x1="19424.5" y1="4807.8" x2="31531.1" y2="4807.8"/><linearGradient id="id11" gradientUnits="userSpaceOnUse" xlink:href="#id3" x1="19424.3" y1="4827.1" x2="31531.4" y2="4827.1"/><linearGradient id="id12" gradientUnits="userSpaceOnUse" xlink:href="#id3" x1="19428.9" y1="4827.7" x2="31490.8" y2="4827.7"/><linearGradient id="id13" gradientUnits="userSpaceOnUse" xlink:href="#id0" x1="22361.8" y1="2624.7" x2="21921.2" y2="5894.8"/><linearGradient id="id14" gradientUnits="userSpaceOnUse" xlink:href="#id0" x1="22418.2" y1="2652.8" x2="21979.2" y2="5844.1"/><linearGradient id="id15" gradientUnits="userSpaceOnUse" x1="14590.2" y1="20580" x2="15001.2" y2="15522.2"><stop offset="0" style="stop-opacity:1;stop-color:#4042e2"/><stop offset="1" style="stop-opacity:1;stop-color:#4f52ff"/></linearGradient><linearGradient id="id16" gradientUnits="userSpaceOnUse" xlink:href="#id0" x1="22719.9" y1="1119.3" x2="22895" y2="2220"/><linearGradient id="id17" gradientUnits="userSpaceOnUse" xlink:href="#id0" x1="10473.5" y1="5594.6" x2="8225.1" y2="9949.9"/><linearGradient id="id18" gradientUnits="userSpaceOnUse" xlink:href="#id0" x1="-1971.7" y1="-3492.4" x2="-1167.3" y2="-2429.4"/><linearGradient id="id19" gradientUnits="userSpaceOnUse" xlink:href="#id15" x1="7323.7" y1="18555.3" x2="5410.2" y2="30520.3"/><linearGradient id="id20" gradientUnits="userSpaceOnUse" xlink:href="#id15" x1="14756.7" y1="19165.8" x2="14368.2" y2="21748.6"/><linearGradient id="id21" gradientUnits="userSpaceOnUse" xlink:href="#id15" x1="12531.2" y1="20410.5" x2="12943.5" y2="15290"/><linearGradient id="id22" gradientUnits="userSpaceOnUse" xlink:href="#id0" x1="20284.8" y1="4775.3" x2="19136.8" y2="5460.4"/><linearGradient id="id23" gradientUnits="userSpaceOnUse" xlink:href="#id3" x1="19427.1" y1="4827.1" x2="31530.6" y2="4827.1"/><linearGradient id="id24" gradientUnits="userSpaceOnUse" xlink:href="#id0" x1="11734" y1="13626.8" x2="10894.2" y2="14796.7"/><linearGradient id="id25" gradientUnits="userSpaceOnUse" xlink:href="#id0" x1="-4537.5" y1="-6981.4" x2="-3559.6" y2="-5723"/><linearGradient id="id26" gradientUnits="userSpaceOnUse" xlink:href="#id3" x1="19424.4" y1="4827" x2="31531.5" y2="4827"/><linearGradient id="id27" gradientUnits="userSpaceOnUse" xlink:href="#id3" x1="19423.5" y1="4827.1" x2="31531.9" y2="4827.1"/><linearGradient id="id28" gradientUnits="userSpaceOnUse" xlink:href="#id15" x1="12832.8" y1="18815.5" x2="12444.7" y2="21473.9"/><linearGradient id="id29" gradientUnits="userSpaceOnUse" xlink:href="#id3" x1="19424.3" y1="4827.1" x2="31531.1" y2="4827.1"/><linearGradient id="id30" gradientUnits="userSpaceOnUse" xlink:href="#id3" x1="19428.3" y1="4827.3" x2="31527.7" y2="4827.3"/><style>.fil8{fill:#fefefe}.fil45{fill:#a9abae}.fil7{fill:#96989a}.fil52{fill:#848688}.fil29{fill:#606062}.fil39,.fil56{fill:#4b4b4d}.fil31,.fil33{fill:#373435}.fil9{fill:#01aaac}.fil41{fill:#212121}.fil34{fill:#5d5fef}.fil38{fill:#8385f3}.fil40{fill:#f79f67}.fil55{fill:#feb3b1}.fil43,.fil47{fill:#fefefe;fill-rule:nonzero}.fil47{fill:#e6e7e8}.fil11,.fil13,.fil51{fill:#96989a;fill-rule:nonzero}.fil11,.fil13{fill:#01aaac}.fil11{fill:#69dee0}.fil10,.fil4,.fil5{fill:#91b3fa;fill-rule:nonzero}.fil10,.fil5{fill:#bdd0fb}.fil10{fill:#e9eefd}</style></defs><g id="Camada_x0020_1"><path d="M12818 21294c-2028 0-3632-1491-7224-3910-1052-1823-637-3747 945-4287 223-77 453-112 689-112 1560 0 3416 1534 5642 2993-13 1949-9 3662 26 4790 6 199 86 379 212 516-98 6-194 10-290 10zm16163-1382c-831 0-1708-159-2581-511l21-1207c3780-1084 5660-3389 6584-5221 205 411 430 886 669 1446 1245 2927-1356 5493-4693 5493zm-16103-4873c-1141-443-2187-968-3069-1545-1757-1149-3441-1694-4842-1694-1835 0-3187 934-3593 2672-4092-3778 2103-5792 3732-6882 1826-1222-1698-4020 938-6200C7223 415 8378 36 9444 36c1551 0 2914 804 3887 1747a1022 1022 0 0 0-218 608c-54 2172-189 7908-235 12648zm13585-395c29-3616 13-7871-157-10713 1368-970 2557-1360 3549-1360 3189 0 4364 4022 3032 5773-192 251-352 476-483 681l-1848-1673s-6 3887-4021 7234l-72 59z" style="fill:#e9eefd"/><path d="M15056 20318c-17 71-120 67-131-6-195-1283-1132-6885-2924-9430-2008-2851-5066-5414-375-9026 58-45 141 3 131 75-53 411-70 1379 726 2328 1048 1248 1733 3687 697 6618 0 0 2385 7343 1876 9441z" style="fill:#69dee0;fill-rule:nonzero"/><path d="M5399 21235s-4449-2450-4130-6093c318-3644 4204-4483 8540-1648 4352 2846 12712 4438 16727 1092 4014-3347 4020-7234 4020-7234l3315 3000s-995 8948-13242 8437c0 0-3079-25-6540-2051-3136-1837-5595-4309-7550-3641-2410 823-2112 4856 1955 6853l-3095 1285z" style="fill:#7d97f4;fill-rule:nonzero"/><path style="fill:#d2d3d5;stroke:#373435;stroke-width:22.4;stroke-miterlimit:22.9256" d="m13654 2176 12110-308v18071l-12462-610z"/><path class="fil4" d="M14464 21275s-628-4993-3668-5921c-2916-891-3369 547-4977-1120-73-76-202-19-193 87 91 1130 645 4907 3950 4976 3819 79 4888 1978 4888 1978z"/><path class="fil5" d="M14267 20520c-8 0-17-4-21-12l-53-100c-682-1279-1454-2729-4264-3165-1501-233-2408-743-2904-1130-540-421-720-782-728-797-6-12-1-26 11-32s26-1 32 11c2 3 185 368 717 782 492 383 1391 887 2880 1119 1262 196 2230 617 2959 1286 637 585 1010 1285 1339 1903l53 100a24 24 0 0 1-21 35z"/><path d="M14590 20663c-11 0-22-8-23-20-2-10-166-1034-572-2437-375-1294-1039-3183-2072-4838-1032-1654-2029-2575-2683-3057-707-520-1175-652-1179-653a24 24 0 1 1 12-46c5 1 481 135 1195 661 658 484 1659 1409 2696 3070 1036 1659 1701 3554 2077 4851 407 1405 571 2431 573 2441 2 13-7 26-20 28h-4z" style="fill:url(#id4)"/><path class="fil7" d="M21815 21690c-3123 0-6652-103-8150-152a793 793 0 0 1-769-770c-35-1128-39-2841-25-4789 2-308 4-622 8-940 45-4740 180-10476 234-12648a1022 1022 0 0 1 956-997c418-28 899-40 1422-40 3145 0 7830 434 9767 628 524 52 936 471 980 996 25 295 47 614 68 953 170 2842 186 7097 157 10714a435482 435482 0 0 1-63 4756l-18 924a1339 1339 0 0 1-1284 1310c-942 40-2082 55-3283 55zM15844 2521c-387 0-740 7-1045 24a892 892 0 0 0-844 853c-113 2653-470 11481-357 14745a924 924 0 0 0 869 891c1385 81 4301 231 6909 231 1084 0 2115-26 2960-93 518-42 924-461 952-980 146-2707 565-10927 456-14155-17-515-416-935-929-981-1857-167-6261-535-8971-535z"/><path class="fil8" d="M18239 1960c0 99 77 181 176 186 490 26 1870 99 2487 135 121 7 217-103 194-222l-4-21c-16-82-83-143-166-151-417-38-1675-144-2509-114-100 3-178 86-178 187zM14363 4037c124 1617 456 6824 550 8310a431 431 0 0 0 426 404l8898 105c231 3 424-178 436-409l426-8055a432 432 0 0 0-415-455l-9874-364a432 432 0 0 0-447 464z"/><path class="fil9" d="M20615 16498c0 630-511 1141-1142 1141-630 0-1251-478-1251-1108 0-631 621-1175 1251-1175 631 0 1142 511 1142 1141z"/><path class="fil10" d="M19267 17200h-1c-77-1-142-59-150-136l-103-961a152 152 0 0 1 163-168l102 9c79 6 140 71 140 151v953c0 84-68 152-151 152zM19768 17201h-26c-83-1-150-69-150-152l1-969c0-84 68-152 151-152h60c85 0 154 72 151 157l-35 970c-3 82-70 146-152 146z"/><path class="fil11" d="M23018 16498c0 480-390 870-870 870s-953-365-953-845c0-481 473-895 953-895 481 0 870 389 870 869z"/><path class="fil10" d="M21929 17019h-21c-67-1-120-55-120-121v-775c0-67 54-121 121-121h48c68 0 123 57 121 125l-28 775c-3 66-56 117-121 117zM22278 16977c-34 0-67-28-65-69l41-811a65 65 0 0 1 114-39l351 407c22 26 21 64-3 88l-392 404a64 64 0 0 1-46 19z"/><path class="fil11" d="M15965 16498c0 480 390 870 870 870s954-365 954-845c0-481-474-895-954-895a870 870 0 0 0-870 869z"/><path class="fil10" d="M17055 17019c-66 0-119-51-122-117l-27-775c-3-68 52-125 121-125h47c67 0 121 54 121 121v775c0 66-53 120-120 121h-20zM16705 16977c-16 0-33-7-46-20l-392-404a65 65 0 0 1-3-88l351-407a65 65 0 0 1 114 39l41 811c2 41-31 69-65 69z"/><path d="M24267 14521h-9758c-93 0-170-71-179-163l-11-101a181 181 0 0 1 180-198h2l9768 101a181 181 0 0 1-2 361z" style="fill:#fefefe"/><path class="fil13" d="M20564 14405c-11-94-25-188-39-284l-6024-62c-108-1-192 92-182 199l11 100c9 93 86 163 179 163h6072l-17-116z"/><path d="M20939 14312a327 327 0 1 1-653 0 327 327 0 0 1 653 0z" style="fill:#5d5fef;fill-rule:nonzero"/><path class="fil4" d="m33431 12967-8394-745a662 662 0 0 1-604-656l-30-5663a662 662 0 0 1 708-664l8937 622a662 662 0 0 1 614 720l-513 5785a662 662 0 0 1-718 601z"/><path d="m24895 6452-56 4888a410 410 0 0 0 369 413l8049 799a409 409 0 0 0 448-371l464-5227a410 410 0 0 0-386-446l-8456-461a409 409 0 0 0-432 405z" style="fill:url(#id5)"/><path class="fil5" d="m28710 10723 4555 267c47 3 82 44 78 90l-6 74c-4 45-44 78-89 75l-4549-341a83 83 0 0 1 11-165zM28589 11179l-3 32c-4 45 30 86 75 90l4543 403c46 4 86-30 90-75l3-31c4-46-30-86-75-90l-4543-404c-46-4-86 30-90 75zM29932 11709l-2 14c-4 46 30 86 76 90l3164 281c45 4 86-30 90-75l5-65c5-46-30-86-76-90l-3169-230c-45-3-84 30-88 75z"/><path class="fil4" d="m32727 10944-9906-201a779 779 0 0 1-760-722l-490-6639a779 779 0 0 1 778-836l10534 13c436 1 786 359 777 795l-139 6828a779 779 0 0 1-794 762z"/><path class="fil5" d="m22193 3985 326 5740a482 482 0 0 0 465 454l9506 293c268 8 491-204 496-472l126-6169c5-272-216-495-489-491l-9956 136a481 481 0 0 0-474 509z"/><path class="fil4" d="m27010 8690 5365-51c55-1 99 44 98 99l-2 87c-1 53-44 96-98 95l-5363-35a97 97 0 0 1 0-195zM26904 9235v37c-1 54 41 98 95 100l5361 109c54 1 99-42 100-96l1-37c1-53-42-98-96-99l-5361-109c-54-1-99 41-100 95zM28522 9749v16c-2 54 41 99 95 100l3734 76c54 1 98-42 99-96l2-76c1-54-42-99-97-99l-3735-16c-54 0-97 42-98 95z"/><path class="fil13" d="M31265 9302H20276a864 864 0 0 1-860-783l-692-7351a864 864 0 0 1 843-945L31249 0c483-9 880 380 880 864v7574c0 477-387 864-864 864z"/><path d="m19426 1823 491 6357a534 534 0 0 0 527 493l10547 110c298 3 540-237 540-534V1405c0-302-250-544-552-534l-11039 377a534 534 0 0 0-514 575z" style="fill:url(#id3)"/><path d="m25057 1765 5948-178c61-2 111 47 111 108v96c0 59-47 107-107 108l-5947 82a108 108 0 0 1-5-216z" style="fill:url(#id10)"/><path d="M24952 2372v40c0 60 49 109 108 109h5948c60 0 108-49 108-109v-40c0-60-48-109-108-109l-5948 1c-59 0-108 48-108 108z" style="fill:url(#id9)"/><path d="M26757 2905v18c0 60 49 108 109 108h4142c60 0 108-48 108-108v-84c0-61-49-109-110-108l-4142 66c-59 1-107 49-107 108z" style="fill:url(#id8)"/><path d="M29539 6149c-5 0-10-2-15-5l-1799-1463-1774 1300c-10 8-24 6-33-4l-2463-2956-2340 2052a24 24 0 0 1-31-36l2358-2068c5-5 11-7 18-6 6 0 12 3 16 8l2465 2958 1770-1297c9-7 21-6 30 0l1797 1462 970-848c10-8 25-7 34 2 8 10 7 26-3 34l-984 861c-5 4-10 6-16 6z" style="fill:url(#id30)"/><path d="M23494 3636c-8 0-15-7-15-16v-48a16 16 0 1 1 31 0v48c0 9-7 16-16 16zm0 160c-8 0-15-7-15-16v-48c0-9 7-16 15-16 9 0 16 7 16 16v48c0 9-7 16-16 16zm0 159c-8 0-15-7-15-16v-47c0-9 7-16 15-16 9 0 16 7 16 16v47c0 9-7 16-16 16zm0 160c-8 0-15-7-15-16v-48c0-9 7-16 15-16 9 0 16 7 16 16v48c0 9-7 16-16 16zm0 159c-8 0-15-7-15-16v-47a16 16 0 1 1 31 0v47c0 9-7 16-16 16zm0 160c-8 0-15-7-15-16v-48a16 16 0 1 1 31 0v48c0 9-7 16-16 16zm0 159c-8 0-15-7-15-16v-47c0-9 7-16 15-16 9 0 16 7 16 16v47c0 9-7 16-16 16zm0 160c-8 0-15-7-15-16v-48c0-9 7-16 15-16 9 0 16 7 16 16v48c0 9-7 16-16 16zm0 159c-8 0-15-7-15-15v-48a16 16 0 1 1 31 0v48c0 8-7 15-16 15zm0 160c-8 0-15-7-15-16v-48a16 16 0 1 1 31 0v48c0 9-7 16-16 16zm0 159c-8 0-15-7-15-15v-48a16 16 0 1 1 31 0v48c0 8-7 15-16 15zm0 160c-8 0-15-7-15-16v-48a16 16 0 1 1 31 0v48c0 9-7 16-16 16zm0 160c-8 0-15-8-15-16v-48c0-9 7-16 15-16 9 0 16 7 16 16v48c0 8-7 16-16 16zm0 159c-8 0-15-7-15-16v-48c0-9 7-16 15-16 9 0 16 7 16 16v48c0 9-7 16-16 16zm0 160c-8 0-15-8-15-16v-48c0-9 7-16 15-16 9 0 16 7 16 16v48c0 8-7 16-16 16zm0 159c-8 0-15-7-15-16v-48a16 16 0 1 1 31 0v48c0 9-7 16-16 16zm0 160c-8 0-15-8-15-16v-48a16 16 0 1 1 31 0v48c0 8-7 16-16 16zm0 159c-8 0-15-7-15-16v-48c0-8 7-16 15-16 9 0 16 8 16 16v48c0 9-7 16-16 16zm0 160c-8 0-15-7-15-16v-48c0-9 7-16 15-16 9 0 16 7 16 16v48c0 9-7 16-16 16zm0 159c-8 0-15-7-15-16v-48a16 16 0 1 1 31 0v48c0 9-7 16-16 16zm0 160c-8 0-15-7-15-16v-48a16 16 0 1 1 31 0v48c0 9-7 16-16 16zm0 159c-8 0-15-7-15-16v-48a16 16 0 1 1 31 0v48c0 9-7 16-16 16zm0 160c-8 0-15-7-15-16v-48c0-9 7-16 15-16 9 0 16 7 16 16v48c0 9-7 16-16 16zm0 159c-8 0-15-7-15-16v-48c0-8 7-16 15-16 9 0 16 8 16 16v48c0 9-7 16-16 16zm0 160c-8 0-15-7-15-16v-48c0-9 7-16 15-16 9 0 16 7 16 16v48c0 9-7 16-16 16zm0 159c-8 0-15-7-15-16v-48c0-8 7-16 15-16 9 0 16 8 16 16v48c0 9-7 16-16 16zm0 160c-8 0-15-7-15-16v-48a16 16 0 1 1 31 0v48c0 9-7 16-16 16zm0 159c-8 0-15-7-15-16v-47a16 16 0 1 1 31 0v47c0 9-7 16-16 16z" style="fill:url(#id11)"/><path d="M25937 6189c-9 0-16-7-16-16v-48c0-9 7-16 16-16s16 7 16 16v48c0 9-7 16-16 16zm0 159c-9 0-16-7-16-16v-48c0-8 7-15 16-15s16 7 16 15v48c0 9-7 16-16 16zm0 160c-9 0-16-7-16-16v-48c0-9 7-16 16-16s16 7 16 16v48c0 9-7 16-16 16zm0 159c-9 0-16-7-16-16v-47a16 16 0 1 1 32 0v47c0 9-7 16-16 16zm0 160c-9 0-16-7-16-16v-48a16 16 0 1 1 32 0v48c0 9-7 16-16 16zm0 159c-9 0-16-7-16-16v-47c0-9 7-16 16-16s16 7 16 16v47c0 9-7 16-16 16zm0 160c-9 0-16-7-16-16v-48c0-9 7-16 16-16s16 7 16 16v48c0 9-7 16-16 16zm0 159c-9 0-16-7-16-16v-47a16 16 0 1 1 32 0v47c0 9-7 16-16 16zm0 160c-9 0-16-7-16-16v-48a16 16 0 1 1 32 0v48c0 9-7 16-16 16zm0 159c-9 0-16-7-16-16v-47a16 16 0 1 1 32 0v47c0 9-7 16-16 16zm0 160c-9 0-16-7-16-16v-48a16 16 0 1 1 32 0v48c0 9-7 16-16 16z" style="fill:url(#id27)"/><path d="M27704 5002c-9 0-16-6-16-15l-2-48c1-9 7-16 16-16 9-1 16 6 16 15l2 48c0 9-7 16-15 16h-1zm5 160c-9 0-16-7-16-16l-1-47c-1-9 6-17 15-17s16 7 16 16l2 47c0 9-7 17-15 17h-1zm5 159c-9 0-16-7-16-15l-2-48c0-9 7-16 16-16 9-1 16 6 16 15l2 48c0 9-7 16-16 16zm5 160c-9 0-16-7-16-16l-2-48c0-8 7-16 16-16s16 7 16 16l2 47c0 9-7 17-16 17zm5 159c-9 0-16-7-16-15l-2-48c0-9 7-16 16-17 8 0 16 7 16 16l2 48c0 9-7 16-16 16zm5 160c-9 0-16-7-16-16l-2-48c0-9 7-16 16-16 8 0 16 7 16 15l2 48c0 9-7 16-16 17zm5 159c-9 0-16-7-16-15l-2-48c0-9 7-16 16-17 9 0 16 7 16 16l2 48c0 8-7 16-16 16zm5 159c-9 0-16-6-16-15l-2-48c0-9 7-16 15-16 10-1 17 6 17 15l2 48c0 9-7 16-16 16zm4 160c-8 0-15-7-15-16l-2-47c0-9 7-17 16-17s16 7 16 16l2 47c0 9-7 17-16 17h-1zm6 159c-9 0-16-6-16-15l-2-48c0-9 7-16 15-16 9-1 17 6 17 15l1 48c1 9-6 16-15 16zm4 160c-8 0-15-7-15-16l-2-47c0-9 7-17 15-17 9 0 17 7 17 16l1 47c1 9-6 17-15 17h-1zm6 159c-9 0-16-7-17-15l-1-48c0-9 7-16 15-17 9 0 17 7 17 16l1 48c0 9-6 16-15 16zm4 160c-8 0-15-7-15-16l-2-48c0-8 7-16 15-16 9 0 17 7 17 15l1 48c1 9-6 16-15 17h-1zm5 159c-8 0-15-7-16-15l-1-48c0-9 6-16 15-17 9 0 16 7 17 16l1 48c0 8-6 16-15 16h-1zm5 160c-8 0-16-7-16-16l-1-48c0-9 6-16 15-16 9-1 16 6 17 15l1 48c0 9-7 16-15 17h-1zm5 159c-8 0-16-7-16-15l-1-48c-1-9 6-16 15-17 9 0 16 7 16 16l2 48c0 8-7 16-15 16h-1zm5 159c-9 0-16-6-16-15l-1-48c0-9 6-16 15-16 9-1 16 6 17 15l1 48c0 9-7 16-15 16h-1zm5 160c-8 0-16-7-16-16l-1-47c-1-9 6-17 15-17s16 7 16 16l2 47c0 9-7 17-15 17h-1zm5 159c-9 0-16-7-16-15l-1-48c-1-9 6-16 15-16 8-1 16 6 17 15l1 48c0 9-7 16-15 16h-1z" style="fill:url(#id7)"/><path d="M29563 6305c-9 0-16-8-16-16v-48c0-9 7-16 15-16 9 0 17 7 17 16v48c0 8-8 16-17 16zm0 159c-9 0-16-7-16-16v-48c0-9 7-16 15-16 9 0 17 7 17 16v48c0 9-8 16-17 16zm0 160c-9 0-16-8-16-16v-48c0-9 7-16 15-16 9 0 17 7 17 16v47c0 9-8 17-17 17zm0 159c-9 0-16-7-16-16v-48c0-9 7-16 15-16 9 0 17 7 17 16v48c0 9-8 16-17 16zm0 160c-9 0-16-8-16-16v-48c0-9 7-16 15-16 9 0 17 7 17 16v48c0 8-8 16-17 16zm0 159c-9 0-16-7-16-16v-48c0-9 7-16 15-16 9 0 17 7 17 16v48c0 9-8 16-17 16zm0 160c-9 0-16-8-16-16v-48c0-9 7-16 15-16 9 0 17 7 17 16v48c0 8-8 16-17 16zm0 159c-9 0-16-7-16-16v-48c0-8 7-16 15-16 9 0 17 8 17 16v48c0 9-8 16-17 16zm0 160c-9 0-16-7-16-16v-48c0-9 7-16 15-16 9 0 17 7 17 16v48c0 9-8 16-17 16zm0 159c-9 0-16-7-16-16v-48c0-8 7-16 15-16 9 0 17 8 17 16v48c0 9-8 16-17 16z" style="fill:url(#id23)"/><path d="M20891 8238c-13 0-23-9-24-22l-507-5989a24 24 0 1 1 47-4l507 5989c1 13-8 25-22 26h-1z" style="fill:url(#id12)"/><path style="fill:url(#id26)" d="m20311 2327 74-88 88 74-6-68-88-74-74 87z"/><path d="M30861 7961H20513a24 24 0 0 1 0-48h10348c13 0 24 11 24 24s-11 24-24 24z" style="fill:url(#id6)"/><path style="fill:url(#id29)" d="m30766 8018 81-81-81-81h69l81 81-81 81z"/><path class="fil29" d="m21189 3679 1629-592 126 264-1566 590s-218-19-189-262z"/><path d="M22818 3087c-48 146 126 264 126 264l295-210c-15-41-25-80-31-115l-390 61z" style="fill:url(#id16)"/><path class="fil31" d="M23208 3026c6 35 16 74 31 115l219-154-250 39z"/><path d="M16605 10926a2306 2306 0 0 1-536 392c236 292 556 585 979 871l121 272 389-465s-697-347-953-1070z" style="fill:url(#id1)"/><path class="fil33" d="M17065 12583v-4l8-34v-1l11-31v-1l8-21 13-32h1v-1l8-18 13-30 3-5v-1c21-44 45-91 70-139l21-40v-1l59-107 65-113 62-105h1688s17 61 44 178c35 148 89 387 152 701h-2228a18797 18797 0 0 1 2-195z"/><path class="fil34" d="M21618 5583c-339 631-901 1274-1816 1447-843 159-2359 356-2969 432a747 747 0 0 0-472 254c-478 554-1529 2072-292 3602 158-88 383-229 536-392-137-386-148-879 138-1484 10 48 22 95 37 142a8807 8807 0 0 1 416 2536c-1 32 19 62 49 74 521 208 1522 84 1858 34 62-9 103-66 95-128-165-1196 681-3163 905-3656 33-72 90-130 162-163 1279-578 1835-1469 2061-2272-195-262-498-376-708-426z"/><path d="M22326 6009c273-973 60-1816 60-1816h-291s-100 687-477 1390c210 50 512 164 707 426z" style="fill:url(#id13)"/><path d="M22198 4348s-444-574-300-874c144-299 638-270 638-270l69 234c19 62 16 128-7 188l-273 722h-128z" style="fill:url(#id14)"/><path d="M18401 5144c14 13 585 1136 585 1136l-567 274 209 661c-420 295-996 122-996 122l84-859c-18-12-36-27-55-44-197-178-72-337 87-350 94-8 175 114 226 216l152-7-487-684s530-684 762-465z" style="fill:url(#id22)"/><path class="fil38" d="M16691 9348c-210-574-134-1267-133-1274l58 7c-1 6-75 686 130 1247l-55 20z"/><path class="fil34" d="M33500 15726s744 413 805 1111c62 698 6 3595-1487 4309-1492 713-3468 548-4224 470-756-77-1175-592-1269-946s-245-1672 551-2098c795-425 1631-1077 2465-1711 835-635 2266-1671 3159-1135z"/><path class="fil39" d="M28110 18813s191 10 224 395v12l2 17s-492 467-1121 567c-47 7-85-40-68-85 31-80 86-202 177-332 81-213 336-350 786-574z"/><path class="fil33" d="M30372 18327h-423s-1302-1438-2155-1583c0 0-594 759 32 2176 50 114 191 165 296 98 31-20 54-47 67-81l-50-1210s1110 971 1303 1158c193 188 1173 74 930-558z"/><path class="fil39" d="M26274 21345c178-156 461-331 869-381l139 85s-89 130-249 267c-186 159-468 327-824 317a93 93 0 0 1-69-155c35-40 80-85 134-133z"/><path class="fil33" d="m30357 18634-1985 21s-1134 939-1339 2369c0 0-35 106 170 124 0 0 686-448 1133-1240 548-971 1633-534 1633-534 357-257 861-310 1241-395l-853-345z"/><path class="fil40" d="M30310 17034s-214 1071-1261 1495l-372-44-88 140 873 28s747-296 1143-1102c13-27 231-477-295-517z"/><path class="fil8" d="M30195 18616s243-661 296-1303c0 0-178-153-289-219a80 80 0 0 1-32-104c82-169 576-834 613-843 201-51 1026-443 1607 352 250 341-49 1392-1180 2480l-234 44-781-407z"/><path class="fil40" d="M31132 17458s-675 800-1539 917c0 0-223-204-389-131-165 72-393 393-393 393h1108s1048-37 1572-673c-42-222-168-355-359-506zM31526 15586l147 493c7 22-1 47-21 60a550 550 0 0 1-512 51 81 81 0 0 1-51-69l-35-429 472-106z"/><path class="fil40" d="M30903 14764s-266 442-212 688c53 245 424 395 767 177l216-673-771-192z"/><path class="fil41" d="M31427 15305c-14-6-20-23-12-37 24-41 69-124 81-196 0 0 57-41-153-81s-522-102-596-276c-71-170 76-611 357-278 11 13 31 13 41-1 40-59 150-182 312-118 152 60 173 168 174 224 0 16 15 28 31 24 75-18 255-39 348 143 76 149 35 238-4 282-13 14-6 36 12 41 50 13 116 52 115 168-1 161-181 155-232 150-9-1-17 3-22 9-42 51-229 265-441 300-19 3-34-15-29-33l80-272c4-13-3-26-15-31l-47-18z"/><path class="fil40" d="M31392 15345s225-170 248-37-200 204-314 159l66-122z"/><path d="m28867 18699-498-1660c-20-68-80-116-151-121l-672-46a95 95 0 0 0-96 127l556 1585c18 52 64 88 118 93l662 74 81-52z" style="fill:#bdbfc1;fill-rule:nonzero"/><path class="fil43" d="m28085 17686 14 28h1l-6 2-5 2-6 2h-5l-6 1h-6l-6-1-5-1-6-1-6-1-5-2-6-3-6-2-5-3-6-4-5-3-5-4-6-4-5-5-5-4-5-5-5-5-5-6-5-5-5-6-4-6-5-7-4-6-4-7-4-7-4-7-4-7 28-15 4 7 3 6 4 7 4 6 4 5 3 6 5 5 4 5 4 5 4 5 4 4 5 4 4 4 4 4 5 3 4 3 4 3 5 3 4 2 4 2 4 2 4 1 4 1 4 1 3 1h10l3-1h3l3-1 2-2v1zm14 28h1l1-1-2 1zm-12-181 29-14 3 8 3 7 4 8 2 7 3 7 2 8 2 7 2 7 2 8 1 7 1 7 1 7v7l1 7v7l-1 6v7l-1 6-1 6-1 6-2 6-1 6-3 5-2 6-3 5-3 5-3 4-4 4-4 4-5 4-4 3-6 3-14-28 3-2 2-2 3-1 2-3 2-2 2-3 2-3 1-3 2-3 1-4 2-4 1-4 1-5 1-4v-5l1-6v-10l-1-6v-6l-1-6-1-6-1-6-1-6-2-7-1-6-2-7-3-6-2-7-3-6-3-7-3-7zm0 0-2-4 2 4zm-122-91-14-28 5-3 6-1 5-2 6-1h17l6 1 5 2 6 1 6 2 5 3 6 2 5 3 6 3 5 4 6 4 5 4 5 4 6 5 5 5 5 5 5 5 4 6 5 6 5 6 4 6 5 7 4 7 4 7 4 7 4 7-29 14-3-6-4-7-3-6-4-6-4-6-4-5-4-6-4-5-4-5-5-4-4-5-4-4-4-4-5-3-4-4-5-3-4-3-4-2-4-2-4-2-5-2-4-1-3-2h-4l-4-1h-13l-2 1-3 1-3 1zm-14-28 1-1-1 1zm12 180-28 15-4-8-3-7-3-8-3-7-2-8-3-7-2-7-2-8-1-7-1-7-2-7v-7l-1-7v-27l1-6 1-6 1-6 2-6 2-6 2-6 2-5 3-5 3-5 4-4 3-5 5-4 4-3 5-4 5-2 14 28-2 2-3 1-2 2-2 2-2 3-2 2-2 3-2 3-2 4-1 4-1 4-2 4v4l-1 5-1 5v28l1 6 1 6 1 6 1 6 2 6 2 7 2 6 2 7 3 7 2 6 3 7 3 6zm-28 15z"/><path d="m28786 18751 3-1 1410-71a63 63 0 1 0-6-126l-1411 71c-35 2-61 32-60 67 2 33 30 60 64 60z" style="fill:#bdbfc1"/><path class="fil45" d="M30491 17321c-5 0-8-4-8-8-1-297 113-691 114-695s6-7 10-6c4 2 7 6 5 10-1 4-114 396-113 691 0 4-4 8-8 8zM31132 17466l-5-2c-4-3-4-8-2-11 4-4 310-394 415-660 2-4 6-6 10-5 5 2 7 7 5 11-106 268-414 660-417 664l-6 3zM31567 18065l-55-78c-3-4-2-8 2-11 3-3 8-2 11 2l47 67c436-191 707-713 709-718 2-4 7-5 11-3s5 7 3 10c-2 6-277 538-722 728l-6 3z"/><path d="M28502 10802c-8 0-16-2-23-6l-31-17a45 45 0 1 1 43-80l33 18a45 45 0 0 1-22 85zm161 103c-9 0-19-3-27-9l-38-26a46 46 0 0 1 51-75l40 28c21 14 25 43 11 63-9 12-23 19-37 19zm148 121c-11 0-22-4-31-12l-34-31a45 45 0 0 1 59-69l37 33a45 45 0 0 1-31 79zm131 139c-14 0-27-5-36-16l-29-36a45 45 0 1 1 68-59l32 37a46 46 0 0 1-35 74zm109 157c-16 0-31-8-39-22l-25-39a45 45 0 0 1 77-49l26 42a46 46 0 0 1-39 68zm85 171c-18 0-35-10-42-28l-18-42c-11-23-1-50 22-60 23-11 50-1 60 22l20 46a45 45 0 0 1-42 62zm60 182c-20 0-38-14-44-34l-12-45a45 45 0 1 1 87-26l13 48a45 45 0 0 1-44 57zm37 187c-22 0-42-16-45-39l-7-46c-4-25 13-48 38-52 24-4 48 13 52 37l7 49a45 45 0 0 1-45 51zm16 191c-25 0-45-19-46-44l-2-46a45 45 0 0 1 91-5l2 48c1 26-19 46-44 47h-1zm-22960 33h-48a45 45 0 0 1 0-91h49a45 45 0 0 1-1 91zm-239 4a45 45 0 0 1-2-91l48-2c25 0 46 19 47 44s-19 46-44 47l-47 2h-2zm430 1h-2l-47-2a45 45 0 1 1 3-90l49 2a45 45 0 0 1-3 90zm-621 11a45 45 0 0 1-4-91l48-3a45 45 0 1 1 7 90l-47 4h-4zm812 2h-4l-47-4c-25-2-44-23-42-48s24-44 49-42l48 4a45 45 0 0 1-4 90zm-1002 19a45 45 0 0 1-6-91l48-6a46 46 0 0 1 11 90 2402 2402 0 0 0-53 7zm1193 1h-6l-47-6c-25-2-43-25-40-50s25-43 50-40l48 6a45 45 0 0 1-5 90zm189 27h-7l-47-7a45 45 0 0 1 14-90l47 7a45 45 0 0 1-7 90zm-1571 1a45 45 0 0 1-8-90l48-8a45 45 0 0 1 15 89l-47 8-8 1zm1760 33-9-1-47-9a45 45 0 0 1 17-89l47 9a45 45 0 0 1-8 90zm-1947 5c-21 0-40-14-45-35-5-24 10-49 34-54l48-11a45 45 0 0 1 19 89l-46 10-10 1zm2134 33-10-1-46-10a45 45 0 1 1 19-89l47 11a45 45 0 0 1-10 89zm-2320 15a45 45 0 0 1-12-89l47-13a45 45 0 1 1 23 88 3389 3389 0 0 0-58 14zm24139 7h-3c-25-2-44-23-42-48l2-47a45 45 0 1 1 91 4l-3 48c-1 24-21 43-45 43zm-21633 23-11-2-46-11a45 45 0 1 1 21-88l47 11a45 45 0 0 1-11 90zm-2688 28a45 45 0 0 1-15-89l46-15a45 45 0 1 1 28 86l-44 15-15 3zm2873 21c-4 0-8 0-12-2l-46-12a45 45 0 1 1 24-88l46 13a45 45 0 0 1-12 89zm-3052 46a45 45 0 0 1-17-87l45-18c23-9 49 2 59 25 9 24-3 50-26 59l-44 18c-5 2-11 3-17 3zm3235 8-13-2-45-14a45 45 0 0 1 26-87l46 14a45 45 0 0 1-14 89zm183 58-15-2-45-15a45 45 0 0 1 28-86l46 14a45 45 0 0 1-14 89zm21063 6h-6c-25-4-42-26-39-51l6-47a45 45 0 1 1 90 11l-6 48c-3 23-22 39-45 39zm-24656 6a45 45 0 0 1-19-86l43-21a45 45 0 1 1 38 82l-42 20c-7 4-13 5-20 5zm3774 50-15-3-45-16a45 45 0 0 1 29-85l46 15a45 45 0 0 1-15 89zm-3944 38a45 45 0 0 1-22-85l43-23a45 45 0 0 1 43 80l-42 22c-7 4-14 6-22 6zm4124 27c-6 0-11-1-16-3l-45-16a45 45 0 0 1 31-86l45 17a45 45 0 0 1-15 88zm20670 68-9-1c-24-5-40-29-35-54l8-46c5-24 29-41 53-36 25 5 42 28 37 53l-9 48c-5 21-24 36-45 36zm-20492 0c-5 0-11-1-16-3l-44-17a45 45 0 0 1 32-85l45 17a45 45 0 0 1-17 88zm-4466 4c-14 0-29-8-38-21-13-21-7-49 14-63l41-26a45 45 0 1 1 48 77l-40 25c-8 5-16 8-25 8zm4644 67c-6 0-11-1-17-4l-44-17c-23-10-35-36-25-59 9-24 36-35 59-26l44 18a45 45 0 0 1-17 88zm-4801 41a45 45 0 0 1-27-82l39-28a45 45 0 1 1 53 74l-38 27c-8 6-17 9-27 9zm4978 32c-6 0-12-1-18-4l-44-18a45 45 0 0 1 35-84l45 19a45 45 0 0 1-18 87zm20094 42-12-1c-24-6-39-31-32-56l11-45a45 45 0 0 1 89 22l-12 46c-6 21-24 34-44 34zm-19918 33c-6 0-12-1-18-4l-44-19a45 45 0 1 1 36-83l44 19a45 45 0 0 1-18 87zm-5304 12a45 45 0 0 1-29-80l37-31a45 45 0 1 1 57 70l-36 30c-8 7-19 11-29 11zm5480 64c-7 0-13-1-19-3l-44-20a45 45 0 0 1 37-83l44 19a45 45 0 0 1-18 87zm-5623 63a45 45 0 0 1-31-78l36-33a45 45 0 1 1 61 67l-34 32c-9 8-20 12-32 12zm25311 13c-4 0-9-1-13-3-24-7-37-33-30-57l14-45c8-24 33-38 57-30 24 7 37 32 30 56l-14 47c-6 19-24 32-44 32zm-19514 2c-6 0-12-1-18-4l-44-19c-23-11-33-37-23-60s37-33 60-23l44 19c23 11 33 38 23 60-8 17-24 27-42 27zm175 79c-7 0-13-1-19-4l-44-20a45 45 0 1 1 38-82l43 19a45 45 0 0 1-18 87zm-6107 42c-11 0-22-4-31-12a45 45 0 0 1-2-65l34-35a45 45 0 1 1 65 63l-32 35c-9 9-21 14-34 14zm6281 38c-7 0-13-1-19-4l-44-20a45 45 0 0 1 38-83l44 20a45 45 0 0 1-19 87zm19104 20-16-3c-23-8-35-34-27-58l16-45c9-23 34-36 58-27 24 8 36 34 28 57l-17 46c-6 18-24 30-42 30zm-18931 61c-6 0-13-2-19-5l-44-20a45 45 0 0 1 39-82l43 20c23 11 33 38 22 61-8 16-24 26-41 26zm-6580 24c-11 0-21-3-29-10a46 46 0 0 1-6-64l31-37a45 45 0 0 1 69 59l-30 36c-9 11-22 16-35 16zm6753 57c-7 0-13-1-19-4l-44-20a45 45 0 0 1 39-82l44 20a45 45 0 0 1-20 86zm18689 37a45 45 0 0 1-42-63l17-44c10-23 36-35 60-25 23 9 34 35 25 59l-18 44c-7 18-24 29-42 29zm-18516 46c-7 0-14-2-20-5l-43-20a45 45 0 0 1 39-82l43 21a45 45 0 0 1-19 86zm-7045 11a45 45 0 0 1-36-72l29-39a45 45 0 1 1 72 55l-28 37c-9 12-23 19-37 19zm7217 72c-7 0-13-1-20-4l-43-21a45 45 0 0 1 40-82l43 21a45 45 0 0 1-20 86zm18269 46a46 46 0 0 1-41-64l18-43c11-23 37-33 60-23s33 37 23 59l-19 45c-8 16-24 26-41 26zm-18097 38c-7 0-14-1-20-5l-43-21a45 45 0 0 1 40-81l43 21c22 11 32 38 21 60-8 17-24 26-41 26zm-7498 1c-9 0-18-3-25-8a45 45 0 0 1-13-63l27-40a45 45 0 1 1 75 51l-27 39c-8 13-23 21-37 21zm7670 84c-7 0-14-2-21-5l-42-21a45 45 0 1 1 40-82l43 21a45 45 0 0 1-20 86zm17843 51c-7 0-13-2-20-5a45 45 0 0 1-20-61l20-42c11-23 38-33 60-22 23 11 33 38 22 61l-21 43c-8 16-24 26-41 26zm-25615 27a45 45 0 0 1-39-68l25-42a45 45 0 0 1 78 47l-24 41c-9 14-24 22-40 22zm7943 7c-7 0-14-2-20-5l-43-22a45 45 0 1 1 40-81l43 22a45 45 0 0 1-20 86zm171 85c-7 0-14-1-20-5l-43-21a45 45 0 1 1 41-81l42 21a45 45 0 0 1-20 86zm17415 52c-7 0-15-2-21-6a45 45 0 0 1-20-61l22-42c12-22 39-31 62-20 22 12 30 39 19 62l-22 42c-8 16-24 25-40 25zm-25621 24c-7 0-14-2-21-5a45 45 0 0 1-19-61l22-43a45 45 0 1 1 81 42l-22 42c-8 16-24 25-41 25zm8377 10c-7 0-14-1-20-5l-43-21a45 45 0 1 1 41-81l42 21c23 12 32 39 20 61-7 16-23 25-40 25zm171 87c-7 0-14-2-21-5l-42-22a46 46 0 0 1 41-81l42 22a46 46 0 0 1-20 86zm16981 47c-7 0-15-2-22-6a45 45 0 0 1-17-62l23-41c12-22 39-30 62-18 21 12 29 40 17 62l-23 42c-9 14-24 23-40 23zm-25612 28a45 45 0 0 1-41-64l20-44a45 45 0 1 1 82 39l-20 43c-7 16-24 26-41 26zm8801 11c-7 0-14-1-20-5l-43-21a45 45 0 1 1 41-81l43 21a46 46 0 0 1-21 86zm171 87c-7 0-14-1-21-5l-43-21a45 45 0 0 1 42-81l42 21a45 45 0 0 1-20 86zm16544 39a45 45 0 0 1-39-68l24-41a45 45 0 0 1 79 46l-25 42c-9 14-24 22-39 22zm-25590 40a45 45 0 0 1-42-62l18-45a45 45 0 1 1 84 34l-18 44c-7 18-24 29-42 29zm9216 8c-7 0-14-1-21-4l-42-22a45 45 0 0 1 41-81l43 22a45 45 0 0 1-21 86zm170 88c-7 0-14-2-20-5l-43-22a45 45 0 0 1 41-81l43 22a45 45 0 0 1-21 86zm16103 28c-8 0-17-3-24-8a45 45 0 0 1-14-62l25-41a45 45 0 0 1 77 49l-26 40c-8 14-23 22-38 22zm-25554 56-14-2c-24-8-37-34-29-58l16-45a45 45 0 1 1 86 29l-16 45c-6 19-24 31-43 31zm9621 3c-6 0-14-1-20-5l-43-22a45 45 0 0 1 42-80l42 21c23 12 31 39 20 62-8 15-24 24-41 24zm171 88c-7 0-14-2-21-5l-43-22a45 45 0 1 1 42-81l42 22c23 11 32 39 20 61-8 16-24 25-40 25zm15657 13a45 45 0 0 1-37-71l26-40a45 45 0 0 1 76 51l-28 40c-8 13-22 20-37 20zm-15487 74c-7 0-14-2-21-5l-42-22a45 45 0 0 1 42-81l42 22a45 45 0 0 1-21 86zm-10017 5a46 46 0 0 1-44-57l14-47c6-24 32-38 56-31s38 32 31 56l-13 46c-5 20-24 33-44 33zm25394 77c-9 0-19-2-27-8a46 46 0 0 1-10-64l28-38c15-21 43-25 63-11 21 15 25 43 11 64l-28 39c-9 12-23 18-37 18zm-15207 5c-7 0-14-1-20-5l-43-22a45 45 0 1 1 41-81l43 22a45 45 0 0 1-21 86zm171 88c-7 0-14-2-21-6l-43-21a45 45 0 0 1 42-81l42 22a45 45 0 0 1-20 86zm-10403 16-10-1c-24-5-40-29-35-54l11-47c6-25 30-40 54-34 25 6 40 30 34 54l-10 47c-5 21-23 35-44 35zm25323 44c-10 0-20-4-29-10a46 46 0 0 1-7-64l24-31 5-6 72 56-5 6-25 32c-9 11-22 17-36 17zm-14750 26c-7 0-14-1-20-5l-43-21a45 45 0 0 1 41-81l43 21a45 45 0 0 1-21 86zm171 87c-7 0-14-2-21-5l-42-22a45 45 0 1 1 41-81l42 22a45 45 0 0 1-20 86zm-10780 31a46 46 0 0 1-45-52l8-48a45 45 0 1 1 90 16l-8 46c-4 23-23 38-45 38zm25237 3c-10 0-20-3-29-10a45 45 0 0 1-5-64l30-37c16-19 45-22 64-5 19 16 22 44 6 64l-31 36c-9 11-22 16-35 16zm-14286 52c-7 0-14-1-21-5l-43-21a45 45 0 0 1 41-81l43 21a45 45 0 0 1-20 86zm171 86c-7 0-14-1-21-5l-42-21a45 45 0 0 1-21-61c12-22 39-31 61-20l43 21a45 45 0 0 1-20 86zm13989 6a45 45 0 0 1-33-76l31-35c17-19 46-21 65-4 18 17 20 46 3 64l-32 36c-9 10-21 15-34 15zm-25137 43h-5c-25-3-43-26-40-50l6-49a45 45 0 1 1 90 11l-6 47c-2 24-22 41-45 41zm11319 37c-7 0-14-2-20-5l-43-21a46 46 0 0 1-21-61c12-23 39-32 61-21l43 22a45 45 0 0 1-20 86zm13688 60c-11 0-23-5-32-13a45 45 0 0 1-1-64l33-35a45 45 0 1 1 66 63l-33 35c-9 9-21 14-33 14zm-13517 25c-6 0-13-2-20-5l-43-21a45 45 0 1 1 41-82l42 21c23 11 32 39 21 61-8 16-24 26-41 26zm-11505 69h-3c-25-2-44-23-43-48l3-49c2-25 23-43 48-42 25 2 44 24 43 49l-3 47c-2 24-22 43-45 43zm11677 15c-7 0-13-2-20-5l-43-21a45 45 0 1 1 40-81l43 21c23 11 32 38 21 60-8 16-24 26-41 26zm13210 26a45 45 0 0 1-31-78l34-33c17-18 46-17 64 0 17 18 17 47-1 65l-34 33c-9 9-20 13-32 13zm-13038 58c-6 0-13-2-20-5l-43-21a45 45 0 1 1 40-82l43 21a45 45 0 0 1-20 87zm12900 74a46 46 0 0 1-31-79l35-32c18-17 47-16 64 2s16 47-2 64l-35 33c-9 8-20 12-31 12zm-12727 8c-7 0-14-1-20-4l-43-21a45 45 0 0 1 39-82l43 21c23 11 32 38 22 61-8 16-24 25-41 25zm-12028 9c-25 0-45-19-45-44v-49a45 45 0 1 1 91 1v46c0 25-21 46-46 46zm12200 74c-6 0-13-2-19-5l-43-20a45 45 0 0 1 39-82l43 20a45 45 0 0 1-20 87zm12412 36c-13 0-25-5-34-16a45 45 0 0 1 4-64l36-31c19-16 48-15 64 4 17 19 15 48-4 64l-36 32c-9 7-19 11-30 11zm-12238 45c-7 0-13-1-20-4l-43-21a45 45 0 1 1 39-82l43 21a45 45 0 0 1-19 86zm-12368 37c-24 0-44-18-46-43l-2-48a45 45 0 0 1 91-4l2 47c1 25-18 47-43 48h-2zm24460 41a45 45 0 0 1-29-80l37-31a45 45 0 0 1 57 70l-37 31c-8 7-18 10-28 10zm-11919 3c-6 0-13-2-19-5l-43-20a45 45 0 0 1 38-82l43 20c23 10 33 37 22 60-7 17-24 27-41 27zm174 79c-6 0-12-1-18-4l-44-20a45 45 0 0 1 37-82l44 19a45 45 0 0 1-19 87zm11595 37c-14 0-27-6-36-18a46 46 0 0 1 8-63l38-29a45 45 0 1 1 56 71l-39 30c-8 6-17 9-27 9zm-24295 31c-22 0-42-17-45-41l-5-48a45 45 0 1 1 91-8l5 47c2 25-16 47-41 50h-5zm12875 10c-6 0-13-1-19-3l-44-20c-22-10-33-37-22-60 10-23 37-33 60-23l43 20a45 45 0 0 1-18 86zm11267 74c-14 0-28-7-37-19a45 45 0 0 1 10-63l38-29a45 45 0 0 1 54 74l-39 28c-8 6-17 9-26 9zm-11092 4c-7 0-13-1-19-4l-44-19a45 45 0 0 1 37-83l44 19a45 45 0 0 1-18 87zm175 76c-6 0-12-1-18-4l-44-19a45 45 0 1 1 36-83l44 19a45 45 0 0 1-18 87zm-13199 25c-22 0-41-15-45-38l-7-48a45 45 0 0 1 90-13l7 47a45 45 0 0 1-45 52zm23959 5c-15 0-29-7-37-20-15-20-9-49 11-63l39-27a45 45 0 1 1 52 75l-39 27c-8 5-17 8-26 8zm-10584 45c-6 0-12-1-18-4l-44-18a45 45 0 0 1 36-84l44 19a45 45 0 0 1-18 87zm10424 61a45 45 0 0 1-24-84l40-26a45 45 0 0 1 50 76l-41 27c-8 5-16 7-25 7zm-10247 12-18-3-44-18a45 45 0 1 1 35-84l44 18a45 45 0 0 1-17 87zm-13517 66c-20 0-39-15-44-36l-10-48a45 45 0 1 1 89-18l10 47a45 45 0 0 1-45 55zm13694 7c-6 0-12-1-17-3l-45-19a45 45 0 1 1 34-84l45 18c23 10 34 36 25 59-7 18-24 29-42 29zm9908 16c-15 0-30-7-38-21-14-22-7-50 15-63l40-24c22-14 49-7 63 14 13 22 6 50-15 63l-41 25c-8 4-16 6-24 6zm-9731 55c-5 0-11-1-16-4l-45-17c-23-9-34-36-25-59s35-35 59-26l44 18a45 45 0 0 1-17 88zm9566 43a45 45 0 0 1-23-85l42-24a45 45 0 1 1 45 79l-41 24c-7 4-15 6-23 6zm-9387 26c-6 0-11-1-17-3l-44-17a45 45 0 0 1 32-85l45 17a45 45 0 0 1-16 88zm-14005 39c-20 0-38-14-44-34l-12-47a45 45 0 0 1 88-22l12 45a45 45 0 0 1-44 58zm23225 28c-16 0-32-9-40-24-12-22-4-50 18-62l42-22a45 45 0 0 1 44 79l-43 23c-7 4-14 6-21 6zm-9041 1c-6 0-11-1-16-3l-45-17a45 45 0 0 1 32-85l44 17c24 9 36 35 27 58-7 19-24 30-42 30zm179 66-15-3-45-16a45 45 0 0 1 31-85l45 16a45 45 0 0 1-15 88zm8692 21c-16 0-32-9-41-24-11-23-2-50 21-62l42-21a46 46 0 0 1 42 81l-43 21c-7 4-14 5-21 5zm-8512 44-15-3-45-16a45 45 0 0 1 30-86l45 16c24 9 37 35 28 58-6 19-24 31-43 31zm-14489 23c-19 0-37-12-43-31l-15-47a45 45 0 0 1 87-26l14 45a45 45 0 0 1-43 59zm22829 18a45 45 0 0 1-20-86l44-21a45 45 0 1 1 39 82l-44 20c-6 3-12 5-19 5zm-8159 21c-5 0-10 0-15-2l-45-16c-24-8-36-34-28-57 8-24 34-37 58-28l45 15a45 45 0 0 1-15 88zm7985 59c-17 0-34-10-42-27-10-23 1-50 23-60l44-19c23-11 50-1 60 22s0 50-23 60l-44 20c-6 3-12 4-18 4zm-7804 2c-4 0-9 0-14-2l-45-15a45 45 0 0 1 28-86l46 15a45 45 0 0 1-14 88zm183 60c-5 0-10-1-14-3l-46-14a45 45 0 0 1 28-87l45 15a45 45 0 0 1-13 89zm7445 14c-18 0-34-11-42-28-9-23 2-50 25-60l44-18c23-10 49 1 59 24s-1 50-24 60l-44 18c-6 3-12 4-18 4zm-22416 7c-19 0-36-11-43-29l-17-46a45 45 0 1 1 86-31l16 45a45 45 0 0 1-42 61zm15153 36-13-2-46-14a45 45 0 1 1 27-87l46 14c24 7 37 33 30 57-6 19-24 32-44 32zm7085 28a46 46 0 0 1-16-87l44-18a45 45 0 0 1 34 85l-45 17c-5 2-11 3-17 3zm-6901 27-13-2-46-14a45 45 0 1 1 26-86l45 13c24 7 38 32 31 57-6 19-24 32-43 32zm6722 41c-18 0-36-12-43-30-8-24 4-50 28-58l45-17c23-8 49 4 58 27 8 24-4 50-27 58l-45 17c-5 2-11 3-16 3zm-6539 12c-4 0-8 0-12-2l-46-13c-24-6-38-32-31-56s32-38 56-31l46 13a45 45 0 0 1-13 89zm-15449 34c-18 0-35-10-42-28l-19-44a45 45 0 0 1 84-35l18 44a45 45 0 0 1-41 63zm21807 17a45 45 0 0 1-14-88l45-16a45 45 0 0 1 30 86l-46 16-15 2zm-6173 0-12-1-46-13a45 45 0 0 1 24-87l46 12a45 45 0 0 1-12 89zm185 49-11-1-47-12a45 45 0 0 1 23-88l46 12a45 45 0 0 1-11 89zm5806 10c-19 0-37-12-43-32-7-24 6-49 30-57l45-14a45 45 0 1 1 28 87l-46 14c-5 2-9 2-14 2zm-5620 37-11-2-47-11a46 46 0 0 1 22-88l46 11c25 6 40 30 34 55-5 21-24 35-44 35zm5437 18a46 46 0 0 1-13-89l46-13a45 45 0 0 1 26 87 2687 2687 0 0 1-59 15zm-5251 26-10-1-47-11a45 45 0 0 1 21-89l46 11c25 6 40 30 34 54-5 21-23 36-44 36zm-16112 17c-17 0-33-9-41-25l-21-44a45 45 0 1 1 82-39l21 43a45 45 0 0 1-41 65zm21178 8c-20 0-38-13-43-34-7-24 8-49 32-55l46-12a46 46 0 0 1 23 87l-46 13-12 1zm-4879 16-10-1-47-10a45 45 0 1 1 20-89l46 11a45 45 0 0 1-9 89zm4694 31a45 45 0 0 1-11-89l46-12a45 45 0 1 1 22 89l-47 11-10 1zm-4507 9-9-1-47-10a45 45 0 0 1 18-89l47 10c25 5 41 28 36 53-5 22-24 37-45 37zm4320 34a45 45 0 0 1-9-90l46-10a45 45 0 1 1 20 89 6449 6449 0 0 1-57 11zm-4132 2-8-1-47-9a45 45 0 0 1 17-89l46 9a45 45 0 0 1-8 90zm188 34-7-1-48-8a45 45 0 1 1 16-89l47 8a45 45 0 0 1-8 90zm3757 3c-21 0-40-15-45-37-5-24 12-48 36-53l47-9a45 45 0 0 1 18 89l-47 9-9 1zm-3568 28h-7l-47-8a45 45 0 1 1 14-90l47 8a45 45 0 0 1-7 90zm-16964 6c-16 0-32-9-40-24l-23-43a45 45 0 0 1 80-42l23 42a45 45 0 0 1-40 67zm20344 1a45 45 0 0 1-8-90l47-9a45 45 0 0 1 16 90 9466 9466 0 0 1-55 9zm-3190 21h-7l-47-7a45 45 0 0 1 13-90l47 7a45 45 0 0 1-6 90zm3001 9a45 45 0 0 1-7-90l47-7c25-4 48 13 52 38s-13 48-38 52l-47 7h-7zm-2812 17-6-1-47-6a45 45 0 0 1 12-90l47 6a45 45 0 0 1-6 91zm2622 10a45 45 0 0 1-5-90l47-6c25-4 47 14 51 39 3 24-14 47-39 51l-48 6h-6zm-2432 12h-5l-47-6a45 45 0 1 1 10-90l47 6a45 45 0 0 1-5 90zm2243 11a45 45 0 0 1-5-90l47-5a45 45 0 0 1 10 90l-47 5h-5zm-2052 8h-5l-47-5a45 45 0 1 1 8-90l48 5c25 2 43 24 41 49-2 24-22 41-45 41zm1861 11a45 45 0 0 1-4-90l48-5a45 45 0 0 1 9 90l-49 5h-4zm-1671 5h-3l-48-3a45 45 0 0 1 7-91l48 4a45 45 0 0 1-4 90zm1481 10a45 45 0 0 1-3-90l47-4a45 45 0 0 1 7 91l-48 3h-3zm-1290 3h-3l-48-3a45 45 0 1 1 6-90l48 3c25 1 44 22 42 48-1 24-21 42-45 42zm1099 9c-24 0-44-19-45-44-2-25 18-46 43-47l47-3c25-1 47 18 48 43s-18 47-43 48l-48 2-2 1zm-908 1h-2l-48-2a45 45 0 1 1 4-91l48 2a45 45 0 0 1-2 91zm717 6c-25 0-45-20-45-44-1-26 19-46 44-47l47-1c26-1 46 18 47 43s-19 46-44 47l-48 2h-1zm-526 0h-1l-48-1c-25-1-45-22-44-47s21-44 47-44l47 1c25 1 45 22 44 47 0 25-20 44-45 44zm335 3a45 45 0 0 1-1-91h49a45 45 0 0 1 0 90l-48 1zm-144 0h-48c-25-1-45-21-45-46s20-45 46-45h48a45 45 0 0 1-1 91zm-18584 29c-15 0-30-8-39-22l-24-42a45 45 0 1 1 78-45l24 41a46 46 0 0 1-39 68zm102 163c-15 0-29-8-38-21l-26-40a45 45 0 1 1 76-50l26 40a45 45 0 0 1-38 71zm109 157c-14 0-28-6-37-19l-28-39c-15-21-10-49 11-63 20-15 49-10 63 11l27 38a46 46 0 0 1-36 72zm115 153c-13 0-27-6-36-17l-29-39a45 45 0 0 1 71-55l30 37a45 45 0 0 1-36 74zm122 148c-13 0-26-6-35-16l-31-37a45 45 0 0 1 69-59l31 37a45 45 0 0 1-34 75zm128 142c-12 0-25-5-33-14l-33-36a45 45 0 0 1 67-61l32 35a45 45 0 0 1-33 76zm133 137c-11 0-23-4-31-13l-35-34a45 45 0 1 1 65-64l33 33a45 45 0 0 1-32 78zm140 131c-11 0-22-4-30-12l-36-32a45 45 0 1 1 61-67l35 32a45 45 0 0 1-30 79zm145 125c-10 0-21-4-29-11l-37-31a45 45 0 1 1 58-69l37 30a45 45 0 0 1-29 81zm150 118c-10 0-19-3-27-9l-39-29a45 45 0 0 1-8-64c15-20 44-24 64-8l37 29a45 45 0 0 1-27 81zm155 112c-9 0-18-2-26-8l-39-27a45 45 0 1 1 52-74l39 26a45 45 0 0 1-26 83z" style="fill:#fcfcfc;fill-rule:nonzero"/><path class="fil47" d="M4146 17549h6553v-1005H4146c140 0 140 1005 0 1005z"/><path d="M10699 17298v-461c0-162-129-293-289-293H4174c-126 0-228-78-228-175 0-29 31-53 69-53h6816c156 0 404 189 404 421v643c0 219-241 396-388 396H4051c-58 0-105-36-105-80 0-81 86-147 192-147h6313c137 0 248-113 248-251z" style="fill:url(#id19)"/><path class="fil7" d="M10517 16774H4373a24 24 0 1 1 0-48h6144c13 0 24 11 24 24s-11 24-24 24zM10517 16923H4373a24 24 0 1 1 0-48h6144c13 0 24 11 24 24s-11 24-24 24zM10517 17072H4373a24 24 0 1 1 0-47h6144a24 24 0 0 1 0 47zM10517 17222H4373a24 24 0 0 1 0-48h6144a24 24 0 1 1 0 48zM10517 17371H4373a24 24 0 1 1 0-48h6144c13 0 24 11 24 24s-11 24-24 24z"/><path d="M11203 21690H1440a321 321 0 0 1-320-320v-1326c0-177 143-320 320-320h9763c177 0 320 143 320 320v1326c0 176-143 320-320 320z" style="fill:#a9abae;fill-rule:nonzero"/><path d="M3402 21464h-991c-64 0-116-52-116-116v-1283c0-64 52-115 116-115h991c64 0 116 51 116 115v1283c0 64-52 116-116 116z" style="fill:#d2d3d5;fill-rule:nonzero"/><path class="fil47" d="M11345 17886v338c0 59-34 114-92 152l-59 37c-48 31-37 89 19 109 38 14 45 52 14 72l-74 49c-48 32-48 88 0 120l53 35c45 31 44 84-3 113l-56 35c-40 25-46 68-15 98l31 31c22 22 34 48 34 76v535H3526v-1832l7819 32z"/><path class="fil51" d="M3792 18278h7284c16 0 29-10 29-21 0-12-13-22-29-22H3791c-15 0-28 10-28 21 0 12 13 22 28 22zM3792 18597h7112c16 0 29-10 29-21 0-12-13-22-29-22H3792c-16 0-29 10-29 22 0 11 13 21 29 21zM3792 18832h7023c16 0 29-10 29-22s-13-21-29-21H3792c-16 0-29 9-29 21s13 22 29 22z"/><path class="fil52" d="M3387 17737h8126c62 0 117 34 123 80 7 52-49 97-118 97H3983c-132 0-247 69-274 166-123 432-114 883 2 1348 27 109 153 187 300 187h7353c62 0 117 33 123 79 7 53-48 97-118 97H3441c-190 0-353-100-387-240-137-564-149-1106 0-1618 33-115 171-196 328-196h5z"/><path d="M8007 14527c-3-2-1646-2879-1868-3150-37-45-95-69-153-62l-459 55-538 1166 897-523c-89 614 1064 1527 1459 1860 40 34 43 94 7 132l-158 166c259 263 558 431 896 509l-83-153z" style="fill:#ff9d9a"/><path class="fil34" d="M7286 14082s-101 32-135 122c-17 43 1 91 38 118 166 119 713 503 966 578 20 6 40-12 35-34-12-58-54-175-189-347l12 25c15 31-19 63-49 46-169-95-513-304-678-508z"/><path d="M7367 15233c-3-2-249-596-252-597a10460 10460 0 0 0-940-2865c-27-53-79-87-138-92l-460-39-763 1032 985-330c-212 583 732 1711 1052 2117a91 91 0 0 1-20 131l-188 130c201 310 460 536 774 680l-50-167z" style="fill:url(#id17)"/><path class="fil34" d="M6751 14651s-105 12-157 93c-25 38-17 90 14 123 138 150 596 637 828 762 19 10 43-5 42-26-1-60-18-183-115-379l6 27c9 33-30 58-56 35-147-127-441-401-562-635z"/><path class="fil33" d="M3424 11422s-416 619-450 902c-34 282 115 380 550 416 1296 107 1935-281 1935-281 89-566 152-710 893-1017 0 0-937 74-1125 1-189-73-1803-21-1803-21z"/><path class="fil9" d="M4550 11340s484-461 723-767a649 649 0 0 0 109-584c-108-367-302-747-320-807-27-90-570-86-570-86s-1069 694-1489 1870l471 147s280-469 555-767c0 0-477 631-494 889l1015 105z"/><path class="fil55" d="m5473 11522-364-396-421 113s-490 76-771 0l-280-76-634-197-100 281c-25 72 0 151 62 195 55 39 119 82 160 100 84 36 1924 11 1924 11l424-31zM4763 8408l-263 713c24 149 398 153 455 64 6-9 10-19 12-30l118-558c9-44-12-89-52-110l-145-78c-56-29-106-62-125-1z"/><path class="fil55" d="M5144 7752s183 144 242 482c58 338-85 448-222 431a641 641 0 0 1-490-325c-156-251 229-765 470-588z"/><path class="fil31" d="M4858 8218s-36-481 354-379l73 88s209-203 7-383-502-160-687 128c-186 288-426 995-302 1191 45 71 207 109 278 40 125-124 169-459 169-459s-169-265-36-269c57-65 117 49 117 49l27-6z"/><path class="fil55" d="M4835 8237s-17-248-147-187-2 335 62 394l85-207z"/><path class="fil56" d="M4268 11679h3l1675-1a75 75 0 0 0 0-150l-1675 1a75 75 0 0 0-4 150z"/><path class="fil56" d="M7452 10158H6057c-103 0-197 59-240 152l-645 1368h1733c66 0 126-40 150-102l500-1266c29-73-25-152-103-152z"/><path class="fil43" d="m6524 11048-10 30-6-2-7-3-6-4-6-3-5-5-5-4-5-5-4-6-4-5-4-6-4-7-3-6-3-7-2-7-2-7-2-8-2-7-2-8-1-8-1-9v-34l1-9 1-9 1-9 1-9 2-9 3-9 2-9 3-10 30 10-2 8-3 9-2 8-1 8-2 8-1 8-1 8v38l1 7 1 7 1 6 1 7 2 6 2 6 2 5 2 5 3 6 2 4 3 5 3 4 3 4 3 3 4 3 3 3 4 2 4 2 4 2 4 2zm139-126 30 9-3 10-3 9-4 8-4 9-4 8-4 8-4 8-5 8-5 7-5 7-5 7-5 6-6 6-5 6-6 6-6 5-6 5-6 5-6 4-6 4-7 3-6 3-7 3-7 2-6 2-7 1-7 1h-14l-7-1-6-1-7-2 10-30 4 1 4 1h18l5-1 4-2 5-1 5-2 5-2 5-3 5-3 5-3 5-4 4-4 5-4 5-5 5-5 5-5 4-6 5-6 4-6 4-6 4-7 4-7 4-7 4-8 3-7 3-8 3-8 3-8zm-39-184 9-30 7 2 6 3 6 3 6 4 5 4 5 5 5 5 4 6 4 5 4 6 4 6 3 7 3 7 2 7 3 7 2 8 2 7 1 8 1 8 1 8v9l1 8v9l-1 9v8l-1 9-2 9-1 10-2 9-2 9-3 9-3 9-30-9 3-9 2-8 2-8 2-8 1-8 1-8 1-8v-8l1-8v-15l-1-7-1-7-1-7-1-6-1-7-2-6-2-6-2-5-2-6-2-5-3-4-3-5-3-4-3-4-3-3-4-3-3-3-4-3-3-2-4-2-4-1zm-140 126-30-10 3-9 3-9 4-9 4-8 4-8 4-9 5-7 4-8 5-7 5-7 5-7 5-6 6-7 5-6 6-5 6-5 6-5 6-5 6-4 7-4 6-3 7-3 6-3 7-2 7-2 6-1 7-1 7-1 7 1 7 1 7 1 6 2-9 30-5-1-4-1h-4l-5-1-4 1h-5l-4 1-5 1-5 2-5 2-5 2-4 3-5 3-5 3-5 4-5 4-5 4-5 5-5 5-4 5-5 6-4 6-5 6-4 6-4 7-4 7-4 7-3 7-4 8-3 8-3 8-3 8z"/><path class="fil29" d="M8845 18836c-58 86-290 2042-327 2764a85 85 0 0 0 170 18l425-2720-268-63zM10710 18836c58 86 290 2042 326 2764a85 85 0 0 1-170 18l-424-2720 268-63z"/><path class="fil52" d="M8494 18683v21c-2 154 131 280 296 282l1961 34c163 3 299-115 307-266l1-20c8-157-126-290-296-293l-1961-35c-168-4-307 121-308 277z"/><path d="M12309 21529c-349 0-503-30-572-57 13 57 64 103 129 103h1233c41 0 68-40 58-76-141 11-439 30-848 30z" style="fill:url(#id21)"/><path d="M13157 21499c-2-7-5-14-10-21-94-120-283-308-540-305-376 5-507 46-799 2l-69 229c-7 23-7 47-2 68 69 28 223 57 572 57 409 0 707-19 848-30z" style="fill:url(#id28)"/><path d="m11893 20929-85 288s188 85 352 17l33-250-300-55z" style="fill:url(#id2)"/><path d="M14448 21348c-271 219-410 292-481 314 46 36 114 39 164-1l962-773c32-26 28-73-3-95-102 97-323 299-642 555z" style="fill:url(#id15)"/><path d="M15090 20793c-6-4-12-8-21-10-147-34-412-62-610 102-290 239-366 353-621 502l88 221c9 22 24 40 41 54 71-22 210-95 481-314 319-256 540-458 642-555z" style="fill:url(#id20)"/><path class="fil39" d="M10083 17649s2086 170 2515 372c428 201-350 3027-350 3027s-116 56-376-24c0 0 266-2086 68-2538l-2259-370 402-467z"/><path d="M13630 20990c20 18 208 397 208 397s209-45 251-178l-188-342-271 123z" style="fill:url(#id0)"/><path class="fil41" d="M8826 17631s-68 164-66 381c4 301 246 546 546 561l2467 112c53 2 97 39 110 89 58 224 341 913 1726 2288 37 37 94 43 138 15l198-124c20-14 27-41 14-62l-1436-2454a555 555 0 0 0-338-250l-2102-538-1257-18z"/><path d="M11257 13798s-264 467-534 694l557 311s126-495 412-640l-435-365z" style="fill:url(#id24)"/><path class="fil34" d="M8781 17649s666 162 1301 0c1 0 890-1197 1234-1522 0 0 549 866 1771 989l68-152s-973-449-1272-1138-420-983-692-1163a4576 4576 0 0 1-324-231 87 87 0 0 0-100-6c-289 176-1649 1108-1986 3223z"/><path class="fil38" d="M11280 16103c-11 0-21-5-28-14a2650 2650 0 0 1-334-593c-7-18 2-39 20-46 19-7 39 2 46 20 2 4 120 308 325 575a36 36 0 0 1-29 58z"/><path class="fil55" d="m13014 16884 137-37 418-96c50-12 103-3 146 25l359 226-991-2-69-116z"/><path d="M11677 13097s256 427 301 663c44 236 116 384-153 468-268 84-518-23-674-243 0 0-245-339-221-494 25-156 746-394 746-394z" style="fill:url(#id25)"/><path class="fil41" d="m11222 13802 35-4s-182-275-63-344c119-68 604-235 688-426 81-184-40-392-186-436-10-3-20 3-23 12l-8 23c-6 16-29 17-35 1-7-15-28-15-35-1-26 58-103 155-337 231-330 107-536 274-511 510 1 14-13 25-27 19-27-12-68-14-116 38-83 90-18 289 208 429 11 7 13 22 4 30-34 29-82 94 71 151 157 59 242 39 274 27 8-4 13-13 11-22l-40-206c-2-10 5-21 16-22l74-10z"/><path d="M11236 13845s-113-280-232-182c-119 99 110 316 216 313l16-131z" style="fill:url(#id18)"/><path class="fil39" d="M12630 17196h5l2118-2a95 95 0 1 0 0-189l-2118 2a95 95 0 0 0-5 189z"/><path class="fil39" d="m15574 15121-2 4-892 1923a95 95 0 1 0 172 79l891-1922a95 95 0 0 0-169-84z"/><path class="fil9" d="m13574 17303-1118 4195c-25 97 47 192 146 192 69 0 129-48 146-115l981-3980-155-293zM14058 17303c9 38 893 3354 1117 4195 26 97-47 192-146 192-69 0-129-48-146-115l-981-3980 156-293z"/><path class="fil9" d="M14094 17194h-550v442c0 64 51 115 114 115h75v994c0 48 39 87 86 87 48 0 86-39 86-87v-994h39c83 0 150-68 150-152v-405z"/><path class="fil9" d="M12191 17088h3073c43 0 81 29 91 71l43 169a95 95 0 0 1-92 119l-3153-18a95 95 0 0 1-91-119l37-150c11-42 48-72 91-72z"/><path class="fil41" d="M17925 5636c-11 30-8 63 8 91l323 539c5 8 11 15 18 22 38 36 170 140 272-2 86-121 168-231 255-276 51-27 114-5 139 46 54 105 157 320 221 524 17 51-10 106-59 127-132 53-391 149-621 181-38 5-75-11-98-42-98-136-377-515-473-610-88-88-251-54-325-33-28 8-57 4-82-11-75-45-205-157-86-347 30-47 15-110-32-140-83-55-174-158-88-325 88-168 243-184 349-171 47 6 95-18 113-62 8-20 24-36 53-42 56-11 92-62 81-118-18-95-4-220 148-303 280-154 524 96 587 308 62 211-251 361-447 386-144 18-224 176-256 258z"/></g></svg>