<svg xmlns="http://www.w3.org/2000/svg" xml:space="preserve" width="80" height="80" style="shape-rendering:geometricPrecision;text-rendering:geometricPrecision;image-rendering:optimizeQuality;fill-rule:evenodd;clip-rule:evenodd" viewBox="0 0 430.2 430.2"><defs><style>.fil0{fill:#00d39b;fill-rule:nonzero}</style></defs><g id="Camada_x0020_1"><path class="fil0" d="M215 0a214 214 0 0 1 152 367A214 214 0 0 1 0 215 215 215 0 0 1 215 0zm144 71a203 203 0 0 0-288 0 203 203 0 0 0 144 348 203 203 0 0 0 204-204c0-56-23-107-60-144z"/><path class="fil0" d="m103 226 77 75 157-157 8 9-165 164-85-83z"/></g></svg>