<svg xmlns="http://www.w3.org/2000/svg" xml:space="preserve" width="990" height="360" style="shape-rendering:geometricPrecision;text-rendering:geometricPrecision;image-rendering:optimizeQuality;fill-rule:evenodd;clip-rule:evenodd" viewBox="0 0 989.5 359.8"><defs><clipPath id="id0"><path d="M17 0h957c9 0 15 7 15 15v327c0 9-7 17-17 17H17c-9 0-17-8-17-17V17C0 8 8 0 17 0z"/></clipPath><style>.fil2{fill:none}.fil1{fill:#01aaac}.fil6{fill:#212121}.fil10{fill:#686af0}.fil5{fill:#f79f67}.fil7{fill:#fbafad}.fil3{fill:#fff}</style></defs><g id="__x0023_Layer_x0020_1"><g id="_3128465356624"><path d="M17 0h957c9 0 15 7 15 15v327c0 9-7 17-17 17H17c-9 0-17-8-17-17V17C0 8 8 0 17 0z" style="fill:#5d5fef"/><g style="clip-path:url(#id0)"><path id="1" class="fil1" d="M705 158h685a135 135 0 1 1 0 269H705a135 135 0 1 1 0-269z" style="stroke:#fff;stroke-width:5.14;stroke-linejoin:round;stroke-miterlimit:22.9256"/></g><path class="fil2" d="M17 0h957c9 0 15 7 15 15v327c0 9-7 17-17 17H17c-9 0-17-8-17-17V17C0 8 8 0 17 0z"/><path class="fil3" d="M807 305a38 38 0 0 0 20 0l6-2 4-5 2-6v-1l-2-5c0-2-2-3-3-4l-6-3a62 62 0 0 0-11-3l-3-1-1-1-1-1 2-2 3-1 7 1 7 3 6-9-8-4a35 35 0 0 0-19-1l-6 3a13 13 0 0 0-5 11l1 6 4 4 6 2a86 86 0 0 0 11 3l3 1 1 1v2l-1 2-4 1c-6 0-11-2-16-6l-7 9 10 6zM844 292l5 8c3 2 5 4 9 5l10 1a31 31 0 0 0 21-7v-20h-22v10h9v5l-7 2-6-1-4-3-2-4-1-5 1-4 2-4a12 12 0 0 1 9-4 17 17 0 0 1 11 4l8-9-8-5-11-2-11 2a24 24 0 0 0-13 13c-2 2-2 5-2 9l2 9zM929 306v-12h-24v-35h-12v47zM802 229c0-1 2-3 4-3l6 2 2-1c-3-2-5-3-8-3s-6 2-6 6c0 3 2 4 7 5 4 1 5 2 5 4s-2 4-5 4l-7-3-1 1c2 3 5 4 8 4 4 0 7-3 7-6s-2-5-6-6c-5-1-6-2-6-4zM817 224v20h3v-20zM826 229c0-1 2-3 4-3l6 2 1-1c-2-2-4-3-7-3-4 0-6 2-6 6 0 3 2 4 6 5 5 1 6 2 6 4s-2 4-5 4-5-1-7-3l-1 1c2 3 5 4 8 4 4 0 7-3 7-6s-2-5-7-6c-4-1-5-2-5-4zM849 227h6v-3h-16v3h7v17h3zM874 224h-15v20h15v-2h-13v-7h11v-2h-11v-7h13zM894 228v16h2v-20h-2l-7 11-8-11h-2v20h2v-16l8 11zM914 237h-9l4-10 5 10zm-4-13h-2l-9 20h2l3-5h11l2 5h3l-10-20zM718 212l-26 15v44l26 15 25-15v-44zM687 274l51 29-20 13-52-30zM767 284l-20-12-25 14 20 12z"/><path d="M364 121c2 0 3 1 3 2s-1 2-3 2h-4v5l-2 2c-2 0-2-1-2-2v-5h-5l-2-2 2-2h5v-5a2 2 0 0 1 4 0v5h4zm-101 99 2 2-2 2h-5v5c0 1 0 2-2 2l-2-2v-5h-5l-2-2 2-2h5v-5l2-2c2 0 2 1 2 2v5h5zm115 75a7 7 0 1 1 0 14 7 7 0 0 1 0-14zm-88-172a6 6 0 1 1 0 11 6 6 0 0 1 0-11zm207-31c15 0 27 13 27 29s-12 30-27 30-27-14-27-30 12-29 27-29zm-27 116c2 0 3 1 3 3 0 1-1 3-3 3h-7v7a3 3 0 1 1-6 0v-7h-7l-3-3c0-2 2-3 3-3h7v-7c0-2 2-3 3-3 2 0 3 1 3 3v7h7zM90 113h-7v-7c0-2-1-3-3-3-1 0-3 1-3 3v7h-7a3 3 0 1 0 0 6h7v7a3 3 0 0 0 6 0v-7h7c2 0 3-2 3-3 0-2-1-3-3-3zm-12 98a20 20 0 1 1 0 41 20 20 0 0 1 0-41zM406 94H162c-12 0-22 10-22 22 0 11 8 20 19 22h49c20 0 36 16 36 36s-16 36-36 36h-69c-9 2-17 11-17 21 0 12 9 21 20 22v1h22c18 0 33 15 33 33s-15 33-33 33h-39c-25 0-47 16-56 38h353c-2-5-4-11-4-16 0-23 19-41 42-41h73c11-5 19-16 19-28 0-14-11-26-24-29H365c-25 0-46-21-46-46s21-45 46-45h49c13-4 22-15 22-29 0-17-14-30-30-30z" style="fill:#8385f3"/><path class="fil1" d="M74 157s68-17 140-7c21 3 39 15 50 32 19 31 47 87 41 145l-31 8s-21-69-45-97c0 0-29 65-27 100v3c3 35-137 7-137 7l9-191z"/><path class="fil5" d="m148 99-15 46c-1 4 0 9 4 11 7 6 23 16 42 16 3 0 6-3 6-7l5-77-42 11z"/><path class="fil5" d="M204 48s6 36 2 54c-3 17-3 29-23 27-21-1-35-16-40-35 0 0-7-30-1-40s62-6 62-6z"/><path class="fil6" d="m153 83 3 1s-5-24 5-25c10-2 48 1 59-10s8-28 0-35h-2l-2 1c0 1-2 1-2-1l-2-1c-4 4-12 8-30 7-26-2-44 3-49 20-1 1-2 2-3 1-1-2-4-3-9-1-8 4-9 20 3 35l-1 3c-3 1-8 4 1 12s15 9 18 9l1-1 3-15 2-1 5 1z"/><path class="fil7" d="M153 87s0-23-11-19c-11 3-1 24 6 27l5-8z"/><path class="fil1" d="M74 296c-3-21 19-53 29-65 2-3 4-7 4-11 0-31-13-50-33-63 0 0-74 86-55 152 2 7 5 13 9 19 3-25 32-31 46-32z"/><path d="m76 288-3-1c2-20 21-46 28-56l3 1c-8 10-26 36-28 56z" style="fill:#018083"/><path class="fil5" d="m75 299-1-3c-14 1-43 7-46 32 33 43 124 27 124 27v-17s-70-12-77-39z"/><path class="fil5" d="M143 351s14-32 37-21c24 12 22 19 22 19l-59 2z"/><path class="fil6" d="m194 184-18 132c0 3 3 6 6 6l197-1c2 0 5-2 5-4l33-127c1-4-2-7-6-7l-212-4c-2 0-5 2-5 5z"/><path d="m278 268-29 86 68 1 6-84c0-4-3-7-7-7l-32-1c-2 1-5 2-6 5z" style="fill:#777"/><path class="fil6" d="M148 360h181c3 0 6-2 6-4v-4c0-2-3-4-6-4l-127 1-54 2c-10-1-11 9 0 9z"/><path class="fil7" d="M185 110c-22 2-35-21-35-21l1-1s13 22 33 21l1 1z"/><path class="fil10" d="M194 109c0 2-1 3-3 3h-6a2 2 0 0 1 0-5h6c2 0 3 1 3 2zM151 64s8-41 31-45c0 0-6-3-13 1-7 3-24 23-24 45 5 1 6-1 6-1z"/><path d="M147 62c-12 2-11 18-11 18 0 11 3 16 7 19a10 10 0 0 0 15-8v-7c1-2 1-25-11-22z" style="fill:#373ef5"/><path class="fil10" d="M148 66c-2-1-5 1-6 3-7 17 2 28 6 28 5 0 5-22 4-28-1-2-2-3-4-3z"/><path class="fil2" d="M287 290c0-7 5-12 11-12s11 5 11 12c0 6-5 11-11 11s-11-5-11-11z" style="stroke:#212121;stroke-width:2.57;stroke-linecap:round;stroke-linejoin:round;stroke-miterlimit:10"/><path class="fil3" d="M603 34c-5 0-10 4-10 10s5 11 10 11c6 0 10-5 10-10v-2h-10v2h8c0 5-3 8-8 8-4 0-8-4-8-9s4-9 8-9 6 2 7 5h3c-2-4-5-6-10-6zM619 46c0-4 3-6 6-6s6 2 6 6c0 5-3 7-6 7s-6-2-6-7zm14 0c0-5-4-8-8-8-5 0-8 3-8 8s3 9 8 9c4 0 8-4 8-9zM647 50c0-6-9-3-9-8 0-1 1-2 3-2s4 1 4 3h2c0-3-2-5-6-5-3 0-6 2-6 4 0 7 10 4 10 8 0 2-1 3-3 3-3 0-5-1-5-3h-2c0 3 3 5 7 5 3 0 5-2 5-5zM651 50c0 3 2 4 5 4h2v-1h-2c-2 0-3-1-3-3V40h5v-2h-5v-4h-2v4h-2v2h2v10zM663 46c0-4 3-6 6-6s6 2 6 6c0 5-3 7-6 7s-6-2-6-7zm14 0c0-5-4-8-8-8-5 0-8 3-8 8s3 9 8 9c4 0 8-4 8-9zM694 38h-2v9c0 4-2 6-5 6s-5-2-5-6v-9h-2v10c0 4 3 7 7 7 2 0 4-1 5-3v2h2V38zM721 46c0 4-3 7-6 7-4 0-6-3-6-7s2-6 6-6c3 0 6 2 6 6zm-15 0c0 5 4 9 8 9 3 0 6-2 7-4v3h2V33h-2v9c-2-2-4-4-7-4-4 0-8 3-8 8zM728 46c0-4 3-6 6-6s6 2 6 6c0 5-3 7-6 7s-6-2-6-7zm14 0c0-5-3-8-8-8-4 0-8 3-8 8s4 9 8 9c5 0 8-4 8-9zM768 48c0-7-10-4-10-9l2-2c2 0 3 1 3 2h5c0-3-3-5-7-5-5 0-8 2-8 5 0 8 11 5 11 10 0 1-1 2-3 2s-3-1-3-2h-5c0 3 4 6 8 6 5 0 7-3 7-7zM774 36c2 0 3-1 3-2 0-2-1-3-3-3-1 0-2 1-2 3l2 2zm-2 18h4V38h-4v16zM794 50c-1-6-10-4-10-7 0-1 1-2 3-2l2 2h4c0-3-2-5-6-5s-7 2-7 5c0 6 10 4 10 7l-3 1c-2 0-3-1-3-2h-4c0 3 3 6 7 6s7-2 7-5zM798 49c0 4 2 5 5 5h2v-3h-2l-1-2v-8h3v-3h-3v-4h-4v4h-2v3h2v8zM823 49h-5c0 1-1 2-3 2s-4-1-4-4h12v-1c0-5-3-8-8-8s-8 3-8 8 3 9 8 9c4 0 7-3 8-6zm-8-8c2 0 4 2 4 4h-8c0-3 2-4 4-4zM849 54h4v-9c0-5-2-7-6-7-3 0-5 1-6 3-1-2-3-3-6-3l-4 2v-2h-5v16h5v-9c0-2 1-4 3-4s4 2 4 4v9h4v-9c0-2 1-4 4-4 2 0 3 2 3 4v9zM869 46c0 3-2 5-4 5-3 0-5-2-5-5s2-5 5-5c2 0 4 2 4 5zm-13 0c0 5 3 9 8 9 2 0 4-2 5-3v2h4V38h-4v2l-5-2c-5 0-8 3-8 8zM899 48c0-7-11-4-11-9 0-1 1-2 3-2s3 1 3 2h4c0-3-3-5-7-5s-7 2-7 5c0 8 10 5 10 10 0 1-1 2-3 2s-3-1-3-2h-4c0 3 3 6 7 6 5 0 8-3 8-7zM912 34c-6 0-10 4-10 10s4 11 10 11 9-4 10-8v-4h-11v3h7c0 3-2 5-6 5-3 0-6-3-6-7s3-7 6-7c2 0 4 1 5 3h5c-2-4-5-6-10-6zM925 34v20h11v-3h-7V34zM943 53l-1-1-2 1 2 2 1-2zm-6-14h2c0-2 2-4 5-4 2 0 4 2 4 5 0 4-3 4-6 4h-1v5h2v-3c4 0 7-2 7-6s-3-6-6-6c-4 0-7 2-7 5z"/><g><path class="fil3" d="M634 79c0 7 4 11 10 11 4 0 8-2 9-6h-2c-1 2-4 4-7 4-5 0-8-3-8-9 0-5 3-8 8-8 3 0 6 1 7 4h2c-1-4-5-6-9-6-6 0-10 4-10 10zM658 90h2V68h-2zM665 71l2-2-2-1-1 1 1 2zm-1 19h2V74h-2v16zM684 82c0 4-3 6-6 6-4 0-6-2-6-6s2-7 6-7c3 0 5 3 5 7zm-15 0c0 5 4 8 8 8 3 0 6-2 6-4v11h3V74h-3v3c0-2-3-4-6-4-4 0-8 4-8 9zM704 74h-2v8c0 4-2 6-5 6s-5-2-5-5v-9h-2v9c0 5 3 7 6 7s5-1 6-3v3h2V74zM723 85h-2c-1 2-3 3-6 3s-5-2-5-5h13v-2c0-4-3-8-8-8-4 0-7 4-7 9s3 8 7 8c5 0 7-2 8-5zm-8-10c3 0 6 2 6 6h-11c0-4 2-6 5-6zM750 85h-2c-1 2-3 3-5 3-3 0-6-2-6-5h13v-2c0-4-3-8-7-8-5 0-8 4-8 9s3 8 8 8c4 0 6-2 7-5zm-8-10c3 0 6 2 6 6h-11c0-4 3-6 5-6zM776 82c0 4-3 6-6 6-4 0-6-2-6-6s2-7 6-7c3 0 6 3 6 7zm-14 0c0 5 3 8 7 8s6-2 7-4v4h2V74h-2v3c-1-2-3-4-7-4s-7 4-7 9zM795 82c0 4-2 6-6 6-3 0-5-2-5-6s2-7 5-7c4 0 6 3 6 7zm-14 0c0 5 4 8 8 8 3 0 6-2 6-4v4c0 4-2 6-5 6s-5-2-6-4h-2c1 4 4 6 8 6s8-3 8-8V74h-3v3c0-2-3-4-6-4-4 0-8 4-8 9zM816 85h-2c0 2-2 3-5 3s-6-2-6-5h14v-2c0-4-3-8-8-8s-8 4-8 9 3 8 8 8c4 0 7-2 7-5zm-7-10c3 0 6 2 6 6h-12c0-4 3-6 6-6zM833 90h2V80c0-4-3-7-7-7-2 0-4 1-5 3v-2h-3v16h3v-9c0-4 2-6 5-6s5 2 5 6v9zM852 82c0 4-3 6-6 6s-6-2-6-6 3-7 6-7 6 3 6 7zm-14 0c0 5 3 8 8 8 3 0 5-2 6-4v4h2V68h-2v9c-1-2-3-4-6-4-5 0-8 4-8 9zM873 85h-2c-1 2-3 3-5 3-3 0-6-2-6-5h13v-2c0-4-3-8-7-8-5 0-8 4-8 9s3 8 8 8c4 0 6-2 7-5zm-7-10c3 0 5 2 5 6h-11c0-4 3-6 6-6zM900 74h-2v8c0 4-2 6-6 6-2 0-4-2-4-5v-9h-2v9c0 5 2 7 6 7 3 0 5-1 6-3v3h2V74zM928 90h2V80c0-4-3-7-7-7-2 0-5 2-5 4-1-2-4-4-6-4-3 0-5 1-6 3v-2h-2v16h2v-9c0-4 2-6 5-6s5 2 5 6v9h2v-9c0-4 2-6 5-6s5 2 5 6v9zM948 82c0 4-3 6-6 6s-6-2-6-6 3-7 6-7 6 3 6 7zm-14 0c0 5 3 8 8 8 3 0 5-2 6-4v4h2V74h-2v3c-1-2-3-4-6-4-5 0-8 4-8 9z"/></g><g><path class="fil3" d="M737 117c0 3-2 5-4 5-3 0-5-2-5-5s2-5 5-5c2 0 4 2 4 5zm-13 0c0 5 3 8 7 8l6-2v2h4v-22h-4v8l-5-2c-5 0-8 3-8 8zM760 120h-5c0 1-1 2-3 2s-4-1-4-4h12v-1c0-5-3-8-8-8s-8 3-8 8 3 8 8 8c4 0 7-2 8-5zm-8-8c2 0 4 1 4 3h-8c0-2 2-3 4-3zM786 125h4v-9c0-5-3-7-6-7s-5 1-6 3c-1-2-3-3-6-3-2 0-4 0-5 2v-2h-4v16h4v-9c0-2 2-4 4-4s4 2 4 4v9h4v-9c0-2 1-4 4-4 2 0 3 2 3 4v9zM797 117c0-3 2-5 4-5 3 0 5 2 5 5s-3 5-5 5-4-2-4-5zm13 0c0-5-4-8-9-8-4 0-8 3-8 8s4 8 8 8c5 0 9-3 9-8zM824 125h4v-9c0-5-3-7-6-7s-4 0-5 2v-2h-5v16h5v-9c0-2 1-4 3-4s4 2 4 4v9zM845 121c0-6-9-5-9-8l2-1c2 0 3 1 3 2h4c-1-3-3-5-7-5s-6 2-6 4c0 6 9 5 9 8l-3 1-3-2h-4c0 3 3 5 7 5s7-2 7-4zM849 120c0 4 2 5 5 5h3v-3h-2c-2 0-2-1-2-2v-8h4v-3h-4v-4h-4v4h-2v3h2v8zM863 117c0-3 2-4 4-4h1v-4l-5 2v-2h-4v16h4v-8zM883 117c0 3-2 5-4 5s-4-2-4-5 2-5 4-5 4 2 4 5zm-13 0c0 5 4 8 8 8 3 0 4-1 5-2v2h5v-16h-5v2c-1-1-2-2-5-2-4 0-8 3-8 8zM890 117c0 5 3 8 7 8v4h2l1 1-1 1h-4v2h4c2 0 4-1 4-3 0-3-2-4-4-4v-1c4 0 6-2 7-5h-4l-4 2c-2 0-4-2-4-5s2-5 4-5l4 2h4c-1-3-4-5-8-5s-8 3-8 8zM911 107h2l2-1 3 1c2 0 4-1 4-4h-2l-2 2c-1 0-1-2-3-2s-3 2-4 4zm9 10c0 3-2 5-4 5s-4-2-4-5 2-5 4-5 4 2 4 5zm-13 0c0 5 4 8 8 8l5-2v2h4v-16h-4v2l-5-2c-4 0-8 3-8 8zM931 117c0-3 2-5 4-5 3 0 5 2 5 5s-2 5-5 5c-2 0-4-2-4-5zm13 0c0-5-4-8-8-8-5 0-9 3-9 8s4 8 8 8c5 0 9-3 9-8zM950 124l-1-2-2 2 2 1 1-1zm-2-4h1l1-15h-3l1 15z"/></g></g></g></svg>