<svg xmlns="http://www.w3.org/2000/svg" xml:space="preserve" width="540" height="485" style="shape-rendering:geometricPrecision;text-rendering:geometricPrecision;image-rendering:optimizeQuality;fill-rule:evenodd;clip-rule:evenodd" viewBox="0 0 4999.4 4490.1"><defs><clipPath id="id0"><path d="M1144 1678a333 333 0 1 1 0 666 333 333 0 0 1 0-666zm0 87a246 246 0 1 1 0 492 246 246 0 0 1 0-492z"/></clipPath><clipPath id="id1"><path d="M1906 241a489 489 0 1 1 0 978 489 489 0 0 1 0-978zm0 125a364 364 0 1 1 0 728 364 364 0 0 1 0-728z"/></clipPath><clipPath id="id2"><path d="M3119 3135h889v-543c-94 9-125 33-172 84l-68 73c-23 26-75 86-98 105-21 17-40 20-67 7-53-26-54-56-132-65-56-5-103 17-144 64-65 85-136 81-208 45v230z"/></clipPath><style>.str0,.str1{stroke:#d4cccc;stroke-width:2;stroke-miterlimit:22.9256}.str0{stroke:#dedede}.fil12{fill:none}.fil30{fill:#d2d3d5}.fil15{fill:#bdbfc1}.fil25{fill:#a9abae}.fil32{fill:#848688}.fil8{fill:#727376}.fil3{fill:#00d39b}.fil24{fill:#2e3048}.fil22{fill:#3e4148}.fil21{fill:#43476d}.fil5{fill:#51aa89}.fil10,.fil13{fill:#5d5fef}.fil11,.fil7{fill:#72acfb}.fil6{fill:#d4cccc}.fil18{fill:#daa484}.fil20{fill:#dcd0c8}.fil0{fill:#eef3f7}.fil26,.fil4{fill:#fefefe;fill-rule:nonzero}.fil26{fill:#72acfb}</style></defs><g id="Camada_x0020_1"><path class="fil0" d="M702 1498h2236v2011c0 65-53 119-119 119H584V1617c0-65 53-119 118-119z"/><path d="M744 3931c48-107 112-181 178-257 57-67 117-135 170-231l13-22c22-38 57-100 62-118 7-24 2-42-9-53-5-5-11-9-18-11-6-2-14-2-21-1-19 4-38 19-49 49a835 835 0 0 1-255 366c-81 74-151 138-183 296l-17-4a495 495 0 0 1 188-305c82-75 175-160 250-359 14-37 39-56 63-60 10-2 20-2 29 1 10 3 18 8 25 15 15 16 23 40 14 71-5 20-42 83-64 122l-12 22c-55 97-115 166-172 233-66 76-128 148-176 253l-16-7z" style="fill:#00d39b;fill-rule:nonzero"/><path style="fill:#8b7875" d="M1281 3387v1067h-34V3387h-183v-60h1509v60h-194v1067h-35V3387z"/><path class="fil3" d="M417 3926h64c-3-41-8-129-19-183-19-112-82-231-55-283 13-33 74-49 91-56 27-13 37-27 55-43v-65c-8-11-40-90-49-110-16-35-34-86-28-131 10-79 105-118 183-139l50-12 3-11-43-20-118-53c-160-67-104-153-125-281-13-81-105-32-172-53-56-18-82-83-106-138-73-168-204-58-121 79 53 88 148 199 97 330-19 50-57 99-64 161-17 153 271 256 166 468-72 145-159 184-17 290 86 64 152 159 208 250z"/><path class="fil4" d="M237 2654a9 9 0 1 1 14-10c79 110 68 182 58 247-7 49-14 93 24 149 82 120 85 161 96 307l10 120a9 9 0 1 1-17 1l-11-120c-10-142-14-182-93-298-41-61-34-109-26-162 9-61 19-129-55-234z"/><path class="fil5" d="M481 3926h93l48 1c18-64 43-149 49-214 41-441-40-430-118-352-97 85-183 39-143 192l29 95c24 80 28 141 36 223l6 55z"/><path class="fil4" d="M577 3936c-13-59-22-116-25-172-3-55-1-110 7-164l17 3c-7 52-9 106-6 161 3 54 11 110 24 168l-17 4z"/><path class="fil0" d="M1425 1400h3572V178c0-98-80-178-178-178H1249v1222c0 97 80 177 177 177z"/><path class="fil6" d="M2557 593h86v619h-86zM2770 720h86v492h-86z"/><path class="fil6 str0" d="M2984 628h86v584h-86z"/><path class="fil6" d="M3197 809h86v403h-86zM3411 647h86v565h-86zM3624 560h86v652h-86zM3838 524h86v688h-86z"/><path class="fil6 str0" d="M4075 593h86v619h-86z"/><path class="fil6" d="M4288 722h87v490h-87zM4502 627h86v585h-86zM4715 809h87v403h-87z"/><path class="fil0" d="M3037 3218h1052V1617c0-65-54-119-119-119h-933v1720z"/><path class="fil7" d="M3337 2518h6v507h-6zM3117 2518h6v507h-6zM4002 2518h6v507h-6zM3569 2518h6v507h-6zM3117 2475h76v20h-76z"/><path class="fil8" d="M3337 2475h54v20h-54z"/><path class="fil7" d="M3569 2475h76v20h-76zM3337 2475h54v20h-54zM3793 2475h69v20h-69zM3953 2475h55v20h-55zM3853 2515h6v507h-6z"/><path class="fil0" d="M4308 1498h593v514h-712v-395c0-65 53-119 119-119z"/><path class="fil3" d="M1144 1678a333 333 0 1 1 0 666 333 333 0 0 1 0-666zm0 87a246 246 0 1 1 0 492 246 246 0 0 1 0-492z"/><g style="clip-path:url(#id0)"><g id="_2166468978240"><path id="1" style="fill:#d4cccc" d="m735 1628 287-7 118 382H735z"/><path class="fil10" d="m1012 1588 318 10-148 289-80-2z"/><path class="fil11" d="m1448 1663-118-65-148 289 43 11z"/></g></g><path class="fil12" d="M1144 1678a333 333 0 1 1 0 666 333 333 0 0 1 0-666zm0 87a246 246 0 1 1 0 492 246 246 0 0 1 0-492z"/><path class="fil3" d="M1906 241a489 489 0 1 1 0 978 489 489 0 0 1 0-978zm0 125a364 364 0 1 1 0 728 364 364 0 0 1 0-728z"/><g style="clip-path:url(#id1)"><g id="_2166468982368"><path class="fil13" d="m1400 1162 281-238 215-239-547-115z"/><path class="fil11" d="M1431 173h465v512l-547-115z"/><path style="fill:#333" d="M-3718 2836h1873v1663h-1873z"/><path class="fil3" d="M-3718 986h1873v1663h-1873z"/><path class="fil13" d="M-3718-853h1873V810h-1873z"/></g></g><path class="fil12" d="M1906 241a489 489 0 1 1 0 978 489 489 0 0 1 0-978zm0 125a364 364 0 1 1 0 728 364 364 0 0 1 0-728z"/><rect class="fil15" x="2247.5" y="1988" width="400.9" height="74.5" rx="36.6" ry="37.2"/><path class="fil7" d="M2557 827h86v385h-86zM2770 906h86v306h-86zM2984 849h86v363h-86zM3197 962h86v250h-86zM3411 861h86v351h-86zM3624 807h86v405h-86zM3838 784h86v428h-86zM4075 827h86v385h-86zM4288 907h87v305h-87zM4502 848h86v364h-86zM4715 962h87v250h-87z"/><rect class="fil15" x="2509.1" y="208.4" width="2295.8" height="87.6" rx="40.2" ry="43.8"/><rect class="fil15" x="2509.6" y="361.4" width="2295.8" height="84.3" rx="40.2" ry="42.1"/><path class="fil7" d="M3815 1720a142 142 0 1 1 0 284 142 142 0 0 1 0-284zm0 28a114 114 0 1 1 0 228 114 114 0 0 1 0-228zM4270 1926h548v-364l-167 182-67-73-143 156-40-39z"/><circle class="fil7 str1" cx="3348.8" cy="2037.8" r="51.7"/><path class="fil7" d="M3256 2310c64 41 124 32 184 0v-103a92 92 0 0 0-183 0l-1 103z"/><path class="fil3" d="M3119 3135h889v-543c-94 9-125 33-172 84l-68 73c-23 26-75 86-98 105-21 17-40 20-67 7-53-26-54-56-132-65-56-5-103 17-144 64-65 85-136 81-208 45v230z"/><g style="clip-path:url(#id2)"><g id="_2166468933888"><path class="fil10" d="M3571 2610h286v550h-286z"/><path style="fill:#00d39b" d="M3857 2561h165v599h-165z"/></g></g><path class="fil12" d="M3119 3135h889v-543c-94 9-125 33-172 84l-68 73c-23 26-75 86-98 105-21 17-40 20-67 7-53-26-54-56-132-65-56-5-103 17-144 64-65 85-136 81-208 45v230z"/><rect class="fil3" x="2247.5" y="1727.4" width="400.9" height="74.5" rx="36.6" ry="37.2"/><rect class="fil15" x="2247.5" y="1857.9" width="400.9" height="74.5" rx="36.6" ry="37.2"/><path class="fil5" d="M553 3296c63 85 131-9 148-166l16-223-58 9c-78 21-173 60-183 139-6 45 12 96 28 130 9 21 41 100 49 111z"/><path style="fill:#a0a0a0" d="m267 3926 125 480 285-2 124-478z"/><path class="fil18" d="m4299 4401-2 5h1l11 3c9 2 15 4 25 4 58-5 50-112 71-147h1l1-2c3-16 98-204 129-327 36-142 30-204 106-349l2-4-47-11c-38-9-89-19-124-37h-1c0 110-67 440-109 642-18 84-29 132-60 211l-4 11v1zM4763 4394s-8 31 43 15c52-16 49-112 50-157 9-52 15-101 23-157 7-57 8-104 16-162 13-101-2-248 16-349l-45 4c-35 3-64 7-101 7l4 47c4 42 11 102 11 141l10 179 16 259c14 101-36 140-43 173z"/><path d="m4548 3070-14 84c-20 122-62 307-74 375 35 22 94 33 137 44 34 8 40 11 77 16 90 10 133 5 192-1l68-6c27-113 22-334-15-453l-14-52-6 2-88 28c-35 7-37 6-46-31v-1l-4 1a603 603 0 0 1-109 1c-13-2-25-5-37-10l-6-2-1 14c-3 30-18 22-30 13l-30-22z" style="fill:#6b809b"/><path class="fil20" d="m4722 2882-4-13-3-15-18 2-1-3-29 6c-12 3-21 2-31 11l86 12zm-30-72v-2c0-1 0-2 2-3l19-2 1-4v-47c-1-51 15-102 30-143l23 14 16-53c8-18 17-47 27-59l-12-22c-21 14-68 78-107 100l15-98-23 12c-14 29-42 53-57 87l37-10c-9 47-28 90-37 142-9 48 1 63-13 101l7-2c21-5 49-7 72-11z"/><path class="fil21" d="M4531 2937zm82-114c14-38 4-53 13-101 9-52 28-95 37-142l-37 10c15-34 43-58 57-87-32 0-97 20-117 34-28 19-54 48-75 78 34 4 34-1 43 39l50 204c2-8 9-28 29-35z"/><path class="fil22" d="M4296 4407c-10 22-25 27-26 53 28 6 71 10 98-3 16-8 21-20 26-34 7-21 8-34 10-56l3-38h4v59h7c0-50 7-90-11-124-23 33-14 144-73 149-10 0-16-2-25-4l-11-3-2 1z"/><path class="fil18" d="M4644 2324c3 45 22 114 71 125l-9 42-15 98c39-22 86-86 107-100 0-67-1-92 36-125-15-13-87-126-93-144-65 17-66 53-97 104z"/><path class="fil20" d="m4616 2984-7 81 6 2c44 19 95 14 146 9l4-1-33-160-2 4c-7 10-25 25-30 29-20 17-51 34-84 35z"/><path class="fil22" d="M4763 4394c-17 12-32 79-23 80 26 2 62-6 94-27 15-11 17-13 23-30 9-26 16-88 16-79v49c0 2 5 1 8 1 0-56 10-113-25-136-1 45 2 141-50 157-51 16-43-15-43-15z"/><path d="M4890 2793z" style="fill:#63607e"/><path class="fil21" d="M4733 2909c1 1 0 3-1 6l33 161c9 37 11 38 46 31l88-28 12-4c2-1-51-97-46-189 31 0 50 3 71 6 72 8 65-7 61-61-7-99-30-260-78-289-20-12-83-34-109-31-10 12-19 41-27 59l-16 53-23-14c-15 41-31 92-30 143v47l-1 4-19 2c-2 1-2 1-2 3v2l5 43h-1l1 3 18-2 3 15 4 13 46 7c6 0 6 6-1 9l-34 11zm-125 170 8-96h-13l-48-4 1-37-25-5-183-32-12-2c15 54 26 49 82 62 34 8 90 18 131 18l-7 79v4l36 26c12 9 27 17 30-13zm294-308a94 94 0 0 0-17 46h28c1-19-3-34-11-46z"/><path class="fil18" d="m4556 2942-1 37 48 4c37 3 74-16 97-35 5-4 23-19 30-29 3-4 4-9 3-10l-2 1-82 27c-19 6-34 14-62 10l-31-5z"/><path class="fil8" d="m4768 2889-132-19h-1c-11 11-20 25-42 27l9 38 162-46h4z"/><path class="fil24" d="m4348 2905 183 32 56 10c28 4 43-4 62-10l82-27 36-12c9-3 6-12-3-9l-162 46-9-38-9-39-50-204c-9-40-9-35-43-39l-304-29 79 264c16 52 33 47 82 55z"/><path class="fil18" d="m4593 2897-9-39c2-8 11-32 36-37 21-5 49-7 72-11l5 43-30 6c-13 3-21 2-32 11-11 10-20 25-42 27z"/><g id="_2166468954816"><path class="fil10" d="M4270 1926h548v-280l-174 187-62-65-105 112-77-35z"/><rect class="fil10" x="4270.9" y="1561.8" width="179.3" height="28.7" rx="13.3" ry="14.4"/><rect class="fil10" x="4270.9" y="1633" width="223.1" height="28.7" rx="16.6" ry="14.4"/></g><path class="fil25" d="M3336 1580h215v33h-215zM3371 1663h180v33h-180zM3261 1758h290v33h-290z"/><path class="fil4" d="M3351 1868a236 236 0 0 1 167 404 236 236 0 0 1-404-167 236 236 0 0 1 237-237zm159 78a224 224 0 0 0-318 0 224 224 0 0 0 159 383 224 224 0 0 0 225-224c0-62-25-119-66-159z"/><path class="fil6 str1" d="M3672 2093h290v33h-290zM3672 2176h235v33h-235zM3672 2259h265v33h-265z"/><path class="fil26" d="M1509 1867c-3 0-6-2-6-6 0-3 3-5 6-5h180l97-97h121c3 0 6 3 6 6s-2 6-6 6h-117l-96 96h-185zM1552 2115c-3-2-3-6 0-8 2-2 6-2 8 0l79 79h234c3 0 6 2 6 6 0 3-3 6-6 6h-239l-82-83z"/><path class="fil7" d="M1808 1809h250v27h-250zM1733 2116h201v33h-201z"/><path d="M1248 2528h832c18 0 32 15 32 33v567c0 18-14 33-32 33h-362v166h-106v-166h-364c-18 0-32-15-32-33v-567c0-18 14-33 32-33z" style="fill:#b2a8a3"/><path d="m771 2832-20 73 119-44 36-89c4-41-11-74-22-110-8-15-20-23-27-41-7-17-25-34-31-49-4 46-42 205-55 260z" style="fill:#fefefe"/><path class="fil18" d="M867 2677c11 36 10 58 6 99l118 13 4-23h7c23-4 43-20 52-41 20-42 18-112 14-146-21 17-6 6-17 41-5 17 1 5-7 15-13-31 15-52-18-61-25 18-122-71-128-24-38 22 21 149-31 127z"/><path class="fil15" d="m868 2775 128 13-3 29H873zM1845 3327c6-5 8-12 8-19 0-26-44-48-100-48-55 0-100 22-100 48 0 7 3 14 8 19h184z"/><path class="fil3" d="M2257 2879h113v283h-113zM2429 2769h113v393h-113zM2595 2586h113v576h-113z"/><path style="fill:#e6e7e8" d="M1249 2561h830v502h-830z"/><rect class="fil30" x="1304.1" y="2732.2" width="238.4" height="288.6" rx="11.9" ry="11.9"/><rect class="fil30" x="1594.7" y="2603.7" width="429.3" height="417.1" rx="12.2" ry="9.8"/><path class="fil24" d="m856 3804 302 5c59-1 61-2 141-10l89 3c0 190 6 361 6 551h30c-4 18-15 54-15 82-2 43 12 42 48 43 38 1 91-1 103-1 26 0 51 2 73-1 46-8 66-39 8-56-17-6-37-9-53-12-44-12-50-22-81-43 1-17-4-13 23-12l42-561c9-109 10-129-90-160-95-29-250-60-312-74-8 195-130 96-420 101-24 0 21 146 106 145zm70 491-2 52c-1 4 25 1 24 5-23 132-33 125 71 125 61 2 80-2 141-2s-20-64-76-79l-63-70-18-34 59-2 30-398H920l6 403z"/><path class="fil21" d="M722 2838c-54 15-59 29-63 78l-21 217-40 508c-5 55 11 90 166 94l340 2c71 0 88 5 81-64l-15-115-22-172-9-45c-17-102-2-151 16-250 11 14 27 50 47 88 45 85 68 114 166 137 73 17 187 11 266 17 1-36 3-58 3-95-70-9-135-13-207-25-73-12-79-59-112-119l-64-122c-69-127-62-127-208-155a628 628 0 0 0-324 20z"/><path class="fil18" d="m1637 3250-2 65c45 8 100 46 135 3 31-37 2-38-27-56l54 10c22 4 12-16 6-21-7-5-17-8-30-13l-17-6c-39-14-40-12-82 4l-37 14z"/><path class="fil20" d="M553 3296v65c-2 81-3 168-3 255-1 69 54 97 121 97l35-1c8 31 25 47 30 65-46 4-86 90 35 96l477-1c93 1 88-99-1-97l-72 1H878c-64 1-98-1-120-64 253 0 214-25 214-350 0-93 16-189-61-222-35-16-224-11-273-7-81 19-86 72-85 163z"/><path class="fil22" d="m826 2572 5 22c8 34 19 49 36 83 40 17 73 1 103-18 16-9 27-15 27-27l1-27c1-22 31-27 38-7 3 8 1 19 8 37 8-10 2 2 7-14 11-36-4-25 17-42 25-66-39-127-111-121-70 7-139 32-131 114z"/><rect class="fil25" x="1313.2" y="2605.4" width="236.6" height="23.5" rx="4.1" ry="4.1"/><rect class="fil25" x="1313.2" y="2661.7" width="236.6" height="23.5" rx="4.1" ry="4.1"/><ellipse class="fil8" cx="2005.7" cy="3109.2" rx="31.6" ry="23.8"/><path class="fil25" d="m521 4405 156-1 124-478c-194 63-283 226-280 479z"/><path d="m1062 4290-44-14v-384l109 5-4-25H870l-4 24 108-4v378l-351 148-5 2a36 36 0 0 0 17 68c20 0 36-16 36-36 0-7-2-14-6-19l316-110 99 104a36 36 0 0 0 26 61 36 36 0 0 0 31-55c-3-4-7-8-11-10l-102-105 328 119c-2 4-4 10-4 15 0 20 17 36 37 36s36-16 36-36c0-15-10-28-23-33l-336-129z" style="fill:#a89794"/><circle class="fil32" cx="635" cy="4453.1" r="36.9"/><circle class="fil32" cx="1106.5" cy="4453.1" r="36.9"/><circle class="fil32" cx="1384.3" cy="4453.1" r="36.9"/><path class="fil26" d="M2114 2591c-3 0-6-3-6-6s2-6 6-6l140-4 98-220 306-47c3-1 6 1 6 5 1 3-1 6-4 6l-300 47-98 220-148 5z"/><path d="M4787 2414c-24 22-47 40-72 35l-4 18c35-3 61-23 76-53z" style="fill:#96989a"/><path d="M4644 2324c31-51 32-79 93-103 6 19 82 130 97 143l15-29c2 48 5 102 27 125 19 19 72 30 88-40-13 8-20 24-46 17-71-33 52-169 37-280-10-80-69-125-148-81-44 24-29 48-48 50-33 5-63 18-84 45-27 35-31 88-31 153zm137-196c31-22 80-2 87 63-25-34-45-46-87-63z" style="fill:#cd724f"/></g></svg>