<svg xmlns="http://www.w3.org/2000/svg" xml:space="preserve" width="385" height="245" style="shape-rendering:geometricPrecision;text-rendering:geometricPrecision;image-rendering:optimizeQuality;fill-rule:evenodd;clip-rule:evenodd" viewBox="0 0 3849.6 2449.7"><defs><style>.fil0{fill:#ccc}</style></defs><g id="__x0023_Layer_x0020_1"><path class="fil0" d="M22 0v23H0v6h22v22h7V29h22v-6H29V0zM212 0v23h-22v6h22v22h7V29h22v-6h-22V0zM402 0v23h-22v6h22v22h7V29h22v-6h-22V0zM592 0v23h-22v6h22v22h7V29h22v-6h-22V0zM782 0v23h-22v6h22v22h6V29h23v-6h-23V0zM972 0v23h-22v6h22v22h6V29h23v-6h-23V0zM1162 0v23h-22v6h22v22h6V29h23v-6h-23V0zM1352 0v23h-22v6h22v22h6V29h23v-6h-23V0zM1542 0v23h-23v6h23v22h6V29h22v-6h-22V0zM1732 0v23h-23v6h23v22h6V29h22v-6h-22V0zM1922 0v23h-23v6h23v22h6V29h22v-6h-22V0zM2111 0v23h-22v6h22v22h7V29h22v-6h-22V0zM2301 0v23h-22v6h22v22h7V29h22v-6h-22V0zM2491 0v23h-22v6h22v22h7V29h22v-6h-22V0zM2681 0v23h-22v6h22v22h7V29h22v-6h-22V0zM2871 0v23h-22v6h22v22h7V29h22v-6h-22V0zM3061 0v23h-22v6h22v22h7V29h22v-6h-22V0zM3251 0v23h-22v6h22v22h7V29h22v-6h-22V0zM3441 0v23h-22v6h22v22h6V29h23v-6h-23V0zM3631 0v23h-22v6h22v22h6V29h23v-6h-23V0zM3821 0v23h-22v6h22v22h6V29h23v-6h-23V0zM22 160v22H0v6h22v23h7v-23h22v-6H29v-22zM212 160v22h-22v6h22v23h7v-23h22v-6h-22v-22zM402 160v22h-22v6h22v23h7v-23h22v-6h-22v-22zM592 160v22h-22v6h22v23h7v-23h22v-6h-22v-22zM782 160v22h-22v6h22v23h6v-23h23v-6h-23v-22zM972 160v22h-22v6h22v23h6v-23h23v-6h-23v-22zM1162 160v22h-22v6h22v23h6v-23h23v-6h-23v-22zM1352 160v22h-22v6h22v23h6v-23h23v-6h-23v-22zM1542 160v22h-23v6h23v23h6v-23h22v-6h-22v-22zM1732 160v22h-23v6h23v23h6v-23h22v-6h-22v-22zM1922 160v22h-23v6h23v23h6v-23h22v-6h-22v-22zM2111 160v22h-22v6h22v23h7v-23h22v-6h-22v-22zM2301 160v22h-22v6h22v23h7v-23h22v-6h-22v-22zM2491 160v22h-22v6h22v23h7v-23h22v-6h-22v-22zM2681 160v22h-22v6h22v23h7v-23h22v-6h-22v-22zM2871 160v22h-22v6h22v23h7v-23h22v-6h-22v-22zM3061 160v22h-22v6h22v23h7v-23h22v-6h-22v-22zM3251 160v22h-22v6h22v23h7v-23h22v-6h-22v-22zM3441 160v22h-22v6h22v23h6v-23h23v-6h-23v-22zM3631 160v22h-22v6h22v23h6v-23h23v-6h-23v-22zM3821 160v22h-22v6h22v23h6v-23h23v-6h-23v-22zM22 320v22H0v6h22v23h7v-23h22v-6H29v-22zM212 320v22h-22v6h22v23h7v-23h22v-6h-22v-22zM402 320v22h-22v6h22v23h7v-23h22v-6h-22v-22zM592 320v22h-22v6h22v23h7v-23h22v-6h-22v-22zM782 320v22h-22v6h22v23h6v-23h23v-6h-23v-22zM972 320v22h-22v6h22v23h6v-23h23v-6h-23v-22zM1162 320v22h-22v6h22v23h6v-23h23v-6h-23v-22zM1352 320v22h-22v6h22v23h6v-23h23v-6h-23v-22zM1542 320v22h-23v6h23v23h6v-23h22v-6h-22v-22zM1732 320v22h-23v6h23v23h6v-23h22v-6h-22v-22zM1922 320v22h-23v6h23v23h6v-23h22v-6h-22v-22zM2111 320v22h-22v6h22v23h7v-23h22v-6h-22v-22zM2301 320v22h-22v6h22v23h7v-23h22v-6h-22v-22zM2491 320v22h-22v6h22v23h7v-23h22v-6h-22v-22zM2681 320v22h-22v6h22v23h7v-23h22v-6h-22v-22zM2871 320v22h-22v6h22v23h7v-23h22v-6h-22v-22zM3061 320v22h-22v6h22v23h7v-23h22v-6h-22v-22zM3251 320v22h-22v6h22v23h7v-23h22v-6h-22v-22zM3441 320v22h-22v6h22v23h6v-23h23v-6h-23v-22zM3631 320v22h-22v6h22v23h6v-23h23v-6h-23v-22zM3821 320v22h-22v6h22v23h6v-23h23v-6h-23v-22zM22 480v22H0v6h22v23h7v-23h22v-6H29v-22zM212 480v22h-22v6h22v23h7v-23h22v-6h-22v-22zM402 480v22h-22v6h22v23h7v-23h22v-6h-22v-22zM592 480v22h-22v6h22v23h7v-23h22v-6h-22v-22zM782 480v22h-22v6h22v23h6v-23h23v-6h-23v-22zM972 480v22h-22v6h22v23h6v-23h23v-6h-23v-22zM1162 480v22h-22v6h22v23h6v-23h23v-6h-23v-22zM1352 480v22h-22v6h22v23h6v-23h23v-6h-23v-22zM1542 480v22h-23v6h23v23h6v-23h22v-6h-22v-22zM1732 480v22h-23v6h23v23h6v-23h22v-6h-22v-22zM1922 480v22h-23v6h23v23h6v-23h22v-6h-22v-22zM2111 480v22h-22v6h22v23h7v-23h22v-6h-22v-22zM2301 480v22h-22v6h22v23h7v-23h22v-6h-22v-22zM2491 480v22h-22v6h22v23h7v-23h22v-6h-22v-22zM2681 480v22h-22v6h22v23h7v-23h22v-6h-22v-22zM2871 480v22h-22v6h22v23h7v-23h22v-6h-22v-22zM3061 480v22h-22v6h22v23h7v-23h22v-6h-22v-22zM3251 480v22h-22v6h22v23h7v-23h22v-6h-22v-22zM3441 480v22h-22v6h22v23h6v-23h23v-6h-23v-22zM3631 480v22h-22v6h22v23h6v-23h23v-6h-23v-22zM3821 480v22h-22v6h22v23h6v-23h23v-6h-23v-22zM22 640v22H0v6h22v23h7v-23h22v-6H29v-22zM212 640v22h-22v6h22v23h7v-23h22v-6h-22v-22zM402 640v22h-22v6h22v23h7v-23h22v-6h-22v-22zM592 640v22h-22v6h22v23h7v-23h22v-6h-22v-22zM782 640v22h-22v6h22v23h6v-23h23v-6h-23v-22zM972 640v22h-22v6h22v23h6v-23h23v-6h-23v-22zM1162 640v22h-22v6h22v23h6v-23h23v-6h-23v-22zM1352 640v22h-22v6h22v23h6v-23h23v-6h-23v-22zM1542 640v22h-23v6h23v23h6v-23h22v-6h-22v-22zM1732 640v22h-23v6h23v23h6v-23h22v-6h-22v-22zM1922 640v22h-23v6h23v23h6v-23h22v-6h-22v-22zM2111 640v22h-22v6h22v23h7v-23h22v-6h-22v-22zM2301 640v22h-22v6h22v23h7v-23h22v-6h-22v-22zM2491 640v22h-22v6h22v23h7v-23h22v-6h-22v-22zM2681 640v22h-22v6h22v23h7v-23h22v-6h-22v-22zM2871 640v22h-22v6h22v23h7v-23h22v-6h-22v-22zM3061 640v22h-22v6h22v23h7v-23h22v-6h-22v-22zM3251 640v22h-22v6h22v23h7v-23h22v-6h-22v-22zM3441 640v22h-22v6h22v23h6v-23h23v-6h-23v-22zM3631 640v22h-22v6h22v23h6v-23h23v-6h-23v-22zM3821 640v22h-22v6h22v23h6v-23h23v-6h-23v-22zM22 800v22H0v6h22v23h7v-23h22v-6H29v-22zM212 800v22h-22v6h22v23h7v-23h22v-6h-22v-22zM402 800v22h-22v6h22v23h7v-23h22v-6h-22v-22zM592 800v22h-22v6h22v23h7v-23h22v-6h-22v-22zM782 800v22h-22v6h22v23h6v-23h23v-6h-23v-22zM972 800v22h-22v6h22v23h6v-23h23v-6h-23v-22zM1162 800v22h-22v6h22v23h6v-23h23v-6h-23v-22zM1352 800v22h-22v6h22v23h6v-23h23v-6h-23v-22zM1542 800v22h-23v6h23v23h6v-23h22v-6h-22v-22zM1732 800v22h-23v6h23v23h6v-23h22v-6h-22v-22zM1922 800v22h-23v6h23v23h6v-23h22v-6h-22v-22zM2111 800v22h-22v6h22v23h7v-23h22v-6h-22v-22zM2301 800v22h-22v6h22v23h7v-23h22v-6h-22v-22zM2491 800v22h-22v6h22v23h7v-23h22v-6h-22v-22zM2681 800v22h-22v6h22v23h7v-23h22v-6h-22v-22zM2871 800v22h-22v6h22v23h7v-23h22v-6h-22v-22zM3061 800v22h-22v6h22v23h7v-23h22v-6h-22v-22zM3251 800v22h-22v6h22v23h7v-23h22v-6h-22v-22zM3441 800v22h-22v6h22v23h6v-23h23v-6h-23v-22zM3631 800v22h-22v6h22v23h6v-23h23v-6h-23v-22zM3821 800v22h-22v6h22v23h6v-23h23v-6h-23v-22zM22 960v22H0v6h22v23h7v-23h22v-6H29v-22zM212 960v22h-22v6h22v23h7v-23h22v-6h-22v-22zM402 960v22h-22v6h22v23h7v-23h22v-6h-22v-22zM592 960v22h-22v6h22v23h7v-23h22v-6h-22v-22zM782 960v22h-22v6h22v23h6v-23h23v-6h-23v-22zM972 960v22h-22v6h22v23h6v-23h23v-6h-23v-22zM1162 960v22h-22v6h22v23h6v-23h23v-6h-23v-22zM1352 960v22h-22v6h22v23h6v-23h23v-6h-23v-22zM1542 960v22h-23v6h23v23h6v-23h22v-6h-22v-22zM1732 960v22h-23v6h23v23h6v-23h22v-6h-22v-22zM1922 960v22h-23v6h23v23h6v-23h22v-6h-22v-22zM2111 960v22h-22v6h22v23h7v-23h22v-6h-22v-22zM2301 960v22h-22v6h22v23h7v-23h22v-6h-22v-22zM2491 960v22h-22v6h22v23h7v-23h22v-6h-22v-22zM2681 960v22h-22v6h22v23h7v-23h22v-6h-22v-22zM2871 960v22h-22v6h22v23h7v-23h22v-6h-22v-22zM3061 960v22h-22v6h22v23h7v-23h22v-6h-22v-22zM3251 960v22h-22v6h22v23h7v-23h22v-6h-22v-22zM3441 960v22h-22v6h22v23h6v-23h23v-6h-23v-22zM3631 960v22h-22v6h22v23h6v-23h23v-6h-23v-22zM3821 960v22h-22v6h22v23h6v-23h23v-6h-23v-22zM22 1119v23H0v6h22v22h7v-22h22v-6H29v-23zM212 1119v23h-22v6h22v22h7v-22h22v-6h-22v-23zM402 1119v23h-22v6h22v22h7v-22h22v-6h-22v-23zM592 1119v23h-22v6h22v22h7v-22h22v-6h-22v-23zM782 1119v23h-22v6h22v22h6v-22h23v-6h-23v-23zM972 1119v23h-22v6h22v22h6v-22h23v-6h-23v-23zM1162 1119v23h-22v6h22v22h6v-22h23v-6h-23v-23zM1352 1119v23h-22v6h22v22h6v-22h23v-6h-23v-23zM1542 1119v23h-23v6h23v22h6v-22h22v-6h-22v-23zM1732 1119v23h-23v6h23v22h6v-22h22v-6h-22v-23zM1922 1119v23h-23v6h23v22h6v-22h22v-6h-22v-23zM2111 1119v23h-22v6h22v22h7v-22h22v-6h-22v-23zM2301 1119v23h-22v6h22v22h7v-22h22v-6h-22v-23zM2491 1119v23h-22v6h22v22h7v-22h22v-6h-22v-23zM2681 1119v23h-22v6h22v22h7v-22h22v-6h-22v-23zM2871 1119v23h-22v6h22v22h7v-22h22v-6h-22v-23zM3061 1119v23h-22v6h22v22h7v-22h22v-6h-22v-23zM3251 1119v23h-22v6h22v22h7v-22h22v-6h-22v-23zM3441 1119v23h-22v6h22v22h6v-22h23v-6h-23v-23zM3631 1119v23h-22v6h22v22h6v-22h23v-6h-23v-23zM3821 1119v23h-22v6h22v22h6v-22h23v-6h-23v-23zM22 1279v23H0v6h22v22h7v-22h22v-6H29v-23zM212 1279v23h-22v6h22v22h7v-22h22v-6h-22v-23zM402 1279v23h-22v6h22v22h7v-22h22v-6h-22v-23zM592 1279v23h-22v6h22v22h7v-22h22v-6h-22v-23zM782 1279v23h-22v6h22v22h6v-22h23v-6h-23v-23zM972 1279v23h-22v6h22v22h6v-22h23v-6h-23v-23zM1162 1279v23h-22v6h22v22h6v-22h23v-6h-23v-23zM1352 1279v23h-22v6h22v22h6v-22h23v-6h-23v-23zM1542 1279v23h-23v6h23v22h6v-22h22v-6h-22v-23zM1732 1279v23h-23v6h23v22h6v-22h22v-6h-22v-23zM1922 1279v23h-23v6h23v22h6v-22h22v-6h-22v-23zM2111 1279v23h-22v6h22v22h7v-22h22v-6h-22v-23zM2301 1279v23h-22v6h22v22h7v-22h22v-6h-22v-23zM2491 1279v23h-22v6h22v22h7v-22h22v-6h-22v-23zM2681 1279v23h-22v6h22v22h7v-22h22v-6h-22v-23zM2871 1279v23h-22v6h22v22h7v-22h22v-6h-22v-23zM3061 1279v23h-22v6h22v22h7v-22h22v-6h-22v-23zM3251 1279v23h-22v6h22v22h7v-22h22v-6h-22v-23zM3441 1279v23h-22v6h22v22h6v-22h23v-6h-23v-23zM3631 1279v23h-22v6h22v22h6v-22h23v-6h-23v-23zM3821 1279v23h-22v6h22v22h6v-22h23v-6h-23v-23zM22 1439v23H0v6h22v22h7v-22h22v-6H29v-23zM212 1439v23h-22v6h22v22h7v-22h22v-6h-22v-23zM402 1439v23h-22v6h22v22h7v-22h22v-6h-22v-23zM592 1439v23h-22v6h22v22h7v-22h22v-6h-22v-23zM782 1439v23h-22v6h22v22h6v-22h23v-6h-23v-23zM972 1439v23h-22v6h22v22h6v-22h23v-6h-23v-23zM1162 1439v23h-22v6h22v22h6v-22h23v-6h-23v-23zM1352 1439v23h-22v6h22v22h6v-22h23v-6h-23v-23zM1542 1439v23h-23v6h23v22h6v-22h22v-6h-22v-23zM1732 1439v23h-23v6h23v22h6v-22h22v-6h-22v-23zM1922 1439v23h-23v6h23v22h6v-22h22v-6h-22v-23zM2111 1439v23h-22v6h22v22h7v-22h22v-6h-22v-23zM2301 1439v23h-22v6h22v22h7v-22h22v-6h-22v-23zM2491 1439v23h-22v6h22v22h7v-22h22v-6h-22v-23zM2681 1439v23h-22v6h22v22h7v-22h22v-6h-22v-23zM2871 1439v23h-22v6h22v22h7v-22h22v-6h-22v-23zM3061 1439v23h-22v6h22v22h7v-22h22v-6h-22v-23zM3251 1439v23h-22v6h22v22h7v-22h22v-6h-22v-23zM3441 1439v23h-22v6h22v22h6v-22h23v-6h-23v-23zM3631 1439v23h-22v6h22v22h6v-22h23v-6h-23v-23zM3821 1439v23h-22v6h22v22h6v-22h23v-6h-23v-23zM22 1599v23H0v6h22v22h7v-22h22v-6H29v-23zM212 1599v23h-22v6h22v22h7v-22h22v-6h-22v-23zM402 1599v23h-22v6h22v22h7v-22h22v-6h-22v-23zM592 1599v23h-22v6h22v22h7v-22h22v-6h-22v-23zM782 1599v23h-22v6h22v22h6v-22h23v-6h-23v-23zM972 1599v23h-22v6h22v22h6v-22h23v-6h-23v-23zM1162 1599v23h-22v6h22v22h6v-22h23v-6h-23v-23zM1352 1599v23h-22v6h22v22h6v-22h23v-6h-23v-23zM1542 1599v23h-23v6h23v22h6v-22h22v-6h-22v-23zM1732 1599v23h-23v6h23v22h6v-22h22v-6h-22v-23zM1922 1599v23h-23v6h23v22h6v-22h22v-6h-22v-23zM2111 1599v23h-22v6h22v22h7v-22h22v-6h-22v-23zM2301 1599v23h-22v6h22v22h7v-22h22v-6h-22v-23zM2491 1599v23h-22v6h22v22h7v-22h22v-6h-22v-23zM2681 1599v23h-22v6h22v22h7v-22h22v-6h-22v-23zM2871 1599v23h-22v6h22v22h7v-22h22v-6h-22v-23zM3061 1599v23h-22v6h22v22h7v-22h22v-6h-22v-23zM3251 1599v23h-22v6h22v22h7v-22h22v-6h-22v-23zM3441 1599v23h-22v6h22v22h6v-22h23v-6h-23v-23zM3631 1599v23h-22v6h22v22h6v-22h23v-6h-23v-23zM3821 1599v23h-22v6h22v22h6v-22h23v-6h-23v-23zM22 1759v23H0v6h22v22h7v-22h22v-6H29v-23zM212 1759v23h-22v6h22v22h7v-22h22v-6h-22v-23zM402 1759v23h-22v6h22v22h7v-22h22v-6h-22v-23zM592 1759v23h-22v6h22v22h7v-22h22v-6h-22v-23zM782 1759v23h-22v6h22v22h6v-22h23v-6h-23v-23zM972 1759v23h-22v6h22v22h6v-22h23v-6h-23v-23zM1162 1759v23h-22v6h22v22h6v-22h23v-6h-23v-23zM1352 1759v23h-22v6h22v22h6v-22h23v-6h-23v-23zM1542 1759v23h-23v6h23v22h6v-22h22v-6h-22v-23zM1732 1759v23h-23v6h23v22h6v-22h22v-6h-22v-23zM1922 1759v23h-23v6h23v22h6v-22h22v-6h-22v-23zM2111 1759v23h-22v6h22v22h7v-22h22v-6h-22v-23zM2301 1759v23h-22v6h22v22h7v-22h22v-6h-22v-23zM2491 1759v23h-22v6h22v22h7v-22h22v-6h-22v-23zM2681 1759v23h-22v6h22v22h7v-22h22v-6h-22v-23zM2871 1759v23h-22v6h22v22h7v-22h22v-6h-22v-23zM3061 1759v23h-22v6h22v22h7v-22h22v-6h-22v-23zM3251 1759v23h-22v6h22v22h7v-22h22v-6h-22v-23zM3441 1759v23h-22v6h22v22h6v-22h23v-6h-23v-23zM3631 1759v23h-22v6h22v22h6v-22h23v-6h-23v-23zM3821 1759v23h-22v6h22v22h6v-22h23v-6h-23v-23zM22 1919v23H0v6h22v22h7v-22h22v-6H29v-23zM212 1919v23h-22v6h22v22h7v-22h22v-6h-22v-23zM402 1919v23h-22v6h22v22h7v-22h22v-6h-22v-23zM592 1919v23h-22v6h22v22h7v-22h22v-6h-22v-23zM782 1919v23h-22v6h22v22h6v-22h23v-6h-23v-23zM972 1919v23h-22v6h22v22h6v-22h23v-6h-23v-23zM1162 1919v23h-22v6h22v22h6v-22h23v-6h-23v-23zM1352 1919v23h-22v6h22v22h6v-22h23v-6h-23v-23zM1542 1919v23h-23v6h23v22h6v-22h22v-6h-22v-23zM1732 1919v23h-23v6h23v22h6v-22h22v-6h-22v-23zM1922 1919v23h-23v6h23v22h6v-22h22v-6h-22v-23zM2111 1919v23h-22v6h22v22h7v-22h22v-6h-22v-23zM2301 1919v23h-22v6h22v22h7v-22h22v-6h-22v-23zM2491 1919v23h-22v6h22v22h7v-22h22v-6h-22v-23zM2681 1919v23h-22v6h22v22h7v-22h22v-6h-22v-23zM2871 1919v23h-22v6h22v22h7v-22h22v-6h-22v-23zM3061 1919v23h-22v6h22v22h7v-22h22v-6h-22v-23zM3251 1919v23h-22v6h22v22h7v-22h22v-6h-22v-23zM3441 1919v23h-22v6h22v22h6v-22h23v-6h-23v-23zM3631 1919v23h-22v6h22v22h6v-22h23v-6h-23v-23zM3821 1919v23h-22v6h22v22h6v-22h23v-6h-23v-23zM22 2079v22H0v6h22v23h7v-23h22v-6H29v-22zM212 2079v22h-22v6h22v23h7v-23h22v-6h-22v-22zM402 2079v22h-22v6h22v23h7v-23h22v-6h-22v-22zM592 2079v22h-22v6h22v23h7v-23h22v-6h-22v-22zM782 2079v22h-22v6h22v23h6v-23h23v-6h-23v-22zM972 2079v22h-22v6h22v23h6v-23h23v-6h-23v-22zM1162 2079v22h-22v6h22v23h6v-23h23v-6h-23v-22zM1352 2079v22h-22v6h22v23h6v-23h23v-6h-23v-22zM1542 2079v22h-23v6h23v23h6v-23h22v-6h-22v-22zM1732 2079v22h-23v6h23v23h6v-23h22v-6h-22v-22zM1922 2079v22h-23v6h23v23h6v-23h22v-6h-22v-22zM2111 2079v22h-22v6h22v23h7v-23h22v-6h-22v-22zM2301 2079v22h-22v6h22v23h7v-23h22v-6h-22v-22zM2491 2079v22h-22v6h22v23h7v-23h22v-6h-22v-22zM2681 2079v22h-22v6h22v23h7v-23h22v-6h-22v-22zM2871 2079v22h-22v6h22v23h7v-23h22v-6h-22v-22zM3061 2079v22h-22v6h22v23h7v-23h22v-6h-22v-22zM3251 2079v22h-22v6h22v23h7v-23h22v-6h-22v-22zM3441 2079v22h-22v6h22v23h6v-23h23v-6h-23v-22zM3631 2079v22h-22v6h22v23h6v-23h23v-6h-23v-22zM3821 2079v22h-22v6h22v23h6v-23h23v-6h-23v-22zM22 2239v22H0v6h22v23h7v-23h22v-6H29v-22zM212 2239v22h-22v6h22v23h7v-23h22v-6h-22v-22zM402 2239v22h-22v6h22v23h7v-23h22v-6h-22v-22zM592 2239v22h-22v6h22v23h7v-23h22v-6h-22v-22zM782 2239v22h-22v6h22v23h6v-23h23v-6h-23v-22zM972 2239v22h-22v6h22v23h6v-23h23v-6h-23v-22zM1162 2239v22h-22v6h22v23h6v-23h23v-6h-23v-22zM1352 2239v22h-22v6h22v23h6v-23h23v-6h-23v-22zM1542 2239v22h-23v6h23v23h6v-23h22v-6h-22v-22zM1732 2239v22h-23v6h23v23h6v-23h22v-6h-22v-22zM1922 2239v22h-23v6h23v23h6v-23h22v-6h-22v-22zM2111 2239v22h-22v6h22v23h7v-23h22v-6h-22v-22zM2301 2239v22h-22v6h22v23h7v-23h22v-6h-22v-22zM2491 2239v22h-22v6h22v23h7v-23h22v-6h-22v-22zM2681 2239v22h-22v6h22v23h7v-23h22v-6h-22v-22zM2871 2239v22h-22v6h22v23h7v-23h22v-6h-22v-22zM3061 2239v22h-22v6h22v23h7v-23h22v-6h-22v-22zM3251 2239v22h-22v6h22v23h7v-23h22v-6h-22v-22zM3441 2239v22h-22v6h22v23h6v-23h23v-6h-23v-22zM3631 2239v22h-22v6h22v23h6v-23h23v-6h-23v-22zM3821 2239v22h-22v6h22v23h6v-23h23v-6h-23v-22zM22 2399v22H0v6h22v23h7v-23h22v-6H29v-22zM212 2399v22h-22v6h22v23h7v-23h22v-6h-22v-22zM402 2399v22h-22v6h22v23h7v-23h22v-6h-22v-22zM592 2399v22h-22v6h22v23h7v-23h22v-6h-22v-22zM782 2399v22h-22v6h22v23h6v-23h23v-6h-23v-22zM972 2399v22h-22v6h22v23h6v-23h23v-6h-23v-22zM1162 2399v22h-22v6h22v23h6v-23h23v-6h-23v-22zM1352 2399v22h-22v6h22v23h6v-23h23v-6h-23v-22zM1542 2399v22h-23v6h23v23h6v-23h22v-6h-22v-22zM1732 2399v22h-23v6h23v23h6v-23h22v-6h-22v-22zM1922 2399v22h-23v6h23v23h6v-23h22v-6h-22v-22zM2111 2399v22h-22v6h22v23h7v-23h22v-6h-22v-22zM2301 2399v22h-22v6h22v23h7v-23h22v-6h-22v-22zM2491 2399v22h-22v6h22v23h7v-23h22v-6h-22v-22zM2681 2399v22h-22v6h22v23h7v-23h22v-6h-22v-22zM2871 2399v22h-22v6h22v23h7v-23h22v-6h-22v-22zM3061 2399v22h-22v6h22v23h7v-23h22v-6h-22v-22zM3251 2399v22h-22v6h22v23h7v-23h22v-6h-22v-22zM3441 2399v22h-22v6h22v23h6v-23h23v-6h-23v-22zM3631 2399v22h-22v6h22v23h6v-23h23v-6h-23v-22zM3821 2399v22h-22v6h22v23h6v-23h23v-6h-23v-22z"/></g></svg>