<svg xmlns="http://www.w3.org/2000/svg" xml:space="preserve" width="515" height="513" style="shape-rendering:geometricPrecision;text-rendering:geometricPrecision;image-rendering:optimizeQuality;fill-rule:evenodd;clip-rule:evenodd" viewBox="0 0 472.26 469.98"><defs><style>.str0,.str1{stroke:#fff;stroke-width:1.35;stroke-linejoin:round;stroke-miterlimit:22.9256}.str1{stroke-linecap:round}.fil3{fill:none}.fil2{fill:#00d39b}.fil0,.fil1{fill:#e7e7e7}</style></defs><g id="Camada_x0020_1"><path class="fil0 str0" d="m462.13 172.61-2.38 3.82-10.7 11.92-.55.45c-2.54-.56-4.48-5.81-6.11-5.81-.35-.34-.35-1.03-1.03-1.03l-.35-.69c-2.76 0-5.51-1.04-7.93-1.73-.16-1.42-.17-2.85-.27-4.24.19.03.25.13.96-.58 0-.69.35-1.73.35-2.41 1.03-1.04 1.69-.8 3.41-.8 0 6.55 9.34 5.97 14.17 5.97 3.17-4.06 6.62-4.96 10.43-4.87z"/><path class="fil1 str0" d="m393.25 320.51-2.4 4.75-10.7 7.94-10.7 6.62-14.14 1.17c-.25-.38-.53-.66-.85-.76 0-2.86-5.16 4.79-3.38-5.18l.83-.83v-.84l.41-.41c8.33-5.83 17.49-3.74 25.8-8.32 3.42-1.89 2.34-6.89 3.37-9.97.22.4.38.97.38 1.23 3.31 3.31 7.15 4.33 11.38 4.6zM287.42 422.35l-.45.62-9.37 5.3-6.68 13.24-9.37 17.2-10.7 10.59-8.03-2.64 4.02-11.92h-14.72l-13.38-6.62-9.36-6.61h-12.04l13.37-15.89 13.38-14.56 13.38-10.59 9.31-6.15c4.98.34 12.97 1.06 12.97 1.47 2.76 0 7.17 2.76 8.28 4.97h7.17l3.32 2.76v1.11c.55.55 1.1 1.1 1.1 1.65 2.76.55 4.97 1.66 8.28 1.66v7.17c-2.21 1.11-3.86 4.97-1.66 7.18.35 0 .75.02 1.18.06z"/><path class="fil2 str0" d="M297.67 393.85v14.56l-10.25 13.94c-.43-.04-.83-.06-1.18-.06-2.2-2.21-.55-6.07 1.66-7.18v-7.17c-3.31 0-5.52-1.11-8.28-1.66 0-.55-.55-1.1-1.1-1.65v-1.11l-3.32-2.76h-7.17c-1.11-2.21-5.52-4.97-8.28-4.97 0-.41-7.99-1.13-12.97-1.47l2.73-1.8 3.38-11.59c8.97 6.22 20.28.24 30.8-1.67 6.33-2.64 14.48-5.94 15.53 8.46l-1.55 6.13zM396.85 98.64h27.91l12.05 11.91 8.02 11.92.29.36c-1.08-.19-2.14-.24-3.32.15v1.38c-6.55 3.1-7.24 6.89-9.31 13.1-2.07 1.03-4.82 1.72-6.89 2.75l-.35 7.59c-.69.34-.69 1.38-.69 2.07l.69.68h1.04v2.76c-1.73 1.73-2.42 4.14-3.45 6.21-1.38.34-3.1 1.03-4.48 1.03-.34-.34-.69-.69-1.03-.69 0-.34-1.38-2.07-1.73-2.07-.34-.69-1.03-1.72-1.72-2.41l-11.23-.47c-.03-1.67-.08-3.07-.08-3.68 1 0 2-3.5 1.5-4.5l-1-1-3-1c0-2-.5-5-.5-7.5-8.5-3-3-10.51-5-16.51h-.5c-.5-1.5 0-6.5 0-8l-1.5-1.5c0-1-1.5-7.51.5-7.51 0-1 2-4 3-4 .13-.27.42-.66.78-1.07z"/><path class="fil1 str0" d="m444.83 122.47 5.35 6.62 16.06 1.32 5.35 14.56v2.84c-2.32-1.08-4.29-2.98-4.29-5.53-.34 0-.69-.34-.69-.69-2.06 0-4.82 0-6.2 1.38v1.04c-1.38.69-3.1-.35-4.14-.69 0-.35-.34-.69-.34-1.04-.34 0-.69-.34-.69-.69-.69 0-2.41-.34-3.45-.34l-.34 7.93-.35.34c-1.03 0-2.75-.34-3.79-.34v-2.76s-.69-.69-.69-1.04h-1.72v.69c-1.03 0-2.76.35-3.79.35-.35-.35-.69-.69-1.04-.69 0-1.03-.34-2.07-.34-3.1.34 0 .34-.69 1.03-.69 0-.35 1.04-1.04 1.04-1.38.69 0 1.38-.35 1.72-.35v-3.1h-3.79c0 .35-.34.69-.34 1.04-.35 0-.69.34-.69.69-1.04 0-4.14 2.41-4.14 3.44-.34 0-1.03.69-1.38 1.04h-3.1l-.35-.35v-.69c-.86 0-1.63-1.37-2.23-2.88 1.68-.64 3.51-1.2 4.99-1.94 2.07-6.21 2.76-10 9.31-13.1v-1.38c1.18-.39 2.24-.34 3.32-.15l-.29-.36z"/><path class="fil0 str0" d="m449.63 189.11-7.47 6.17-1.34 7.94-2.61 3.23c-.31-.04-.61-.06-.89-.06 0-.34-.69-.34-.69-1.38-1.38-.69-1.38-1.37-1.38-3.1l-.35-.34h-3.1c-2.07-2.07-1.38-3.79-1.38-6.21 1.04 0 2.42 0 3.11-.69 0-.69-.35-1.72-.35-2.06.35-.35.69-1.04 1.04-1.04v-.69c.34 0 .68-.69 1.03-1.03h1.03c0-1.04 1.38-1.73 1.38-3.1l-.34-.35c-.69 0-2.07-1.03-2.76-1.38 0-1.03-1.03-2.07-1.38-2.75-.71-1.6-.23-3.93-.02-6.14.13.01.25-.01.37-.07v-.34c.21-.11.33-.12.41-.11.1 1.39.12 2.82.28 4.24 2.41.69 5.17 1.73 7.92 1.73l.35.69c.69 0 .69.68 1.03 1.03 1.63 0 3.57 5.25 6.11 5.81zm-15.47-13.49c.04-.01.01 0 0 0zm-.02 0c-.02.01-.04.01-.06.01.02 0 .04 0 .06-.01zm-.07.01h-.01.01zm-.04-.01h-.01.01zm-.04 0h-.01.01z"/><path class="fil2 str0" d="m308.86 369.85-7.17 8.11-2.83 6.42c-4.88 2.59-7.12 2.25-10.04 1.64-1.41-.3-2.35-1.21-4.05-1.26-1.28-.03-3.32.66-4.56 1.18-3.96 1.73-5.45 5.56-8.51 4.83-2.01-.49-4.01-1.32-6.2-2.25-1.58-.66-4.43.27-6.04-.78l-7.08-.49-2.88-2.38-6.66-.91.2-7.98-7.31-3.31-.01-9.54-.63-.42c3.76-3.61 4.19-10.34 7-15.49 1.1-2.76 5.52-4.97 6.62-7.17 9.94 0 18.77-2.21 28.15.55 0 .55 2.21 2.21 2.21 2.76 4.97 0 11.04 2.76 15.45 2.76v1.1l1.11.55v7.18c.55.55 1.1 1.1 1.1 1.65 1.11 0 1.11 1.11 1.66 1.11 0 1.65-1.11 6.07-.55 7.17l.55.56h1.65c0-1.11 2.76-1.66 3.32-1.66v-.55h1.1c0 .55.55 2.21.55 3.31 1.11.55 2.21 2.21 2.76 3.31h1.09z"/><path class="fil2 str0" d="m355.31 340.99-1.92.16-3.58 8.37-25.88 10.44-12.88 7.41-2.19 2.48h-1.09c-.55-1.1-1.65-2.76-2.76-3.31 0-1.1-.55-2.76-.55-3.31h-1.1v.55c-.56 0-3.32.55-3.32 1.66h-1.65l-.55-.56c-.56-1.1.55-5.52.55-7.17-.55 0-.55-1.11-1.66-1.11 0-.55-.55-1.1-1.1-1.65v-7.18l-1.11-.55v-1.1c-4.41 0-10.48-2.76-15.45-2.76 0-.55-2.21-2.21-2.21-2.76-9-2.65-17.5-.72-26.95-.56.02-.3.04-.6.04-.89.72 0 1.08-1.09 1.81-1.09 0-.72 9.04-5.42 9.76-5.42 0-1.45.36-3.26.36-4.71.73-.36 1.81-1.8 2.53-1.8.37-1.45 1.09-5.43 2.53-6.15 0-1.45 2.9-4.34 2.9-6.15.72 0 5.06-2.53 5.06-3.62.36 0 1.09-1.08 1.09-1.08l.36-.36c.36 0 2.17-1.09 2.17-1.45.36 0 2.89-1.81 2.89-2.17 1.45 0 3.26.36 4.7.36.36.36 2.17 1.81 2.17 2.17.36 0 1.81-.36 1.81-.72h.72l.37-.36c0-.36 1.08-1.45 1.44-1.81 2.17 0 4.34 1.08 6.15 1.81 0 .36.36 1.44.36 2.17-.36 0-1.44.72-1.81.72 0 3.62 3.98 1.81 5.79 1.81.36.36 1.45 1.08 1.45 1.81h1.08v-2.54l1.45-1.08h8.32v-.72l2.17-1.45c2.53 0 3.25 1.08 5.06 1.81 0 1.08.36 2.89.36 4.34-1.81.72-.36 3.61-.36 5.06 1.08.36.72 3.62.72 4.7.73.73 1.45 1.81 2.17 2.53 1.45 0 3.26.37 4.7.37v2.89c-3.25 1.45 1.09 9.04 1.09 11.93.72.37 1.45 1.09 1.45 1.81h6.87c.36-.36 1.8-1.08 1.8-1.81 1.09-.36 3.26-.72 4.34-1.08v-.36c1.09-.36 4.34 0 5.79 0 0-.36.72-1.09.72-1.45h1.09c0 .36 1.08 1.81 1.08 2.17.32.1.6.38.85.76zM411.55 284.88l-3.3 9.93-10.71 17.21-2.84 5.63-1.45 2.86c-4.23-.27-8.07-1.29-11.38-4.6 0-.26-.16-.83-.38-1.23.11-.31.23-.59.38-.85.26 0 .52-.03.76-.08 2.83-.57 4.39-4.15 6.31-4.92 2.77-2.35 5.69-12.34 6.24-12.89 0-2.08 1.25-4.58 1.25-6.25l.42-.41h.83l.83-.83v-.84c.83 0 1.66-1.66 2.08-2.08h.42l.83-1.24v-1.25c2.08 0 6.66.83 8.32.83.16.16.73.55 1.39 1.01zM280.14 220.76h3.7l.67-.67c-.66-1.67-.66-3.67 1.34-4.01.48 4.3 2.72 2.66 3.34 3.34 1.27 2.15 3.43 3.92 4.02 4.68h2l2.11-1.07c.67 0 .67-1.34.67-2h1.33c0 .66.49-.8.49-.13 2.68 0 3.43-.81 5.44-2.15 0 .94-.15 2.85.39 3.95.61 1.24 1.93 1.68 2.28 2.74 1.34 0 2.68-.67 4.01-1.34v-1.33h2.68c0 1.33 0 3.34 1.34 4.01.73 3.87 1.89-5.38 2.13-2.9.33 3.34 4.7 1.54 3.89-.44 3.51 2.1 7.06-2.63 9.51-3.02 1.29 0 2.56-.15 3.86-.33-.09 5.7-1.33 10.23-1.33 15.38 1.33 0 2 1.34 2.67 1.34v3.35l1.34.67c0 1.96-.12 3.99-.28 6.02-.74-.23-1.44-.64-2.06-1.26h-.83c0-.42-.42-.83-.83-.83v-1.25c-.84 0 0-.42-.84-.42l-.41-.83h-3.75l-.41 6.66c-.83 0-2.08.41-2.92.41 0 2.92 1.67 5.83 1.67 9.16-.83 0-2.08.83-2.5.83 0 .83-.41 1.66-.41 2.5l-.42.41-.42.42c-1.24 0-3.32 0-4.57.41v3.75l.83.83h.83c0 .83 1.25 1.67 1.67 1.67v2.91l-.84.41c0 .84-2.08 2.09-2.08 3.33 1.25 0 2.5.84 3.75.84v2.49c-.42 0-.83.42-.83.83h-.84c0 1.25 1.25 2.92.42 4.17h-.42s-.83 1.24-.83 1.66l-.41.42c-.84 0-4.17.41-4.58 0v-.42c-2.5-1.66-6.66 1.66-9.57-1.25-7.07 0-12.48 4.58-19.97 4.58 0 3.33-5.41 5.82-7.08 8.32h-.41l-.39.45-.13-.13c-1.45 0-2.54-1.45-3.62-1.45-2.17-2.17-10.85-4.34-10.85-7.59-4.7 0-8.68-5.07-12.3-5.07l-.13-.13c.65-1.6 1.57-3 1.57-3.86.88 0 .88-.88 1.33-.88v-9.77l1.77-1.78h2.22c0-3.1.89-5.77 3.11-7.99 1.33 0 3.11-1.77 3.11-3.1.89-.45 2.22-1.78 3.11-1.78 0-2.22 2.21-5.33 2.21-7.55l.89-.88c1.78 0 4.44-.89 6.22-.89 0-4 0-8.88 3.11-11.1 0-.24-.42-4.95-.28-8.94.16-4.52.86-8.18.51-4.4z"/><path class="fil1 str0" d="M471.59 147.81v2c-.99.26-1.99.4-2.91.4-.69 1.38-1.03 2.41-1.03 4.14-.35 0-2.07 1.03-2.07 1.72h-1.03c-.35.34-1.38 1.38-1.38 1.72-.69 0-1.04 1.04-1.04 1.38-3.44 0-7.23 1.04-11.03 1.04 0 .34-.34 1.03-.34 1.37 0 0-1.03 1.04-1.03 1.38-2.76 0-4.83 2.07-7.24-.34 0-1.38.34-3.1.34-4.48 1.38 0 2.76-1.73 4.14-1.73 0-.34.34-1.37.34-2.06-2.41-.69-5.17-.69-7.92-.69l-.35.34v1.73c-.69.68-2.76 2.06-3.1 2.75-2.76 0-5.86 2.42-7.93-.69l-.69-.34v-1.38c-.93 0-1.72-.35-2.52-.73.41-.73.88-1.42 1.49-2.03v-2.76h-1.04l-.69-.68c0-.69 0-1.73.69-2.07l.35-7.59c.59-.29 1.24-.56 1.91-.81h-.01c.6 1.51 1.37 2.88 2.23 2.88v.69l.35.35h3.1c.35-.35 1.04-1.04 1.38-1.04 0-1.03 3.1-3.44 4.14-3.44 0-.35.34-.69.69-.69 0-.35.34-.69.34-1.04h3.79v3.1c-.34 0-1.03.35-1.72.35 0 .34-1.04 1.03-1.04 1.38-.69 0-.69.69-1.03.69 0 1.03.34 2.07.34 3.1.35 0 .69.34 1.04.69 1.03 0 2.76-.35 3.79-.35v-.69h1.72c0 .35.69 1.04.69 1.04v2.76c1.04 0 2.76.34 3.79.34l.35-.34.34-7.93c1.04 0 2.76.34 3.45.34 0 .35.35.69.69.69 0 .35.34.69.34 1.04 1.04.34 2.76 1.38 4.14.69v-1.04c1.38-1.38 4.14-1.38 6.2-1.38 0 .35.35.69.69.69 0 2.55 1.97 4.45 4.29 5.53zm-41.96-9.18c.02-.01.04-.02.06-.02-.02 0-.04.01-.06.02zm.89-.33.15-.06-.15.06zm.21-.08c.07-.03.14-.06.21-.08-.07.02-.14.05-.21.08zm.44-.17c.03-.02.07-.03.1-.04-.03.01-.07.02-.1.04zm.23-.1c.13-.05.26-.11.39-.16-.13.05-.26.11-.39.16zm.61-.26c.06-.03.11-.05.17-.08-.06.03-.11.05-.17.08zm.22-.11c.05-.02.11-.05.16-.07-.05.02-.11.05-.16.07zm.17-.08c.03-.01.06-.03.09-.04-.03.01-.06.03-.09.04zm.37-.88c0-.01.01-.02.01-.03 0 .01-.01.02-.01.03zm1.68-4.82c0-.01.01-.02.01-.03 0 .01-.01.02-.01.03z"/><path class="fil2 str0" d="M471.59 149.81v9.72l-8.33 13.39c-3.81-.09-7.26.81-10.43 4.86-4.83 0-12.76 0-12.76-6.54-1.72 0-3.79.34-4.82 1.37 0 .69-.35 1.73-.35 2.42-1.03 1.03-.68.34-1.37.69v.34c-.69.35-1.73-.69-2.07-.69-.35-1.03-1.04-2.41-1.04-3.45-2.75 0-5.51-1.72-7.58-1.72 0-1.72-4.82-2.41-6.2-2.41l-11.72 10.68c-2.07 2.07-6.55-4.48-7.59-4.48l-.34-.69c-1.52 0-2.63-.53-3.5-1.37.34-.12.7-.19 1.08-.19l1-1v-2c1.5-1.5 4-2 6-2l.5-.5v-1.5c.7-.7.67-5.99.58-9.83l11.23.47c.69.69 1.38 1.72 1.72 2.41.35 0 1.73 1.73 1.73 2.07.34 0 .69.35 1.03.69 1.38 0 3.1-.69 4.48-1.03.67-1.35 1.2-2.83 1.96-4.18.8.38 1.59.73 2.52.73v1.38l.69.34c2.07 3.11 5.17.69 7.93.69.34-.69 2.41-2.07 3.1-2.75V154l.35-.34c2.75 0 5.51 0 7.92.69 0 .69-.34 1.72-.34 2.06-1.38 0-2.76 1.73-4.14 1.73 0 1.38-.34 3.1-.34 4.48 2.41 2.41 4.48.34 7.24.34 0-.34 1.03-1.38 1.03-1.38 0-.34.34-1.03.34-1.37 3.8 0 7.59-1.04 11.03-1.04 0-.34.35-1.38 1.04-1.38 0-.34 1.03-1.38 1.38-1.72h1.03c0-.69 1.72-1.72 2.07-1.72 0-1.73.34-2.76 1.03-4.14.92 0 1.92-.14 2.91-.4zm-45.3 3.5-.06.06c-.01.02-.03.03-.04.05.01-.02.03-.03.04-.05-.01.02-.03.03-.04.05.01-.02.03-.03.04-.05l.06-.06zm-.14.14c-.02.03-.05.05-.07.08.02-.03.05-.05.07-.08zm-.09.1-.02.02c-.01.01-.02.03-.03.04l-.04.04.04-.04c.01-.01.02-.03.03-.04l.02-.02zm-.12.14zm-.57.73c-.01.01-.02.03-.03.04.01-.01.02-.03.03-.04zm-.04.05-.23.35.23-.35zm-.31.49c-.01.01-.01.02-.02.03.01-.01.01-.02.02-.03zm-.03.04-.03.06c-.01 0-.01.01-.01.02-.02.02-.03.04-.04.06a.21.21 0 0 1 .04-.06c0-.01 0-.02.01-.02l.03-.06zm-.1.18c-.03.05-.06.1-.09.14.03-.05.06-.09.09-.14zM310.05 262.73h6.61v-5.16h-6.61z"/><path class="fil1 str0" d="m118.12 38.72 2.96-2.3-6.69-21.18 18.73 5.29L165.23.68l8.03 5.29-1.34 27.8 9.36 11.92.85-.24c-1.75 4.27-1.34 12.47-1.34 16.15l-9.77-1.54v.51h-1.03c0 2.57-3.08 5.14-4.62 6.68 0 2.57.51 6.69-1.03 8.74h-3.6c-.51-.51-2.57-3.08-3.08-3.08 0-.52-1.03-2.06-1.03-2.57l-.52-.52h-5.14l-1.03 1.03c0 3.09-2.57 7.71-2.57 9.25-1.02 0-2.57.52-3.59.52 0-.52-.52-1.03-1.03-1.03-1.03-2.57-2.57-8.74-5.14-9.77l-1.03-19.53c-3.08-1.54-3.6-8.23-6.17-9.25v-1.03c-3.15 0-8.23-.19-12.29-1.29z"/><path class="fil1 str0" d="m58.2 80.1-10.7-3.97V62.9l9.36-15.89 22.75-6.62 10.7 11.91 12.04-1.32 15.77-12.26c4.06 1.1 9.14 1.29 12.29 1.29v1.03c2.57 1.02 3.09 7.71 6.17 9.25l1.03 19.53c2.57 1.03 4.11 7.2 5.14 9.77.51 0 1.03.51 1.03 1.03 1.02 0 2.57-.52 3.59-.52 0-1.54 2.57-6.16 2.57-9.25l1.03-1.03h5.14l.52.52c0 .51 1.03 2.05 1.03 2.57.51 0 2.57 2.57 3.08 3.08h3.6c1.54-2.05 1.03-6.17 1.03-8.74 1.54-1.54 4.62-4.11 4.62-6.68h1.03v-.51l8.2 1.29c.07.11.1.19.1.26h1.09c0 .54 0 1.63.55 1.63 0 2.17 2.17 5.98 3.26 7.07 0 2.72 3.26 5.98 3.8 8.7l1.09.54c0 2.18 2.72 4.89 2.72 5.98h10.87l.55 1.09h.54c0 .54.55 1.63 1.09 1.63l-.54 10.33c-.55 1.09-1.09 3.26-1.64 4.35-5.43 13.59-17.94 30.45-12.5 45.67 1.63 4.89-.54 14.14-.54 19.03-.55.54-1.09 1.63-1.09 2.18-.55.54-2.18 1.63-3.26 1.63-1.09 1.08-5.44 1.08-7.62 1.08-4.35.55-25.55 3.81-27.73-1.08-3.26 0-9.24-5.44-14.13-5.44 0-3.81-5.44-6.52-8.16-6.52l-3.8 3.26v.54l-2.72 2.72h-3.26c0 8.16-6.53 7.61-11.42 10.87l-.55 1.09-.54.55c-1.09 1.08-4.89-.55-6.52.54v.54c-1.09.55-5.98 0-7.07 0 0 .55-1.09 2.18-1.09 2.72-1.09.55-3.26 2.18-4.35 2.72h-6.52c-5.44-1.63-9.79-5.44-13.6-9.24-5.43-5.44-23.92-13.6-30.99-14.68-4.89-.55-11.42 0-16.31-1.09-5.47-1.61-9.8-4.56-14-7.48l9.12-14.19 2.68-7.94 6.69-3.97 12.04-5.3 12.04-2.65L58.2 80.1z"/><path class="fil0 str0" d="m87.81 187.05-2.85.28-10.7 9.27-6.69 7.94H51.51l-9.36-1.32-.57-8.9-4.78-3.02-13.38-3.97H8.7l-2.67-9.26L.68 163.5l4.01-10.59.09-.13c.47.23.95.45 1.44.65 3.8 2.62 7.79 5.14 12.71 6.59 4.89 1.09 11.42.54 16.31 1.09 7.07 1.08 25.56 9.24 30.99 14.68 3.81 3.8 8.16 7.61 13.6 9.24h6.52a10 10 0 0 0 .78-.44c.28.8.5 1.62.68 2.46z"/><path class="fil2 str0" d="m141.15 233.67-8.03-9.27-10.7-3.97-10.7-11.92-4.02-14.56-9.36-7.94-13.38 1.32-.05.04c.01-.77.03-1.56.1-2.34h1.34c1.09-.54 3.26-2.17 4.35-2.72 0-.54 1.09-2.17 1.09-2.72.77 0 3.48.28 5.37.24.38-.01.72-.03 1.01-.06l.01-.01c.07 0 .14-.01.2-.03.05-.01.1-.01.14-.02.01-.01.01-.01.02-.01h.01c.01 0 .02-.01.02-.01.04-.01.08-.02.11-.03.04-.01.08-.02.12-.04h.01c.01-.01.03-.02.05-.03v-.54c1.63-1.09 5.43.54 6.52-.54l.54-.55.55-1.09c4.89-3.26 11.42-2.71 11.42-10.87h3.26l2.72-2.72v-.54l3.8-3.26c2.72 0 8.16 2.71 8.16 6.52 4.89 0 10.87 5.44 14.13 5.44.04.07.08.15.12.22v.01c.04.07.09.13.14.2l.01.01c.04.06.1.12.15.19.01 0 .01.01.02.01.11.12.25.24.39.35.01.01.02.01.02.02.15.11.31.21.49.31.01 0 .02.01.04.02l.24.12c.02.01.03.02.05.03.08.03.17.07.25.11.03.01.06.02.08.03l.24.09c.03.01.07.03.11.04.07.02.14.05.22.07.04.02.09.03.14.05.07.02.14.04.22.06.04.01.08.02.13.04l.24.06c.1.02.2.05.29.07.04.01.08.02.11.02l.15.03c.08.02.16.04.25.05.09.02.18.04.27.05.21 2.48-.11 4.97-1.65 5.89 0 1.09-1.08 2.18-1.08 3.27-2.18 0-1.64 7.61-1.64 9.24.55 0 1.09 1.63 1.09 2.17.55 0 1.63 1.09 1.63 1.63 2.18 0 5.98 1.64 8.7 1.64v1.08c1.63 0 7.61-.54 8.7 0l1.09 1.09c.54.54-.54 3.26-.54 3.26v8.7c-.55.55-1.64 1.63-1.64 2.18-2.17 1.08-1.63 5.43-1.63 7.61l-.54.54c-.54 0-1.09.55-2.18.55l-.54 1.08c-1.63.55-1.09 2.18-1.63 3.27h-.54l-1.63 4.89c-.96 0-3.16 2.5-4.06 3.12l-15.09-1.24zM229.72 29.8h1.8l4.4 5.58 5.51 3.42 11.93-1.39 5.52-3.64 12.04-19.86 4.95-.6c-.98 12.51.93 21.4 5.75 26.65l10.54 7.81-13.77 12.31-12.83 17.33-4.11 4.71 2.25 1.03-2.25-1.03 3.67-4.21c-1.05-.21-1.8-.54-2.06-1.08h-1.09l-.55-.54v-.55h-.54v-.54h-.54v-.54l-.55-.55c-.54 0-1.63-.54-2.17-.54 0-.54-1.63-1.63-2.18-1.63l-.54-.54v-1.09c-2.72-2.72-5.98-14.68-5.98-18.49-.54 0-1.09-.54-1.63-.54 0-.55-4.9-2.72-5.98-3.26 0-2.72-9.79-5.99-11.42-7.62 0-3.14.6-7.33-.17-10.6zM390.45 95.12l6.22 3.52h.18c-.36.41-.65.8-.78 1.07-1 0-3 3-3 4-2 0-.5 6.51-.5 7.51l1.5 1.5c0 1.5-.5 6.5 0 8h.5c2 6-3.5 13.51 5 16.51 0 2.5.5 5.5.5 7.5l3 1 1 1c.5 1-.5 4.5-1.5 4.5 0 2 .5 12.51-.5 13.51v1.5l-.5.5c-2 0-4.5.5-6 2v2l-1 1c-2 0-3.5 2-4.5 3l-.5.5c-2.01 0-4.51 0-6.01 1.5v1.5l-1 1c-1.5 0-4 .51-5.5.51v1.5c-2 0-4.5-1.5-5.5-3.01-1.5 0-3.5.5-5 .5-.5.5-1.01 1.51-1.5 2.01 0 3.5-1.01 8-1.01 11.5l-1 1c-3 0-8 1-10.5 2.5l-.5 1c-1.5 0-4-.5-5.5-.5 0-1-.5 0-.5-1-1 0-4.51-4.5-5.51-5v-1c-.16 0-.37-.11-.58-.25a.78.78 0 0 0 .03-.22c.98 0 1.96-1.96 2.45-2.93.49-1.47-1.47-4.41-1.96-5.39-1.96-3.91 1.47-15.17 4.4-18.1l.49-7.83.49-.49 7.83.49c2.45-3.43 8.32-10.28 12.72-8.81v2.94c1.47 0 2.94-.49 3.92-.98 0-.49.98-1.47 1.47-1.96h5.38c0-6.36-5.87-8.81-4.89-15.17.98-.49 2.44-1.47 2.93-1.96 0-7.83 2.45-14.19 2.45-21.53.49 0 2.45-1.47 2.45-1.96 1.46 0 4.4-.97 5.87-.97 0-.49.98-1.47.98-1.47l3.48-7.54zM235.9 361.82c.81-7.3-3.13-9.42-11.81-6.36-4.36-13.11-.82-25.86-22.49-19.27-6.37-2.76-11.3-.46-8.28-11.18l-1.44-20.58 2.78-9.87 1.5-12.24c1.69-.13 3.33-.31 3.88-.68v-.36c.36 0 2.17-.72 2.53-.72l.36-.36c0-1.09.36-2.54.73-3.62 1.08 0 2.89-1.09 4.34-1.09 0-1.44 7.59-2.89 9.04-2.89 0 .36.36 1.09.36 1.45.36.36 1.08 1.81 1.45 2.17h3.61c.73.72 1.81 1.44 2.17 2.17h5.07c0-.36.36-.73.72-.73v-1.08c1.08-.36 2.17-1.09 3.61-1.09 0 .37.73 1.45.73 2.17l.72.37v.36c1.09 1.08 3.26-.73 3.98-.73 0-3.61 4.34-5.42 7.59-5.42 0 4.7-1.08 7.59 2.9 10.13v.36h.72l.36.72.36.36c3.62 0 7.6 5.07 12.3 5.07 0 3.25 8.68 5.42 10.85 7.59 1.08 0 2.17 1.45 3.62 1.45l.36.36c0 2.67.26 5.79.4 8.87-.19.11-.33.17-.4.17 0 .36-1.81 1.45-2.17 1.45l-.36.36s-.73 1.08-1.09 1.08c0 1.09-4.34 3.62-5.06 3.62 0 1.81-2.9 4.7-2.9 6.15-1.44.72-2.16 4.7-2.53 6.15-.72 0-1.8 1.44-2.53 1.8 0 1.45-.36 3.26-.36 4.71-.72 0-9.76 4.7-9.76 5.42-.73 0-1.09 1.09-1.81 1.09 0 1.21-.13.9-1.24.9-1.1 2.2-5.52 4.41-6.62 7.17-2.59 4.75-3.16 10.85-6.19 14.6z"/><path class="fil2 str0" d="m194.66 294.56 1.58-12.88-6.11-8.7-1.61-5.47.13-7.65-14.89 1.13c-7.43 2.54-10.72.93-9.87-4.82v-13.24l-2.03-6.21-4.66-1.73-11.48-.95 10.52.87c.9-.62 3.1-3.12 4.05-3.12l1.64-4.89h.54c.54-1.09 0-2.72 1.63-3.27l.54-1.08c1.09 0 1.64-.55 2.18-.55l.54-.54c0-2.18-.54-6.53 1.63-7.61 0-.55 1.09-1.63 1.64-2.18v-8.7s1.08-2.72.54-3.26l-1.09-1.09c-1.09-.54-7.07 0-8.7 0v-1.08c-2.72 0-6.52-1.64-8.7-1.64 0-.54-1.08-1.63-1.63-1.63 0-.54-.54-2.17-1.09-2.17 0-1.63-.54-9.24 1.64-9.24 0-1.09 1.08-2.18 1.08-3.27 1.54-.92 1.86-3.41 1.65-5.89-.01 0-.03 0-.05-.01 7.02 1.24 20.1-.75 23.41-1.17 2.18 0 6.53 0 7.62-1.08 1.08 0 2.71-1.09 3.26-1.63 0-.55.54-1.64 1.09-2.18 0-3.16.9-8.13 1.1-12.58.36.27.72.48 1.07.62 5.98 2.17 4.89 5.44 5.98 9.79 1.09 3.8 3.26 3.8 5.44 6.52 11.96 16.31 43.49 8.16 62.52 11.42 4.35.54 15.77 2.72 20.66 1.09.32 0 .82-.56 1.3-1.03.06.47.12.93.17 1.36.1.88-1.78 1.89-2.85 3.72-1.08 1.83-1.35 4.5-1.59 5.16-.81 2.23-2.75 7.45-2.86 12.38-.06 2.95 2.25 6.65 1.08 7.15-2.22 6.22-1.77 13.77-1.77 20.87-3.11 2.22-3.11 7.1-3.11 11.1-1.78 0-4.44.89-6.22.89l-.89.88c0 2.22-2.21 5.33-2.21 7.55-.89 0-2.22 1.33-3.11 1.78 0 1.33-1.78 3.1-3.11 3.1-2.22 2.22-3.11 4.89-3.11 7.99h-2.22l-1.77 1.78v9.77c-.45 0-.45.88-1.33.88 0 .86-.92 2.26-1.57 3.86l-.23-.23-.36-.72h-.72v-.36c-3.98-2.54-2.9-5.43-2.9-10.13-3.25 0-7.59 1.81-7.59 5.42-.72 0-2.89 1.81-3.98.73v-.36l-.72-.37c0-.72-.73-1.8-.73-2.17-1.44 0-2.53.73-3.61 1.09v1.08c-.36 0-.72.37-.72.73h-5.07c-.36-.73-1.44-1.45-2.17-2.17h-3.61c-.37-.36-1.09-1.81-1.45-2.17 0-.36-.36-1.09-.36-1.45-1.45 0-9.04 1.45-9.04 2.89-1.45 0-3.26 1.09-4.34 1.09-.37 1.08-.73 2.53-.73 3.62l-.36.36c-.36 0-2.17.72-2.53.72v.36c-.55.37-2.19.55-3.88.68l-1.5 12.24zm-40.38-120.87h-.03.03zm-.03 0h-.01.01zm-.01-.01h-.01.01zm-.01 0h-.01.01zm-.04 0zm-.06-.02h-.01.01zm-.03 0zm-.01 0c-.3-.06-1-.2-.28-.06.08.02.16.04.25.05.01.01.02.01.03.01z"/><g id="_2295900670816"><path class="fil2 str0" d="m442.16 195.28-1.34 7.94-10.7 13.24-2.93 1.46-.8 7.49-4.07.07-1.61 3.28-1.26 6-.44 13.58-.77 14.51-5.52 18.47-.78 2.38c-.74-.17-1.6-.3-2.48-.42-.1-.36-1.08-.98-3.46-1.91h-.42l-.41-.83h-.83c0-.83-.42 0-.42-.83l-.83-.42c0-1.25-.42-3.33-.42-4.57.42-.42.83-.84.83-1.25.84 0 2.5-1.25 2.92-1.67v-5.82c.41-.42 2.08-1.25 2.08-1.67h1.66v-.41h.83c1.67-2.5-.41-3.75-.41-5.41-5 0-12.07-2.91-17.48-2.91 0-.42-.41-.84-.83-1.25v-1.25c-.83 0 0-.42-.83-.42v-.83c-.42 0-.84-.83-.84-1.25l-.83-.83c-1.25-.42-2.08-.83-3.33-.83-.41.41-3.74.41-4.99.41 0-.41-.83-.41-.83-1.66-2.08-.83-4.16-8.74-9.16-7.07-4.57 1.66-4.16 1.66-7.9 0v-4.16h.83v-.42l2.08-.42c0-1.66-3.74-.41-4.16-.41 0 .83-.83.83-.83 1.25h-2.5c0 .41-.83.83-1.66.83 0 .41-.42.83-.83.83l-.42.42v.41l-.42.42c-.83 0-1.25.41-1.66.83h-2.5c-2.51 2.52-9.06 8.13-13.75 6.67.16-2.03.28-4.06.28-6.02l-1.34-.67v-3.35c-.67 0-1.34-1.34-2.67-1.34v-.72c.01-.08.01-.16.01-.24 0-.07.01-.15.01-.23 0-.08 0-.16.01-.24 0-.08 0-.16.01-.24 0-.08.01-.15.01-.23 0-.08.01-.16.01-.24.01-.08.01-.15.02-.23 0-.08.01-.16.01-.24.01-.08.02-.15.02-.23.01-.08.01-.16.02-.23.01-.08.01-.16.02-.24.01-.07.01-.15.02-.23.01-.08.01-.15.02-.23.01-.08.02-.16.02-.23l.03-.24c.01-.15.03-.3.05-.46.01-.08.01-.15.02-.23l.03-.23.03-.23c.01-.08.01-.16.02-.23l.03-.24.03-.23.06-.46.03-.23.03-.24.03-.23.03-.23.03-.24.03-.23.03-.23.03-.24.03-.24.03-.23.03-.24.03-.24.03-.24c.01-.07.01-.15.02-.23l.03-.24.03-.24.03-.25c.01-.08.01-.16.02-.24l.03-.24c.01-.08.01-.16.02-.25l.03-.24c0-.09.01-.17.02-.25.01-.08.01-.16.02-.25.01-.08.02-.16.02-.25.08-.99.14-2.02.16-3.09h.02c1.03-.15 2.08-.31 3.17-.44.01 0 .02 0 .02-.01.49-.05 1.01-.11 1.5-.14.04 0 .07-.01.11-.01.06 0 .12-.01.18-.01h.03c.01 0 .01-.01.02-.01.23-.01.47-.02.89-.04h.26c.45-.01.42.08.72-.25.03-.03.05-.06.07-.08.06-.06.11-.12.16-.19.02-.02.04-.05.06-.07.05-.07.1-.13.15-.2.02-.03.05-.06.07-.1.05-.06.09-.12.13-.18a.36.36 0 0 1 .07-.1c.04-.07.08-.13.12-.2.02-.04.05-.07.07-.11.04-.07.08-.14.12-.22.02-.03.03-.05.05-.08.05-.09.09-.18.14-.27l.03-.06c.11-.22.21-.45.3-.69l.03-.06c.03-.1.07-.19.11-.29.01-.04.02-.07.04-.11.02-.08.05-.16.08-.24.01-.04.03-.09.04-.13.03-.09.06-.18.09-.28l.03-.09c.02-.1.05-.19.08-.29l.03-.1c.21-.81.37-1.67.48-2.57 0-.01.01-.01.01-.02l.09-.87c0-.02.01-.05.01-.07.03-.31.05-.62.07-.93v-.02c.02-.32.04-.63.05-.95v-.03l.03-.93v-.08c.07-4.9-.62-10.37-.91-14.74.81.81 1.52 1.42 1.89 1.42 0 1 .5 0 .5 1 1.5 0 4 .5 5.5.5l.5-1c2.5-1.5 7.5-2.5 10.5-2.5l1-1c0-3.5 1.01-8 1.01-11.5.5-.5 1-1.51 1.5-2.01 1.5 0 3.5-.5 5-.5 1 1.5 3.5 3.01 5.5 3.01v-1.51c1.5 0 4-.5 5.5-.5l1-1v-1.5c1.5-1.5 4-1.5 6-1.5l.51-.5c1-1 2.5-3 4.5-3l1-1v-2c1.5-1.5 4-2 6-2l.5-.5v-1.5c.11-.11.2-.32.27-.62 2.03-.26 4-.53 5.91-.82 8.32-1.31 16.65 2.63 24.09 2.63 3.94 3.94 7.01 5.26 9.2 11.39.14.57.15 2.24.12 4.25-2.6-.11-5.17-1.07-7.44-1.72-.16-1.42-.18-2.85-.28-4.24-.08-.01-.2 0-.41.11v.34c-.12.06-.24.08-.37.07-.21 2.21-.69 4.54.02 6.13.35.69 1.38 1.73 1.38 2.76.69.35 2.07 1.38 2.76 1.38l.34.35c0 1.38-1.38 2.06-1.38 3.1h-1.03c-.35.34-.69 1.03-1.03 1.03v.69c-.35 0-.69.69-1.04 1.04 0 .34.35 1.37.35 2.06-.69.69-2.07.69-3.11.69 0 2.42-.69 4.14 1.38 6.21h3.1l.35.34c0 1.73 0 2.41 1.38 3.1 0 1.04.69 1.04.69 1.38.28 0 .58.02.89.06l2.61-3.23 1.34-7.94zm-104.42 51.57c-.02-.01-.04-.01-.07-.02-.01-.01-.02-.01-.03-.01-.01-.01-.03-.01-.04-.02-.04-.01-.08-.03-.12-.04-.02-.01-.03-.01-.04-.02-.01 0-.02-.01-.03-.01-.01 0-.02 0-.02-.01-.02 0-.03-.01-.04-.01-.02-.01-.03-.01-.04-.02-1.02-.43-.2-.04.43.16zm96.42-71.23c.04-.01.01 0 0 0zm-.02 0c-.02.01-.04.01-.06.01.02 0 .04 0 .06-.01zm-.07.01h-.01.01zm-.04-.01h-.01.01zm-.04 0h-.01.01z"/><path class="fil3 str1" d="m442.16 195.28-1.34 7.94-10.7 13.24-2.93 1.46-.8 7.49-4.07.07-1.61 3.28-1.26 6-.44 13.58-.77 14.51-5.52 18.47-.78 2.38M411.94 283.7c-.74-.17-1.6-.3-2.48-.42-.1-.36-1.08-.98-3.46-1.91M406 281.37h-.42l-.41-.83h-.83M404.34 280.54c0-.83-.42 0-.42-.83M403.92 279.71l-.83-.42M403.09 279.29c0-1.25-.42-3.33-.42-4.57.42-.42.83-.84.83-1.25.84 0 2.5-1.25 2.92-1.67M406.42 271.8v-5.82M406.42 265.98c.41-.42 2.08-1.25 2.08-1.67M408.5 264.31h1.66v-.41h.83M410.99 263.9c1.67-2.5-.41-3.75-.41-5.41-5 0-12.07-2.91-17.48-2.91 0-.42-.41-.84-.83-1.25M392.27 254.33v-1.25M392.27 253.08c-.83 0 0-.42-.83-.42M391.44 252.66v-.83M391.44 251.83c-.42 0-.84-.83-.84-1.25M390.6 250.58l-.83-.83M389.77 249.75c-1.25-.42-2.08-.83-3.33-.83-.41.41-3.74.41-4.99.41 0-.41-.83-.41-.83-1.66-2.08-.83-4.16-8.74-9.16-7.07-4.57 1.66-4.16 1.66-7.9 0M363.56 240.6v-4.16h.83v-.42l2.08-.42M366.47 235.6c0-1.66-3.74-.41-4.16-.41 0 .83-.83.83-.83 1.25M361.48 236.44h-2.5M358.98 236.44c0 .41-.83.83-1.66.83 0 .41-.42.83-.83.83M356.49 238.1l-.42.42v.41l-.42.42M355.65 239.35c-.83 0-1.25.41-1.66.83M353.99 240.18h-2.5M351.49 240.18c-2.51 2.52-9.06 8.13-13.75 6.67.16-2.03.28-4.06.28-6.02"/><path class="fil3 str1" d="m338.02 240.83-1.34-.67v-3.35M336.68 236.81c-.67 0-1.34-1.34-2.67-1.34v-.72c.01-.08.01-.16.01-.24 0-.07.01-.15.01-.23 0-.08 0-.16.01-.24 0-.08 0-.16.01-.24 0-.08.01-.15.01-.23 0-.08.01-.16.01-.24.01-.08.01-.15.02-.23 0-.08.01-.16.01-.24.01-.08.02-.15.02-.23.01-.08.01-.16.02-.23.01-.08.01-.16.02-.24.01-.07.01-.15.02-.23.01-.08.01-.15.02-.23.01-.08.02-.16.02-.23l.03-.24c.01-.15.03-.3.05-.46.01-.08.01-.15.02-.23l.03-.23.03-.23c.01-.08.01-.16.02-.23l.03-.24.03-.23.06-.46.03-.23.03-.24.03-.23.03-.23.03-.24.03-.23.03-.23.03-.24.03-.24.03-.23.03-.24.03-.24.03-.24c.01-.07.01-.15.02-.23l.03-.24.03-.24.03-.25c.01-.08.01-.16.02-.24l.03-.24c.01-.08.01-.16.02-.25l.03-.24c0-.09.01-.17.02-.25.01-.08.01-.16.02-.25.01-.08.02-.16.02-.25.08-.99.14-2.02.16-3.09h.02c1.03-.15 2.08-.31 3.17-.44.01 0 .02 0 .02-.01.49-.05 1.01-.11 1.5-.14.04 0 .07-.01.11-.01.06 0 .12-.01.18-.01h.03c.01 0 .01-.01.02-.01.23-.01.47-.02.89-.04h.26c.45-.01.42.08.72-.25.03-.03.05-.06.07-.08.06-.06.11-.12.16-.19.02-.02.04-.05.06-.07.05-.07.1-.13.15-.2.02-.03.05-.06.07-.1.05-.06.09-.12.13-.18a.36.36 0 0 1 .07-.1c.04-.07.08-.13.12-.2.02-.04.05-.07.07-.11.04-.07.08-.14.12-.22.02-.03.03-.05.05-.08.05-.09.09-.18.14-.27l.03-.06c.11-.22.21-.45.3-.69l.03-.06c.03-.1.07-.19.11-.29.01-.04.02-.07.04-.11.02-.08.05-.16.08-.24.01-.04.03-.09.04-.13.03-.09.06-.18.09-.28l.03-.09c.02-.1.05-.19.08-.29l.03-.1c.21-.81.37-1.67.48-2.57 0-.01.01-.01.01-.02l.09-.87c0-.02.01-.05.01-.07.03-.31.05-.62.07-.93v-.02c.02-.32.04-.63.05-.95v-.03l.03-.93v-.08c.07-4.9-.62-10.37-.91-14.74.81.81 1.52 1.42 1.89 1.42 0 1 .5 0 .5 1 1.5 0 4 .5 5.5.5M352.05 196.75l.5-1M352.55 195.75c2.5-1.5 7.5-2.5 10.5-2.5M363.05 193.25l1-1M364.05 192.25c0-3.5 1.01-8 1.01-11.5.5-.5 1-1.51 1.5-2.01 1.5 0 3.5-.5 5-.5 1 1.5 3.5 3.01 5.5 3.01M377.06 181.25v-1.51M377.06 179.74c1.5 0 4-.5 5.5-.5M382.56 179.24l1-1v-1.5M383.56 176.74c1.5-1.5 4-1.5 6-1.5M389.56 175.24l.51-.5M390.07 174.74c1-1 2.5-3 4.5-3M394.57 171.74l1-1v-2M395.57 168.74c1.5-1.5 4-2 6-2M401.57 166.74l.5-.5v-1.5M402.07 164.74c.11-.11.2-.32.27-.62 2.03-.26 4-.53 5.91-.82 8.32-1.31 16.65 2.63 24.09 2.63 3.94 3.94 7.01 5.26 9.2 11.39.14.57.15 2.24.12 4.25-2.6-.11-5.17-1.07-7.44-1.72-.16-1.42-.18-2.85-.28-4.24-.08-.01-.2 0-.41.11M433.53 175.72v.34"/><path class="fil3 str1" d="M433.53 176.06c-.12.06-.24.08-.37.07-.21 2.21-.69 4.54.02 6.13.35.69 1.38 1.73 1.38 2.76.69.35 2.07 1.38 2.76 1.38M437.32 186.4l.34.35M437.66 186.75c0 1.38-1.38 2.06-1.38 3.1M436.28 189.85h-1.03M435.25 189.85c-.35.34-.69 1.03-1.03 1.03M434.22 190.88v.69M434.22 191.57c-.35 0-.69.69-1.04 1.04 0 .34.35 1.37.35 2.06-.69.69-2.07.69-3.11.69 0 2.42-.69 4.14 1.38 6.21M431.8 201.57h3.1l.35.34M435.25 201.91c0 1.73 0 2.41 1.38 3.1 0 1.04.69 1.04.69 1.38.28 0 .58.02.89.06M438.21 206.45l2.61-3.23 1.34-7.94"/><path class="fil2 str1" d="M337.74 246.85c-.02-.01-.04-.01-.07-.02-.01-.01-.02-.01-.03-.01-.01-.01-.03-.01-.04-.02-.04-.01-.08-.03-.12-.04-.02-.01-.03-.01-.04-.02-.01 0-.02-.01-.03-.01-.01 0-.02 0-.02-.01-.02 0-.03-.01-.04-.01-.02-.01-.03-.01-.04-.02-1.02-.43-.2-.04.43.16zM434.16 175.62c.04-.01.01 0 0 0zM434.14 175.62c-.02.01-.04.01-.06.01.02 0 .04 0 .06-.01zM434.07 175.63h-.01.01zM434.03 175.62h-.01.01zM433.99 175.62h-.01.01z"/></g><path class="fil2 str0" d="m182.13 45.45 23.23-6.38 17.39-9.27h6.97c.77 3.27.17 7.46.17 10.6 1.63 1.63 11.42 4.9 11.42 7.62 1.08.54 5.98 2.71 5.98 3.26.54 0 1.09.54 1.63.54 0 3.81 3.26 15.77 5.98 18.49v1.09l.54.54c.55 0 2.18 1.09 2.18 1.63.54 0 1.63.54 2.17.54l.55.55v.54h.54v.54h.54v.55l.55.54h1.09c.26.54 1.01.87 2.06 1.08l-3.67 4.21 4.36 1.99c15.05-5.91 8.3-4.92 17.98 6.44l13.52-2.92 5.48 4.04 6.1-8.01 2.7-7.24 7.69-4.21 15.81 4.19-.27 9.68-1.63 1.63v1.08c-4.35 4.35-1.63 8.16-3.26 13.05h-.54v1.09c-1.09 0-2.72 1.63-3.26 2.17 0 2.72-3.27 6.53-5.44 6.53 0 1.09-.55 2.72-.55 3.81-.54.54-3.26 1.63-3.26 2.17-2.72 0-10.33 6.52-10.87 9.24-.55 0-1.09.55-1.09 1.09h1.63c0 1.09 2.18 3.26 2.72 3.26 0 3.81 1.09 8.16-.54 11.96-.55 0-4.9 4.35-4.9 4.35h-2.71c0 .55-1.09 1.09-1.64 1.09 0 9.24 0 20.12-6.52 26.64v.55h-1.63c0 .54-.55 1.08-1.09 1.08 0 .55 0 1.09-.54 1.09 0 1.63-1.09 3.26-1.09 4.9-.54 0-1.63 1.63-2.17 1.63-4.9 1.63-16.32-.55-20.67-1.09-19.03-3.26-50.56 4.89-62.52-11.42-2.18-2.72-4.35-2.72-5.44-6.52-1.09-4.35 0-7.62-5.98-9.79-.35-.14-.71-.35-1.07-.62.12-2.44.02-4.71-.56-6.45-5.44-15.22 7.07-32.08 12.5-45.67.55-1.09 1.09-3.26 1.64-4.35l.54-10.33c-.54 0-1.09-1.09-1.09-1.63h-.54l-.55-1.09h-10.87c0-1.09-2.72-3.8-2.72-5.98l-1.09-.54c-.54-2.72-3.8-5.98-3.8-8.7-1.09-1.09-3.26-4.9-3.26-7.07-.55 0-.55-1.09-.55-1.63h-1.09c0-.07-.03-.15-.1-.26l1.57.25c0-3.68-.41-11.88 1.34-16.15z"/><path class="fil1 str0" d="m355.41 74.82-9.74-.13-10.58 1.71-.27 9.68-1.63 1.63v1.08c-4.35 4.35-1.63 8.16-3.26 13.05h-.54v1.09c-1.09 0-2.72 1.63-3.26 2.17 0 2.72-3.27 6.53-5.44 6.53 0 1.09-.55 2.72-.55 3.81-.54.54-3.26 1.63-3.26 2.17-2.72 0-10.33 6.52-10.87 9.24-.43 0-.85.34-1.02.74 3.49-.07 12.49-.19 12.49 1.49.98 0 2.45.98 2.94 1.47l-.98 19.08h-2.94l-.98.98c.98 0 2.45.49 3.92.49v1.47l-.49.49-.98.49v1.96c1.47.49 1.96 1.95 2.45 3.42h.98c.48.49 4.4 1.47 5.87.98v-.49h3.42c0 .98-.49 1.96-.49 2.94-.49 0-1.46.98-1.95.98 0 .97-.49 2.44-.49 3.42-.98.98-2.94 2.45-3.92 2.94 0 3.42.49 4.89 1.96 8.32h2.94c.48.49.97.97 1.46.97 0 .49 0 2.45-.49 2.45 0 2.94 4.41 6.85 4.41 8.32 1.47 0 3.42.49 4.89.49.49-.49.98-.98.98-1.47.98 0 1.96-1.96 2.45-2.93.49-1.47-1.47-4.41-1.96-5.39-1.96-3.91 1.47-15.17 4.4-18.1l.49-7.83.49-.49 7.83.49c2.45-3.43 8.32-10.28 12.72-8.81v2.94c1.47 0 2.94-.49 3.92-.98 0-.49.98-1.47 1.47-1.96h5.38c0-6.36-5.87-8.81-4.89-15.17.98-.49 2.44-1.47 2.93-1.96 0-7.83 2.45-14.19 2.45-21.53.49 0 2.45-1.47 2.45-1.96 1.46 0 4.4-.97 5.87-.97 0-.49.98-1.47.98-1.47l3.52-7.64-4.33-2.04c0 .23-10.48-2.35-10.97-2.35-.98.49-11.14 6.84-11.63 6.35-1.22-7.76-3.51-15.25-8.15-22.16z"/><path class="fil2 str0" d="m278.29 298.05.39-.45h.41c1.67-2.5 7.08-4.99 7.08-8.32 7.49 0 12.9-4.58 19.97-4.58 2.91 2.91 7.07-.41 9.57 1.25v.42c.41.41 3.74 0 4.58 0l.41-.42c0-.42.83-1.66.83-1.66h.42c.83-1.25-.42-2.92-.42-4.17h.84c0-.41.41-.83.83-.83v-2.49c-1.25 0-2.5-.84-3.75-.84 0-1.24 2.08-2.49 2.08-3.33l.84-.41v-2.91c-.42 0-1.67-.84-1.67-1.67h-.83l-.83-.83v-3.75c1.25-.41 3.33-.41 4.57-.41l.42-.42.42-.41c0-.84.41-1.67.41-2.5.42 0 1.67-.83 2.5-.83 0-3.33-1.67-6.24-1.67-9.16.84 0 2.09-.41 2.92-.41l.41-6.66h3.75l.41.83c.84 0 0 .42.84.42v1.25c.41 0 .83.41.83.83h.83c4.58 4.58 12.9-2.5 15.81-5.41h2.5c.41-.42.83-.83 1.66-.83l.42-.42v-.41l.42-.42c.41 0 .83-.42.83-.83.83 0 1.66-.42 1.66-.83h2.5c0-.42.83-.42.83-1.25.42 0 4.16-1.25 4.16.41l-2.08.42v.42h-.83v4.16c3.74 1.66 3.33 1.66 7.9 0 5-1.67 7.08 6.24 9.16 7.07 0 1.25.83 1.25.83 1.66 1.25 0 4.58 0 4.99-.41 1.25 0 2.08.41 3.33.83l.83.83c0 .42.42 1.25.84 1.25v.83c.83 0 0 .42.83.42v1.25c.41.41.83.83.83 1.25 5.41 0 12.48 2.91 17.48 2.91 0 1.66 2.08 2.91.41 5.41h-.83v.41h-1.66c0 .42-1.67 1.25-2.08 1.67v5.82c-.42.42-2.08 1.67-2.92 1.67 0 .41-.41.83-.83 1.25 0 1.24.42 3.32.42 4.57l.83.42c0 .83.42 0 .42.83h.83l.41.83h.42c5.96 2.33 3.1 2.73-.15 1.88-1.47-.38-2.65.31-4.01-.21v1.25l-.83 1.24h-.42c-.42.42-1.25 2.08-2.08 2.08v.84l-.83.83h-.83l-.42.41c0 1.67-1.25 4.17-1.25 6.25-.55.55-3.47 10.54-6.24 12.89-1.92.77-3.48 4.35-6.31 4.92-.24.05-.5.08-.76.08-.15.26-.27.54-.38.85-1.03 3.08.05 8.08-3.37 9.97-8.31 4.58-17.47 2.49-25.8 8.32l-.41.41v.84l-.83.83c-.08 2.35-.32 3.7-.39 4.43-1.61-.08-4-.27-4.91.03v.36c-1.08.36-3.25.72-4.34 1.08 0 .73-1.44 1.45-1.8 1.81h-6.87c0-.72-.73-1.44-1.45-1.81 0-2.89-4.34-10.48-1.09-11.93v-2.89c-1.44 0-3.25-.37-4.7-.37-.72-.72-1.44-1.8-2.17-2.53 0-1.08.36-4.34-.72-4.7 0-1.45-1.45-4.34.36-5.06 0-1.45-.36-3.26-.36-4.34-1.81-.73-2.53-1.81-5.06-1.81l-2.17 1.45v.72h-8.32l-1.45 1.08v2.54h-1.08c0-.73-1.09-1.45-1.45-1.81-1.81 0-5.79 1.81-5.79-1.81.37 0 1.45-.72 1.81-.72 0-.73-.36-1.81-.36-2.17-1.81-.73-3.98-1.81-6.15-1.81-.36.36-1.44 1.45-1.44 1.81l-.37.36h-.72c0 .36-1.45.72-1.81.72 0-.36-1.81-1.81-2.17-2.17-1.44 0-3.25-.36-4.7-.36 0 .29-1.67 1.54-2.49 2-.14-3.08-.4-6.2-.4-8.87l-.23-.23zm.23 9.27h.03-.03zm.03 0zM308.8 127.56c-.08.09-3.62-.06-3.68.01l-.24.4 1.78.46c.45 1.14 2.14 2.77 2.61 2.77 0 3.81 1.09 8.16-.54 11.96-.55 0-4.9 4.35-4.9 4.35h-2.71c0 .55-1.09 1.09-1.64 1.09 0 9.24 0 20.12-6.52 26.64v.55h-1.63c0 .54-.55 1.08-1.09 1.08 0 .55 0 1.09-.54 1.09 0 1.63-1.09 3.26-1.09 4.9-.23 0-.55.28-.88.61.06.46.12.92.17 1.35.1.88-1.78 1.89-2.85 3.72-1.08 1.83-1.35 4.5-1.59 5.16-.81 2.23-2.75 7.45-2.86 12.38-.06 2.95 2.25 6.65 1.08 7.15-.84 2.35-1.3 4.89-1.54 7.53h3.7l.67-.67c-.66-1.67-.66-3.67 1.34-4.01.48 4.3 2.72 2.66 3.34 3.34 1.27 2.15 3.43 3.92 4.02 4.68h2l2.11-1.07c.67 0 .67-1.34.67-2h1.33c0 .66.49-.8.49-.13 2.68 0 3.43-.81 5.44-2.15 0 .94-.15 2.85.39 3.95.61 1.24 1.93 1.68 2.28 2.74 1.34 0 2.68-.67 4.01-1.34v-1.33h2.68c0 1.33 0 3.34 1.34 4.01.73 3.87 1.89-5.38 2.13-2.9.33 3.34 4.7 1.54 3.89-.44 3.51 2.1 7.06-2.63 9.51-3.02 3.34 0 6.54-1 10.55-1 5.35-5.35 2.01-20.73 2.01-28.76-1.34 0 0-.67-2.01-.67-.25-.5-.68-1.09-1.16-1.67-.29.28-.58.46-.88.46 0 .49-.49.98-.98 1.47-1.47 0-3.42-.49-4.89-.49 0-1.47-4.41-5.38-4.41-8.32.49 0 .49-1.96.49-2.45-.49 0-.98-.48-1.46-.97h-2.94c-1.47-3.43-1.96-4.9-1.96-8.32.98-.49 2.94-1.96 3.92-2.94 0-.98.49-2.45.49-3.42.49 0 1.46-.98 1.95-.98 0-.98.49-1.96.49-2.94h-3.42v.49c-1.47.49-5.39-.49-5.87-.98h-.98c-.49-1.47-.98-2.93-2.45-3.42v-1.96l.98-.49.49-.49v-1.47c-1.47 0-2.94-.49-3.92-.49l.98-.98h2.94l.98-19.08c-.49-.49-1.96-1.47-2.94-1.47 0-1.22-4.75-1.49-8.68-1.52z"/></g></svg>