<svg xmlns="http://www.w3.org/2000/svg" xml:space="preserve" width="240" height="460" style="shape-rendering:geometricPrecision;text-rendering:geometricPrecision;image-rendering:optimizeQuality;fill-rule:evenodd;clip-rule:evenodd" viewBox="0 0 2400 4600"><defs><style>.fil5{fill:#212121}.fil0{fill:#f79f67}.fil1{fill:#fff}</style></defs><g id="__x0023_Layer_x0020_1"><g id="_2319587184992"><path class="fil0" d="m1076 4357 6 20c-9 17-83 28-116 8-25-15-7-8-19-33v-31l9-2c10-5 69-13 109-25 0 27 7 41 11 63z"/><path class="fil1" d="M824 1828c-10 30-52 164-48 194 48 22 206 13 276 13 0 31-19 88-27 121-9 36-25 87-26 124-14 20 0 18-28 29-15 7-32 9-47 14-188 35-306 66-495 27l-38-9a2490 2490 0 0 1-22-395c18-10 56 10 81 7 132-12 283-96 380-146l-6 21zm880-664c-16 12-22 17-42 26l-21 8c-13 6-13 7-22 14-169 21-344 19-508 36-149 14-117-10-155 117l-62 213-30 106c-111 43-241 120-390 118-48-9-96-39-110-72-1-80 3-156 3-234-18 21-29 37-37 63l-10 26c-55-43-209-81-296-83 4-36 25-85 38-116 25-59 83-142 124-190 13-16 25-24 38-39 11-14 31-35 55-59 113-108 137-122 285-145 47-8 93-14 141-25l134-14c73-7 171-23 243-22 245 1 235 4 472-53 8 55 38 131 59 178 39 89 75 119 91 147z"/><path d="M1036 2043c-71 0-229 1-277-21-3-30 38-164 48-194l70-250 79-280c38-127 6-146 155-134 209 16 219 27 492 48 158 12 92 54-17 358-63 174-162 446-183 487l-368-14z" style="fill:#03d29c"/><path d="M970 2469c-2 90-5 180-5 277 0 127 6 233 6 360l16 410c7 60 4 114 7 153l13 148c2 24 10 71 11 96l52 338c6 24 14 42-5 43-40 12-70 17-80 21l-38 6c-36-3-42-13-51-43-26-82-75-292-94-380l-32-160a6268 6268 0 0 1-112-761l-42 422c0 49-5 95-6 140-2 144-12 288-12 439 0 62-5 111-5 177v95c0 40-9 48-30 65l-100-5c-29-10-26-48-35-96-23-115-29-237-48-347 0-30-4-43-6-73-2-22-4-55-8-81-6-46-5-108-13-158l-14-335c-3-231-14-490 16-719l8-81c2-25 9-54 11-79 18-7 34-5 51-2 179 31 297 10 480-24 16-5 24-13 40-20 28-11 24 4 37-15l-3 46c-5 52-8 90-9 143z" style="fill:#425158"/><path class="fil0" d="M688 927c5-33 95-256 105-302 23 9 53 26 78 20 8-18 6-10 0-32-3-9-7-22-11-29-11-15-102-17-71-87 46-11 55 18 76 10 8-24-30-59-29-99 39-20 84-25 128-38 48-14 73-28 113-45 15 24 36 72 46 100 15 39 28 72 39 115 30 120-13 162-131 162-6 32-10 57-14 94l-13 97c-15 101-340 109-316 34z"/><path d="M1077 325c-40 17-65 31-113 45-44 13-89 18-128 38-1 40 37 75 29 99-18 7-27-13-58-13-25 1-30 21-23 41 12 34 68 38 77 49l10 29c6 23 11 38-21 32-20-3-40-14-57-20-69-46-44-28-95-76-20-19-12-11-46-13-93-4-80-119-18-124-3-32-33-42-18-95 10-33 29-73 63-86 22-8 50-8 91-8 81-131 212-41 201-60 20-14 89-100 139-3 38 76 18 122-33 165z" style="fill:#041043"/><path class="fil5" d="m1087 4372 199 83c24 13 167 74 181 92 14 19 6 23 6 23-6 22-1 15-27 21l-18 3h-23l-8-1-397-17c-120-4-55-145-53-224 12 25-6 18 18 33 34 21 84 6 113-4l9-9z"/><path class="fil0" d="M2163 347c5-96-42-90 73-206l50-50c16-16 87-93 103-91 4 1 8 4 11 8v25c-3 10-10 20-22 31-18 18-36 32-49 52 8 33 24 37 32 68 19 71-47 182-115 201-6 11-29 107-37 132-26 77-64 169-105 238-51 83-125 194-201 254-39 31-149 137-216 155-16-28-52-58-91-147-21-47-51-123-59-178 60-28 119-37 237-95 36-18 71-38 105-61 80-56 150-106 209-187 17-24 28-41 42-70l33-79z"/><path class="fil5" d="M567 4374c25 15 42 59 53 86 9 23 24 71 19 97-10 49-111 49-172 35-23-6-40-21-43-25-24-32 31-172 45-199 4 6-10 35 77 8l21-2z"/><path class="fil0" d="M1050 1601c48 9 52 69 30 107-18 29-138 73-164 74-24 2-97 17-109 26-22 14 7 0-4 9-97 50-238 124-369 136-59 6-113 12-171-2-78-19-137-58-184-123-23-32-45-73-60-120-20-61-25-145-11-207 86 3 240 41 295 84 0 27 3 52 9 73 10 34 31 59 58 77 57 40 112 38 178 31 93-10 116 5 194-45 48-30 86-79 141-91 65-14 140-35 167-29z"/><path class="fil1" d="M1314 1391c75 22 44 138-36 119-73-17-48-143 36-119z"/><path class="fil0" d="M563 4315c0 20 7 39 7 59 1 10 1 17-6 26-17 22-56 15-81-6-9-6-13-12-15-26 0-31-5-32-5-58l100 5z"/><path d="M674 2657c0-3-2-6-5-6-4 0-6 3-6 6l-11 319c-1 4 2 7 5 7 4 0 6-3 6-6l11-320z" style="fill:#6c6c6e"/></g></g></svg>