<svg xmlns="http://www.w3.org/2000/svg" xml:space="preserve" width="244" height="397" style="shape-rendering:geometricPrecision;text-rendering:geometricPrecision;image-rendering:optimizeQuality;fill-rule:evenodd;clip-rule:evenodd" viewBox="0 0 2440 3970"><defs><style>.fil0{fill:#96989a}</style></defs><g id="__x0023_Layer_x0020_1"><path class="fil0" d="M553 3941c3 11 10 19 20 21 77 16 199 3 250-3 11-2 19-12 19-24-125 14-235 11-289 6z"/><path d="M842 3935v-7c-13-139-181-179-181-179l-93 5c-37 116-22 153-16 185l1 2c54 5 164 8 289-6zm581-4-2-3a504 504 0 0 0-299-189l-85-2s-37 65-38 187c19 7 57 16 129 18 111 3 243-6 295-11z" style="fill:#313131"/><path class="fil0" d="M1125 3940c-72-2-110-11-129-19v23c1 8 7 14 14 14l396-3c12 0 20-14 14-26-52 4-184 14-295 11z"/><path d="m1019 3606 17 139c1 9 1 16 9 17 14 1 53 5 73 1 11-2 10-5 10-17v-160l-109 20zM2429 963c-6-20-21-37-41-45l-192-78s-3-24 41-41c43-17 33-66 33-66s-60 27-147 70c-43 22-70 57-86 88a812 812 0 0 1-289 109c22 45 41 106 38 178a874 874 0 0 0 196-125c47-29 82-56 107-80 116 33 233 40 351 26l-11-36zM656 410c-14-27-35-59-60-57-42 4-75 46-23 93l15 12-23 227s152 46 263-32l-55-175 149-73S772 108 768 104c-61-58-201 123-201 123l129 182-40 1zM295 1597c-41 43-100 81-142 104 63 77 147 155 258 231l32 72 103-124s-184-91-251-283zm258 2024 15 133c2 9 12 18 21 19 11 1 37 2 53-1 14-2 24-6 21-22l-19-128h-91z" style="fill:#f79f67"/><path d="M951 1855s204 776 200 1753c0 18-13 34-30 37-25 6-63 12-94 11-17 0-31-13-33-29-29-168-193-1115-286-1268 0 0-61 843-42 1280 1 11-7 20-18 22-16 1-42 3-76-1-12-1-22-11-24-23-20-142-137-989-132-1598 0-35 90-184 90-184h445z" style="fill:#7e7e7e"/><path d="M933 662c-222-52-467 4-578 18-49 6-93 30-125 67-126 147-403 549-77 954 42-23 101-61 142-104a502 502 0 0 1 36-393l10 38c104 332 109 608 109 671 0 9 5 17 13 20 137 55 402 22 490 9 17-3 27-18 25-34-30-220 69-540 152-757a653 653 0 0 0 656 27c3-72-16-133-38-178-286 43-473-138-612-248-78-61-148-84-203-90z" style="fill:#6668ed"/><path d="M673 265c-3 8-3 16 2 24l85 142c1 3 3 4 5 6 10 10 45 37 71 0 23-32 45-61 68-73 13-7 30-2 36 12 14 28 42 85 59 139 4 13-3 28-16 33-35 14-103 40-164 48-10 1-20-3-25-11-27-36-100-136-125-161l-11-8c-13-28-36-65-62-63-28 3-51 22-49 48-18-15-33-42-8-81 8-12 4-29-9-37-22-15-46-42-23-86 23-45 64-49 92-45 13 1 25-5 30-17 2-5 6-9 14-11 15-3 24-16 21-31-5-25-1-58 39-80 74-41 139 25 155 81s-66 96-118 102c-38 5-59 47-67 69z" style="fill:#212121"/><path d="M701 2339c-4 0-7-2-8-6-17-65-143-137-144-138-4-2-5-6-3-10s7-5 10-3c6 3 134 76 152 147 1 4-1 9-5 10h-2z" style="fill:#4b4b4b"/><path d="M317 1180c-55-152-35-336-35-338l15 2c0 2-19 182 35 330l-15 6z" style="fill:#5052c2"/></g></svg>