<?xml version="1.0" encoding="UTF-8"?>
<!DOCTYPE svg PUBLIC "-//W3C//DTD SVG 1.1//EN" "http://www.w3.org/Graphics/SVG/1.1/DTD/svg11.dtd">
<!-- Creator: CorelDRAW 2020 (64 Bit) -->
<svg xmlns="http://www.w3.org/2000/svg" xml:space="preserve" width="229px" height="229px" version="1.1" style="shape-rendering:geometricPrecision; text-rendering:geometricPrecision; image-rendering:optimizeQuality; fill-rule:evenodd; clip-rule:evenodd"
viewBox="0 0 2285.7 2284.7"
 xmlns:xlink="http://www.w3.org/1999/xlink"
 xmlns:xodm="http://www.corel.com/coreldraw/odm/2003">
 <defs>
  <style type="text/css">
   <![CDATA[
    .fil0 {fill:#00d39b;fill-rule:nonzero}
   ]]>
  </style>
 </defs>
 <g id="Camada_x0020_1">
  <metadata id="CorelCorpID_0Corel-Layer"/>
  <path class="fil0" d="M0 1923.9l1059.2 -96.5 0 290 -675.8 0 0 167.3 1518.9 0 0 -167.3 -675.8 0 0 -305.3 1059.2 -96.6 0 -1416.5c0,-152.1 -129.9,-299 -261.1,-299l-1763.6 0c-131.2,0 -261,146.9 -261,299l0 1624.9zm473.3 -397.9l-118.6 -118.5 -133.2 133.2 133.2 133.3 133.3 -133.3 -14.7 -14.7zm-118.6 -59.8l74.5 74.5 -74.5 74.5 -74.5 -74.5 74.5 -74.5zm-187.3 277.3l0 -1444.5c0,-59.9 42,-108.6 93.6,-108.6l1763.6 0c51.7,0 93.8,48.7 93.8,108.6l0 1238.7c-650.4,68.6 -1300.7,137.2 -1951,205.8z"/>
 </g>
</svg>
