<?xml version="1.0" encoding="UTF-8"?>
<!DOCTYPE svg PUBLIC "-//W3C//DTD SVG 1.1//EN" "http://www.w3.org/Graphics/SVG/1.1/DTD/svg11.dtd">
<!-- Creator: CorelDRAW 2020 (64 Bit) -->
<svg xmlns="http://www.w3.org/2000/svg" xml:space="preserve" width="229px" height="229px" version="1.1" style="shape-rendering:geometricPrecision; text-rendering:geometricPrecision; image-rendering:optimizeQuality; fill-rule:evenodd; clip-rule:evenodd"
viewBox="0 0 229 229" enable-background="new 0 0 64 64">
 <defs>
  <style type="text/css">
   <![CDATA[
    .fil0 {fill:#5d5fef;fill-rule:nonzero}
   ]]>
  </style>
 </defs>
 <g id="Camada_x0020_1">
  <metadata id="CorelCorpID_0Corel-Layer"/>
  <path class="fil0" d="M209.29 20.49l-190.41 12.36 0 84.07c0,7.56 3.43,14.54 9.11,19.93 6.14,5.85 14.87,9.91 24.83,11.1l8.48 1.01 0 39.99 49.29 -40.61 58.78 0c11.36,0 21.55,-3.71 28.84,-9.71 6.84,-5.64 11.08,-13.33 11.08,-21.71l0 -96.43zm-200.66 -5.81l219.95 -14.26 0 116.5c0,14.17 -6.86,26.91 -17.94,36.04 -10.65,8.78 -25.25,14.21 -41.27,14.21l-51.79 0 -75.57 62.25 0 -64.36c-10.72,-2.68 -20.2,-7.87 -27.44,-14.75 -9.33,-8.88 -14.99,-20.55 -14.99,-33.39l0 -101.65 9.05 -0.59zm168.89 80.69l-132.75 0 0 -22.54 138.69 0 0 22.54 -5.94 0z"/>
 </g>
</svg>
