<?xml version="1.0" encoding="UTF-8"?>
<!DOCTYPE svg PUBLIC "-//W3C//DTD SVG 1.1//EN" "http://www.w3.org/Graphics/SVG/1.1/DTD/svg11.dtd">
<!-- Creator: CorelDRAW 2020 (64 Bit) -->
<svg xmlns="http://www.w3.org/2000/svg" xml:space="preserve" width="141.7323" height="141.7323" version="1.1" style="shape-rendering:geometricPrecision; text-rendering:geometricPrecision; image-rendering:optimizeQuality; fill-rule:evenodd; clip-rule:evenodd"
viewBox="0 0 5000 5000"
 xmlns:xlink="http://www.w3.org/1999/xlink"
 xmlns:xodm="http://www.corel.com/coreldraw/odm/2003">
 <defs>
  <style type="text/css">
   <![CDATA[
    .fil0 {fill:#1CD9A4;fill-rule:nonzero}
   ]]>
  </style>
 </defs>
 <g id="__x0023_Layer_x0020_1">
  <metadata id="CorelCorpID_0Corel-Layer"/>
  <path class="fil0" d="M2106.49 2274.71c0,25.69 20.78,46.48 46.48,46.48l186.48 0c25.7,0 46.49,-20.78 46.49,-46.48l0 -280c0,-25.7 -20.79,-46.49 -46.49,-46.49l-186.48 0c-25.7,0 -46.48,20.79 -46.48,46.49l0 280 0 0zm1638.72 1447.59l-44.45 0.63c-13.76,0.11 -25.74,-7.72 -31.6,-19.2l-0.1 0.05c-21.67,-42.63 -48.3,-70.57 -75.76,-83.03 -11.09,-5.03 -22.22,-7.49 -32.99,-7.33 -10.48,0.16 -21.22,2.92 -31.86,8.3 -25.05,12.82 -48.9,39.97 -68.13,82.36 -6.15,13.65 -19.92,21.47 -34.03,20.7l-53.39 0.78 0 0.14c-41.76,0 -66.28,14.47 -75.85,32.98 -3.3,6.38 -4.93,13.28 -4.92,20.08 0,6.81 1.71,13.85 5.03,20.52 9.2,18.48 31.41,32.94 65.74,32.94l385.14 0c32.46,0 53.56,-15.31 62.44,-34.64 3.34,-7.27 5.09,-15.07 5.16,-22.72 0.06,-7.32 -1.47,-14.72 -4.64,-21.54l-0.58 -1.32c-8.45,-16.79 -28.72,-29.59 -62.38,-29.59l-2.83 -0.11zm-21.64 -69.98l21.04 -0.3 3.43 -0.17c64.98,0 106.46,30.14 125.8,69.55l1.1 2.16c7.53,16.19 11.15,33.97 10.98,51.86 -0.16,17.58 -4.06,35.17 -11.5,51.38 -19.49,42.41 -62.57,75.98 -126.38,75.98l-385.14 0c-64.68,0 -108.73,-31.63 -128.86,-72.08 -8.05,-16.17 -12.18,-33.98 -12.19,-51.94 -0.02,-17.97 4.14,-35.91 12.64,-52.32 20.71,-40.04 66.3,-71.3 138.41,-71.3l0 0.13 33.22 -0.48c24.95,-46.74 56.31,-78.52 90.38,-95.85l0.14 0c20.13,-10.23 41.32,-15.47 62.85,-15.8 21.28,-0.33 42.43,4.17 62.75,13.39 36.89,16.74 71.35,49.01 99,95.84l2.33 -0.05zm-574.58 66.77l-1362.26 0c-25.71,0 -46.49,20.78 -46.49,46.48l0 120c0,25.71 20.78,46.49 46.49,46.49 25.7,0 46.48,-20.78 46.48,-46.49l0 -73.51 1315.24 0 0.54 -92.97zm-62.5 -2610.87l-1212.98 0c-25.69,0 -46.48,20.79 -46.48,46.49l0 2426.48c0,25.7 20.79,46.49 46.48,46.49 25.7,0 46.49,-20.79 46.49,-46.49l0 -2379.45 1120 0 0 2380c0,25.71 20.79,46.48 46.49,46.48 25.69,0 46.48,-20.77 46.48,-46.48l0 -2427.03c0.54,-25.7 -20.78,-46.49 -46.48,-46.49zm233.51 1726.49c0,25.69 20.79,46.48 46.49,46.48l186.48 0c25.7,0 46.48,-20.78 46.48,-46.48l0 -280c0,-25.7 -20.78,-46.49 -46.48,-46.49l-186.48 0c-25.7,0 -46.49,20.79 -46.49,46.49l0 280zm93.51 -232.97l93.52 0 0 186.48 -93.52 0 0 -186.48zm-1400 512.96c0,25.7 20.79,46.49 46.49,46.49l140 0 0 420c0,25.7 20.79,46.49 46.49,46.49 25.69,0 46.48,-20.79 46.48,-46.49l0 -420 373.52 0 0 420c0,25.7 20.78,46.49 46.48,46.49 25.7,0 46.48,-20.79 46.48,-46.49l0 -420 140 0c25.7,0 46.49,-20.79 46.49,-46.48 0,-25.7 -20.79,-46.49 -46.49,-46.49l-839.45 0c-25.7,0 -46.49,20.79 -46.49,46.48zm92.98 -279.99c0,25.69 20.78,46.48 46.48,46.48l186.48 0c25.7,0 46.49,-20.78 46.49,-46.48l0 -280c0,-25.7 -20.79,-46.49 -46.49,-46.49l-186.48 0c-25.7,0 -46.48,20.79 -46.48,46.49l0 280 0 0zm93.51 -232.97l93.51 0 0 186.48 -93.51 0 0 -186.48zm246.64 760.15c-8.2,8.76 -13.67,20.79 -13.67,33.36 0,12.58 4.92,24.06 13.67,33.36 8.75,8.2 20.78,13.68 33.36,13.68 12.03,0 24.06,-4.93 33.36,-13.68 8.2,-8.75 13.67,-20.78 13.67,-33.36 0,-12.57 -4.92,-24.06 -13.67,-33.36 -18.05,-17.5 -48.67,-17.5 -66.72,0zm-293.13 -1600.15l186.49 0c25.7,0 46.49,-20.79 46.49,-46.49l0 -280.54c0,-25.7 -20.79,-46.49 -46.49,-46.49l-186.49 0c-25.69,0 -46.48,20.79 -46.48,46.49l0 280c-0.54,25.7 20.78,47.03 46.48,47.03zm46.49 -280l93.51 0 0 186.48 -93.51 0 0 -186.48zm373.51 1352.97c0,25.69 20.79,46.48 46.49,46.48l186.49 0c25.69,0 46.48,-20.78 46.48,-46.48l0 -280c0,-25.7 -20.79,-46.49 -46.48,-46.49l-186.49 0c-25.7,0 -46.49,20.79 -46.49,46.49l0 280 0 0zm92.98 -232.97l93.51 0 0 186.48 -93.51 0 0 -186.48 0 0zm-46.49 -840l186.49 0c25.69,0 46.48,-20.79 46.48,-46.49l0 -280.54c0,-25.7 -20.78,-46.49 -46.48,-46.49l-186.49 0c-25.7,0 -46.49,20.79 -46.49,46.49l0 280c0,25.7 20.79,47.03 46.49,47.03zm46.49 -280l93.51 0 0 186.48 -93.51 0 0 -186.48 0 0zm1213.51 2155.24l0 -1922.27c0,-25.7 -20.79,-46.49 -46.49,-46.49l-560 0c-25.69,0 -46.48,20.79 -46.48,46.49 0,25.69 20.79,46.48 46.48,46.48l513.52 0.01 0 1875.23 92.97 0.55zm-1306.49 -1362.27c0,25.69 20.79,46.48 46.49,46.48l186.49 0c25.69,0 46.48,-20.78 46.48,-46.48l0 -280c0,-25.7 -20.79,-46.49 -46.48,-46.49l-186.49 0c-25.7,0 -46.49,20.79 -46.49,46.49l0 280 0 0zm92.98 -232.97l93.51 0 0 186.48 -93.51 0 0 -186.48 0 0zm-1072.98 -93.52l-187.02 0c-25.7,0 -46.49,20.79 -46.49,46.49l0 280c0,25.69 20.79,46.48 46.49,46.48l186.48 0c25.7,0 46.48,-20.78 46.48,-46.48l0 -280c0.55,-25.7 -20.24,-46.49 -45.94,-46.49zm-47.02 280l-92.98 0 0 -186.48 93.52 0 -0.54 186.48 0 0zm1820 93.52l186.48 0c25.7,0 46.48,-20.78 46.48,-46.49l0 -280c0,-25.69 -20.78,-46.48 -46.48,-46.48l-186.48 0c-25.7,0 -46.49,20.78 -46.49,46.48l0 280c0,25.16 20.79,46.49 46.49,46.49zm47.02 -280l93.52 0 0 186.48 -93.52 0 0 -186.48zm-1820 466.48l-187.02 0c-25.7,0 -46.49,20.79 -46.49,46.49l0 93.51c0,25.7 20.79,46.49 46.49,46.49 25.69,0 46.48,-20.79 46.48,-46.49l0 -46.48 93.52 0 0 233.51c0,25.71 20.78,46.49 46.48,46.49 25.7,0 46.48,-20.78 46.48,-46.49l0 -280c0.55,-26.24 -20.24,-47.03 -45.94,-47.03zm-280 280c-230.78,0 -233.51,600.47 -233.51,606.48 0,112.66 80.39,206.73 186.49,228.6l0 237.89c0,25.7 20.78,46.49 46.48,46.49 25.7,0 46.48,-20.79 46.48,-46.49l0 -237.89c106.09,-21.87 186.49,-115.94 186.49,-228.6 0.55,-6.01 -2.19,-606.48 -232.43,-606.48zm0 746.48c-77.1,0 -140,-62.89 -140,-140 0,-232.41 62.35,-513.51 140,-513.51 77.66,0 140,281.09 140,513.51 0,77.11 -62.89,140 -140,140zm2006.49 -140c0,25.71 20.79,46.49 46.49,46.49l186.48 0c25.7,0 46.48,-20.78 46.48,-46.48l0 -280c0,-25.7 -20.78,-46.49 -46.48,-46.49l-186.48 0c-25.7,0 -46.49,20.79 -46.49,46.48l0 280zm93.51 -232.96l93.52 0 0 186.48 -93.52 0 0 -186.48zm-1727.02 -1493.52l-560 0c-25.7,0 -46.49,20.79 -46.49,46.49l0 933.51c0,25.7 20.79,46.49 46.49,46.49 25.69,0 46.48,-20.79 46.48,-46.49l0 -886.48 513.52 0c25.69,0 46.48,-20.79 46.48,-46.49 0,-25.69 -20.78,-47.03 -46.48,-47.03zm513.51 373.52l93.51 0 0 186.48 -93.51 0 0 -186.48z"/>
 </g>
</svg>
