<?xml version="1.0" encoding="UTF-8"?>
<!DOCTYPE svg PUBLIC "-//W3C//DTD SVG 1.1//EN" "http://www.w3.org/Graphics/SVG/1.1/DTD/svg11.dtd">
<!-- Creator: CorelDRAW 2020 (64 Bit) -->
<svg xmlns="http://www.w3.org/2000/svg" xml:space="preserve" width="170px" height="229px" version="1.1" style="shape-rendering:geometricPrecision; text-rendering:geometricPrecision; image-rendering:optimizeQuality; fill-rule:evenodd; clip-rule:evenodd"
viewBox="0 0 180.43 242.63">
 <defs>
  <style type="text/css">
   <![CDATA[
    .fil0 {fill:#5d5fef;fill-rule:nonzero}
   ]]>
  </style>
 </defs>
 <g id="Camada_x0020_1">
  <metadata id="CorelCorpID_0Corel-Layer"/>
  <path class="fil0" d="M108.32 0l0 17.52 72.11 -5.48 0 130.14c0,39.66 -32.84,75.71 -72.11,80.12l0 20.33 -36.22 0 0 -17.53 -72.1 5.47 0 -130.13c0,-39.65 32.83,-75.7 72.1,-80.12l0 -20.32 36.22 0zm50.85 93.8l-83.96 6.57 -1.35 -18.04 85.31 -6.68 0 -40.88 -83.21 6.51c-30.69,2.4 -54.71,28.39 -54.71,59.16l0 48.39 83.97 -6.57 1.34 18.04 -85.31 6.67 0 40.88 83.22 -6.52c30.68,-2.39 54.7,-28.38 54.7,-59.15l0 -48.38z"/>
 </g>
</svg>
