<?xml version="1.0" encoding="UTF-8"?>
<!DOCTYPE svg PUBLIC "-//W3C//DTD SVG 1.1//EN" "http://www.w3.org/Graphics/SVG/1.1/DTD/svg11.dtd">
<!-- Creator: CorelDRAW 2020 (64 Bit) -->
<svg xmlns="http://www.w3.org/2000/svg" xml:space="preserve" width="229px" height="229px" version="1.1" style="shape-rendering:geometricPrecision; text-rendering:geometricPrecision; image-rendering:optimizeQuality; fill-rule:evenodd; clip-rule:evenodd"
viewBox="0 0 2285.7 2285.7"
 xmlns:xlink="http://www.w3.org/1999/xlink"
 xmlns:xodm="http://www.corel.com/coreldraw/odm/2003">
 <defs>
  <style type="text/css">
   <![CDATA[
    .fil0 {fill:#5d5fef;fill-rule:nonzero}
   ]]>
  </style>
 </defs>
 <g id="Camada_x0020_1">
  <metadata id="CorelCorpID_0Corel-Layer"/>
  <path class="fil0" d="M0 2285.7c940.3,-85.8 1426.6,-130.1 2285.7,-208.5l0 -1778.2c0,-152.1 -129.9,-299 -261.1,-299l-1763.6 0c-131.2,0 -261,146.9 -261,299l0 1986.7zm1911.6 -713.4l-1537.6 0 0 112.1 1537.6 0 0 -112.1zm0 -290.9l-1537.6 0 0 112.1 1537.6 0 0 -112.1zm0 -291l-1537.6 0 0 112.2 1537.6 0 0 -112.2zm0 -290.9l-1537.6 0 0 112.2 1537.6 0 0 -112.2zm0 -290.9l-1537.6 0 0 112.2 1537.6 0 0 -112.2zm-1744.2 1696.7l0 -1806.3c0,-59.9 42,-108.6 93.6,-108.6l1763.6 0c51.7,0 93.8,48.7 93.8,108.6l0 1600.4c-657.8,69.4 -1287.3,135.8 -1951,205.9z"/>
 </g>
</svg>
