<?xml version="1.0" encoding="UTF-8"?>
<!DOCTYPE svg PUBLIC "-//W3C//DTD SVG 1.1//EN" "http://www.w3.org/Graphics/SVG/1.1/DTD/svg11.dtd">
<!-- Creator: CorelDRAW 2020 (64 Bit) -->
<svg xmlns="http://www.w3.org/2000/svg" xml:space="preserve" width="229px" height="229px" version="1.1" style="shape-rendering:geometricPrecision; text-rendering:geometricPrecision; image-rendering:optimizeQuality; fill-rule:evenodd; clip-rule:evenodd"
viewBox="0 0 229 229">
 <defs>
  <style type="text/css">
   <![CDATA[
    .fil0 {fill:#5d5fef;fill-rule:nonzero}
   ]]>
  </style>
 </defs>
 <g id="Camada_x0020_1">
  <metadata id="CorelCorpID_0Corel-Layer"/>
  <path class="fil0" d="M176.92 0c14.38,0 27.4,5.83 36.83,15.25 9.42,9.43 15.25,22.45 15.25,36.83 0,14.38 -5.83,27.4 -15.25,36.83 -9.43,9.42 -22.45,15.25 -36.83,15.25 -14.38,0 -27.4,-5.83 -36.83,-15.25l-0.39 -0.41 -56.83 41.17c3.06,6.07 4.79,12.92 4.79,20.18 0,3.56 -0.41,7.03 -1.2,10.35l55.25 18.47c1.4,-2.25 3.06,-4.33 4.93,-6.2 6.26,-6.27 14.92,-10.14 24.47,-10.14 9.52,0 18.17,3.87 24.45,10.14l0.03 0.03c6.27,6.28 10.14,14.92 10.14,24.44 0,9.56 -3.88,18.21 -10.14,24.48 -6.26,6.26 -14.92,10.14 -24.48,10.14 -9.55,0 -18.21,-3.88 -24.47,-10.14 -6.26,-6.27 -10.14,-14.92 -10.14,-24.48 0,-1.94 0.16,-3.85 0.47,-5.7l-55.54 -18.58c-1.92,3.25 -4.24,6.23 -6.89,8.87 -8.11,8.11 -19.31,13.13 -31.68,13.13 -12.37,0 -23.58,-5.02 -31.68,-13.13 -8.11,-8.1 -13.13,-19.31 -13.13,-31.68 0,-12.37 5.02,-23.57 13.13,-31.68 8.1,-8.11 19.31,-13.12 31.68,-13.12 12.09,0 23.06,4.79 31.12,12.58l56.89 -41.21c-3.85,-7.27 -6.03,-15.55 -6.03,-24.34 0,-14.38 5.83,-27.4 15.25,-36.83 9.43,-9.42 22.45,-15.25 36.83,-15.25zm-114.16 129.95c-5.09,-5.1 -12.13,-8.25 -19.9,-8.25 -7.78,0 -14.82,3.15 -19.91,8.25 -5.09,5.09 -8.24,12.13 -8.24,19.9 0,7.78 3.15,14.82 8.24,19.91 5.09,5.09 12.13,8.24 19.91,8.24 7.77,0 14.81,-3.15 19.9,-8.24 5.1,-5.09 8.25,-12.13 8.25,-19.91 0,-7.77 -3.15,-14.81 -8.25,-19.9zm121.06 54.26c-3.23,-3.23 -7.72,-5.23 -12.71,-5.23 -4.96,0 -9.45,2.01 -12.7,5.26 -3.24,3.25 -5.25,7.74 -5.25,12.7 0,4.96 2.01,9.45 5.25,12.7 3.25,3.25 7.74,5.26 12.7,5.26 4.97,0 9.46,-2.01 12.71,-5.26 3.24,-3.25 5.25,-7.74 5.25,-12.7 0,-4.98 -1.99,-9.47 -5.22,-12.7l-0.03 -0.03zm18.15 -157.18c-6.41,-6.41 -15.27,-10.38 -25.05,-10.38 -9.78,0 -18.64,3.97 -25.05,10.38 -6.41,6.41 -10.38,15.27 -10.38,25.05 0,9.78 3.97,18.64 10.38,25.05 6.41,6.41 15.27,10.38 25.05,10.38 9.78,0 18.64,-3.97 25.05,-10.38 6.41,-6.41 10.38,-15.27 10.38,-25.05 0,-9.78 -3.97,-18.64 -10.38,-25.05z"/>
 </g>
</svg>
