<?xml version="1.0" encoding="UTF-8"?>
<!DOCTYPE svg PUBLIC "-//W3C//DTD SVG 1.1//EN" "http://www.w3.org/Graphics/SVG/1.1/DTD/svg11.dtd">
<!-- Creator: CorelDRAW 2020 (64 Bit) -->
<svg xmlns="http://www.w3.org/2000/svg" xml:space="preserve" width="226px" height="228px" version="1.1" style="shape-rendering:geometricPrecision; text-rendering:geometricPrecision; image-rendering:optimizeQuality; fill-rule:evenodd; clip-rule:evenodd"
viewBox="0 0 3215.8 3240.9"
 xmlns:xlink="http://www.w3.org/1999/xlink"
 xmlns:xodm="http://www.corel.com/coreldraw/odm/2003">
 <defs>
  <style type="text/css">
   <![CDATA[
    .fil0 {fill:#00d39b;fill-rule:nonzero}
   ]]>
  </style>
 </defs>
 <g id="__x0023_Layer_x0020_1">
  <metadata id="CorelCorpID_0Corel-Layer"/>
  <path class="fil0" d="M1320.5 1265.9c-128.8,88.8 -252,184.4 -368.3,285.8l-283.7 247.5c23.1,20.1 52.2,42.7 73.2,64.1 27.7,21.5 55.8,48.2 82.5,71.5l415.8 -362.7c52.9,-46.2 114.6,-82 181.7,-106.2 67,-24.2 139,-36.9 212.9,-36.9 74,0 146,12.7 213,36.9 67.1,24.2 128.9,60 181.8,106.2l485.6 423.4 700.8 -236.1 0 272.9 -475.1 160.1 76.1 66.3c11.3,9.9 21.7,20.2 31.1,31 48.4,55.5 72.7,122.4 72.7,189.3 0.1,66.9 -24.1,133.8 -72.7,189.4 -9.4,10.8 -19.8,21.2 -31.1,31 -33.1,29 -71.5,50.9 -112.6,65.7 -42.3,15.2 -87.1,22.9 -131.5,22.9 -24.6,-0.2 -48.7,-2.5 -71.9,-7 -11.3,-2.3 -22.5,-5 -33.7,-8.2 -5,8.7 -10.6,17.3 -16.6,25.6 -13.3,18.3 -29.3,35.9 -48,52.1 -33.2,28.9 -71.6,50.8 -112.4,65.6 -42.3,15.2 -87.1,22.9 -131.5,22.9 -24.1,0 -48.2,-2.5 -72,-7.1 -11.3,-2.3 -22.6,-5 -33.9,-8.4 -5.1,8.8 -10.7,17.5 -16.8,25.9 -13.4,18.6 -29.2,36.1 -47.3,51.9 -32.8,28.6 -71.1,50.8 -112.7,65.8 -41.5,15 -85.9,22.9 -131.4,22.9 -24.4,0 -48.6,-2.5 -72.2,-7.1 -11.4,-2.2 -22.7,-4.9 -33.8,-8.2 -5.1,8.8 -10.7,17.4 -16.7,25.8 -13.5,18.6 -29.3,36.1 -47.4,51.8 -33,28.6 -71.1,50.8 -112.5,65.8 -41.6,15 -86,22.8 -131.5,22.8 -45.6,0 -90.1,-7.8 -131.5,-22.8 -41.6,-15.1 -79.8,-37.4 -112.6,-66l-472.5 -411.9c-66.2,-57.7 -138.3,-108.7 -215.7,-152.6 -77.5,-44.1 -160.3,-81 -247.8,-110.5l-150.3 -50.7 0 -272.9 248 83.7c105.6,35.5 205.6,80.1 299.1,133.2 93.7,53.1 181.1,115 261.4,185l521.8 455.1 90.3 -78.8 -489.2 -426.6 203.2 -177.3c203.3,177.1 406.2,354.8 609.8,531.5l45.1 -39.3 0.3 -0.5 44.6 -38.9 -539.7 -470.6 203.4 -177.2c220.2,191.9 440.1,384.2 660.6,575.8l90 -78.7c-198.9,-173.7 -398,-347.1 -597,-520.6l203.2 -177.4 717.7 625.9 47 -41 2.4 -2.9 2.9 -1.8 37.9 -33 -828.2 -722.3c-25.9,-22.6 -57.1,-40.5 -91,-52.8 -34.2,-12.3 -71.3,-18.9 -109,-18.9 -38.3,0 -75.1,6.4 -108.8,18.6 -33.8,12.2 -64.7,30.2 -91.1,53.1l-334.2 291.5c-76.6,66.9 -176.9,100.4 -276.8,100.4 -99.8,0 -200,-33.5 -276.7,-100.4 -13.1,-11.2 -25,-23.1 -35.8,-35.5 -54.5,-62.8 -81.9,-138 -81.9,-213.3 0,-75.3 27.4,-150.6 82,-213.3 10.7,-12.5 22.6,-24.5 35.6,-35.8l210.6 -183.5c22.5,-19.8 48.1,-41.1 75.2,-63.3l30.4 -24.8 -863.1 -551.8 0 -312.9 1086.7 694.8c74.3,-53.3 151,-105.2 230,-155.2 86.9,-54.9 175.7,-107.1 266.4,-155.8 538.6,-238.7 1098.8,-537.1 1632.7,-797.9l0 290.7 -1494.4 730.2c-138.4,74.4 -272.5,156.4 -400.9,245zm-576.1 600.5l-0.4 -0.4 0.4 0.4z"/>
 </g>
</svg>
