<?xml version="1.0" encoding="UTF-8"?>
<!DOCTYPE svg PUBLIC "-//W3C//DTD SVG 1.1//EN" "http://www.w3.org/Graphics/SVG/1.1/DTD/svg11.dtd">
<!-- Creator: CorelDRAW 2020 (64 Bit) -->
<svg xmlns="http://www.w3.org/2000/svg" xml:space="preserve" width="229px" height="229px" version="1.1" style="shape-rendering:geometricPrecision; text-rendering:geometricPrecision; image-rendering:optimizeQuality; fill-rule:evenodd; clip-rule:evenodd"
viewBox="0 0 2281.7 2281.7"
 xmlns:xlink="http://www.w3.org/1999/xlink"
 xmlns:xodm="http://www.corel.com/coreldraw/odm/2003">
 <defs>
  <style type="text/css">
   <![CDATA[
    .fil0 {fill:#5d5fef;fill-rule:nonzero}
   ]]>
  </style>
 </defs>
 <g id="Camada_x0020_1">
  <metadata id="CorelCorpID_0Corel-Layer"/>
  <path class="fil0" d="M280.8 233l123.2 0 0 -228.4 227.7 0 0 228.4 443.3 0 0 -233 93 0 1113.7 0 -214.8 1136.2 -805.9 0 0 226.6 -629.3 0 0 918.9 -227.7 0 0 -918.9 -123.2 0c-77.3,0 -147.6,-31.6 -198.4,-82.5 -50.8,-50.9 -82.4,-121.2 -82.4,-198.6l0 -567.5c0,-77.4 31.6,-147.7 82.4,-198.6 50.8,-50.9 121.1,-82.6 198.4,-82.6zm980.2 0l0 716.9 652.3 0 144.3 -763.6 -796.6 0 0 46.7zm-186 186.4l-794.2 0c-26,0 -49.6,10.7 -66.8,27.9 -17.2,17.2 -27.9,40.9 -27.9,66.9l0 567.5c0,26 10.7,49.7 27.9,66.9 17.2,17.2 40.8,27.9 66.8,27.9l794.2 0 0 -40.3 0 -716.8z"/>
 </g>
</svg>
