<?xml version="1.0" encoding="UTF-8"?>
<!DOCTYPE svg PUBLIC "-//W3C//DTD SVG 1.1//EN" "http://www.w3.org/Graphics/SVG/1.1/DTD/svg11.dtd">
<!-- Creator: CorelDRAW 2020 (64 Bit) -->
<svg xmlns="http://www.w3.org/2000/svg" xml:space="preserve" width="229px" height="229px" version="1.1" style="shape-rendering:geometricPrecision; text-rendering:geometricPrecision; image-rendering:optimizeQuality; fill-rule:evenodd; clip-rule:evenodd"
viewBox="0 0 2290 2290"
 xmlns:xlink="http://www.w3.org/1999/xlink"
 xmlns:xodm="http://www.corel.com/coreldraw/odm/2003">
 <defs>
  <style type="text/css">
   <![CDATA[
    .fil0 {fill:#5d5fef;fill-rule:nonzero}
   ]]>
  </style>
 </defs>
 <g id="Camada_x0020_1">
  <metadata id="CorelCorpID_0Corel-Layer"/>
  <path class="fil0" d="M1151.9 347.4l219.2 219.2 -230.3 230.2 -230.2 -230.2 230.2 -230.3 11.1 11.1zm83.3 219.2l-94.4 -94.3 -94.3 94.3 94.3 94.3 94.4 -94.3z"/>
  <path class="fil0" d="M1145.4 1250.4l372.7 -502.4 10.4 -20.2 -0.3 -0.2c17.8,-35 27.1,-53.2 27.1,-94.8l0 -246c0,-79.4 -10.5,-129.2 -36,-154.6 -26.5,-26.4 -78.1,-38.3 -159.4,-41l0 0.3 -393.2 0c-88.3,0 -150.6,10.7 -185.5,38.9 -30.6,24.8 -45.7,72.5 -45.7,150.5l0 251.9c0,41.6 9.3,59.7 27.1,94.7l-0.3 0.2 10.4 20.3 372.7 502.4zm529.9 -401.5l-529.9 726.8 -529.8 -726.8 -7.4 -12.1 -12.1 -24.4 -0.3 0c-31.4,-61.5 -47.7,-93.3 -47.7,-179.6l0 -251.9c0,-139 38.1,-232.9 115.3,-295.4 72.9,-59 173,-81.3 303.3,-81.3l393.2 0 2.6 0.3c132.3,4 224.5,31.5 288.5,95.2 65.1,64.8 91.7,156.2 91.7,287.1l0 246c0,86.4 -16.3,118.2 -47.7,179.7l-0.3 0 -12.1 24.3 -7.3 12.1z"/>
  <path class="fil0" d="M183.5 2087.6l1914.6 -190 0 -357 -277.9 36.3 -656.4 248.4 -606.8 -97.9 -373.5 40.8 0 319.4zm2017.7 -12.2l-2205.4 218.8 0 -693.8 565.2 -61.9 582.9 94.2 629.7 -238.4c170.8,-22.1 341.5,-44.5 512.2,-66.8l0 739.5 -84.6 8.4z"/>
 </g>
</svg>
