<?xml version="1.0" encoding="UTF-8"?>
<!DOCTYPE svg PUBLIC "-//W3C//DTD SVG 1.1//EN" "http://www.w3.org/Graphics/SVG/1.1/DTD/svg11.dtd">
<!-- Creator: CorelDRAW 2020 (64 Bit) -->
<svg xmlns="http://www.w3.org/2000/svg" xml:space="preserve" width="229px" height="229px" version="1.1" style="shape-rendering:geometricPrecision; text-rendering:geometricPrecision; image-rendering:optimizeQuality; fill-rule:evenodd; clip-rule:evenodd"
viewBox="0 0 2281.7 2281.7"
 xmlns:xlink="http://www.w3.org/1999/xlink"
 xmlns:xodm="http://www.corel.com/coreldraw/odm/2003">
 <defs>
  <style type="text/css">
   <![CDATA[
    .fil0 {fill:#5d5fef;fill-rule:nonzero}
   ]]>
  </style>
 </defs>
 <g id="Camada_x0020_1">
  <metadata id="CorelCorpID_0Corel-Layer"/>
  <g id="_1529273365056">
   <path class="fil0" d="M2003.8 1200l-1725.9 0c-76.2,0 -145.6,31.7 -196.1,82.6l-0.2 -0.2c-50.3,50.7 -81.6,120.9 -81.6,198.1l0 801.2 2281.7 -207.3 0 -593.9c0,-77.2 -31.3,-147.4 -81.6,-198.1 -50.3,-50.8 -119.8,-82.4 -196.3,-82.4zm-1725.9 187l1725.9 0c25.4,0 48.5,10.6 65.3,27.5 16.9,17 27.3,40.4 27.3,66l0 423.9 -1911.1 173.6 0 -597.5c0,-25.6 10.4,-49 27.3,-66l0 -0.3c16.6,-16.8 39.7,-27.2 65.3,-27.2z"/>
   <path class="fil0" d="M1598.4 243.7c-86.3,-127.5 -215.8,-207.6 -355.2,-234 -139.4,-26.5 -288.8,0.8 -415.1,87.9 -126.4,87.1 -205.7,217.7 -231.9,358.4 -26.3,140.7 0.7,291.5 87.1,418.9 86.3,127.5 215.8,207.6 355.2,234 54,7.3 109.1,8.9 165.1,6.2 86.9,-9.9 172.8,-40.8 250,-94.1 126.4,-87.1 205.8,-217.7 231.9,-358.4 26.2,-140.7 -0.7,-291.4 -87.1,-418.9zm-387.9 -58.3c94.8,18 182.8,72.5 241.6,159.2 58.7,86.8 77.1,189.3 59.3,285 -17.8,95.7 -71.8,184.5 -157.8,243.8 -86,59.3 -187.6,77.8 -282.4,59.8 -94.8,-18 -182.8,-72.5 -241.6,-159.2 -58.8,-86.7 -77.1,-189.3 -59.3,-285 17.8,-95.6 71.8,-184.4 157.8,-243.7 86,-59.3 187.6,-77.9 282.4,-59.9z"/>
  </g>
 </g>
</svg>
