<?xml version="1.0" encoding="UTF-8"?>
<!DOCTYPE svg PUBLIC "-//W3C//DTD SVG 1.1//EN" "http://www.w3.org/Graphics/SVG/1.1/DTD/svg11.dtd">
<!-- Creator: CorelDRAW 2020 (64 Bit) -->
<svg xmlns="http://www.w3.org/2000/svg" xml:space="preserve" width="236px" height="197px" version="1.1" style="shape-rendering:geometricPrecision; text-rendering:geometricPrecision; image-rendering:optimizeQuality; fill-rule:evenodd; clip-rule:evenodd"
viewBox="0 0 428.3 356.8"
 xmlns:xlink="http://www.w3.org/1999/xlink"
 xmlns:xodm="http://www.corel.com/coreldraw/odm/2003">
 <defs>
  <style type="text/css">
   <![CDATA[
    .str0 {stroke:#00d39b;stroke-width:3.6;stroke-miterlimit:22.9256}
    .fil1 {fill:#00d39b}
    .fil0 {fill:#00d39b;fill-rule:nonzero}
   ]]>
  </style>
 </defs>
 <g id="__x0023_Layer_x0020_1">
  <metadata id="CorelCorpID_0Corel-Layer"/>
  <path class="fil0 str0" d="M165.1 234.3c4.2,0 8.4,-0.4 12.2,-1.2l106.6 -18.3c15.3,-2.7 27.9,-14.2 31.7,-29.5l27.6 -104.3 0 -11.8 -55.5 0c-26.3,-36.7 -68.7,-58.5 -113.8,-58.5 -45.1,0 -87.5,21.8 -113.9,58.5l-49.3 0 0 13.4 97.5 123.8c14.1,17.9 34.7,27.9 56.9,27.9zm8.8 -208.3c37,0 70.7,15.7 94.7,43.2l-189.5 0c23.7,-27.5 57.7,-43.2 94.8,-43.2zm152.8 58.5l-25.6 97c-2.3,9.2 -10.3,16.5 -19.8,18l-106.3 18.7c-3,0.4 -6.5,0.8 -9.9,0.8 -17.6,0 -34,-8.1 -44.7,-21.8l-88.7 -112.7 295 0z"/>
  <path class="fil1" d="M179.4 243.6c-4.5,0.9 -9.4,1.4 -14.3,1.4 -12.7,0 -25.1,-2.9 -36.3,-8.4 -11.1,-5.5 -21,-13.4 -29.1,-23.6l-97.1 -123.4c-1.6,-1.9 -2.6,-4.3 -2.6,-7l0 -13.4c0,-5.9 4.8,-10.7 10.7,-10.7l44 0c13.7,-17.7 31,-31.8 50.4,-41.8 21,-10.8 44.6,-16.7 68.8,-16.7 24.2,0 47.7,5.9 68.8,16.7 19.4,10 36.7,24.1 50.4,41.8l50.1 0c5.9,0 10.7,4.8 10.7,10.7l0 11.8 0 0c0,0.9 -0.2,1.8 -0.4,2.8l-27.5 104.1c-2.4,9.7 -7.6,18.2 -14.5,24.6 -7.1,6.6 -16,11.1 -25.7,12.8 -53.4,8 -87.8,14.4 -106.4,18.3zm-14.3 -9.3c4.2,0 8.4,-0.4 12.2,-1.2l106.6 -18.3c15.3,-2.7 27.9,-14.2 31.7,-29.5l27.6 -104.3 0 -11.8 -55.5 0c-26.3,-36.7 -68.7,-58.5 -113.8,-58.5 -45.1,0 -87.5,21.8 -113.9,58.5l-49.3 0 0 13.4 97.5 123.8c14.1,17.9 34.7,27.9 56.9,27.9zm8.8 -208.3c37,0 70.7,15.7 94.7,43.2l-189.5 0c23.7,-27.5 57.7,-43.2 94.8,-43.2zm152.8 58.5l-25.6 97c-2.3,9.2 -10.3,16.5 -19.8,18l-106.3 18.7c-3,0.4 -6.5,0.8 -9.9,0.8 -17.6,0 -34,-8.1 -44.7,-21.8l-88.7 -112.7 295 0zm-105.3 -37.6c-14.5,-6.6 -30.6,-10.2 -47.5,-10.2 -17,0 -33.2,3.6 -47.9,10.2 -6.9,3.2 -13.5,7.1 -19.6,11.6l134.8 0c-6.2,-4.6 -12.8,-8.5 -19.8,-11.6zm69.4 131.9l22 -83.6 -259 0 75 95.4c4.4,5.6 9.9,10 16.1,13 6.1,3 13,4.6 20.2,4.6 1.4,0 2.9,0 4.2,-0.2 1.4,-0.1 2.8,-0.2 4.2,-0.4l105.9 -18.7 0 0.1 0.2 -0.1c2.7,-0.4 5.2,-1.7 7.1,-3.4 2,-1.8 3.4,-4.1 4,-6.6l0.1 -0.1z"/>
  <path class="fil0 str0" d="M371.8 123.8l-30.9 119.6 -219.1 37.5c-7.6,-22.2 -28.6,-37.9 -53.1,-37.9 -30.9,0 -56.2,25.3 -56.2,56.2 0,31 25.3,55.8 56.6,55.8 31.3,0 56.2,-25.2 56.2,-56.2 0,-1.1 0,-2.3 0,-3.4l130 -21.4 28.3 60.7c4.6,9.6 13.7,15.7 24.4,15.7 0.8,0 1.6,0 2.7,0 11.5,-1.1 21,-8.8 23.7,-20.2l49.7 -191.5 42.4 0 0 -15.3 -54.7 0 0 0.4zm-261.8 175c0,22.6 -18.4,40.9 -40.9,40.9 -22.6,0 -40.9,-18.3 -40.9,-40.9 0,-22.5 18.3,-40.9 40.9,-40.9 17.2,0 31.7,10.7 37.8,25.6l-44.3 8.1 2.7 14.9 44.7 -8.1c0,0 0,0 0,0.4zm209.5 27.9c-1.5,5.7 -6.5,8.4 -10.3,8.8 -3.8,0.4 -9.2,-1.1 -11.9,-6.9l-26.7 -57.3 66.1 -11.8 -17.2 67.2z"/>
 </g>
</svg>
