<?xml version="1.0" encoding="UTF-8"?>
<!DOCTYPE svg PUBLIC "-//W3C//DTD SVG 1.1//EN" "http://www.w3.org/Graphics/SVG/1.1/DTD/svg11.dtd">
<!-- Creator: CorelDRAW 2020 (64 Bit) -->
<svg xmlns="http://www.w3.org/2000/svg" xml:space="preserve" width="229px" height="230px" version="1.1" style="shape-rendering:geometricPrecision; text-rendering:geometricPrecision; image-rendering:optimizeQuality; fill-rule:evenodd; clip-rule:evenodd"
viewBox="0 0 228.56 229">
 <defs>
  <style type="text/css">
   <![CDATA[
    .fil0 {fill:#5d5fef;fill-rule:nonzero}
   ]]>
  </style>
 </defs>
 <g id="Camada_x0020_1">
  <metadata id="CorelCorpID_0Corel-Layer"/>
  <path class="fil0" d="M228.56 15.83l-51.18 4.67 0 -20.5 -24.94 0 0 22.77 -76.74 7 0 -29.05 -24.93 0 0 31.33 -50.77 4.62 0 162.44c0,15.21 12.98,29.89 26.1,29.89l176.37 0c13.11,0 26.09,-14.68 26.09,-29.89l0 -183.28zm-51.18 21.68l34.45 -3.64 0 165.24c0,5.98 -4.2,10.86 -9.36,10.86l-176.37 0c-5.17,0 -9.37,-4.88 -9.37,-10.86l0 -144.65 34.04 -3.6 0 22.26 24.93 0 0 -24.89 76.74 -8.09 0 23.94 24.94 0 0 -26.57zm16.83 67.52l-159.86 0 0 -11.22 159.86 0 0 11.22zm-132.66 87.18l-27.2 0 0 -22.86 27.2 0 0 22.86zm44.23 0l-27.21 0 0 -22.86 27.21 0 0 22.86zm44.22 0l-27.22 0 0 -22.86 27.22 0 0 22.86zm-88.45 -39.39l-27.2 0 0 -22.85 27.2 0 0 22.85zm44.23 0l-27.21 0 0 -22.85 27.21 0 0 22.85zm44.22 0l-27.22 0 0 -22.85 27.22 0 0 22.85zm44.22 0l-27.22 0 0 -22.85 27.22 0 0 22.85zm0 39.39l-27.22 0 0 -22.86 27.22 0 0 22.86z"/>
 </g>
</svg>
