<svg xmlns="http://www.w3.org/2000/svg" xml:space="preserve" width="34" height="34" style="shape-rendering:geometricPrecision;text-rendering:geometricPrecision;image-rendering:optimizeQuality;fill-rule:evenodd;clip-rule:evenodd"><path d="M31.99 20.72c-.01-2.23-.02-3.84-1.13-5.26-1.26-1.61-3.2-1.88-4.77-1.93.26-1.12.34-2.36.22-3.71-.03-4.47-3.41-7.69-8.08-7.82H10.93c-2.78 0-4.98.83-6.54 2.44-.96 1.01-2.24 2.76-2.38 5.59v11.4c-.02.22 0 .44 0 .66 0 3.25.53 5.58 2.17 7.31 1.64 1.73 4.06 2.6 7.2 2.6h11.17c2.8-.02 5.17-.94 6.84-2.64 1.68-1.71 2.58-4.13 2.61-7.02 0 0-.01-1.16-.01-1.62zM11.58 8.08l6.12-.01c1.44.03 2.59 1.3 2.56 2.73-.02 1.41-1.18 2.44-2.6 2.44H11.5c-1.44-.02-2.59-1.2-2.57-2.62.02-1.43 1.21-2.55 2.65-2.54zm11.49 16.98H10.85c-1.44 0-2.61-1.16-2.61-2.58 0-1.43 1.17-2.58 2.61-2.58h12.22c1.45 0 2.61 1.15 2.61 2.58 0 1.42-1.16 2.58-2.61 2.58z" style="fill:#5d5fef;fill-rule:nonzero"/></svg>