<?xml version="1.0" encoding="UTF-8"?>
<!DOCTYPE svg PUBLIC "-//W3C//DTD SVG 1.1//EN" "http://www.w3.org/Graphics/SVG/1.1/DTD/svg11.dtd">
<!-- Creator: CorelDRAW 2020 (64 Bit) -->
<svg xmlns="http://www.w3.org/2000/svg" xml:space="preserve" width="284px" height="237px" version="1.1" style="shape-rendering:geometricPrecision; text-rendering:geometricPrecision; image-rendering:optimizeQuality; fill-rule:evenodd; clip-rule:evenodd"
viewBox="0 0 1039.3 866.2"
 xmlns:xlink="http://www.w3.org/1999/xlink"
 xmlns:xodm="http://www.corel.com/coreldraw/odm/2003">
 <defs>
  <style type="text/css">
   <![CDATA[
    .fil0 {fill:#00d39b}
   ]]>
  </style>
 </defs>
 <g id="__x0023_Layer_x0020_1">
  <metadata id="CorelCorpID_0Corel-Layer"/>
  <path class="fil0" d="M88.6 391.9c20.7,-219.9 205.8,-391.9 431.1,-391.9 154.8,0 297.7,82.6 375.1,216.6l-75 43.3c-59.9,-103.6 -171.8,-173.3 -300.1,-173.3 -175.6,0 -320.6,130.6 -343.3,300l14.7 -14.7c9.7,-9.8 26.2,-9.9 36.1,-0.5l0.4 0.5 24.7 24.7c9.8,9.8 9.7,26.8 0,36.6l-104 104.3 -0.5 0.5c-4.7,4.5 -10.8,6.8 -16.9,7l-0.3 0 -0.3 0 -0.3 0 -0.2 0 -0.2 0 -0.3 0 -0.3 0 -0.3 0c-6.1,-0.2 -12.2,-2.5 -16.9,-7l-0.5 -0.5 -104 -104.3c-9.7,-9.8 -9.8,-26.8 0,-36.6l24.7 -24.7 0.4 -0.5c9.9,-9.4 26.4,-9.3 36.1,0.5l20.1 20zm839.4 -63.2l-0.4 -0.5c-4.8,-4.5 -10.9,-6.8 -17,-6.9l-0.3 0 -0.3 -0.1 -0.3 0 -0.2 0.1 -0.1 -0.1 -0.3 0 -0.4 0.1 -0.2 0c-6.2,0.1 -12.3,2.4 -17,6.9l-0.5 0.5 -104 104.4c-9.7,9.7 -9.7,26.7 0,36.5l24.7 24.8 0.4 0.4c9.9,9.4 26.4,9.3 36.1,-0.4l14.9 -14.9c-22.6,169.4 -167.7,300.1 -343.4,300.1 -128.2,0 -240.2,-69.7 -300.1,-173.2l-75 43.3c77.4,134 220.4,216.5 375.1,216.5 225.3,0 410.4,-172 431.2,-391.8l19.9 20c9.8,9.7 26.2,9.8 36.1,0.4l0.5 -0.4 24.6 -24.8c9.8,-9.8 9.7,-26.8 0,-36.5l-104 -104.4z"/>
 </g>
</svg>
