<svg xmlns="http://www.w3.org/2000/svg" xml:space="preserve" width="34" height="34" style="shape-rendering:geometricPrecision;text-rendering:geometricPrecision;image-rendering:optimizeQuality;fill-rule:evenodd;clip-rule:evenodd"><path d="M2 4.15C2 2.96 2.99 2 4.22 2h25.56C31.01 2 32 2.96 32 4.15v25.7c0 1.19-.99 2.15-2.22 2.15H4.22C2.99 32 2 31.04 2 29.85V4.15zm9.12 22.95V13.6H6.63v13.5h4.49zM8.87 11.76c1.57 0 2.54-1.04 2.54-2.34-.03-1.32-.97-2.33-2.51-2.33-1.53 0-2.54 1.01-2.54 2.33 0 1.3.98 2.34 2.48 2.34h.03zM13.6 27.1h4.49v-7.54c0-.4.03-.8.15-1.09.32-.81 1.06-1.64 2.3-1.64 1.63 0 2.28 1.24 2.28 3.05v7.22h4.48v-7.74c0-4.15-2.21-6.08-5.16-6.08-2.42 0-3.49 1.36-4.08 2.28h.03V13.6H13.6c.06 1.27 0 13.51 0 13.51v-.01z" style="fill:#5d5fef;fill-rule:nonzero"/></svg>