<?xml version="1.0" encoding="UTF-8"?>
<!DOCTYPE svg PUBLIC "-//W3C//DTD SVG 1.1//EN" "http://www.w3.org/Graphics/SVG/1.1/DTD/svg11.dtd">
<!-- Creator: CorelDRAW 2020 (64 Bit) -->
<svg xmlns="http://www.w3.org/2000/svg" xml:space="preserve" width="229px" height="229px" version="1.1" style="shape-rendering:geometricPrecision; text-rendering:geometricPrecision; image-rendering:optimizeQuality; fill-rule:evenodd; clip-rule:evenodd"
viewBox="0 0 2281.7 2281.7"
 xmlns:xlink="http://www.w3.org/1999/xlink"
 xmlns:xodm="http://www.corel.com/coreldraw/odm/2003">
 <defs>
  <style type="text/css">
   <![CDATA[
    .fil0 {fill:#5d5fef;fill-rule:nonzero}
   ]]>
  </style>
 </defs>
 <g id="Camada_x0020_1">
  <metadata id="CorelCorpID_0Corel-Layer"/>
  <path class="fil0" d="M406.9 300.8l1874.8 0 -215.6 1048.3c-15.8,76.9 -49.8,148.8 -101.4,200.5 -50.8,50.9 -116.8,82.5 -197.4,82.5l-117.2 0c29,15.9 55.5,35.9 78.7,59.1l0.3 0.4c62.5,62.7 101.2,149.1 101.2,244.2 0,95.5 -38.7,182 -101.2,244.6 -62.4,62.6 -148.7,101.3 -244,101.3 -95.3,0 -181.6,-38.7 -244.1,-101.3 -62.4,-62.6 -101.1,-149.1 -101.1,-244.6 0,-19.4 1.6,-38.4 4.7,-57 9.8,-41.8 23.8,-83.7 47.2,-125.5 14,-22.6 30.6,-43.4 49.2,-62.1 23.2,-23.2 49.7,-43.2 78.7,-59.1l-809.5 0c29,15.9 55.5,35.9 78.7,59.1l0.4 0.4c62.4,62.7 101.1,149.1 101.1,244.2 0,95.5 -38.7,182 -101.1,244.6 -62.5,62.6 -148.8,101.3 -244.1,101.3 -95.3,0 -181.6,-38.7 -244.1,-101.3 -62.5,-62.6 -101.1,-149.1 -101.1,-244.6 0,-19.4 1.6,-38.4 4.7,-57 9.8,-41.8 23.8,-83.7 47.2,-125.5 14,-22.6 30.6,-43.4 49.2,-62.1 33.5,-33.6 74,-60.3 119,-77.9l0 -1167 -0.2 0 -0.1 -131.1 0 -22.5c0,-60 -32,-108.8 -83.7,-108.8l-135.3 0 0 -183.9 145.3 0c131.1,0 260.8,140.4 260.8,292.7l0 8.1zm1204.8 1507.8c-32.2,-32.3 -76.9,-52.3 -126.6,-52.3 -49.5,0 -94.3,20.1 -126.7,52.6 -32.4,32.4 -52.4,77.3 -52.4,126.9 0,49.6 20.1,94.5 52.4,126.9 32.4,32.5 77.2,52.6 126.7,52.6 49.4,0 94.2,-20.1 126.6,-52.6 32.4,-32.4 52.5,-77.3 52.5,-126.9 0,-49.8 -19.9,-94.7 -52.2,-126.9l-0.3 -0.3zm-1139.9 0c-32.2,-32.3 -76.9,-52.3 -126.6,-52.3 -49.5,0 -94.3,20.1 -126.7,52.6 -32.4,32.4 -52.4,77.3 -52.4,126.9 0,49.6 20,94.5 52.4,126.9 32.4,32.5 77.2,52.6 126.7,52.6 49.4,0 94.2,-20.1 126.6,-52.6 32.4,-32.4 52.5,-77.3 52.5,-126.9 0,-49.8 -20,-94.7 -52.2,-126.9l-0.3 -0.3zm1581.3 -1320.6l-1646.2 0 0 956.9 1360.4 0c26.4,0 48.3,-10.6 65.3,-27.7 25.2,-25.2 42.4,-63.2 51,-105.4l169.5 -823.8z"/>
 </g>
</svg>
