<?xml version="1.0" encoding="UTF-8"?>
<!DOCTYPE svg PUBLIC "-//W3C//DTD SVG 1.1//EN" "http://www.w3.org/Graphics/SVG/1.1/DTD/svg11.dtd">
<!-- Creator: CorelDRAW 2020 (64 Bit) -->
<svg xmlns="http://www.w3.org/2000/svg" xml:space="preserve" width="225px" height="195px" version="1.1" style="shape-rendering:geometricPrecision; text-rendering:geometricPrecision; image-rendering:optimizeQuality; fill-rule:evenodd; clip-rule:evenodd"
viewBox="0 0 222.4 192.4"
 xmlns:xlink="http://www.w3.org/1999/xlink"
 xmlns:xodm="http://www.corel.com/coreldraw/odm/2003">
 <defs>
  <style type="text/css">
   <![CDATA[
    .fil0 {fill:#00d39b}
   ]]>
  </style>
 </defs>
 <g id="__x0023_Layer_x0020_1">
  <metadata id="CorelCorpID_0Corel-Layer"/>
  <path class="fil0" d="M121.6 141.2l-54 0c-2.8,0 -5.2,-2.3 -5.2,-5.2l0 -87.5c0,-2.9 2.4,-5.3 5.2,-5.3l53.9 0c2.9,0 5.2,2.4 5.2,5.2l0 15.8 28.1 0c2.8,0 5.2,2.5 5.2,5.3l0 66.5c0,2.8 -2.3,5.2 -5.2,5.2l-33.2 0zm11.5 -20.2l12.5 0 0 11.5 5.6 0 0 -59.5 -24.5 0 0 59.5 5.3 0 0 -11.5 1.1 0zm10.1 2.3l-8.9 0 0 9.2 8.9 0 0 -9.2zm-9.7 -23.2l12.5 0 0 14 -13.6 0 0 -14 1.1 0zm10.2 2.4l-9 0 0 9.2 9 0 0 -9.2zm-10.2 -23.1l12.5 0 0 13.9 -13.6 0 0 -13.9 1.1 0zm10.2 2.3l-9 0 0 9.3 9 0 0 -9.3zm-55.1 39.3l12.5 0 0 11.5 16.9 0 0 -80.5 -46.8 0 0 80.5 16.3 0 0 -11.5 1.1 0zm10.1 2.3l-8.9 0 0 9.2 8.9 0 0 -9.2zm0.4 -23.9l12.5 0 0 13.9 -13.7 0 0 -13.9 1.2 0zm10.1 2.4l-8.9 0 0 9.2 8.9 0 0 -9.2zm-30.9 -2.4l12.5 0 0 13.9 -13.6 0 0 -13.9 1.1 0zm10.2 2.4l-9 0 0 9.2 9 0 0 -9.2zm10.6 -22.1l12.5 0 0 13.9 -13.7 0 0 -13.9 1.2 0zm10.1 2.3l-8.9 0 0 9.2 8.9 0 0 -9.2zm-30.9 -2.3l12.5 0 0 13.9 -13.6 0 0 -13.9 1.1 0zm10.2 2.3l-9 0 0 9.2 9 0 0 -9.2zm10.6 -23.1l12.5 0 0 13.9 -13.7 0 0 -13.9 1.2 0zm10.1 2.3l-8.9 0 0 9.3 8.9 0 0 -9.3zm-30.9 -2.3l12.5 0 0 13.9 -13.6 0 0 -13.9 1.1 0zm10.2 2.3l-9 0 0 9.3 9 0 0 -9.3zm133.9 -26.4l0 118.7c0,7.2 0.9,16.5 -7.7,17.6l-208.3 21.2 -0.2 0.1c-5.3,0.4 -6.2,-4.8 -6.2,-8.8l0 -148.8 0 -11.7 0 -12c0,-6.1 5,-11.1 11.1,-11.1 66.7,0 133.5,0 200.3,0 6,0 11,5 11,11.1l0 23.7 0 0zm-203.9 -16.4l0 12.3 0 141.8 185.3 -18.9 0 -135.1 -185.3 -0.1z"/>
 </g>
</svg>
