<?xml version="1.0" encoding="UTF-8"?>
<!DOCTYPE svg PUBLIC "-//W3C//DTD SVG 1.1//EN" "http://www.w3.org/Graphics/SVG/1.1/DTD/svg11.dtd">
<!-- Creator: CorelDRAW 2020 (64 Bit) -->
<svg xmlns="http://www.w3.org/2000/svg" xml:space="preserve" width="141.7323" height="141.7323" version="1.1" style="shape-rendering:geometricPrecision; text-rendering:geometricPrecision; image-rendering:optimizeQuality; fill-rule:evenodd; clip-rule:evenodd"
viewBox="0 0 5000 5000"
 xmlns:xlink="http://www.w3.org/1999/xlink"
 xmlns:xodm="http://www.corel.com/coreldraw/odm/2003">
 <defs>
  <style type="text/css">
   <![CDATA[
    .fil0 {fill:#03D29C}
    .fil1 {fill:#03D29C;fill-rule:nonzero}
   ]]>
  </style>
 </defs>
 <g id="Camada_x0020_1">
  <metadata id="CorelCorpID_0Corel-Layer"/>
  <polygon class="fil0" points="694.7,3592.65 4293.01,3592.65 4293.01,3672.65 694.7,3672.65 "/>
  <polygon class="fil0" points="4010.79,3348.07 4293.01,3348.07 4293.01,3388.07 4010.79,3388.07 "/>
  <polygon class="fil0" points="3446.36,3348.07 3728.58,3348.07 3728.58,3388.07 3446.36,3388.07 "/>
  <polygon class="fil0" points="2917.18,3348.07 3199.41,3348.07 3199.41,3388.07 2917.18,3388.07 "/>
  <polygon class="fil0" points="2352.75,3348.07 2634.96,3348.07 2634.96,3388.07 2352.75,3388.07 "/>
  <polygon class="fil0" points="1823.58,3348.07 2105.81,3348.07 2105.81,3388.07 1823.58,3388.07 "/>
  <polygon class="fil0" points="1259.13,3348.07 1541.36,3348.07 1541.36,3388.07 1259.13,3388.07 "/>
  <polygon class="fil0" points="694.7,3348.07 976.92,3348.07 976.92,3388.07 694.7,3388.07 "/>
  <polygon class="fil0" points="694.7,3063.49 4293.01,3063.49 4293.01,3143.49 694.7,3143.49 "/>
  <path class="fil1" d="M1541.36 1339.61l1940.27 0c28.72,0 52.11,22.9 52.9,51.43l140.71 1371.95c2.96,28.99 -18.14,54.91 -47.13,57.87l-5.37 0.28 0 0.14 -2257.76 0c-29.22,0 -52.92,-23.7 -52.92,-52.92 0,-3.95 0.44,-7.79 1.26,-11.49l175.75 -1370.95c3.37,-26.65 26.11,-46.13 52.29,-46.1l0 -0.21zm1892.65 105.84l-1846.3 0 -162.81 1269.99 2139.36 0 -130.25 -1269.99z"/>
  <path class="fil1" d="M588.87 1339.61l529.16 0c29.22,0 52.92,23.7 52.92,52.92 0,3.21 -0.29,6.35 -0.83,9.4l-140.7 1371.79c-2.78,27.19 -25.74,47.43 -52.5,47.41l0 0.14 -388.05 0 0 -105.84 340.43 0 130.25 -1269.98 -470.68 0 0 -105.84z"/>
  <path class="fil1" d="M3869.69 1339.61l529.17 0 0 105.84 -469.25 0 162.82 1269.98 306.43 0 0 105.84 -352.78 0c-28.54,0 -51.81,-22.61 -52.88,-50.89l-175.8 -1371.24c-3.65,-28.87 16.81,-55.25 45.68,-58.9 2.22,-0.28 4.43,-0.42 6.61,-0.42l0 -0.21z"/>
 </g>
</svg>
