<?xml version="1.0" encoding="UTF-8"?>
<!DOCTYPE svg PUBLIC "-//W3C//DTD SVG 1.1//EN" "http://www.w3.org/Graphics/SVG/1.1/DTD/svg11.dtd">
<!-- Creator: CorelDRAW 2020 (64 Bit) -->
<svg xmlns="http://www.w3.org/2000/svg" xml:space="preserve" width="141.7323" height="141.7323"  version="1.1" style="shape-rendering:geometricPrecision; text-rendering:geometricPrecision; image-rendering:optimizeQuality; fill-rule:evenodd; clip-rule:evenodd"
viewBox="0 0 5000 5000"
 xmlns:xlink="http://www.w3.org/1999/xlink"
 xmlns:xodm="http://www.corel.com/coreldraw/odm/2003">
 <defs>
  <style type="text/css">
   <![CDATA[
    .fil0 {fill:#00d39b;fill-rule:nonzero}
   ]]>
  </style>
 </defs>
 <g id="__x0023_Layer_x0020_1">
  <metadata id="CorelCorpID_0Corel-Layer"/>
  <path class="fil0" d="M2488.13 1080.14c208.23,0 396.78,84.43 533.25,220.89 136.46,136.47 220.89,325.02 220.89,533.25 0,208.23 -84.43,396.77 -220.89,533.24 -136.47,136.46 -325.02,220.89 -533.25,220.89 -208.23,0 -396.77,-84.43 -533.24,-220.89 -136.46,-136.47 -220.89,-325.01 -220.89,-533.24 0,-208.23 84.43,-396.78 220.89,-533.25 136.47,-136.46 325.01,-220.89 533.24,-220.89zm458.43 295.71c-117.31,-117.3 -279.4,-189.87 -458.43,-189.87 -179.02,0 -341.11,72.57 -458.42,189.87 -117.3,117.31 -189.87,279.41 -189.87,458.43 0,179.02 72.57,341.11 189.87,458.42 117.31,117.3 279.4,189.87 458.42,189.87 179.02,0 341.12,-72.57 458.43,-189.87 117.3,-117.31 189.87,-279.4 189.87,-458.42 0,-179.03 -72.57,-341.12 -189.87,-458.43z"/>
  <path class="fil0" d="M2502.3 2636.28c345.96,0 659.29,138.63 886.17,362.72 227.15,224.37 367.66,534.22 367.66,876.38l-0.29 7.19c-0.34,28.9 -23.88,52.09 -52.71,52.09l0 0.21 -2401.63 0c-29.22,0 -52.92,-23.7 -52.92,-52.92l0.13 -6.57 -0.21 0c0,-342.14 140.51,-652.01 367.65,-876.37 226.88,-224.11 540.2,-362.73 886.15,-362.73zm812.17 437.96c-207.74,-205.19 -494.9,-332.12 -812.17,-332.12 -317.26,0 -604.41,126.94 -812.15,332.13 -197.18,194.76 -322.87,460.27 -334.86,754.78l2294.05 0c-11.99,-294.52 -137.69,-560.03 -334.87,-754.79z"/>
 </g>
</svg>
