<?xml version="1.0" encoding="UTF-8" standalone="no"?>
<svg
   xmlns:dc="http://purl.org/dc/elements/1.1/"
   xmlns:cc="http://creativecommons.org/ns#"
   xmlns:rdf="http://www.w3.org/1999/02/22-rdf-syntax-ns#"
   xmlns:svg="http://www.w3.org/2000/svg"
   xmlns="http://www.w3.org/2000/svg"
   viewBox="0 0 141.7323 141.7323"
   id="svg2"
   height="141.7323"
   width="141.7323"
   version="1.1">
  <metadata
     id="metadata10">
    <rdf:RDF>
      <cc:Work
         rdf:about="">
        <dc:format>image/svg+xml</dc:format>
        <dc:type
           rdf:resource="http://purl.org/dc/dcmitype/StillImage" />
      </cc:Work>
    </rdf:RDF>
  </metadata>
  <defs
     id="defs8" />
  <path
     id="path4"
     style="fill:#05d29c;fill-rule:evenodd"
     d="m 72.066,84.4061 -0.0257,-3e-4 -6e-4,0 C 71.4878,84.3993 70.9821,84.183 70.5988,83.8332 l -0.0734,-0.0666 c -0.388,-0.388 -0.6318,-0.9224 -0.6392,-1.5126 l 0,-0.0022 -3e-4,-0.0258 0,-31.4697 3e-4,-0.0258 0,-0.0022 c 0.0074,-0.586 0.2512,-1.1229 0.6404,-1.5154 0.3886,-0.3918 0.9226,-0.6387 1.5114,-0.6463 l 0.0023,0 0.0257,-3e-4 5.37,0 c 0.5522,0 1.0001,0.4478 1.0001,1 0,0.2381 -0.0837,0.457 -0.2226,0.6288 -0.8574,1.2571 -1.5338,2.6461 -1.9936,4.1298 -0.4512,1.4564 -0.6939,3.0115 -0.6939,4.6315 0,2.8142 0.7427,5.4507 2.0404,7.7238 1.336,2.3397 3.2635,4.2996 5.5777,5.6767 0.322,0.1664 0.542,0.502 0.542,0.8892 l 0,8.9799 -3e-4,0.0258 0,0.002 c -0.0073,0.585 -0.25,1.1171 -0.6372,1.5069 l -0.0057,0.0059 c -0.39,0.3884 -0.9229,0.6319 -1.5089,0.6392 l -0.0022,0 -0.0258,3e-4 -9.44,0 z m 19.3899,-34.0999 1.2101,0 c 0.22,0 0.4099,0.18 0.4099,0.3999 l 0,1.5702 -0.0099,0.03 c 0.21,0.03 0.42,0.0499 0.64,0.0899 0.5499,0.0802 1.16,0.21 1.8301,0.39 l 0,2.41 c -0.6401,-0.3098 -1.2402,-0.5499 -1.8202,-0.72 -0.57,-0.1701 -1.0598,-0.25 -1.4598,-0.25 -0.4501,0 -0.8002,0.07 -1.05,0.22 -0.2602,0.1502 -0.39,0.3501 -0.39,0.6001 0,0.18 0.0799,0.35 0.2299,0.5099 0.1499,0.15 0.3801,0.29 0.6899,0.4201 l 1.55,0.6698 c 1.3,0.5502 2.1801,1.0701 2.63,1.5401 0.4501,0.47 0.6701,1.0301 0.6701,1.6801 0,1.0001 -0.4399,1.8099 -1.3201,2.4299 -0.5998,0.4201 -1.33,0.6902 -2.19,0.8299 l 0,1.3601 c 0,0.2302 -0.1899,0.4102 -0.4099,0.4102 l -1.2101,0 c -0.22,0 -0.4099,-0.18 -0.4099,-0.4102 l 0,-1.29 c -0.29,-0.0199 -0.5899,-0.0499 -0.9,-0.0998 -0.58,-0.0802 -1.22,-0.2001 -1.91,-0.3702 l -0.2699,-2.74 c 0.8198,0.3801 1.5098,0.65 2.0798,0.8101 0.5701,0.15 1.1302,0.2299 1.6702,0.2299 0.5499,0 0.9899,-0.0898 1.3198,-0.28 0.3302,-0.18 0.5,-0.4198 0.5,-0.72 0,-0.4099 -0.5899,-0.8898 -1.7798,-1.41 l -0.44,-0.1998 -0.8901,-0.3901 c -0.8699,-0.3801 -1.5199,-0.82 -1.94,-1.2999 -0.4201,-0.4802 -0.6301,-1.0202 -0.6301,-1.6302 0,-0.83 0.4002,-1.5101 1.2101,-2.0399 0.5499,-0.36 1.2101,-0.6 1.9899,-0.71 l -0.0099,-0.07 0,-1.5702 c 0,-0.2199 0.1899,-0.3999 0.4099,-0.3999 z M 46.7561,37.2163 c 0,-1.4791 -0.5468,-2.3363 -1.2464,-2.6699 -0.2608,-0.1244 -0.5397,-0.1848 -0.8133,-0.1848 -0.2823,0 -0.5717,0.0635 -0.8433,0.1862 -0.6882,0.3104 -1.2268,1.0412 -1.2268,2.1385 l 0,53.6697 c 0,0.8283 -0.6718,1.5001 -1.5001,1.5001 l -11.13,0 c -0.3883,0 -0.7404,0.1766 -1.0136,0.4519 -0.3249,0.3268 -0.5463,0.7769 -0.6163,1.2543 l 0,0.6537 c 0.0289,0.1837 0.0876,0.3693 0.1786,0.5482 0.0989,0.1942 0.2372,0.3787 0.4192,0.5442 l 0.0573,0.0547 c 0.1624,0.1367 0.3399,0.2461 0.5414,0.3215 0.2446,0.0916 0.555,0.1414 0.9536,0.1414 l 10.6098,0 c 0.8283,0 1.5001,0.6719 1.5001,1.5001 l 0,8.7098 c 0,1.1021 0.5391,1.8351 1.2282,2.1467 0.2721,0.123 0.5616,0.1865 0.8436,0.1868 0.2736,0 0.5525,-0.0604 0.8133,-0.1849 0.6987,-0.3333 1.2447,-1.1897 1.2447,-2.6685 l 0,-8.1899 c 0,-0.8282 0.6718,-1.5001 1.5001,-1.5001 l 63.9898,0 c 0.5295,0 0.9783,-0.1981 1.3079,-0.5065 0.2118,-0.1981 0.3835,-0.4482 0.5046,-0.7268 l 0.0241,-0.0524 c 0.0998,-0.2498 0.1533,-0.5245 0.1533,-0.8057 0,-0.4543 -0.1545,-0.9102 -0.4997,-1.2789 l -0.006,0 c -0.1295,-0.1395 -0.373,-0.3311 -0.6514,-0.4777 -0.1349,-0.0711 -0.2511,-0.1219 -0.303,-0.1219 l -64.5199,0 c -0.8283,0 -1.5001,-0.6718 -1.5001,-1.5001 l 0,-53.1397 z m -7.13,-0.53 c 0,-2.4356 1.3153,-4.1103 2.9968,-4.8688 0.648,-0.2926 1.3583,-0.4439 2.0735,-0.4442 0.724,-3e-4 1.4443,0.1519 2.1025,0.466 1.6602,0.7917 2.9574,2.5495 2.9574,5.377 l 0,51.6396 63.0198,0 0.0272,3e-4 0.0116,3e-4 c 0.5675,0.0085 1.1444,0.2024 1.6589,0.4734 0.5884,0.3098 1.1358,0.7503 1.4479,1.0865 l -0.003,0.0028 c 0.9108,0.9743 1.3175,2.153 1.3175,3.3154 0,0.6673 -0.14,1.3371 -0.3999,1.9639 l -0.0355,0.0893 c -0.2766,0.6364 -0.6868,1.2243 -1.2075,1.7115 -0.8638,0.8085 -2.0138,1.3269 -3.3472,1.3269 l -62.4897,0 0,6.6898 c 0,2.8264 -1.296,4.5836 -2.9557,5.3756 -0.6582,0.3141 -1.3785,0.4663 -2.1025,0.466 -0.7152,-5e-4 -1.4258,-0.1519 -2.0738,-0.4447 -1.6818,-0.7603 -2.9982,-2.4378 -2.9982,-4.877 l 0,-7.2097 -9.1097,0 c -0.7515,0 -1.4066,-0.1204 -1.9967,-0.341 -0.5656,-0.2117 -1.0455,-0.5102 -1.4724,-0.8796 l -0.0986,-0.0822 c -0.4646,-0.4226 -0.8198,-0.8977 -1.0758,-1.3997 -0.2525,-0.4969 -0.4093,-1.0256 -0.4793,-1.5619 -0.0179,-0.0924 -0.0275,-0.1879 -0.0275,-0.2857 l 0,-0.7702 c 0,-0.0989 0.0099,-0.1956 0.0281,-0.2891 0.1488,-1.137 0.6777,-2.2235 1.4675,-3.0184 0.8124,-0.8181 1.8952,-1.3425 3.1345,-1.3425 l 9.6299,0 0,-52.1696 z m 52.56,11.69 c -5.5202,0 -9.9902,4.4 -9.9902,9.83 0,5.44 4.47,9.8399 9.9902,9.8399 5.5199,0 9.9898,-4.3999 9.9898,-9.8399 0,-5.43 -4.4699,-9.83 -9.9898,-9.83 z m 0,-4.0699 0,0 c 7.81,0 14.1298,6.2197 14.1298,13.8999 0,3.0201 -0.97,5.8099 -2.6299,8.0901 l 11.4499,11.6396 c 0.9601,0.97 0.98,2.5399 0.0202,3.5099 -0.9601,0.97 -2.5402,0.9901 -3.5,0.0102 l -11.48,-11.67 -0.0601,-0.0598 c -2.2601,1.5098 -4.9901,2.3896 -7.9299,2.3896 -7.8001,0 -14.1302,-6.2197 -14.1302,-13.9096 0,-7.6802 6.3301,-13.8999 14.1302,-13.8999 z M 54.2066,60.1183 c 0.0074,-0.5856 0.2512,-1.1231 0.6404,-1.5154 0.3881,-0.3918 0.9221,-0.6386 1.5111,-0.6463 l 0.0023,0 0.0258,-3e-4 9.4399,0 0.0258,3e-4 0.0023,0 c 0.5888,0.0077 1.1228,0.2545 1.5114,0.6463 0.3892,0.3923 0.633,0.9298 0.6404,1.5154 l 0,0.0023 3e-4,0.0258 0,21.9996 -3e-4,0.0258 0,0.0023 c -0.0074,0.5873 -0.2506,1.1205 -0.6389,1.5092 l 0,0.0037 c -0.3884,0.3883 -0.923,0.6315 -1.5129,0.6389 l -0.0023,0 -0.0258,3e-4 -9.4399,0 -0.0258,-3e-4 -0.0023,0 C 55.7688,84.3185 55.2339,84.0753 54.8456,83.687 l -0.0652,-0.0718 c -0.3507,-0.3823 -0.567,-0.8883 -0.5738,-1.4428 l 0,-6e-4 -2e-4,-0.0258 0,-21.9996 2e-4,-0.0258 0,-0.0023 z m 2.1731,-0.1619 c -0.0457,0.002 -0.0882,0.0222 -0.1188,0.053 -0.0315,0.0318 -0.0521,0.0766 -0.0544,0.1268 l 0,0.0034 0,0.0017 0,0.0017 0,0.0034 0,21.9996 c 0,0.0411 0.013,0.0791 0.0346,0.1092 l 0.0184,0.0178 c 0.0326,0.0326 0.0777,0.053 0.1267,0.053 l 9.4399,0 c 0.0491,0 0.0944,-0.0204 0.127,-0.053 0.0335,-0.0306 0.053,-0.0762 0.053,-0.127 l 0,-21.9996 c 0,-0.0545 -0.0209,-0.1032 -0.0544,-0.137 -0.0323,-0.0325 -0.0768,-0.053 -0.1256,-0.053 l -9.4399,0 -0.0031,0 -0.0014,0 -0.002,0 z m 30.2882,13.9397 c 0.6936,0.2047 1.4079,0.3623 2.137,0.468 0.7345,0.1066 1.4936,0.1619 2.2711,0.1619 1.1804,0 2.3213,-0.1279 3.4093,-0.3717 l 0.0385,-0.0076 c 1.0857,-0.2461 2.1379,-0.6132 3.1411,-1.0882 0.138,-0.072 0.2948,-0.1126 0.4612,-0.1126 0.5522,0 1,0.4479 1,1.0001 l 0,8.2301 -2e-4,0.0258 0,0.0023 c -0.0074,0.5893 -0.2506,1.1242 -0.639,1.5125 l -0.0717,0.0652 c -0.3824,0.3507 -0.8884,0.567 -1.4428,0.5738 l -6e-4,0 -0.0258,2e-4 -9.4399,0 -0.0258,-2e-4 -0.0023,0 c -0.5873,-0.0074 -1.1205,-0.2506 -1.5091,-0.639 l -0.0037,0 c -0.3884,-0.3883 -0.6316,-0.9232 -0.639,-1.5125 l 0,-0.0023 -2e-4,-0.0258 0,-7.34 c 0,-0.5522 0.4478,-1.0001 1,-1.0001 0.1202,0 0.2353,0.0213 0.3419,0.0601 z m 10.4581,1.5542 c -0.6982,0.2574 -1.4204,0.4714 -2.1631,0.6398 l -0.04,0.0099 c -1.2472,0.2795 -2.5353,0.4261 -3.8469,0.4261 -0.8589,0 -1.7124,-0.063 -2.5523,-0.1851 -0.4042,-0.0587 -0.8039,-0.1307 -1.1976,-0.2163 l 0,6.0514 c 0,0.049 0.0204,0.0941 0.053,0.1267 0.0306,0.0335 0.0762,0.053 0.127,0.053 l 9.4399,0 c 0.0411,0 0.0791,-0.013 0.1091,-0.0346 l 0.0179,-0.0184 c 0.0326,-0.0326 0.053,-0.0777 0.053,-0.1267 l 0,-6.7258 z m -25.24,6.7822 c 0.002,0.0459 0.0224,0.0893 0.0533,0.1202 l 0.0199,0.0204 c 0.0272,0.0193 0.0618,0.0315 0.1003,0.0329 l 0.0026,0 8e-4,0 0.0031,0 9.44,0 c 0.0513,0 0.0964,-0.0193 0.1267,-0.0496 l 0.0037,-0.0037 c 0.0303,-0.0303 0.0496,-0.0754 0.0496,-0.1267 l 0,-8.422 c -2.4129,-1.5336 -4.4289,-3.6443 -5.8538,-6.1396 -1.467,-2.5693 -2.3063,-5.5423 -2.3063,-8.708 0,-1.8128 0.2752,-3.5649 0.7875,-5.2178 0.3432,-1.108 0.7937,-2.1696 1.3396,-3.1722 l -3.587,0 c -0.0487,0 -0.0932,0.0204 -0.1255,0.053 -0.0335,0.0337 -0.0545,0.0825 -0.0545,0.1369 l 0,31.4697 0,0.0031 0,0.0014 0,0.002 z" />
</svg>
