<?xml version="1.0" encoding="UTF-8"?>
<!DOCTYPE svg PUBLIC "-//W3C//DTD SVG 1.1//EN" "http://www.w3.org/Graphics/SVG/1.1/DTD/svg11.dtd">
<!-- Creator: CorelDRAW 2020 (64 Bit) -->
<svg xmlns="http://www.w3.org/2000/svg" xml:space="preserve" width="141.7323" height="141.7323" version="1.1" style="shape-rendering:geometricPrecision; text-rendering:geometricPrecision; image-rendering:optimizeQuality; fill-rule:evenodd; clip-rule:evenodd"
viewBox="0 0 5000 5000"
 xmlns:xlink="http://www.w3.org/1999/xlink"
 xmlns:xodm="http://www.corel.com/coreldraw/odm/2003">
 <defs>
  <style type="text/css">
   <![CDATA[
    .fil0 {fill:#05D29C;fill-rule:nonzero}
   ]]>
  </style>
 </defs>
 <g id="__x0023_Layer_x0020_1">
  <metadata id="CorelCorpID_0Corel-Layer"/>
  <path class="fil0" d="M2542.33 2977.66l-0.91 -0.01 -0.02 0c-19.47,-0.23 -37.31,-7.86 -50.83,-20.2l-2.59 -2.35c-13.69,-13.69 -22.29,-32.54 -22.55,-53.36l0 -0.08 -0.01 -0.91 0 -1110.18 0.01 -0.91 0 -0.08c0.26,-20.67 8.86,-39.61 22.59,-53.46 13.71,-13.82 32.55,-22.53 53.32,-22.8l0.08 0 0.91 -0.01 189.44 0c19.48,0 35.28,15.8 35.28,35.28 0,8.4 -2.95,16.12 -7.85,22.18 -30.25,44.35 -54.11,93.35 -70.33,145.69 -15.92,51.38 -24.48,106.24 -24.48,163.39 0,99.28 26.2,192.29 71.98,272.48 47.13,82.54 115.13,151.68 196.77,200.26 11.36,5.87 19.12,17.71 19.12,31.37l0 316.79 -0.01 0.91 0 0.07c-0.26,20.64 -8.82,39.41 -22.48,53.16l-0.2 0.21c-13.76,13.7 -32.56,22.29 -53.23,22.55l-0.08 0 -0.91 0.01 -333.02 0zm684.03 -1202.97l42.69 0c7.76,0 14.46,6.35 14.46,14.11l0 55.39 -0.35 1.06c7.41,1.06 14.82,1.76 22.58,3.17 19.4,2.83 40.92,7.41 64.56,13.76l0 85.02c-22.58,-10.93 -43.75,-19.4 -64.21,-25.4 -20.11,-6 -37.39,-8.82 -51.5,-8.82 -15.88,0 -28.23,2.47 -37.04,7.76 -9.18,5.3 -13.76,12.35 -13.76,21.17 0,6.35 2.82,12.35 8.11,17.99 5.29,5.29 13.41,10.23 24.34,14.82l54.68 23.63c45.86,19.41 76.91,37.75 92.78,54.33 15.88,16.58 23.64,36.34 23.64,59.27 0,35.28 -15.52,63.85 -46.57,85.72 -21.16,14.82 -46.92,24.35 -77.26,29.28l0 47.98c0,8.12 -6.7,14.47 -14.46,14.47l-42.69 0c-7.76,0 -14.46,-6.35 -14.46,-14.47l0 -45.51c-10.23,-0.7 -20.81,-1.76 -31.75,-3.52 -20.46,-2.83 -43.04,-7.06 -67.38,-13.06l-9.52 -96.66c28.92,13.41 53.26,22.93 73.37,28.58 20.11,5.29 39.87,8.11 58.92,8.11 19.4,0 34.92,-3.17 46.56,-9.88 11.65,-6.35 17.64,-14.81 17.64,-25.4 0,-14.46 -20.81,-31.39 -62.79,-49.74l-15.52 -7.05 -31.4 -13.76c-30.69,-13.41 -53.62,-28.93 -68.44,-45.86 -14.82,-16.94 -22.23,-35.99 -22.23,-57.51 0,-29.28 14.12,-53.27 42.69,-71.96 19.4,-12.7 42.69,-21.17 70.2,-25.05l-0.35 -2.47 0 -55.39c0,-7.76 6.7,-14.11 14.46,-14.11zm-1576.91 -461.78c0,-52.18 -19.29,-82.42 -43.97,-94.19 -9.2,-4.39 -19.04,-6.52 -28.69,-6.52 -9.96,0 -20.17,2.24 -29.75,6.57 -24.28,10.95 -43.28,36.73 -43.28,75.44l0 1893.35c0,29.22 -23.7,52.92 -52.92,52.92l-392.64 0c-13.7,0 -26.12,6.23 -35.76,15.94 -11.46,11.53 -19.27,27.41 -21.74,44.25l0 23.06c1.02,6.48 3.09,13.03 6.3,19.34 3.49,6.85 8.37,13.36 14.79,19.2l2.02 1.93c5.73,4.82 11.99,8.68 19.1,11.34 8.63,3.23 19.58,4.99 33.64,4.99l374.29 0c29.22,0 52.92,23.7 52.92,52.92l0 307.26c0,38.88 19.02,64.74 43.33,75.73 9.6,4.34 19.81,6.58 29.76,6.59 9.65,0 19.49,-2.13 28.69,-6.52 24.65,-11.76 43.91,-41.97 43.91,-94.14l0 -288.92c0,-29.22 23.7,-52.92 52.92,-52.92l2257.42 0c18.68,0 34.51,-6.99 46.14,-17.87 7.47,-6.99 13.53,-15.81 17.8,-25.64l0.85 -1.85c3.52,-8.81 5.41,-18.5 5.41,-28.42 0,-16.03 -5.45,-32.11 -17.63,-45.12l-0.2 0c-4.57,-4.92 -13.16,-11.68 -22.98,-16.85 -4.76,-2.51 -8.86,-4.3 -10.69,-4.3l-2276.12 0c-29.22,0 -52.92,-23.7 -52.92,-52.92l0 -1874.65zm-251.53 -18.7c0,-85.92 46.4,-145 105.72,-171.76 22.86,-10.32 47.92,-15.66 73.15,-15.67 25.54,-0.01 50.95,5.36 74.17,16.44 58.57,27.93 104.33,89.94 104.33,189.69l0 1821.73 2223.2 0 0.96 0.01 0.41 0.01c20.02,0.3 40.37,7.14 58.52,16.7 20.76,10.93 40.07,26.47 51.08,38.33l-0.11 0.1c32.13,34.37 46.48,75.95 46.48,116.96 0,23.54 -4.94,47.17 -14.11,69.28l-1.25 3.15c-9.76,22.45 -24.23,43.19 -42.6,60.38 -30.47,28.52 -71.04,46.81 -118.08,46.81l-2204.5 0 0 236c0,99.71 -45.72,161.7 -104.27,189.64 -23.22,11.08 -48.63,16.45 -74.17,16.44 -25.23,-0.02 -50.3,-5.36 -73.16,-15.69 -59.33,-26.82 -105.77,-86 -105.77,-172.05l0 -254.34 -321.37 0c-26.51,0 -49.62,-4.25 -70.44,-12.03 -19.95,-7.47 -36.88,-18 -51.94,-31.03l-3.48 -2.9c-16.39,-14.91 -28.92,-31.67 -37.95,-49.38 -8.91,-17.53 -14.44,-36.18 -16.91,-55.1 -0.63,-3.26 -0.97,-6.63 -0.97,-10.08l0 -27.17c0,-3.49 0.35,-6.9 0.99,-10.2 5.25,-40.11 23.91,-78.44 51.77,-106.48 28.66,-28.86 66.86,-47.36 110.58,-47.36l339.72 0 0 -1840.43zm1854.2 412.4c-194.74,0 -352.43,155.22 -352.43,346.78 0,191.91 157.69,347.13 352.43,347.13 194.73,0 352.42,-155.22 352.42,-347.13 0,-191.56 -157.69,-346.78 -352.42,-346.78zm0 -143.58l0 0c275.52,0 498.47,219.42 498.47,490.36 0,106.54 -34.22,204.96 -92.78,285.4l403.93 410.62c33.87,34.22 34.57,89.6 0.71,123.82 -33.87,34.22 -89.61,34.93 -123.47,0.36l-404.99 -411.69 -2.12 -2.11c-79.73,53.26 -176.04,84.3 -279.75,84.3 -275.17,0 -498.48,-219.42 -498.48,-490.7 0,-270.94 223.31,-490.36 498.48,-490.36zm-1339.83 557.81c0.26,-20.66 8.86,-39.62 22.59,-53.46 13.69,-13.82 32.53,-22.53 53.31,-22.8l0.08 0 0.91 -0.01 333.02 0 0.91 0.01 0.08 0c20.77,0.27 39.61,8.98 53.32,22.8 13.73,13.84 22.33,32.8 22.59,53.46l0 0.08 0.01 0.91 0 776.1 -0.01 0.91 0 0.08c-0.26,20.72 -8.84,39.53 -22.54,53.24l0 0.13c-13.7,13.7 -32.56,22.28 -53.37,22.54l-0.08 0 -0.91 0.01 -333.02 0 -0.91 -0.01 -0.08 0c-20.79,-0.26 -39.66,-8.84 -53.36,-22.54l-2.3 -2.53c-12.37,-13.49 -20,-31.34 -20.24,-50.9l0 -0.02 -0.01 -0.91 0 -776.1 0.01 -0.91 0 -0.08zm76.66 -5.71c-1.61,0.07 -3.11,0.78 -4.19,1.87 -1.11,1.12 -1.84,2.7 -1.92,4.47l0 0.12 0 0.06 0 0.06 0 0.12 0 776.1c0,1.45 0.46,2.79 1.22,3.85l0.65 0.63c1.15,1.15 2.74,1.87 4.47,1.87l333.02 0c1.73,0 3.33,-0.72 4.48,-1.87 1.18,-1.08 1.87,-2.69 1.87,-4.48l0 -776.1c0,-1.92 -0.74,-3.64 -1.92,-4.83 -1.14,-1.15 -2.71,-1.87 -4.43,-1.87l-333.02 0 -0.11 0 -0.05 0 -0.07 0zm1068.5 491.76c24.47,7.22 49.67,12.78 75.39,16.51 25.91,3.76 52.69,5.71 80.12,5.71 41.64,0 81.89,-4.51 120.27,-13.11l1.36 -0.27c38.3,-8.68 75.42,-21.63 110.81,-38.39 4.87,-2.54 10.4,-3.97 16.27,-3.97 19.48,0 35.28,15.8 35.28,35.28l0 290.34 -0.01 0.91 0 0.08c-0.26,20.79 -8.84,39.66 -22.54,53.36l-2.53 2.3c-13.49,12.37 -31.34,20 -50.9,20.24l-0.02 0 -0.91 0.01 -333.02 0 -0.91 -0.01 -0.08 0c-20.72,-0.26 -39.53,-8.84 -53.24,-22.54l-0.13 0c-13.7,-13.7 -22.28,-32.57 -22.54,-53.36l0 -0.08 -0.01 -0.91 0 -258.94c0,-19.48 15.8,-35.28 35.28,-35.28 4.24,0 8.3,0.75 12.06,2.12zm368.94 54.83c-24.63,9.08 -50.11,16.63 -76.31,22.57l-1.41 0.35c-44,9.86 -89.44,15.03 -135.71,15.03 -30.3,0 -60.41,-2.22 -90.04,-6.53 -14.26,-2.07 -28.36,-4.61 -42.25,-7.63l0 213.48c0,1.73 0.72,3.32 1.87,4.47 1.08,1.18 2.69,1.87 4.48,1.87l333.02 0c1.45,0 2.79,-0.46 3.85,-1.22l0.63 -0.65c1.15,-1.15 1.87,-2.74 1.87,-4.47l0 -237.27zm-890.41 239.26c0.07,1.62 0.79,3.15 1.88,4.24l0.7 0.72c0.96,0.68 2.18,1.11 3.54,1.16l0.09 0 0.03 0 0.11 0 333.02 0c1.81,0 3.4,-0.68 4.47,-1.75l0.13 -0.13c1.07,-1.07 1.75,-2.66 1.75,-4.47l0 -297.11c-85.12,-54.1 -156.24,-128.56 -206.51,-216.59 -51.75,-90.64 -81.36,-195.52 -81.36,-307.2 0,-63.95 9.71,-125.76 27.78,-184.07 12.11,-39.09 28,-76.54 47.26,-111.91l-126.54 0c-1.72,0 -3.29,0.72 -4.43,1.87 -1.18,1.19 -1.92,2.91 -1.92,4.83l0 1110.18 0 0.11 0 0.05 0 0.07z"/>
 </g>
</svg>
